<svg id="Group_28257" data-name="Group 28257" xmlns="http://www.w3.org/2000/svg" width="154.421" height="148.193" viewBox="0 0 154.421 148.193">
  <path id="Path_25194" data-name="Path 25194" d="M51.295,0c23.578-.052,63.933,50.47,63.933,80.236s-7.285,44.692-41.612,44.692S0,107.815,0,78.049,27.716.052,51.295,0Z" transform="matrix(0.309, 0.951, -0.951, 0.309, 118.814, 0)" fill="#ff727d"/>
  <g id="Manageable" transform="translate(50.425 28.758)">
    <g id="g6205" transform="translate(0 0)">
      <g id="g6364">
        <path id="path12315" d="M14.629,1021.432q0,.051,0,.1a1.633,1.633,0,0,0-.308.2,14.7,14.7,0,0,0-7.39,12.728,14.523,14.523,0,0,0,6.569,11.907v3.7H3.646q-.051,0-.1,0A1.642,1.642,0,0,0,2,1051.709v55.839a1.642,1.642,0,0,0,1.642,1.642h3.9a14.049,14.049,0,0,0-.616,4.106,14.866,14.866,0,0,0,7.39,12.83,1.642,1.642,0,0,0,2.463-1.437v-10.367l4.927-2.464,4.927,2.464v10.367a1.643,1.643,0,0,0,2.464,1.438,14.852,14.852,0,0,0,7.39-12.831,14.119,14.119,0,0,0-.616-4.106H92.331a1.643,1.643,0,0,0,1.642-1.642v-55.839a1.642,1.642,0,0,0-1.642-1.642H61.025v-9.854H35.158a13.34,13.34,0,0,0,1.334-5.748,14.7,14.7,0,0,0-7.39-12.728,1.642,1.642,0,0,0-2.463,1.437v10.265l-4.927,2.463-4.927-2.463v-10.265a1.643,1.643,0,0,0-2.156-1.745Zm-1.129,5.543v7.493a1.642,1.642,0,0,0,.924,1.437l6.569,3.285a1.641,1.641,0,0,0,1.437,0L29,1035.9a1.642,1.642,0,0,0,.924-1.437v-7.493a11.192,11.192,0,0,1,3.285,7.493,11.513,11.513,0,0,1-5.748,9.956,1.642,1.642,0,0,0-.821,1.437v56.146a1.643,1.643,0,0,0,.821,1.437,11.344,11.344,0,0,1,5.748,9.854,11.173,11.173,0,0,1-3.285,7.493V1113.3a1.642,1.642,0,0,0-.924-1.437l-6.569-3.285a1.642,1.642,0,0,0-1.437,0l-6.569,3.285a1.644,1.644,0,0,0-.924,1.437v7.493a11.192,11.192,0,0,1-3.285-7.493,11.347,11.347,0,0,1,5.748-9.854,1.642,1.642,0,0,0,.821-1.437v-56.146a1.643,1.643,0,0,0-.821-1.437,11.512,11.512,0,0,1-5.748-9.956,11.192,11.192,0,0,1,3.285-7.493Zm21.453,13.652v9.443h-5.03v-3.7A15.787,15.787,0,0,0,34.953,1040.626Zm3.285,2.874h19.5v6.569h-19.5Zm-32.949,9.854H13.5v21.761a9.109,9.109,0,0,1-8.212-9.135v-12.625Zm24.635,0H90.689v12.625c0,5.058-4.315,9.238-9.854,9.238H54.558v-1.642a1.642,1.642,0,0,0-1.642-1.642H43.062a1.41,1.41,0,0,0-1.642,1.642v1.642h-11.5Zm60.765,20.734v31.82H34.234a15.8,15.8,0,0,0-4.311-4.516V1078.5h11.5v1.642a1.642,1.642,0,0,0,1.642,1.642h9.854a1.642,1.642,0,0,0,1.642-1.642V1078.5H80.835a13.314,13.314,0,0,0,9.854-4.414Zm-85.4.2A12.753,12.753,0,0,0,13.5,1078.4v22.992a15.864,15.864,0,0,0-4.414,4.516h-3.8Zm39.415.924h6.569v3.285H44.7Z" transform="translate(-2.004 -1021.343)"/>
      </g>
    </g>
  </g>
</svg>
