<svg xmlns="http://www.w3.org/2000/svg" width="154.421" height="148.193" viewBox="0 0 154.421 148.193">
  <g id="Group_28419" data-name="Group 28419" transform="translate(-1248.145 -923)">
    <path id="Path_25194" data-name="Path 25194" d="M51.295,0c23.578-.052,63.933,50.47,63.933,80.236s-7.285,44.692-41.612,44.692S0,107.815,0,78.049,27.716.052,51.295,0Z" transform="matrix(0.309, 0.951, -0.951, 0.309, 1366.959, 923)" fill="#3baad3"/>
    <g id="Group_28418" data-name="Group 28418">
      <path id="Path_31578" data-name="Path 31578" d="M29.043,17a6.043,6.043,0,0,0-6.049,6.006V37.094H19.671a6.034,6.034,0,0,0-6.05,6.006v4.238A6.013,6.013,0,0,0,19.234,53.3V80.812A14.564,14.564,0,0,0,33.848,95.293h.319v11.712a8.167,8.167,0,0,0,8.19,8.124H56.929a8.167,8.167,0,0,0,8.19-8.124V95.293h.32A14.564,14.564,0,0,0,80.052,80.812V53.3a6.013,6.013,0,0,0,5.614-5.962V43.1a6.034,6.034,0,0,0-6.05-6.006H76.293V23.006a6.05,6.05,0,0,0-12.1,0V37.094h-29.1V23.006A6.034,6.034,0,0,0,29.043,17Zm-2.513,6.006a2.514,2.514,0,0,1,5.028,0V37.09H26.529Zm41.2,0a2.515,2.515,0,0,1,5.028,0V37.09H67.729V23.006Zm-6.145,84a4.627,4.627,0,0,1-4.655,4.589H42.357a4.627,4.627,0,0,1-4.655-4.589V95.293H61.584v11.712ZM76.516,80.812A11.024,11.024,0,0,1,65.439,91.758H33.848A11.025,11.025,0,0,1,22.77,80.812V53.343H76.516V80.812ZM82.13,43.1v4.238a2.5,2.5,0,0,1-2.514,2.47H19.671a2.5,2.5,0,0,1-2.514-2.47V43.1a2.5,2.5,0,0,1,2.514-2.47H79.616A2.5,2.5,0,0,1,82.13,43.1Z" transform="translate(1296.735 952.064)" fill="#010101"/>
      <path id="Path_31579" data-name="Path 31579" d="M23.113,41.1a1.768,1.768,0,0,0,1.768-1.768V34.917a1.768,1.768,0,1,0-3.535,0v4.419A1.768,1.768,0,0,0,23.113,41.1Zm0,14.141a1.768,1.768,0,0,0,1.768-1.768V46.265a1.768,1.768,0,1,0-3.535,0v7.212A1.768,1.768,0,0,0,23.113,55.245Z" transform="translate(1301.664 979.976)" fill="#010101"/>
    </g>
  </g>
</svg>
