<svg xmlns="http://www.w3.org/2000/svg" width="154.421" height="148.193" viewBox="0 0 154.421 148.193">
  <g id="Group_28417" data-name="Group 28417" transform="translate(-801.856 -923)">
    <path id="Path_25194" data-name="Path 25194" d="M51.295,0c23.578-.052,63.933,50.47,63.933,80.236s-7.285,44.692-41.612,44.692S0,107.815,0,78.049,27.716.052,51.295,0Z" transform="matrix(0.309, 0.951, -0.951, 0.309, 920.669, 923)" fill="#ffb623"/>
    <g id="Group_28416" data-name="Group 28416" transform="translate(851.775 967.772)">
      <path id="Path_31575" data-name="Path 31575" d="M45.649.58A44.738,44.738,0,0,0,25.568,5.27a1.437,1.437,0,1,0,1.291,2.567,42.221,42.221,0,0,1,53.86,61.29,1.434,1.434,0,0,0,.387,1.994,1.535,1.535,0,0,0,.8.244,1.434,1.434,0,0,0,1.191-.631A45.082,45.082,0,0,0,45.649.58Zm31.8,72.808a40.163,40.163,0,0,1-4.059,4.059,1.438,1.438,0,0,0,1.893,2.166,45.727,45.727,0,0,0,4.3-4.3,1.438,1.438,0,1,0-2.166-1.893Zm-7.774,6.971A42.213,42.213,0,0,1,13.548,18.237a1.434,1.434,0,0,0-2.18-1.865A45.082,45.082,0,0,0,71.309,82.711a1.432,1.432,0,0,0-1.635-2.352ZM16.015,15.053a1.434,1.434,0,0,0,.947-.387c.588-.545,1.176-1.061,1.793-1.563a1.434,1.434,0,1,0-1.793-2.209c-.66.531-1.291,1.09-1.922,1.664a1.434,1.434,0,0,0,.975,2.5Zm5.164-4.1a1.434,1.434,0,0,0,.8-.244l.359-.244a1.438,1.438,0,0,0-1.592-2.4l-.387.287a1.418,1.418,0,0,0,.818,2.6Z" transform="translate(0 0)"/>
      <path id="Path_31576" data-name="Path 31576" d="M68.58,47.269,67.6,17.936a4.776,4.776,0,0,0-9.538,0l-.99,29.447c-3.026,4.719-1.836,7.014-.158,9.309a7.014,7.014,0,0,1,1.191,2.037c.789,2.6-2.238,5.737-3.457,6.641a1.434,1.434,0,0,0,.7,2.553,16.681,16.681,0,0,0,2.367.158A12.909,12.909,0,0,0,68.58,47.269ZM60.921,18.037a1.908,1.908,0,0,1,3.815,0l.947,28.329H59.945ZM67.261,59.7a9.8,9.8,0,0,1-8.377,5.465c1.434-1.822,2.869-4.475,2.008-7.272a9.3,9.3,0,0,0-1.635-2.869c-1.176-1.563-1.879-2.582,0-5.737h7.172A9.868,9.868,0,0,1,67.261,59.7Zm-15.448-24.7a14.846,14.846,0,0,0-1.764-15.477,16.352,16.352,0,0,0-15.577-6.67,27.783,27.783,0,0,0,4.3,55.237,27.081,27.081,0,0,0,4.533-.373,6.2,6.2,0,0,0,4.719-3.6,6.5,6.5,0,0,0-.33-6.053,2.108,2.108,0,0,0-.33-.445c-7.358-6.871-4-11.088.244-16.423a35.4,35.4,0,0,0,4.2-6.2Zm-6.6,24.571a3.7,3.7,0,0,1,.229,3.356A3.414,3.414,0,0,1,42.862,64.9a24.915,24.915,0,0,1-18.345-45.01,24.384,24.384,0,0,1,10.4-4.188,12.551,12.551,0,0,1,1.922-.158,13.655,13.655,0,0,1,10.9,5.737A11.991,11.991,0,0,1,49.173,33.8a32,32,0,0,1-3.9,5.666c-4.26,5.379-9.151,11.5-.057,20.11Z" transform="translate(4.508 5.264)"/>
      <path id="Path_31577" data-name="Path 31577" d="M36.516,18.13a7.172,7.172,0,1,0-4.389,12.723h.9a7.172,7.172,0,0,0,3.485-12.68ZM35.5,26.349a4.217,4.217,0,0,1-2.869,1.606,4.3,4.3,0,0,1-3.858-6.813,4.117,4.117,0,0,1,2.869-1.606,3.313,3.313,0,0,1,.531,0,4.226,4.226,0,0,1,4.2,3.758,4.174,4.174,0,0,1-.875,3.055ZM21.957,40.664a6.5,6.5,0,0,0,.746,0,6.01,6.01,0,1,0-.746,0ZM21.6,31.556h.387a2.758,2.758,0,1,1-.387,0ZM28.34,47.535A5.393,5.393,0,1,0,23.033,53.6h.688A5.408,5.408,0,0,0,28.34,47.535ZM23.305,50.7a2.524,2.524,0,1,1-.631-5.006h.316a2.524,2.524,0,0,1,.316,5.035Zm9.223.416a5.015,5.015,0,0,0,.545,9.983h.645a5.02,5.02,0,0,0-1.248-9.954Zm.889,7.172a2.168,2.168,0,1,1-.531-4.3h.273a2.108,2.108,0,0,1,1.305.445,2.152,2.152,0,0,1-1.047,3.815Z" transform="translate(6.838 6.92)"/>
    </g>
  </g>
</svg>
