<svg xmlns="http://www.w3.org/2000/svg" width="86" height="86" viewBox="0 0 86 86">
  <g id="_1" data-name="1" transform="translate(12198 22536)">
    <rect id="Rectangle_9405" data-name="Rectangle 9405" width="86" height="86" transform="translate(-12198 -22536)" fill="rgba(255,255,255,0)"/>
    <path id="Icon_ionic-ios-settings" data-name="Icon ionic-ios-settings" d="M55.465,32.276a7.148,7.148,0,0,1,4.586-6.669,28.335,28.335,0,0,0-3.429-8.26,7.244,7.244,0,0,1-2.908.622A7.133,7.133,0,0,1,47.19,7.929,28.249,28.249,0,0,0,38.945,4.5a7.142,7.142,0,0,1-13.338,0,28.335,28.335,0,0,0-8.26,3.429,7.133,7.133,0,0,1-6.524,10.04,7.008,7.008,0,0,1-2.908-.622A28.961,28.961,0,0,0,4.5,25.621a7.146,7.146,0,0,1,.014,13.338,28.335,28.335,0,0,0,3.429,8.26,7.135,7.135,0,0,1,9.418,9.418,28.5,28.5,0,0,0,8.26,3.429,7.129,7.129,0,0,1,13.309,0,28.335,28.335,0,0,0,8.26-3.429,7.142,7.142,0,0,1,9.418-9.418,28.5,28.5,0,0,0,3.429-8.26A7.182,7.182,0,0,1,55.465,32.276ZM32.406,43.834A11.573,11.573,0,1,1,43.979,32.261,11.57,11.57,0,0,1,32.406,43.834Z" transform="translate(-12187.5 -22525.5)" fill="#ffb623"/>
  </g>
</svg>
