<svg xmlns="http://www.w3.org/2000/svg" width="86" height="86" viewBox="0 0 86 86">
  <g id="_2" data-name="2" transform="translate(11802 22539)">
    <rect id="Rectangle_9405" data-name="Rectangle 9405" width="86" height="86" transform="translate(-11802 -22539)" fill="rgba(255,255,255,0)"/>
    <path id="Icon_material-devices" data-name="Icon material-devices" d="M13,12.5H71.5V6H13a6.519,6.519,0,0,0-6.5,6.5V48.25H0V58H45.5V48.25H13ZM74.75,19H55.25A3.26,3.26,0,0,0,52,22.25v32.5A3.26,3.26,0,0,0,55.25,58h19.5A3.26,3.26,0,0,0,78,54.75V22.25A3.26,3.26,0,0,0,74.75,19ZM71.5,48.25h-13V25.5h13Z" transform="translate(-11798 -22528)" fill="#ffb623"/>
  </g>
</svg>
