<svg xmlns="http://www.w3.org/2000/svg" width="86" height="86" viewBox="0 0 86 86">
  <g id="_3" data-name="3" transform="translate(11283 22539)">
    <rect id="Rectangle_9405" data-name="Rectangle 9405" width="86" height="86" transform="translate(-11283 -22539)" fill="rgba(255,255,255,0)"/>
    <path id="Icon_awesome-puzzle-piece" data-name="Icon awesome-puzzle-piece" d="M60.873,33.827c-4.866,0-6.973,3.7-9.616,3.7-7.028,0-.631-20.654-.631-20.654s-23,9.375-23-.386c0-4.2,4.253-5.42,4.253-10.077,0-4.16-3.295-6.412-7.2-6.412C20.612,0,16.9,2.214,16.9,6.6c0,4.847,3.716,6.947,3.716,9.58C20.612,24.342,0,19.542,0,19.542V58.594s20.934,4.81,20.934-3.359c0-2.634-4.688-4.7-4.688-9.548,0-4.389,3.428-6.6,7.451-6.6,3.946,0,7.241,2.252,7.241,6.412,0,4.657-4.253,5.878-4.253,10.077,0,7.125,15.2,3.015,21.238,3.015,0,0-4.069-14.075,3.027-14.075,4.214,0,5.44,4.237,10.114,4.237,4.176,0,6.436-3.282,6.436-7.214,0-4.008-2.222-7.71-6.628-7.71Z" transform="translate(-11274 -22526)" fill="#ffb623"/>
  </g>
</svg>
