<svg xmlns="http://www.w3.org/2000/svg" width="86" height="86" viewBox="0 0 86 86">
  <g id="_4" data-name="4" transform="translate(12198 22160)">
    <rect id="Rectangle_9405" data-name="Rectangle 9405" width="86" height="86" transform="translate(-12198 -22160)" fill="rgba(255,255,255,0)"/>
    <path id="Icon_awesome-code" data-name="Icon awesome-code" d="M31.814,58.344l-6.958-2.019a1.371,1.371,0,0,1-.935-1.7L39.491.991a1.371,1.371,0,0,1,1.7-.935l6.958,2.019a1.371,1.371,0,0,1,.935,1.7L33.514,57.408a1.367,1.367,0,0,1-1.7.935Zm-13-12.8,4.962-5.293a1.369,1.369,0,0,0-.091-1.962L13.347,29.2l10.334-9.091a1.359,1.359,0,0,0,.091-1.962l-4.962-5.293a1.37,1.37,0,0,0-1.939-.057L.435,28.2a1.36,1.36,0,0,0,0,2L16.872,45.6a1.36,1.36,0,0,0,1.939-.057Zm37.323.068L72.571,30.2a1.36,1.36,0,0,0,0-2L56.134,12.785a1.381,1.381,0,0,0-1.939.057l-4.962,5.293a1.369,1.369,0,0,0,.091,1.962l10.334,9.1L49.324,38.291a1.359,1.359,0,0,0-.091,1.962l4.962,5.293a1.371,1.371,0,0,0,1.939.068Z" transform="translate(-12191.749 -22147.002)" fill="#ffb623"/>
  </g>
</svg>
