<svg xmlns="http://www.w3.org/2000/svg" width="86" height="86" viewBox="0 0 86 86">
  <g id="_5" data-name="5" transform="translate(11742 22164)">
    <rect id="Rectangle_9405" data-name="Rectangle 9405" width="86" height="86" transform="translate(-11742 -22164)" fill="rgba(255,255,255,0)"/>
    <path id="Icon_material-headset-mic" data-name="Icon material-headset-mic" d="M31.78,1.5C16.715,1.5,4.5,12.642,4.5,26.382V45.735c0,4.589,4.062,8.294,9.093,8.294h9.093V31.911H10.562V26.382c0-10.7,9.487-19.353,21.218-19.353S53,15.683,53,26.382v5.529H40.873V54.029H53v2.765H31.78v5.529H49.967c5.032,0,9.093-3.7,9.093-8.294V26.382C59.06,12.642,46.845,1.5,31.78,1.5Z" transform="translate(-11731.023 -22152.32)" fill="#ffb623"/>
  </g>
</svg>
