<svg xmlns="http://www.w3.org/2000/svg" width="86" height="86" viewBox="0 0 86 86">
  <g id="_6" data-name="6" transform="translate(11262 22168)">
    <rect id="Rectangle_9405" data-name="Rectangle 9405" width="86" height="86" transform="translate(-11262 -22168)" fill="rgba(255,255,255,0)"/>
    <path id="Icon_awesome-wrench" data-name="Icon awesome-wrench" d="M60.811,13.067a1.436,1.436,0,0,0-2.41-.66l-8.906,8.906-8.13-1.355-1.355-8.13,8.906-8.906A1.44,1.44,0,0,0,48.239.508,17.164,17.164,0,0,0,27.8,22.681L2.245,48.238A7.664,7.664,0,0,0,13.084,59.078L38.62,33.541A17.19,17.19,0,0,0,60.811,13.067ZM7.665,56.531a2.874,2.874,0,1,1,2.874-2.874A2.875,2.875,0,0,1,7.665,56.531Z" transform="translate(-11249.878 -22155.877)" fill="#ffb623"/>
  </g>
</svg>
