<svg xmlns="http://www.w3.org/2000/svg" xmlns:xlink="http://www.w3.org/1999/xlink" width="437.99" height="438.004" viewBox="0 0 437.99 438.004">
  <defs>
    <linearGradient id="linear-gradient" x1="-0.346" y1="0.152" x2="1" y2="0.911" gradientUnits="objectBoundingBox">
      <stop offset="0" stop-color="#fb0"/>
      <stop offset="1" stop-color="#f24b57"/>
    </linearGradient>
    <filter id="Union_11">
      <feOffset dy="3" input="SourceAlpha"/>
      <feGaussianBlur stdDeviation="7.5" result="blur"/>
      <feFlood flood-opacity="0.561" result="color"/>
      <feComposite operator="out" in="SourceGraphic" in2="blur"/>
      <feComposite operator="in" in="color"/>
      <feComposite operator="in" in2="SourceGraphic"/>
    </filter>
  </defs>
  <g id="Group_28425" data-name="Group 28425" transform="translate(-366.01 -250)">
    <g data-type="innerShadowGroup">
      <path id="Union_11-2" data-name="Union 11" d="M-6053,401a218.88,218.88,0,0,1-61.871-8.922l65.713-190.935,67.316,184.427a20.138,20.138,0,0,0,1.562,3.018A218.781,218.781,0,0,1-6052.921,401ZM-6272,182a218.337,218.337,0,0,1,18.953-89.124l104.468,286.205A218.994,218.994,0,0,1-6272,182Zm395.985-4.105c12.511-31.245,16.665-56.224,16.665-78.442a165.92,165.92,0,0,0-1.484-22.522A217.943,217.943,0,0,1-5834.011,182,218.856,218.856,0,0,1-5942.9,371.277Zm-311.178-98.568c13.2-.7,25.064-2.1,25.064-2.1a8.822,8.822,0,0,0,8.187-9.028c0-4.7-3.329-9.382-9.57-9.008,0,0-35.478,2.783-58.373,2.783-4.105,0-8.944-.105-14.086-.268a218.722,218.722,0,0,1,179.684-98.679h.082l.292,0,.128,0,.268,0,.167,0,.239,0,.192,0,.219,0,.226,0h1.47a218.022,218.022,0,0,1,64.551,9.675l.082.025.019.006a218.1,218.1,0,0,1,83.218,47.784h-.016l.01.009c-.932-.05-1.851-.184-2.826-.184A35.178,35.178,0,0,0-5933.484,31.2a40.476,40.476,0,0,0-11.253,27.988c0,13.945,6.244,26.251,14.206,39.468l-.008.012c2.33,3.865,4.806,7.807,7.32,11.893,8.322,14.581,18.056,33.315,18.056,60.392,0,18.735-7.219,40.479-16.651,70.784l-21.864,72.982-79.141-235.4c13.182-.7,25.056-2.1,25.056-2.1,8.723-1.023,10.246-10.766,5.681-15.5a8.76,8.76,0,0,0-7.064-2.528s-35.464,2.783-58.367,2.783c-21.518,0-57.68-2.783-57.68-2.783-9.642-.571-12.334,11.328-6.592,16.11a8.743,8.743,0,0,0,5.186,1.918s11.176,1.4,22.988,2.1l0,.006h0l34.1,93.468-2.076,6.265-.024,0-45.838,137.457Z" transform="translate(6638.01 287)" fill="url(#linear-gradient)"/>
      <g transform="matrix(1, 0, 0, 1, 366.01, 250)" filter="url(#Union_11)">
        <path id="Union_11-3" data-name="Union 11" d="M-6053,401a218.88,218.88,0,0,1-61.871-8.922l65.713-190.935,67.316,184.427a20.138,20.138,0,0,0,1.562,3.018A218.781,218.781,0,0,1-6052.921,401ZM-6272,182a218.337,218.337,0,0,1,18.953-89.124l104.468,286.205A218.994,218.994,0,0,1-6272,182Zm395.985-4.105c12.511-31.245,16.665-56.224,16.665-78.442a165.92,165.92,0,0,0-1.484-22.522A217.943,217.943,0,0,1-5834.011,182,218.856,218.856,0,0,1-5942.9,371.277Zm-311.178-98.568c13.2-.7,25.064-2.1,25.064-2.1a8.822,8.822,0,0,0,8.187-9.028c0-4.7-3.329-9.382-9.57-9.008,0,0-35.478,2.783-58.373,2.783-4.105,0-8.944-.105-14.086-.268a218.722,218.722,0,0,1,179.684-98.679h.082l.292,0,.128,0,.268,0,.167,0,.239,0,.192,0,.219,0,.226,0h1.47a218.022,218.022,0,0,1,64.551,9.675l.082.025.019.006a218.1,218.1,0,0,1,83.218,47.784h-.016l.01.009c-.932-.05-1.851-.184-2.826-.184A35.178,35.178,0,0,0-5933.484,31.2a40.476,40.476,0,0,0-11.253,27.988c0,13.945,6.244,26.251,14.206,39.468l-.008.012c2.33,3.865,4.806,7.807,7.32,11.893,8.322,14.581,18.056,33.315,18.056,60.392,0,18.735-7.219,40.479-16.651,70.784l-21.864,72.982-79.141-235.4c13.182-.7,25.056-2.1,25.056-2.1,8.723-1.023,10.246-10.766,5.681-15.5a8.76,8.76,0,0,0-7.064-2.528s-35.464,2.783-58.367,2.783c-21.518,0-57.68-2.783-57.68-2.783-9.642-.571-12.334,11.328-6.592,16.11a8.743,8.743,0,0,0,5.186,1.918s11.176,1.4,22.988,2.1l0,.006h0l34.1,93.468-2.076,6.265-.024,0-45.838,137.457Z" transform="translate(6272 37)" fill="#fff"/>
      </g>
    </g>
  </g>
</svg>
