<svg xmlns="http://www.w3.org/2000/svg" xmlns:xlink="http://www.w3.org/1999/xlink" width="383.646" height="406.873" viewBox="0 0 383.646 406.873">
  <defs>
    <linearGradient id="linear-gradient" x1="-0.346" y1="0.152" x2="1" y2="0.911" gradientUnits="objectBoundingBox">
      <stop offset="0" stop-color="#fb0"/>
      <stop offset="1" stop-color="#f24b57"/>
    </linearGradient>
    <filter id="Subtraction_34">
      <feOffset dy="3" input="SourceAlpha"/>
      <feGaussianBlur stdDeviation="4" result="blur"/>
      <feFlood flood-opacity="0.561" result="color"/>
      <feComposite operator="out" in="SourceGraphic" in2="blur"/>
      <feComposite operator="in" in="color"/>
      <feComposite operator="in" in2="SourceGraphic"/>
    </filter>
  </defs>
  <g id="Group_28427" data-name="Group 28427" transform="translate(-441.951 -246)">
    <g data-type="innerShadowGroup">
      <path id="Subtraction_34-2" data-name="Subtraction 34" d="M-13192.723,369.872l-160.35-89.015L-13382,30.438-13192.724-37l194.366,66.238-31.465,250.566-162.9,90.067Zm-49.9-156.9h105.8l25.927,59.945,42.108.749-123.635-263.157-117.937,262.408,44.056-.749,23.681-59.2Zm90.365-35.069h-74.934l35.068-83.323,39.865,83.323v0h0v0Z" transform="translate(13823.953 283)" fill="url(#linear-gradient)"/>
      <g transform="matrix(1, 0, 0, 1, 441.95, 246)" filter="url(#Subtraction_34)">
        <path id="Subtraction_34-3" data-name="Subtraction 34" d="M-13192.723,369.872l-160.35-89.015L-13382,30.438-13192.724-37l194.366,66.238-31.465,250.566-162.9,90.067Zm-49.9-156.9h105.8l25.927,59.945,42.108.749-123.635-263.157-117.937,262.408,44.056-.749,23.681-59.2Zm90.365-35.069h-74.934l35.068-83.323,39.865,83.323v0h0v0Z" transform="translate(13382 37)" fill="#fff"/>
      </g>
    </g>
    <g data-type="innerShadowGroup">
      <path id="Subtraction_35" data-name="Subtraction 35" d="M-13261.814,369.873h0v-156.9l55.905.007,25.848,59.988,42.22.705L-13261.536,10.61l-.278.622V-37l194.369,66.237-31.472,250.567-162.9,90.067Zm40.475-191.972h-40.475V96.045l.6-1.438,39.879,83.294Z" transform="translate(13893.043 283)" opacity="0.15" style="mix-blend-mode: luminosity;isolation: isolate"/>
      <path id="Subtraction_35-2" data-name="Subtraction 35" d="M-13261.814,369.873h0v-156.9l55.905.007,25.848,59.988,42.22.705L-13261.536,10.61l-.278.622V-37l194.369,66.237-31.472,250.567-162.9,90.067Zm40.475-191.972h-40.475V96.045l.6-1.438,39.879,83.294Z" transform="translate(13893.043 283)" fill="#fff" opacity="0.15" style="mix-blend-mode: luminosity;isolation: isolate"/>
    </g>
  </g>
</svg>
