<svg xmlns="http://www.w3.org/2000/svg" width="86" height="86" viewBox="0 0 86 86">
  <g id="Architecture_" data-name="Architecture " transform="translate(10796 23157)">
    <rect id="Rectangle_9405" data-name="Rectangle 9405" width="86" height="86" transform="translate(-10796 -23157)" fill="rgba(255,255,255,0)"/>
    <g id="Group_29319" data-name="Group 29319" transform="translate(-10784.195 -24164.367)">
      <path id="Path_31589" data-name="Path 31589" d="M27.5,1028.35v1.99h2.986v-1.99Zm0,3.981v1.99h4.976v-1.99Zm0,3.981v1.99h2.986v-1.99Zm0,3.981v1.99h4.976v-1.99Zm0,3.981v1.99h2.986v-1.99Zm0,3.981v1.99h4.976v-1.99Zm0,3.981v1.99h2.986v-1.99Zm0,3.981v1.99h4.976v-1.99Z" transform="translate(27.238 6.933)" fill="#ffb623" fill-rule="evenodd"/>
      <path id="Path_31590" data-name="Path 31590" d="M4.976,1025.36A4.987,4.987,0,0,0,0,1030.337v37.819a1,1,0,0,0,1.991,0v-37.819a2.957,2.957,0,0,1,2.986-2.986H44.588a1,1,0,0,0,0-1.991H4.976Z" transform="translate(0 3.972)" fill="#ffb623"/>
      <path id="Path_31591" data-name="Path 31591" d="M43.791,1021.35v39.81h2.986a2.986,2.986,0,1,1,0,5.971H4.976a4.976,4.976,0,0,0,0,9.953H7.962v-7.962H46.777a4.988,4.988,0,0,0,4.976-4.977v-37.819a4.987,4.987,0,0,0-4.976-4.976H43.791Zm1.99,1.99h1a2.958,2.958,0,0,1,2.986,2.986v34.083a4.827,4.827,0,0,0-2.986-1.24h-1ZM4.976,1069.122h1v5.971h-1a2.986,2.986,0,1,1,0-5.971Z" transform="translate(0 0)" fill="#ffb623" fill-rule="evenodd"/>
      <path id="Path_31592" data-name="Path 31592" d="M5,1028.35a1,1,0,0,0-1,1v25.876a1,1,0,0,0,1,1H34.853a1,1,0,0,0,1-1v-25.876a1,1,0,0,0-1-1h-20.9v1.99h19.9v23.886H5.99v-23.886H9.971v-1.99Z" transform="translate(3.962 6.933)" fill="#ffb623"/>
      <path id="Path_31593" data-name="Path 31593" d="M17.438,1028.85v6.967h1.99v-6.967Zm0,11.045v14.832h1.99V1039.9ZM4.5,1043.779v1.991h8.957v-1.991Zm16.919-1.99v1.99H34.357v-1.99Z" transform="translate(4.457 7.429)" fill="#ffb623" fill-rule="evenodd"/>
      <path id="Path_31594" data-name="Path 31594" d="M14,1037.35a1,1,0,0,0-1,1v7.966a1,1,0,0,0,1,1h7.962a1,1,0,0,0,1-1v-7.966a1,1,0,0,0-1-1Zm1,1.99h5.971v5.975H14.99Z" transform="translate(12.876 15.848)" fill="#ffb623"/>
      <path id="Path_31595" data-name="Path 31595" d="M15,1031.35v9.952h1.99v-9.952Z" transform="translate(14.857 9.905)" fill="#ffb623" fill-rule="evenodd"/>
      <path id="Path_31596" data-name="Path 31596" d="M27.164,1046.34l-16.915.062a1,1,0,0,0-.991,1l.023,5.925a1,1,0,0,0,1,.991H27.192a1,1,0,0,0,1-1l-.023-5.983a1,1,0,0,0-1-.991Zm-.987,1.994.016,3.989H11.268l-.016-3.938,14.925-.054Z" transform="translate(9.17 24.752)" fill="#ffb623"/>
      <path id="Path_31597" data-name="Path 31597" d="M13.187,1046.4a1,1,0,0,0-.412.105l-5.964,3a1,1,0,0,0,.008,1.784l5.983,2.954a1,1,0,0,0,1.438-.9l-.023-5.952a1,1,0,0,0-1.03-.991Zm-.952,2.6.008,2.741-2.756-1.36Zm17.911-2.665a1,1,0,0,0-1,1l.016,5.956a1,1,0,0,0,1,.991H32.19a3.331,3.331,0,0,0,3.409-3.238v-1.485a3.337,3.337,0,0,0-3.429-3.219H30.145Zm1,1.99h1.03a1.343,1.343,0,0,1,1.435,1.229v1.489a1.315,1.315,0,0,1-1.419,1.24H31.152l-.008-3.962Z" transform="translate(6.201 24.752)" fill="#ffb623"/>
      <path id="Path_31598" data-name="Path 31598" d="M10.209,1047.85l-.008,1.99,16.142.04,0-1.99-16.138-.04Z" transform="translate(10.104 26.248)" fill="#ffb623" fill-rule="evenodd"/>
      <path id="Path_31599" data-name="Path 31599" d="M28,1026.35a1,1,0,0,0-1,1v35.829a1,1,0,0,0,1,1h7.962a1,1,0,0,0,1-1v-35.829a1,1,0,0,0-1-1Zm1,1.99h5.971v33.839H28.99Z" transform="translate(26.743 4.952)" fill="#ffb623"/>
    </g>
  </g>
</svg>
