<svg xmlns="http://www.w3.org/2000/svg" width="154.421" height="148.193" viewBox="0 0 154.421 148.193">
  <g id="Group_28429" data-name="Group 28429" transform="translate(-351.854 -923)">
    <path id="Path_25194" data-name="Path 25194" d="M51.295,0c23.578-.052,63.933,50.47,63.933,80.236s-7.285,44.692-41.612,44.692S0,107.815,0,78.049,27.716.052,51.295,0Z" transform="matrix(0.309, 0.951, -0.951, 0.309, 470.668, 923)" fill="#ff727d"/>
    <path id="Path_31588" data-name="Path 31588" d="M12.135,334.74l-2.722,2.722a1.712,1.712,0,0,1-2.5,0L-18.456,312.1A1.721,1.721,0,0,1-19,310.845a1.721,1.721,0,0,1,.544-1.252L6.909,284.228a1.712,1.712,0,0,1,2.5,0l2.722,2.722a1.712,1.712,0,0,1,0,2.5L-9.257,310.845l21.392,21.392a1.712,1.712,0,0,1,0,2.5ZM44.3,276.662,24,346.933a1.771,1.771,0,0,1-.844,1.061,1.52,1.52,0,0,1-1.279.136L18.5,347.2a1.77,1.77,0,0,1-1.061-.844,1.629,1.629,0,0,1-.136-1.334l20.3-70.271a1.771,1.771,0,0,1,.844-1.061,1.52,1.52,0,0,1,1.279-.136l3.375.925a1.771,1.771,0,0,1,1.061.844A1.629,1.629,0,0,1,44.3,276.662ZM80.065,312.1,54.7,337.462a1.712,1.712,0,0,1-2.5,0l-2.722-2.722a1.712,1.712,0,0,1,0-2.5l21.392-21.392L49.475,289.453a1.712,1.712,0,0,1,0-2.5l2.722-2.722a1.712,1.712,0,0,1,2.5,0l25.365,25.365a1.712,1.712,0,0,1,0,2.5Z" transform="translate(413.195 703.679)"/>
  </g>
</svg>
