<svg xmlns="http://www.w3.org/2000/svg" width="86" height="86" viewBox="0 0 86 86">
  <g id="Efficient" transform="translate(10668 23160)">
    <rect id="Rectangle_9405" data-name="Rectangle 9405" width="86" height="86" transform="translate(-10668 -23160)" fill="rgba(255,255,255,0)"/>
    <g id="Group_29321" data-name="Group 29321" transform="translate(-10679 -23149)">
      <path id="Path_31600" data-name="Path 31600" d="M79.8,25.005a1.105,1.105,0,0,1-1.058-.726,25.578,25.578,0,0,0-1.784-4.311,1.121,1.121,0,0,1,.221-1.263,4.216,4.216,0,0,0,0-5.953L73.247,8.821a4.2,4.2,0,0,0-5.921,0h0a1.089,1.089,0,0,1-1.263.221,25.579,25.579,0,0,0-4.311-1.784A1.105,1.105,0,0,1,61.026,6.2,4.216,4.216,0,0,0,56.795,2H51.205a4.216,4.216,0,0,0-4.2,4.263.979.979,0,0,1-.679.963,25.642,25.642,0,0,0-4.358,1.816,1.121,1.121,0,0,1-1.263-.221h0a4.2,4.2,0,0,0-5.921,0l-3.963,3.932a4.216,4.216,0,0,0,0,5.953,1.121,1.121,0,0,1,.221,1.263,25.579,25.579,0,0,0-1.784,4.311,1.105,1.105,0,0,1-1.058.726,4.216,4.216,0,0,0-4.2,4.2v5.589a4.216,4.216,0,0,0,4.2,4.2,1.105,1.105,0,0,1,1.058.726,25.579,25.579,0,0,0,1.784,4.311,1.121,1.121,0,0,1-.221,1.263,4.216,4.216,0,0,0,0,5.953l3.932,3.932a4.2,4.2,0,0,0,5.921,0h0a1.089,1.089,0,0,1,1.263-.221,25.578,25.578,0,0,0,4.311,1.784,1.105,1.105,0,0,1,.726,1.058A4.216,4.216,0,0,0,51.205,62h5.589a4.216,4.216,0,0,0,4.2-4.2,1.105,1.105,0,0,1,.726-1.058,25.579,25.579,0,0,0,4.311-1.784,1.121,1.121,0,0,1,1.263.221h0a4.2,4.2,0,0,0,5.921,0l3.932-3.932a4.216,4.216,0,0,0,0-5.953,1.121,1.121,0,0,1-.221-1.263,26.352,26.352,0,0,0,1.816-4.374,1.011,1.011,0,0,1,1.026-.663A4.216,4.216,0,0,0,84,34.795V29.205a4.216,4.216,0,0,0-4.2-4.2Zm1.042,9.789a1.074,1.074,0,0,1-1.105,1.042,4.153,4.153,0,0,0-3.995,2.889,21.331,21.331,0,0,1-1.579,3.837,4.2,4.2,0,0,0,.789,4.958,1.042,1.042,0,0,1,0,1.484l-3.947,3.947a1.042,1.042,0,0,1-1.484,0h0a4.2,4.2,0,0,0-4.926-.758,24.474,24.474,0,0,1-3.774,1.579,4.2,4.2,0,0,0-2.953,4.058,1.058,1.058,0,0,1-1.042,1.042H51.205a1.058,1.058,0,0,1-1.042-1.042,4.2,4.2,0,0,0-2.937-4.058,24.016,24.016,0,0,1-3.789-1.579,4.232,4.232,0,0,0-4.926.758h0a1.042,1.042,0,0,1-1.484,0l-3.947-3.947a1.042,1.042,0,0,1,0-1.484,4.2,4.2,0,0,0,.789-4.958,22.532,22.532,0,0,1-1.579-3.789,4.232,4.232,0,0,0-4.074-2.937,1.058,1.058,0,0,1-1.042-1.042V29.205a1.058,1.058,0,0,1,1.042-1.042,4.232,4.232,0,0,0,4.074-2.937,22.531,22.531,0,0,1,1.579-3.789,4.2,4.2,0,0,0-.789-4.958,1.042,1.042,0,0,1,0-1.484l3.947-3.947a1.042,1.042,0,0,1,1.484,0h0a4.2,4.2,0,0,0,4.926.758,21.332,21.332,0,0,1,3.837-1.579,4.216,4.216,0,0,0,2.889-4.058,1.058,1.058,0,0,1,1.042-1.011h5.589A1.058,1.058,0,0,1,57.837,6.2a4.2,4.2,0,0,0,2.937,4.058,24.016,24.016,0,0,1,3.789,1.579,4.2,4.2,0,0,0,4.926-.758h0a1.042,1.042,0,0,1,1.484,0l3.947,3.947a1.042,1.042,0,0,1,0,1.484,4.2,4.2,0,0,0-.789,4.958,22.531,22.531,0,0,1,1.579,3.789,4.232,4.232,0,0,0,4.074,2.937,1.058,1.058,0,0,1,1.042,1.042Z" transform="translate(0 0)" fill="#ffb623"/>
      <path id="Path_31601" data-name="Path 31601" d="M49.832,9.2A18.632,18.632,0,1,0,68.463,27.832,18.632,18.632,0,0,0,49.832,9.2Zm0,34.105A15.474,15.474,0,1,1,65.305,27.832,15.474,15.474,0,0,1,49.832,43.305Z" transform="translate(4.168 4.168)" fill="#ffb623"/>
      <path id="Path_31602" data-name="Path 31602" d="M54.241,15.123a1.579,1.579,0,0,0-1.2-.095l-6.316,2.084.979,3,2.779-.9-3.047,6.142-3.253-2.163a1.579,1.579,0,0,0-2.226.505L37.22,31.591l2.716,1.579L43.82,26.7l3.363,2.242a1.57,1.57,0,0,0,2.289-.6l3.805-7.674.884,2.7,3-.995-2.084-6.316A1.579,1.579,0,0,0,54.241,15.123Z" transform="translate(7.654 7.498)" fill="#ffb623"/>
    </g>
  </g>
</svg>
