<svg xmlns="http://www.w3.org/2000/svg" width="154.421" height="148.193" viewBox="0 0 154.421 148.193">
  <g id="Group_28413" data-name="Group 28413" transform="translate(-801.856 -923)">
    <path id="Path_25194" data-name="Path 25194" d="M51.295,0c23.578-.052,63.933,50.47,63.933,80.236s-7.285,44.692-41.612,44.692S0,107.815,0,78.049,27.716.052,51.295,0Z" transform="matrix(0.309, 0.951, -0.951, 0.309, 920.669, 923)" fill="#ffb623"/>
    <g id="layer1" transform="translate(849.969 -51.29)">
      <path id="path6011-0" d="M75.4,2.958a1.584,1.584,0,0,0-.792.4L69.261,8.7a1.584,1.584,0,0,0-.2.2l-4.158,4.158L60.847,9a1.42,1.42,0,0,0-2.178,0l-19.3,19.3-8.415-8.415A14.082,14.082,0,0,0,27.286,7.314a14.159,14.159,0,0,0-10-4.158,14.575,14.575,0,0,0-3.762.495l-2.574.693,1.881,1.98,7.029,7.029L18.277,18.3l-5.148,1.782L6.1,13.056l-1.881-1.98-.693,2.673A14.261,14.261,0,0,0,7.189,27.509a13.911,13.911,0,0,0,12.573,3.663L33.325,44.636,10.753,67.208a1.584,1.584,0,0,0,0,2.178l.891.891L7.189,74.732a1.584,1.584,0,0,0,0,2.178L8.377,78.1,3.031,83.444l2.277,2.178,5.346-5.247,1.188,1.188a1.584,1.584,0,0,0,2.277,0l4.356-4.455.2.2a1.584,1.584,0,0,0,2.277,0L43.423,54.833l13.86,13.86a14.053,14.053,0,0,0,3.663,12.573,14.264,14.264,0,0,0,13.761,3.663l2.574-.693L75.4,82.256,68.37,75.227l1.683-5.049L75.1,68.495l7.029,7.029,1.881,1.98.792-2.673A14.293,14.293,0,0,0,81.042,61.07,13.929,13.929,0,0,0,68.37,57.407L54.609,43.547q.052-.047.1-.1l1.089-.99L79.26,19a1.584,1.584,0,0,0,.3-.3L84.7,13.551a1.584,1.584,0,0,0,0-2.277l-7.92-7.92a1.584,1.584,0,0,0-1.386-.4ZM17.386,6.324a11.145,11.145,0,0,1,7.722,3.267A11.022,11.022,0,0,1,27.88,20.283l-.2.891.594.594,7.92,7.92a3.1,3.1,0,0,0-.495,1.683,3.206,3.206,0,0,0,.99,1.782,3.5,3.5,0,0,0,1.881.99,2.918,2.918,0,0,0,1.584-.5l2.079,2.079L35.5,42.458,21.643,28.5l-.693-.693-.891.3A11.063,11.063,0,0,1,9.367,25.233,10.749,10.749,0,0,1,6.5,17.808l5.148,5.247.693.594.891-.3,6.732-2.178.792-.3.2-.693,2.277-6.732.3-.99-.693-.693Zm58.31.4,5.643,5.643L78.072,15.63,72.429,9.987Zm-5.445,5.544,5.643,5.643-3.069,3.069-5.643-5.643Zm-10.494.1,2.97,2.871L45.7,32.261l-.891.891q-.052.047-.1.1l-.2.2-2.97-2.871ZM65,17.511l5.643,5.643-16.83,16.83-5.643-5.643ZM45.9,36.518l5.643,5.643L19.762,73.94,14.119,68.3Zm6.435,9.306h.1L66.687,60.08l.594.693.891-.3a11.062,11.062,0,0,1,10.692,2.871,10.729,10.729,0,0,1,2.871,7.425l-5.148-5.148-.693-.693-.891.3L68.271,67.5l-.792.2-.2.792L65,75.227l-.3.891.693.693,5.049,5.049A10.41,10.41,0,0,1,60.351,68.4l.2-.891-.594-.693L45.7,52.556ZM13.624,72.752,16,75.128,12.931,78.2l-2.376-2.376Z" transform="translate(0 1020.362)"/>
    </g>
  </g>
</svg>
