<svg xmlns="http://www.w3.org/2000/svg" width="86" height="86" viewBox="0 0 86 86">
  <g id="FastProcessing" transform="translate(10906 23074)">
    <rect id="Rectangle_9405" data-name="Rectangle 9405" width="86" height="86" transform="translate(-10906 -23074)" fill="rgba(255,255,255,0)"/>
    <g id="Layer_2" data-name="Layer 2" transform="translate(-10902.57 -23075.174)">
      <path id="Path_31271" data-name="Path 31271" d="M70.34,27.831a22.8,22.8,0,0,0-30.33-1.675H23.877a1.152,1.152,0,0,0,0,2.3H37.552A22.709,22.709,0,0,0,34.272,33H16.149a1.152,1.152,0,1,0,0,2.3H33.165a22.917,22.917,0,0,0-1.59,10.817H23.893a1.152,1.152,0,0,0,0,2.3h8.028a22.594,22.594,0,0,0,1.329,4.341h-17.1a1.152,1.152,0,1,0,0,2.3h18.23a22.279,22.279,0,0,0,3.165,4.379H13.352a1.152,1.152,0,0,0,0,2.3h25.9a1.214,1.214,0,0,0,.576-.154A22.778,22.778,0,0,0,70.34,27.831ZM68.712,58.415a20.466,20.466,0,1,1,0-28.955,20.466,20.466,0,0,1,0,28.955Z" transform="translate(-2)" fill="#ffb623"/>
      <path id="Path_31272" data-name="Path 31272" d="M61.749,28.49A17.139,17.139,0,1,0,78.889,45.629,17.139,17.139,0,0,0,61.749,28.49ZM62.9,60.38V59.035a1.152,1.152,0,1,0-2.3,0V60.38a14.842,14.842,0,0,1-13.621-13.6h1.367a1.152,1.152,0,0,0,0-2.3H46.976A14.835,14.835,0,0,1,60.6,30.856v1.367a1.152,1.152,0,1,0,2.3,0V30.856A14.835,14.835,0,0,1,76.523,44.477H75.155a1.152,1.152,0,1,0,0,2.3h1.367A14.842,14.842,0,0,1,62.9,60.38Z" transform="translate(-9.511 -1.696)" fill="#ffb623"/>
      <path id="Path_31273" data-name="Path 31273" d="M58.568,48.124l-4.832-3.073,5.017-9.987a1.152,1.152,0,0,0-2.059-1L51.209,44.92a1.152,1.152,0,0,0,.407,1.49l5.708,3.657a1.137,1.137,0,0,0,.615.177,1.152,1.152,0,0,0,.63-2.12ZM18.1,48.769a1.152,1.152,0,0,0-1.152-1.152H4.722a1.152,1.152,0,0,0,0,2.3H16.96A1.152,1.152,0,0,0,18.1,48.769ZM10.369,29.955H16.96a1.152,1.152,0,0,0,0-2.3H10.369a1.152,1.152,0,0,0,0,2.3ZM9.117,43.284H24.3a1.152,1.152,0,0,0,0-2.3H9.117a1.152,1.152,0,0,0,0,2.3Z" transform="translate(0 -1.501)" fill="#ffb623"/>
    </g>
  </g>
</svg>
