<svg xmlns="http://www.w3.org/2000/svg" width="86" height="86" viewBox="0 0 86 86">
  <g id="HighPerformance" transform="translate(10386 23173)">
    <rect id="Rectangle_9405" data-name="Rectangle 9405" width="86" height="86" transform="translate(-10386 -23173)" fill="rgba(255,255,255,0)"/>
    <path id="Path_41995" data-name="Path 41995" d="M16,6.181a1.9,1.9,0,0,1,.512,3.76A15.948,15.948,0,0,0,3.82,25.554a9.973,9.973,0,0,0,.1,1.76A16.007,16.007,0,0,0,35.19,29.7h0l.088-.239a1.922,1.922,0,0,1,2.246-1.065,1.876,1.876,0,0,1,1.177.86,1.854,1.854,0,0,1,.2,1.438A19.654,19.654,0,0,1,29.333,42.72,19.854,19.854,0,0,1,10.726,43,19.612,19.612,0,0,1,.152,27.79a12.178,12.178,0,0,1-.146-2.3A19.7,19.7,0,0,1,15.764,6.213h0ZM27.207,0A21.173,21.173,0,0,1,47.53,17.685h.021v.331l.006.348a3.488,3.488,0,0,1-.881,2.2,3.532,3.532,0,0,1-2.44,1.177h0L28.6,22.779h-.25A3.8,3.8,0,0,1,24.56,19.3h0L23.518,3.749A3.486,3.486,0,0,1,24.5,1.1,3.681,3.681,0,0,1,27.207,0Zm.1,3.769,1.042,15.282,15.424-1.015A17.409,17.409,0,0,0,27.311,3.77Z" transform="translate(-10366.779 -23152.391)" fill="#ffb623"/>
  </g>
</svg>
