<svg xmlns="http://www.w3.org/2000/svg" width="87.986" height="54.015" viewBox="0 0 87.986 54.015">
  <path id="Icon_awesome-handshake" data-name="Icon awesome-handshake" d="M57.724,4.5H46.317a4.248,4.248,0,0,0-2.868,1.115L30.4,17.567c-.013.013-.027.04-.04.053a5.282,5.282,0,0,0-.279,7.436,5.538,5.538,0,0,0,7.45.359c.013-.013.04-.013.053-.027l10.61-9.72A2.124,2.124,0,0,1,51.058,18.8l-3.466,3.174,19.334,15.7a9.568,9.568,0,0,1,1.049,1.022V13l-7.25-7.25a4.219,4.219,0,0,0-3-1.248Zm14.514,8.525V42.757a4.245,4.245,0,0,0,4.249,4.249h8.5V13.025Zm6.374,29.732a2.125,2.125,0,1,1,2.125-2.125A2.131,2.131,0,0,1,78.612,42.757ZM0,46.993H8.5a4.245,4.245,0,0,0,4.249-4.249V13.025H0Zm6.374-8.485a2.125,2.125,0,1,1-2.125,2.125A2.131,2.131,0,0,1,6.374,38.508Zm57.883,2.47L44.432,24.883l-3.984,3.652a9.558,9.558,0,0,1-12.92-14.089L38.39,4.5H27.262a4.242,4.242,0,0,0-3,1.248L17,13V42.73h2.43L31.445,53.606A8.5,8.5,0,0,0,43.4,52.371l.027-.027L45.8,54.4a4.935,4.935,0,0,0,6.945-.717l4.17-5.126.717.584a4.243,4.243,0,0,0,5.976-.624l1.262-1.554a4.257,4.257,0,0,0-.611-5.989Z" transform="translate(1.5 -3)" fill="none" stroke="#f24b57" stroke-width="3"/>
</svg>
