<svg xmlns="http://www.w3.org/2000/svg" xmlns:xlink="http://www.w3.org/1999/xlink" width="383.479" height="433.36" viewBox="0 0 383.479 433.36">
  <defs>
    <linearGradient id="linear-gradient" x1="-0.346" y1="0.152" x2="1" y2="0.911" gradientUnits="objectBoundingBox">
      <stop offset="0" stop-color="#fb0"/>
      <stop offset="1" stop-color="#f24b57"/>
    </linearGradient>
    <filter id="Path_31554">
      <feOffset dy="3" input="SourceAlpha"/>
      <feGaussianBlur stdDeviation="4" result="blur"/>
      <feFlood flood-opacity="0.561" result="color"/>
      <feComposite operator="out" in="SourceGraphic" in2="blur"/>
      <feComposite operator="in" in="color"/>
      <feComposite operator="in" in2="SourceGraphic"/>
    </filter>
  </defs>
  <g data-type="innerShadowGroup">
    <path id="Path_31554-2" data-name="Path 31554" d="M377.986,99.564,219.783,7.8a34.233,34.233,0,0,0-33.068,0L27.274,99.564C16.992,105.481,10,116.6,10,128.5V311.784c0,11.895,7.139,23.019,17.425,28.969L69.46,364.722c20.167,9.935,25.754,9.935,34.929,9.935,29.868,0,45.379-18.059,45.379-49.558V144.148c0-2.555,1.6-6.358-.914-6.358H128.706c-2.552,0-7.605,3.8-7.605,6.354V325.095c0,13.963-12.959,27.858-36.563,16.056L41.094,316.017a4.806,4.806,0,0,1-2.423-4.233V128.5c0-1.727,1.659-3.462,3.193-4.347L200.91,32.542a5.405,5.405,0,0,1,5.071,0L363.54,124.128c1.509.907,1.269,2.588,1.269,4.369V311.784c0,1.749.33,3.451-1.158,4.293L205.483,407.739a4.648,4.648,0,0,1-4.605,0l-40.559-24.188a3.954,3.954,0,0,0-3.871-.308c-11.271,6.39-13.364,7.239-23.937,10.906-2.605.907-6.447,2.48,1.462,6.913l53.034,31.373a33.416,33.416,0,0,0,33.377,0L377.99,340.753c10.289-5.992,15.49-17.074,15.49-28.969V128.5C393.476,116.6,388.276,105.51,377.986,99.564ZM252.726,282.74c-42.028,0-51.282-11.594-54.368-32.492-.366-2.251-2.272-4.942-4.566-4.942H173.257c-2.541,0-4.587,3.082-4.587,5.612,0,26.757,14.551,59.177,84.057,59.177,50.311,0,79.161-19.55,79.161-54.149,0-34.3-23.177-43.308-71.972-49.766-49.321-6.519-54.332-9.813-54.332-21.367,0-9.526,4.243-22.231,40.763-22.231,32.628,0,44.655,7,49.6,29a4.531,4.531,0,0,0,4.448,3.552H321.02a4.707,4.707,0,0,0,3.365-1.419,4.641,4.641,0,0,0,1.2-3.509c-3.2-37.878-28.359-55.529-79.247-55.529-45.272,0-72.273,19.116-72.273,51.16,0,34.757,26.868,44.361,70.323,48.658,51.984,5.1,56.027,12.694,56.027,22.919C300.42,275.175,286.164,282.74,252.726,282.74Z" transform="translate(-10 -3.541)" fill="url(#linear-gradient)"/>
    <g transform="matrix(1, 0, 0, 1, 0, 0)" filter="url(#Path_31554)">
      <path id="Path_31554-3" data-name="Path 31554" d="M377.986,99.564,219.783,7.8a34.233,34.233,0,0,0-33.068,0L27.274,99.564C16.992,105.481,10,116.6,10,128.5V311.784c0,11.895,7.139,23.019,17.425,28.969L69.46,364.722c20.167,9.935,25.754,9.935,34.929,9.935,29.868,0,45.379-18.059,45.379-49.558V144.148c0-2.555,1.6-6.358-.914-6.358H128.706c-2.552,0-7.605,3.8-7.605,6.354V325.095c0,13.963-12.959,27.858-36.563,16.056L41.094,316.017a4.806,4.806,0,0,1-2.423-4.233V128.5c0-1.727,1.659-3.462,3.193-4.347L200.91,32.542a5.405,5.405,0,0,1,5.071,0L363.54,124.128c1.509.907,1.269,2.588,1.269,4.369V311.784c0,1.749.33,3.451-1.158,4.293L205.483,407.739a4.648,4.648,0,0,1-4.605,0l-40.559-24.188a3.954,3.954,0,0,0-3.871-.308c-11.271,6.39-13.364,7.239-23.937,10.906-2.605.907-6.447,2.48,1.462,6.913l53.034,31.373a33.416,33.416,0,0,0,33.377,0L377.99,340.753c10.289-5.992,15.49-17.074,15.49-28.969V128.5C393.476,116.6,388.276,105.51,377.986,99.564ZM252.726,282.74c-42.028,0-51.282-11.594-54.368-32.492-.366-2.251-2.272-4.942-4.566-4.942H173.257c-2.541,0-4.587,3.082-4.587,5.612,0,26.757,14.551,59.177,84.057,59.177,50.311,0,79.161-19.55,79.161-54.149,0-34.3-23.177-43.308-71.972-49.766-49.321-6.519-54.332-9.813-54.332-21.367,0-9.526,4.243-22.231,40.763-22.231,32.628,0,44.655,7,49.6,29a4.531,4.531,0,0,0,4.448,3.552H321.02a4.707,4.707,0,0,0,3.365-1.419,4.641,4.641,0,0,0,1.2-3.509c-3.2-37.878-28.359-55.529-79.247-55.529-45.272,0-72.273,19.116-72.273,51.16,0,34.757,26.868,44.361,70.323,48.658,51.984,5.1,56.027,12.694,56.027,22.919C300.42,275.175,286.164,282.74,252.726,282.74Z" transform="translate(-10 -3.54)" fill="#fff"/>
    </g>
  </g>
</svg>
