<svg xmlns="http://www.w3.org/2000/svg" width="154.421" height="148.193" viewBox="0 0 154.421 148.193">
  <g id="Group_28414" data-name="Group 28414" transform="translate(-351.854 -923)">
    <path id="Path_25194" data-name="Path 25194" d="M51.295,0c23.578-.052,63.933,50.47,63.933,80.236s-7.285,44.692-41.612,44.692S0,107.815,0,78.049,27.716.052,51.295,0Z" transform="matrix(0.309, 0.951, -0.951, 0.309, 470.668, 923)" fill="#ff727d"/>
    <path id="Path_31574" data-name="Path 31574" d="M111.633,1143.3v-34.555h-38.7v16.586H51.508a6.617,6.617,0,0,1-3.8-1.728,7.282,7.282,0,0,1-2.419-5.529v-9.848l6.22,5.875,3.8-3.974L42.524,1097.86l-12.785,12.267,3.974,3.974,6.047-5.875v9.848a12.95,12.95,0,0,0,4.147,9.5,11.364,11.364,0,0,0,7.6,3.283H72.932v16.586h38.7Zm-19.351-34.555,12.785-12.439-3.8-3.974-6.22,6.047v-9.848a12.84,12.84,0,0,0-3.974-9.5,11.36,11.36,0,0,0-7.6-3.283h-21.6v-16.759h-38.7v38.7h38.7v-16.414h21.6a6.617,6.617,0,0,1,3.8,1.728,7.2,7.2,0,0,1,2.246,5.529v9.848l-6.047-6.047-3.974,3.974ZM28.7,1064.515H56.346v27.644H28.7Zm49.759,49.759H106.1v27.644H78.461Z" transform="translate(381.278 -89.332)"/>
  </g>
</svg>
