<svg xmlns="http://www.w3.org/2000/svg" width="86" height="86" viewBox="0 0 86 86">
  <g id="Easy_To_Adopt" data-name="Easy To Adopt" transform="translate(-1391 -1993)">
    <rect id="Rectangle_9406" data-name="Rectangle 9406" width="86" height="86" transform="translate(1391 1993)" fill="rgba(255,255,255,0)"/>
    <path id="Easy_To_Adopt-2" data-name="Easy To Adopt" d="M32.071,29.182a2.029,2.029,0,0,0,2.971,0l12.686-13.3A9.656,9.656,0,0,0,47.075,2.04a8.855,8.855,0,0,0-12.22.9L33.55,4.3,32.257,2.948a8.845,8.845,0,0,0-12.22-.909,9.666,9.666,0,0,0-.652,13.839Zm33.783,9.04a3.856,3.856,0,0,0-4.963,0L50.127,46.831a7.417,7.417,0,0,1-4.66,1.631H31.686a1.864,1.864,0,0,1,0-3.728h9.121a3.878,3.878,0,0,0,3.879-3.1,3.732,3.732,0,0,0-3.681-4.357H22.367a13.711,13.711,0,0,0-8.632,3.064L8.318,44.734H1.864A1.869,1.869,0,0,0,0,46.6V57.782a1.869,1.869,0,0,0,1.864,1.864H43.429a7.465,7.465,0,0,0,4.66-1.631L65.7,43.919A3.726,3.726,0,0,0,65.853,38.222Z" transform="translate(1400.443 2005.959)" fill="#ffb623"/>
  </g>
</svg>
