<svg xmlns="http://www.w3.org/2000/svg" width="86" height="86" viewBox="0 0 86 86">
  <g id="Data_Binding" data-name="Data Binding" transform="translate(-924 -1984)">
    <rect id="Rectangle_9405" data-name="Rectangle 9405" width="86" height="86" transform="translate(924 1984)" fill="rgba(255,255,255,0)"/>
    <path id="Data_Binding-2" data-name="Data Binding" d="M54.25,8.857v5.536c0,4.878-12.15,8.857-27.125,8.857S0,19.271,0,14.393V8.857C0,3.979,12.15,0,27.125,0S54.25,3.979,54.25,8.857Zm0,12.455V33.768c0,4.878-12.15,8.857-27.125,8.857S0,38.646,0,33.768V21.313c5.828,4.013,16.494,5.882,27.125,5.882S48.422,25.326,54.25,21.313Zm0,19.375V53.143C54.25,58.021,42.1,62,27.125,62S0,58.021,0,53.143V40.688c5.828,4.013,16.494,5.882,27.125,5.882S48.422,44.7,54.25,40.688Z" transform="translate(940 1996)" fill="#ffb623"/>
  </g>
</svg>
