<svg id="Group_28258" data-name="Group 28258" xmlns="http://www.w3.org/2000/svg" width="154.421" height="148.193" viewBox="0 0 154.421 148.193">
  <path id="Path_25194" data-name="Path 25194" d="M51.295,0c23.578-.052,63.933,50.47,63.933,80.236s-7.285,44.692-41.612,44.692S0,107.815,0,78.049,27.716.052,51.295,0Z" transform="matrix(0.309, 0.951, -0.951, 0.309, 118.814, 0)" fill="#ffb623"/>
  <g id="Features" transform="translate(46.211 45.186)">
    <ellipse id="Ellipse_327" data-name="Ellipse 327" cx="1" cy="1.5" rx="1" ry="1.5" transform="translate(9.814 23.814)"/>
    <circle id="Ellipse_328" data-name="Ellipse 328" cx="1.5" cy="1.5" r="1.5" transform="translate(14.814 23.814)"/>
    <circle id="Ellipse_329" data-name="Ellipse 329" cx="1.5" cy="1.5" r="1.5" transform="translate(19.814 23.814)"/>
    <path id="Path_3510" data-name="Path 3510" d="M8,60.226H25.361L8,43.886Zm2.7-10.1,7.861,7.4H10.7Z" transform="translate(1.442 13.96)"/>
    <path id="Path_3511" data-name="Path 3511" d="M84.628,9.093V1H76.535V3.7H49.558V1H41.465V9.093h8.093V6.4h4.56A16.18,16.18,0,0,0,46.86,19.884H9.093A4.051,4.051,0,0,0,5.047,23.93v16.9a2.5,2.5,0,0,0-2.656-.612A2.558,2.558,0,0,0,1,42.814V80.581a4.051,4.051,0,0,0,4.047,4.047H45.512c1.766,0,2.375-.874,2.583-1.395s.361-1.575-.925-2.785l-1.291-1.215h34.7a4.051,4.051,0,0,0,4.047-4.047V23.93a4.051,4.051,0,0,0-4.047-4.047H79.233A16.18,16.18,0,0,0,71.974,6.4h4.56v2.7ZM44.163,6.4V3.7h2.7V6.4ZM9.093,22.581h38c.047.281.124.55.186.827s.115.577.193.859a15.964,15.964,0,0,0,.6,1.768c.073.178.167.347.247.522.19.422.388.839.615,1.241.116.206.248.4.372.606.221.357.452.708.7,1.047.144.2.3.386.449.576.177.219.351.438.54.649H7.744V23.932A1.351,1.351,0,0,1,9.093,22.581Zm53.954,0a2.7,2.7,0,1,1,2.7-2.7A2.7,2.7,0,0,1,63.047,22.581Zm6.07,14.837a.674.674,0,1,1,0,1.349H56.977a.674.674,0,1,1,0-1.349Zm.674,4.721a.675.675,0,0,1-.674.674H56.977a.674.674,0,1,1,0-1.349h12.14A.675.675,0,0,1,69.791,42.14ZM5.047,81.93A1.35,1.35,0,0,1,3.7,80.581V79.233H6.4v-2.7H3.7v-2.7H6.4v-2.7H3.7v-2.7H6.4v-2.7H3.7v-2.7H6.4v-2.7H3.7v-2.7H6.4v-2.7H3.7v-2.7H6.4v-2.7H3.7V43.237L17.809,56.52l4.069,3.829h0L44.809,81.93ZM13.14,48.42V38.767H42.814V57.651H22.948ZM80.581,76.535H43.012l-17.2-16.186h19.7V36.07H10.442v9.81l-2.7-2.539V33.372H54.16c.264.173.518.359.793.518v1.523a3.324,3.324,0,0,0-.657,4.7A3.333,3.333,0,0,0,53.6,42.14a3.377,3.377,0,0,0,3.372,3.372h12.14a3.377,3.377,0,0,0,3.372-3.372,3.333,3.333,0,0,0-.692-2.023,3.324,3.324,0,0,0-.657-4.7V33.89c.275-.159.529-.344.793-.518h10V75.186A1.35,1.35,0,0,1,80.581,76.535ZM79,22.581h1.579A1.351,1.351,0,0,1,81.93,23.93v6.744H75.1c.189-.209.363-.43.54-.649.154-.19.3-.379.449-.576.25-.339.479-.689.7-1.047.125-.2.256-.4.372-.606.225-.4.424-.82.615-1.241.08-.175.174-.343.247-.522a16.248,16.248,0,0,0,.6-1.768c.08-.282.129-.572.193-.859S78.955,22.862,79,22.581Zm-2.467-2.7a13.62,13.62,0,0,1-.1,1.489c-.036.333-.092.661-.152.987-.049.263-.1.525-.165.782-.076.3-.163.6-.259.9-.089.274-.185.545-.291.811s-.219.533-.341.793c-.134.282-.281.557-.433.83-.129.232-.26.463-.4.685-.182.282-.38.553-.584.82-.148.2-.293.4-.452.584-.232.275-.487.531-.742.788-.161.162-.313.33-.482.483-.3.27-.618.515-.94.759-.154.116-.3.244-.456.355a13.814,13.814,0,0,1-1.555.936l-.735.378v2.458H64.4V25.088a5.4,5.4,0,1,0-2.7,0v9.633H57.651V32.263l-.734-.376a13.814,13.814,0,0,1-1.555-.936c-.159-.111-.3-.239-.456-.355-.322-.244-.643-.49-.94-.759-.169-.154-.321-.322-.482-.483-.255-.256-.509-.514-.742-.788-.159-.189-.3-.387-.452-.584-.2-.268-.4-.538-.584-.82-.143-.223-.274-.455-.4-.685-.152-.272-.3-.548-.433-.83-.123-.26-.235-.525-.341-.793s-.2-.537-.291-.811c-.1-.3-.183-.595-.259-.9-.065-.258-.116-.519-.165-.782-.061-.326-.116-.654-.152-.987a13.337,13.337,0,0,1-.1-1.49,13.488,13.488,0,1,1,26.977,0ZM81.93,3.7V6.4h-2.7V3.7Z" transform="translate(-1 -1)"/>
    <rect id="Rectangle_614" data-name="Rectangle 614" width="31" height="2" transform="translate(46.814 48.814)"/>
    <rect id="Rectangle_615" data-name="Rectangle 615" width="31" height="3" transform="translate(46.814 53.814)"/>
    <rect id="Rectangle_616" data-name="Rectangle 616" width="31" height="2" transform="translate(46.814 59.814)"/>
    <rect id="Rectangle_617" data-name="Rectangle 617" width="31" height="3" transform="translate(46.814 64.814)"/>
  </g>
</svg>
