<svg xmlns="http://www.w3.org/2000/svg" xmlns:xlink="http://www.w3.org/1999/xlink" width="421.28" height="376.191" viewBox="0 0 421.28 376.191">
  <defs>
    <linearGradient id="linear-gradient" x1="-0.346" y1="0.152" x2="1" y2="0.911" gradientUnits="objectBoundingBox">
      <stop offset="0" stop-color="#fb0"/>
      <stop offset="1" stop-color="#f24b57"/>
    </linearGradient>
    <filter id="Ellipse_843">
      <feOffset dy="3" input="SourceAlpha"/>
      <feGaussianBlur stdDeviation="4" result="blur"/>
      <feFlood flood-opacity="0.561" result="color"/>
      <feComposite operator="out" in="SourceGraphic" in2="blur"/>
      <feComposite operator="in" in="color"/>
      <feComposite operator="in" in2="SourceGraphic"/>
    </filter>
    <filter id="Path_31269">
      <feOffset dy="3" input="SourceAlpha"/>
      <feGaussianBlur stdDeviation="4" result="blur-2"/>
      <feFlood flood-opacity="0.561" result="color-2"/>
      <feComposite operator="out" in="SourceGraphic" in2="blur-2"/>
      <feComposite operator="in" in="color-2"/>
      <feComposite operator="in" in2="SourceGraphic"/>
    </filter>
  </defs>
  <g id="Group_28278" data-name="Group 28278" transform="translate(-1.4 -8.1)">
    <g data-type="innerShadowGroup">
      <circle id="Ellipse_843-2" data-name="Ellipse 843" cx="38.359" cy="38.359" r="38.359" transform="translate(173.681 157.836)" fill="url(#linear-gradient)"/>
      <g transform="matrix(1, 0, 0, 1, 1.4, 8.1)" filter="url(#Ellipse_843)">
        <circle id="Ellipse_843-3" data-name="Ellipse 843" cx="38.359" cy="38.359" r="38.359" transform="translate(172.28 149.74)" fill="#fff"/>
      </g>
    </g>
    <g data-type="innerShadowGroup">
      <path id="Path_31269-2" data-name="Path 31269" d="M357.738,132.936c-7.4-2.692-15.142-5.384-23.218-7.739,2.019-8.076,3.7-16.151,5.047-23.89,7.066-44.416-.673-75.709-22.208-87.823A41.8,41.8,0,0,0,295.825,8.1c-23.554,0-53.5,17.5-83.785,46.771C181.756,25.6,151.809,8.1,128.255,8.1a41.8,41.8,0,0,0-21.535,5.384c-21.535,12.45-29.274,43.743-22.208,87.823,1.346,7.739,3.028,15.815,5.047,23.89a234.657,234.657,0,0,0-23.217,7.739C24.281,149.087,1.4,171.3,1.4,196.2S24.617,243.3,66.342,259.455c7.4,2.692,15.142,5.384,23.217,7.739-2.019,8.076-3.7,16.151-5.047,23.89-7.066,44.416.673,75.709,22.208,87.823a41.8,41.8,0,0,0,21.535,5.384c23.89,0,53.838-17.5,83.785-46.772,30.284,29.274,60.231,46.772,83.785,46.772a41.8,41.8,0,0,0,21.535-5.384c21.535-12.45,29.274-43.743,22.208-87.823-1.346-7.739-3.028-15.815-5.047-23.89a234.657,234.657,0,0,0,23.218-7.739C399.8,243.3,422.68,221.1,422.68,196.2S399.8,149.087,357.738,132.936Zm-49.8-102.628c13.8,8.076,18.507,32.976,12.786,68.307a202.613,202.613,0,0,1-4.711,22.208,399.756,399.756,0,0,0-55.52-8.412A485.494,485.494,0,0,0,225.5,68.667C250.4,44.1,275.636,27.28,296.161,27.28a22.732,22.732,0,0,1,11.777,3.028ZM270.252,229.844c-6.057,10.768-13.123,21.535-20.526,32.3-12.45,1.009-24.9,1.346-37.686,1.346-13.123,0-25.573-.336-37.686-1.346q-11.1-16.151-20.189-32.3c-6.393-11.1-12.45-22.545-17.834-33.649,5.384-11.1,11.441-22.545,17.834-33.649,6.057-10.768,13.123-21.535,20.526-32.3,12.45-1.009,24.9-1.346,37.686-1.346,13.123,0,25.573.336,37.686,1.346q11.1,16.151,20.189,32.3c6.393,11.1,12.45,22.545,17.834,33.649C282.365,207.3,276.645,218.4,270.252,229.844Zm27.928-11.1c5.047,11.777,9.085,23.218,12.786,34.658-11.441,2.692-23.554,4.711-36.34,6.393,4.038-6.393,8.412-13.123,12.113-20.189,4.038-7.066,7.739-14.132,11.441-20.862Zm-86.14,91.188c-8.076-8.749-15.815-18.17-23.217-27.928,7.739.336,15.478.673,23.217.673s15.478-.337,23.218-.673C227.855,291.757,220.116,301.179,212.04,309.927Zm-62.586-50.473c-12.786-1.682-24.9-3.7-36.34-6.393,3.7-11.1,7.739-22.881,12.786-34.658,3.7,6.73,7.4,13.8,11.44,20.526,4.038,7.4,8.076,13.8,12.113,20.526Zm-23.554-85.8c-5.047-11.777-9.085-23.217-12.786-34.658,11.441-2.692,23.554-4.711,36.34-6.393-4.038,6.393-8.412,13.123-12.113,20.189C133.3,159.855,129.6,166.921,125.9,173.651Zm86.14-91.188c8.076,8.749,15.815,18.17,23.218,27.928-7.739-.336-15.478-.673-23.218-.673s-15.478.336-23.217.673c7.4-9.758,15.142-19.18,23.217-27.928Zm74.7,70.662-12.113-20.189c12.786,1.682,24.9,3.7,36.34,6.393-3.7,11.1-7.739,22.881-12.786,34.658C294.479,166.921,290.778,159.855,286.74,153.125ZM103.355,98.615c-5.72-35.331-1.009-60.231,12.786-68.307a22.732,22.732,0,0,1,11.777-3.028c20.189,0,45.426,16.488,70.662,41.388a442.317,442.317,0,0,0-34.994,43.743,457.469,457.469,0,0,0-55.52,8.412c-2.019-7.739-3.365-15.142-4.711-22.208ZM20.243,196.2c0-15.815,19.18-32.639,52.828-45.089a201.749,201.749,0,0,1,21.535-7.066A490.45,490.45,0,0,0,114.8,196.532c-8.076,17.834-15.142,35.331-20.189,52.155C48.172,235.228,20.243,215.039,20.243,196.2Zm95.9,165.887c-13.8-8.076-18.507-32.976-12.786-68.307a202.622,202.622,0,0,1,4.711-22.208,399.764,399.764,0,0,0,55.52,8.412,485.5,485.5,0,0,0,34.994,43.743c-24.9,24.563-50.136,41.388-70.662,41.388a22.732,22.732,0,0,1-11.777-3.028Zm204.583-68.307c5.72,35.331,1.009,60.231-12.786,68.307a22.732,22.732,0,0,1-11.777,3.028c-20.189,0-45.426-16.488-70.662-41.388a442.324,442.324,0,0,0,34.994-43.743,457.476,457.476,0,0,0,55.52-8.412C318.033,279.307,319.379,286.71,320.725,293.776Zm30.284-52.492a201.736,201.736,0,0,1-21.535,7.066,490.445,490.445,0,0,0-20.189-52.492c8.076-17.834,15.142-35.331,20.189-52.155,46.435,13.459,74.363,33.649,74.363,52.492C403.837,212.01,384.321,228.834,351.008,241.284Z" transform="translate(0 0)" fill="url(#linear-gradient)"/>
      <g transform="matrix(1, 0, 0, 1, 1.4, 8.1)" filter="url(#Path_31269)">
        <path id="Path_31269-3" data-name="Path 31269" d="M357.738,132.936c-7.4-2.692-15.142-5.384-23.218-7.739,2.019-8.076,3.7-16.151,5.047-23.89,7.066-44.416-.673-75.709-22.208-87.823A41.8,41.8,0,0,0,295.825,8.1c-23.554,0-53.5,17.5-83.785,46.771C181.756,25.6,151.809,8.1,128.255,8.1a41.8,41.8,0,0,0-21.535,5.384c-21.535,12.45-29.274,43.743-22.208,87.823,1.346,7.739,3.028,15.815,5.047,23.89a234.657,234.657,0,0,0-23.217,7.739C24.281,149.087,1.4,171.3,1.4,196.2S24.617,243.3,66.342,259.455c7.4,2.692,15.142,5.384,23.217,7.739-2.019,8.076-3.7,16.151-5.047,23.89-7.066,44.416.673,75.709,22.208,87.823a41.8,41.8,0,0,0,21.535,5.384c23.89,0,53.838-17.5,83.785-46.772,30.284,29.274,60.231,46.772,83.785,46.772a41.8,41.8,0,0,0,21.535-5.384c21.535-12.45,29.274-43.743,22.208-87.823-1.346-7.739-3.028-15.815-5.047-23.89a234.657,234.657,0,0,0,23.218-7.739C399.8,243.3,422.68,221.1,422.68,196.2S399.8,149.087,357.738,132.936Zm-49.8-102.628c13.8,8.076,18.507,32.976,12.786,68.307a202.613,202.613,0,0,1-4.711,22.208,399.756,399.756,0,0,0-55.52-8.412A485.494,485.494,0,0,0,225.5,68.667C250.4,44.1,275.636,27.28,296.161,27.28a22.732,22.732,0,0,1,11.777,3.028ZM270.252,229.844c-6.057,10.768-13.123,21.535-20.526,32.3-12.45,1.009-24.9,1.346-37.686,1.346-13.123,0-25.573-.336-37.686-1.346q-11.1-16.151-20.189-32.3c-6.393-11.1-12.45-22.545-17.834-33.649,5.384-11.1,11.441-22.545,17.834-33.649,6.057-10.768,13.123-21.535,20.526-32.3,12.45-1.009,24.9-1.346,37.686-1.346,13.123,0,25.573.336,37.686,1.346q11.1,16.151,20.189,32.3c6.393,11.1,12.45,22.545,17.834,33.649C282.365,207.3,276.645,218.4,270.252,229.844Zm27.928-11.1c5.047,11.777,9.085,23.218,12.786,34.658-11.441,2.692-23.554,4.711-36.34,6.393,4.038-6.393,8.412-13.123,12.113-20.189,4.038-7.066,7.739-14.132,11.441-20.862Zm-86.14,91.188c-8.076-8.749-15.815-18.17-23.217-27.928,7.739.336,15.478.673,23.217.673s15.478-.337,23.218-.673C227.855,291.757,220.116,301.179,212.04,309.927Zm-62.586-50.473c-12.786-1.682-24.9-3.7-36.34-6.393,3.7-11.1,7.739-22.881,12.786-34.658,3.7,6.73,7.4,13.8,11.44,20.526,4.038,7.4,8.076,13.8,12.113,20.526Zm-23.554-85.8c-5.047-11.777-9.085-23.217-12.786-34.658,11.441-2.692,23.554-4.711,36.34-6.393-4.038,6.393-8.412,13.123-12.113,20.189C133.3,159.855,129.6,166.921,125.9,173.651Zm86.14-91.188c8.076,8.749,15.815,18.17,23.218,27.928-7.739-.336-15.478-.673-23.218-.673s-15.478.336-23.217.673c7.4-9.758,15.142-19.18,23.217-27.928Zm74.7,70.662-12.113-20.189c12.786,1.682,24.9,3.7,36.34,6.393-3.7,11.1-7.739,22.881-12.786,34.658C294.479,166.921,290.778,159.855,286.74,153.125ZM103.355,98.615c-5.72-35.331-1.009-60.231,12.786-68.307a22.732,22.732,0,0,1,11.777-3.028c20.189,0,45.426,16.488,70.662,41.388a442.317,442.317,0,0,0-34.994,43.743,457.469,457.469,0,0,0-55.52,8.412c-2.019-7.739-3.365-15.142-4.711-22.208ZM20.243,196.2c0-15.815,19.18-32.639,52.828-45.089a201.749,201.749,0,0,1,21.535-7.066A490.45,490.45,0,0,0,114.8,196.532c-8.076,17.834-15.142,35.331-20.189,52.155C48.172,235.228,20.243,215.039,20.243,196.2Zm95.9,165.887c-13.8-8.076-18.507-32.976-12.786-68.307a202.622,202.622,0,0,1,4.711-22.208,399.764,399.764,0,0,0,55.52,8.412,485.5,485.5,0,0,0,34.994,43.743c-24.9,24.563-50.136,41.388-70.662,41.388a22.732,22.732,0,0,1-11.777-3.028Zm204.583-68.307c5.72,35.331,1.009,60.231-12.786,68.307a22.732,22.732,0,0,1-11.777,3.028c-20.189,0-45.426-16.488-70.662-41.388a442.324,442.324,0,0,0,34.994-43.743,457.476,457.476,0,0,0,55.52-8.412C318.033,279.307,319.379,286.71,320.725,293.776Zm30.284-52.492a201.736,201.736,0,0,1-21.535,7.066,490.445,490.445,0,0,0-20.189-52.492c8.076-17.834,15.142-35.331,20.189-52.155,46.435,13.459,74.363,33.649,74.363,52.492C403.837,212.01,384.321,228.834,351.008,241.284Z" transform="translate(-1.4 -8.1)" fill="#fff"/>
      </g>
    </g>
  </g>
</svg>
