<svg xmlns="http://www.w3.org/2000/svg" width="86" height="86" viewBox="0 0 86 86">
  <g id="Reusable_Components" data-name="Reusable Components" transform="translate(-447 -1985)">
    <rect id="Rectangle_9404" data-name="Rectangle 9404" width="86" height="86" transform="translate(447 1985)" fill="rgba(255,255,255,0)"/>
    <path id="Reusable_Components-2" data-name="Reusable Components" d="M26.025,36.932a2.258,2.258,0,0,1-3.394,2.421l-5.744-3.589L9.714,47.242a4.521,4.521,0,0,0,3.825,6.907H20.87a1.692,1.692,0,0,1,1.692,1.692v5.641a1.692,1.692,0,0,1-1.692,1.692H13.553A13.546,13.546,0,0,1,2.074,42.462L9.24,30.985,3.5,27.4a2.258,2.258,0,0,1,.688-4.112L19.73,19.7a2.256,2.256,0,0,1,2.706,1.691l3.589,15.545Zm13.9-25.793,5.822,9.318L40,24.046a2.258,2.258,0,0,0,.688,4.112l15.545,3.589a2.256,2.256,0,0,0,2.706-1.691l3.589-15.545a2.258,2.258,0,0,0-3.394-2.421L53.4,15.675,47.579,6.356a13.544,13.544,0,0,0-22.959,0l-2.533,4.056a1.692,1.692,0,0,0,.539,2.331l4.783,2.989a1.692,1.692,0,0,0,2.332-.538l2.533-4.053A4.517,4.517,0,0,1,39.924,11.138Zm30.2,31.323-3.88-6.214a1.692,1.692,0,0,0-2.332-.539l-4.775,2.984a1.692,1.692,0,0,0-.538,2.332l3.887,6.22a4.52,4.52,0,0,1-3.827,6.9H45.124V47.383a2.258,2.258,0,0,0-3.851-1.6L29.992,57.066a2.256,2.256,0,0,0,0,3.191L41.273,71.536a2.258,2.258,0,0,0,3.851-1.6V63.174h13.52A13.546,13.546,0,0,0,70.124,42.462Z" transform="translate(454 1991.9)" fill="#ffb623"/>
  </g>
</svg>
