<svg xmlns="http://www.w3.org/2000/svg" width="86" height="86" viewBox="0 0 86 86">
  <g id="SEO" transform="translate(-916 -2333)">
    <rect id="Rectangle_9408" data-name="Rectangle 9408" width="86" height="86" transform="translate(916 2333)" fill="rgba(255,255,255,0)"/>
    <g id="SEO-2" data-name="SEO" transform="translate(20719.82 20774.842)">
      <g id="Icon_feather-bar-chart-2" data-name="Icon feather-bar-chart-2" transform="translate(-19776.297 -18416.563)">
        <path id="Path_41261" data-name="Path 41261" d="M27,25.805V15" transform="translate(-9.884 -8.517)" fill="none" stroke="#ffb623" stroke-linecap="round" stroke-linejoin="round" stroke-width="4"/>
        <path id="Path_41262" data-name="Path 41262" d="M18,23.288V6" transform="translate(-9.442 -6)" fill="none" stroke="#ffb623" stroke-linecap="round" stroke-linejoin="round" stroke-width="4"/>
        <path id="Path_41263" data-name="Path 41263" d="M9,27.483V21" transform="translate(-9 -10.195)" fill="none" stroke="#ffb623" stroke-linecap="round" stroke-linejoin="round" stroke-width="4"/>
      </g>
      <path id="Icon_awesome-search" data-name="Icon awesome-search" d="M70.157,61.5,56.306,47.651a3.332,3.332,0,0,0-2.362-.972H51.68a28.883,28.883,0,1,0-5,5v2.264a3.332,3.332,0,0,0,.972,2.362L61.5,70.157a3.32,3.32,0,0,0,4.71,0l3.932-3.932a3.35,3.35,0,0,0,.014-4.723ZM28.9,46.678A17.782,17.782,0,1,1,46.678,28.9,17.772,17.772,0,0,1,28.9,46.678Z" transform="translate(-19796.82 -18434.842)" fill="#ffb623"/>
    </g>
  </g>
</svg>
