<svg xmlns="http://www.w3.org/2000/svg" width="86" height="86" viewBox="0 0 86 86">
  <g id="Unique" transform="translate(-1380 -2329)">
    <rect id="Rectangle_9407" data-name="Rectangle 9407" width="86" height="86" transform="translate(1380 2329)" fill="rgba(255,255,255,0)"/>
    <path id="Unique-2" data-name="Unique" d="M36.458,35.013a3.416,3.416,0,0,0-3.416,3.416A104.091,104.091,0,0,1,29.1,68.543a3.416,3.416,0,1,0,6.578,1.846,110.175,110.175,0,0,0,4.2-31.961,3.414,3.414,0,0,0-3.415-3.416Zm-.122-11.634a14.238,14.238,0,0,0-14.685,14.39,93.394,93.394,0,0,1-1.9,20.292,3.416,3.416,0,1,0,6.69,1.384,100.219,100.219,0,0,0,2.046-21.782,7.417,7.417,0,0,1,7.751-7.451,8.239,8.239,0,0,1,8.2,7.9,114.443,114.443,0,0,1-1.51,20.434,3.415,3.415,0,1,0,6.739,1.112A121.425,121.425,0,0,0,51.27,38,15.124,15.124,0,0,0,36.336,23.378ZM20.579,20.563a3.42,3.42,0,0,0-4.806.5A24.689,24.689,0,0,0,10.257,37a82.67,82.67,0,0,1-1.3,15.95,3.417,3.417,0,1,0,6.726,1.214,89.536,89.536,0,0,0,1.4-17.271,17.593,17.593,0,0,1,3.986-11.526,3.418,3.418,0,0,0-.5-4.806ZM36.162,11.69a25.445,25.445,0,0,0-6.517.707,3.417,3.417,0,1,0,1.574,6.651,20.431,20.431,0,0,1,4.84-.525c10.738.161,19.606,8.755,19.77,19.158a125.421,125.421,0,0,1-.794,16.175,3.417,3.417,0,1,0,6.789.779,132.25,132.25,0,0,0,.838-17.061c-.222-14.057-12.11-25.67-26.5-25.884ZM72.044,28.978a3.416,3.416,0,1,0-6.672,1.472,35.5,35.5,0,0,1,.669,8.769,3.416,3.416,0,0,0,3.388,3.445h.028a3.416,3.416,0,0,0,3.416-3.388,42.3,42.3,0,0,0-.83-10.3ZM66.333,16.064A37.866,37.866,0,0,0,35.987,0a35.656,35.656,0,0,0-25.958,10.38A33.949,33.949,0,0,0,.019,35.111L0,38.167a3.414,3.414,0,0,0,3.314,3.515c.033,0,.068,0,.1,0a3.418,3.418,0,0,0,3.412-3.317L6.854,35a27.157,27.157,0,0,1,8.011-19.787A28.848,28.848,0,0,1,35.887,6.837,31.012,31.012,0,0,1,60.745,19.989a3.415,3.415,0,1,0,5.589-3.925Z" transform="translate(1386.559 2335.559)" fill="#ffb623"/>
  </g>
</svg>
