<svg xmlns="http://www.w3.org/2000/svg" xmlns:xlink="http://www.w3.org/1999/xlink" width="385" height="267" viewBox="0 0 385 267">
  <defs>
    <filter id="Rectangle_8547" x="0" y="0" width="385" height="267" filterUnits="userSpaceOnUse">
      <feOffset dy="3" input="SourceAlpha"/>
      <feGaussianBlur stdDeviation="28" result="blur"/>
      <feFlood flood-opacity="0.082"/>
      <feComposite operator="in" in2="blur"/>
      <feComposite in="SourceGraphic"/>
    </filter>
  </defs>
  <g id="Group_26246" data-name="Group 26246" transform="translate(-1409 -1650)">
    <g transform="matrix(1, 0, 0, 1, 1409, 1650)" filter="url(#Rectangle_8547)">
      <rect id="Rectangle_8547-2" data-name="Rectangle 8547" width="217" height="99" rx="26" transform="translate(84 81)" fill="#fff"/>
    </g>
    <path id="php-svgrepo-com" d="M15.879,33.4c2.533,0,4.425-.476,5.624-1.411a7.662,7.662,0,0,0,2.431-4.769c.4-2.091.247-3.554-.451-4.34-.714-.8-2.261-1.216-4.6-1.216H14.829L12.584,33.4ZM2.629,47.862a.621.621,0,0,1-.485-.234.642.642,0,0,1-.132-.531L7.964,16a.638.638,0,0,1,.621-.519H21.409c4.03,0,7.031,1.114,8.918,3.3,1.9,2.206,2.482,5.284,1.739,9.16a14.213,14.213,0,0,1-4.383,7.97,12.425,12.425,0,0,1-4.672,2.844,20.823,20.823,0,0,1-6.419.837H11.4L9.919,47.348a.638.638,0,0,1-.616.519H2.629Zm45.25-8.268a.612.612,0,0,1-.48-.234.655.655,0,0,1-.132-.527l2.6-13.76c.247-1.309.187-2.249-.17-2.644-.217-.242-.876-.65-2.823-.65h-4.71l-3.269,17.3a.629.629,0,0,1-.612.519H31.755a.612.612,0,0,1-.48-.234.655.655,0,0,1-.132-.527l5.875-31.1a.629.629,0,0,1,.612-.519h6.533a.612.612,0,0,1,.48.234.659.659,0,0,1,.132.531L43.36,15.492h5.067c3.86,0,6.474.7,8,2.138,1.552,1.471,2.036,3.817,1.441,6.98L55.135,39.084a.629.629,0,0,1-.612.519H47.879ZM69.885,33.4c2.631,0,4.6-.476,5.841-1.411a7.594,7.594,0,0,0,2.525-4.769c.417-2.091.255-3.554-.472-4.34-.744-.8-2.351-1.216-4.778-1.216H68.8L66.463,33.4ZM56.13,47.862a.663.663,0,0,1-.506-.234.633.633,0,0,1-.136-.531L61.668,16a.65.65,0,0,1,.642-.519H75.628c4.187,0,7.3,1.114,9.258,3.3,1.968,2.206,2.576,5.284,1.807,9.16a14.337,14.337,0,0,1-1.6,4.353,14.648,14.648,0,0,1-2.946,3.613,13.028,13.028,0,0,1-4.85,2.844,22.423,22.423,0,0,1-6.665.837H65.235L63.7,47.339a.65.65,0,0,1-.642.519H56.129v0Z" transform="translate(1556.553 1752.956)"/>
  </g>
</svg>
