<svg xmlns="http://www.w3.org/2000/svg" xmlns:xlink="http://www.w3.org/1999/xlink" width="385" height="267" viewBox="0 0 385 267">
  <defs>
    <filter id="Rectangle_8554" x="0" y="0" width="385" height="267" filterUnits="userSpaceOnUse">
      <feOffset dy="3" input="SourceAlpha"/>
      <feGaussianBlur stdDeviation="28" result="blur"/>
      <feFlood flood-opacity="0.082"/>
      <feComposite operator="in" in2="blur"/>
      <feComposite in="SourceGraphic"/>
    </filter>
  </defs>
  <g id="Group_26263" data-name="Group 26263" transform="translate(-768 -2008)">
    <g transform="matrix(1, 0, 0, 1, 768, 2008)" filter="url(#Rectangle_8554)">
      <rect id="Rectangle_8554-2" data-name="Rectangle 8554" width="217" height="99" rx="26" transform="translate(84 81)" fill="#fff"/>
    </g>
    <g id="Logo" transform="translate(891 2119)">
      <path id="Path_23817" data-name="Path 23817" d="M16.664,0,0,9.619V28.832l4.757,2.75L4.723,12.365,16.631,5.492l11.907,6.873V31.574L33.3,28.832V9.6Z" fill="#f26322"/>
      <path id="Path_23818" data-name="Path 23818" d="M235.918,313.713l-2.376,1.381-2.389-1.369V294.5l-4.753,2.746.008,19.217,7.129,4.119,7.138-4.119V297.246l-4.757-2.746Z" transform="translate(-216.894 -282.135)" fill="#f26322"/>
      <path id="Path_23819" data-name="Path 23819" d="M998.01,232l6.542,16.526h.055L1010.988,232h2.49v18.936h-1.721v-16.5h-.055q-.134.449-.29.9-.134.369-.307.819c-.113.3-.218.584-.3.848l-5.483,13.935h-1.562L998.22,237q-.16-.369-.319-.806t-.294-.836q-.16-.479-.319-.928h-.055v16.5H995.6V232Z" transform="translate(-953.819 -222.263)" fill="#4d4d4d"/>
      <path id="Path_23820" data-name="Path 23820" d="M1479,364.061a4.031,4.031,0,0,1-1.415-.714,3.363,3.363,0,0,1-.941-1.192,3.8,3.8,0,0,1-.344-1.667,3.9,3.9,0,0,1,.449-1.986,3.476,3.476,0,0,1,1.218-1.23,6.2,6.2,0,0,1,1.789-.7,19.16,19.16,0,0,1,2.183-.369q1.008-.1,1.709-.227a5.319,5.319,0,0,0,1.138-.307,1.349,1.349,0,0,0,.634-.491,1.532,1.532,0,0,0,.2-.836v-.264a2.5,2.5,0,0,0-.848-2.078,3.829,3.829,0,0,0-2.435-.676q-3.657,0-3.842,3.048h-1.616a4.482,4.482,0,0,1,1.47-3.178,5.818,5.818,0,0,1,3.984-1.192,5.7,5.7,0,0,1,3.548,1,3.834,3.834,0,0,1,1.3,3.246v7.44a1.4,1.4,0,0,0,.227.886.9.9,0,0,0,.676.307,1.583,1.583,0,0,0,.277-.025c.1-.017.206-.046.332-.08h.08v1.192a3.11,3.11,0,0,1-.449.147,2.8,2.8,0,0,1-.663.067,2.1,2.1,0,0,1-1.432-.466,1.994,1.994,0,0,1-.584-1.47v-.29h-.071a7.986,7.986,0,0,1-.7.823,4.724,4.724,0,0,1-1,.768,5.553,5.553,0,0,1-1.352.554,6.412,6.412,0,0,1-1.747.21,6.344,6.344,0,0,1-1.776-.239m4.039-1.444a4.623,4.623,0,0,0,1.444-.915,3.707,3.707,0,0,0,1.167-2.675v-2.465a5.783,5.783,0,0,1-1.6.571q-.941.2-1.948.332-.873.134-1.616.277a4,4,0,0,0-1.285.462,2.371,2.371,0,0,0-.861.861,2.775,2.775,0,0,0-.319,1.419,2.541,2.541,0,0,0,.252,1.192,2.161,2.161,0,0,0,.663.768,2.6,2.6,0,0,0,.966.411,5.548,5.548,0,0,0,1.167.118,5.117,5.117,0,0,0,1.973-.357" transform="translate(-1414.336 -335.309)" fill="#4d4d4d"/>
      <path id="Path_23821" data-name="Path 23821" d="M1791.15,367.855a3.646,3.646,0,0,1-1.562-2.557h1.587a2.231,2.231,0,0,0,1.285,1.709,5.835,5.835,0,0,0,2.557.516,4.426,4.426,0,0,0,3.246-1.045,3.886,3.886,0,0,0,1.045-2.876v-2.171h-.08a5.666,5.666,0,0,1-1.776,1.772,4.9,4.9,0,0,1-2.57.609,5.707,5.707,0,0,1-2.435-.5,5.385,5.385,0,0,1-1.856-1.4,6.273,6.273,0,0,1-1.18-2.158,8.866,8.866,0,0,1-.411-2.767,8.494,8.494,0,0,1,.474-2.952,6.493,6.493,0,0,1,1.272-2.158,5.243,5.243,0,0,1,1.868-1.323,5.79,5.79,0,0,1,2.263-.449,4.834,4.834,0,0,1,2.62.651,5.417,5.417,0,0,1,1.721,1.759h.08v-2.125h1.625v13.163a5.279,5.279,0,0,1-1.272,3.682,6.029,6.029,0,0,1-4.581,1.642,6.5,6.5,0,0,1-3.922-1.02m7.18-6.928a6.653,6.653,0,0,0,1.087-3.972,8.761,8.761,0,0,0-.264-2.225,4.816,4.816,0,0,0-.823-1.734,3.758,3.758,0,0,0-1.39-1.125,4.474,4.474,0,0,0-1.948-.4,3.721,3.721,0,0,0-3.166,1.507A6.574,6.574,0,0,0,1790.7,357a8.388,8.388,0,0,0,.264,2.158,5.185,5.185,0,0,0,.794,1.721,3.74,3.74,0,0,0,1.323,1.138,4.036,4.036,0,0,0,1.881.411,3.864,3.864,0,0,0,3.363-1.512" transform="translate(-1713.907 -335.403)" fill="#4d4d4d"/>
      <path id="Path_23822" data-name="Path 23822" d="M2125.253,363.209a5.584,5.584,0,0,1-2-1.507,6.748,6.748,0,0,1-1.23-2.28,9.221,9.221,0,0,1-.424-2.847,8.72,8.72,0,0,1,.449-2.847,7.107,7.107,0,0,1,1.256-2.276,5.679,5.679,0,0,1,1.961-1.512,5.988,5.988,0,0,1,2.582-.542,5.655,5.655,0,0,1,2.767.621,5.188,5.188,0,0,1,1.827,1.667,6.892,6.892,0,0,1,1,2.4,13.162,13.162,0,0,1,.29,2.78h-10.434a7.941,7.941,0,0,0,.332,2.158,5.426,5.426,0,0,0,.874,1.734,3.968,3.968,0,0,0,1.444,1.167,4.62,4.62,0,0,0,2.041.424,3.876,3.876,0,0,0,2.662-.836,4.562,4.562,0,0,0,1.335-2.238h1.591a5.821,5.821,0,0,1-1.856,3.258,5.5,5.5,0,0,1-3.732,1.218,6.532,6.532,0,0,1-2.729-.542m6.461-9.535a4.662,4.662,0,0,0-.768-1.537,3.516,3.516,0,0,0-1.272-1.02,4.177,4.177,0,0,0-1.826-.369,4.289,4.289,0,0,0-1.843.369,3.939,3.939,0,0,0-1.365,1.02,5.08,5.08,0,0,0-.886,1.524,7.517,7.517,0,0,0-.437,1.906H2132a7.241,7.241,0,0,0-.29-1.894" transform="translate(-2032.542 -334.734)" fill="#4d4d4d"/>
      <path id="Path_23823" data-name="Path 23823" d="M2460.642,350.194v2.091h.054a5.626,5.626,0,0,1,1.814-1.709,5.284,5.284,0,0,1,2.767-.676,4.544,4.544,0,0,1,3.141,1.1,4.008,4.008,0,0,1,1.23,3.166v9.724h-1.642v-9.565a2.89,2.89,0,0,0-.835-2.292,3.349,3.349,0,0,0-2.292-.726,4.59,4.59,0,0,0-1.642.294,4.33,4.33,0,0,0-1.352.806,3.71,3.71,0,0,0-.915,1.23,3.67,3.67,0,0,0-.332,1.562v8.691H2459v-13.7Z" transform="translate(-2355.776 -335.213)" fill="#4d4d4d"/>
      <path id="Path_23824" data-name="Path 23824" d="M2750.08,274.041a2.287,2.287,0,0,1-.714-1.894v-9.984H2747.3v-1.352h2.066V256.6h1.641v4.211h2.544v1.352h-2.544v9.72a1.281,1.281,0,0,0,.332,1.02,1.516,1.516,0,0,0,.991.277,2.812,2.812,0,0,0,.6-.067,2.731,2.731,0,0,0,.491-.147h.08v1.4a4.593,4.593,0,0,1-1.511.239,2.964,2.964,0,0,1-1.906-.571" transform="translate(-2631.971 -245.83)" fill="#4d4d4d"/>
      <path id="Path_23825" data-name="Path 23825" d="M2927.595,363.114a5.737,5.737,0,0,1-2-1.511,6.761,6.761,0,0,1-1.26-2.276,9.5,9.5,0,0,1,0-5.693,6.808,6.808,0,0,1,1.26-2.28,5.744,5.744,0,0,1,2-1.511,6.31,6.31,0,0,1,2.662-.542,6.223,6.223,0,0,1,2.649.542,5.777,5.777,0,0,1,1.986,1.511,6.54,6.54,0,0,1,1.243,2.28,9.392,9.392,0,0,1,.424,2.847,9.2,9.2,0,0,1-.424,2.847,6.633,6.633,0,0,1-1.243,2.276,5.768,5.768,0,0,1-1.986,1.511,6.205,6.205,0,0,1-2.649.542,6.292,6.292,0,0,1-2.662-.542m4.677-1.285a4.129,4.129,0,0,0,1.457-1.243,5.571,5.571,0,0,0,.873-1.856,8.828,8.828,0,0,0,0-4.5,5.57,5.57,0,0,0-.873-1.856,4.114,4.114,0,0,0-1.457-1.243,4.268,4.268,0,0,0-2.011-.449,4.513,4.513,0,0,0-2.028.449,4.28,4.28,0,0,0-1.457,1.243,5.438,5.438,0,0,0-.886,1.856,8.849,8.849,0,0,0,0,4.5,5.488,5.488,0,0,0,.886,1.856,4.13,4.13,0,0,0,3.485,1.692,4.225,4.225,0,0,0,2.011-.449" transform="translate(-2801.156 -334.638)" fill="#4d4d4d"/>
      <path id="Path_23826" data-name="Path 23826" d="M3236.121,330.627a1.764,1.764,0,0,1,0-3.527,1.764,1.764,0,0,1,0,3.527m0-3.325a1.56,1.56,0,1,0,1.482,1.562,1.437,1.437,0,0,0-1.482-1.562m.508,2.507-.583-.836h-.189v.806h-.336v-1.957h.592c.407,0,.68.206.68.571a.525.525,0,0,1-.395.537l.563.8Zm-.512-1.675h-.26v.575h.244c.218,0,.357-.092.357-.29s-.122-.29-.34-.29" transform="translate(-3098.62 -313.37)" fill="#4d4d4d"/>
    </g>
  </g>
</svg>
