<svg xmlns="http://www.w3.org/2000/svg" xmlns:xlink="http://www.w3.org/1999/xlink" width="385" height="267" viewBox="0 0 385 267">
  <defs>
    <filter id="Rectangle_8555" x="0" y="0" width="385" height="267" filterUnits="userSpaceOnUse">
      <feOffset dy="3" input="SourceAlpha"/>
      <feGaussianBlur stdDeviation="28" result="blur"/>
      <feFlood flood-opacity="0.082"/>
      <feComposite operator="in" in2="blur"/>
      <feComposite in="SourceGraphic"/>
    </filter>
  </defs>
  <g id="Group_26264" data-name="Group 26264" transform="translate(-1089 -2008)">
    <g transform="matrix(1, 0, 0, 1, 1089, 2008)" filter="url(#Rectangle_8555)">
      <rect id="Rectangle_8555-2" data-name="Rectangle 8555" width="217" height="99" rx="26" transform="translate(84 81)" fill="#fff"/>
    </g>
    <path id="Logo.min" d="M49.981,8.738v17.1h6.233v2.95H46.663V8.738Zm17.947,8.508v-1.8h3.145V28.791H67.927V26.986a4.322,4.322,0,0,1-1.8,1.576,5.3,5.3,0,0,1-2.351.572,6.88,6.88,0,0,1-2.8-.558,6.545,6.545,0,0,1-2.179-1.532,7.156,7.156,0,0,1-1.919-4.928,7.207,7.207,0,0,1,.505-2.679,7.087,7.087,0,0,1,1.413-2.248,6.552,6.552,0,0,1,2.179-1.533,6.868,6.868,0,0,1,2.8-.559,5.292,5.292,0,0,1,2.352.574,4.334,4.334,0,0,1,1.8,1.575Zm-.289,6.5a4.756,4.756,0,0,0,0-3.266,4.135,4.135,0,0,0-.807-1.346,3.909,3.909,0,0,0-1.255-.917,3.814,3.814,0,0,0-1.631-.344,3.714,3.714,0,0,0-1.616.344A3.889,3.889,0,0,0,60.3,20.483a5,5,0,0,0,0,3.265,3.888,3.888,0,0,0,2.033,2.264,3.7,3.7,0,0,0,1.616.344,3.811,3.811,0,0,0,1.631-.343,3.9,3.9,0,0,0,1.255-.917A4.131,4.131,0,0,0,67.638,23.749Zm5.915,5.042V15.441h8.541v3.072H76.7V28.791ZM93.491,17.246v-1.8h3.145V28.791H93.491V26.986a4.326,4.326,0,0,1-1.8,1.576,5.3,5.3,0,0,1-2.351.572,6.877,6.877,0,0,1-2.8-.558,6.545,6.545,0,0,1-2.179-1.532,7.156,7.156,0,0,1-1.919-4.928,7.192,7.192,0,0,1,.505-2.679,7.087,7.087,0,0,1,1.413-2.248,6.552,6.552,0,0,1,2.179-1.533,6.865,6.865,0,0,1,2.8-.559,5.292,5.292,0,0,1,2.352.574,4.339,4.339,0,0,1,1.8,1.575Zm-.289,6.5a4.767,4.767,0,0,0,0-3.266,4.135,4.135,0,0,0-.808-1.346,3.909,3.909,0,0,0-1.255-.917,3.808,3.808,0,0,0-1.63-.344,3.714,3.714,0,0,0-1.616.344,3.894,3.894,0,0,0-2.034,2.263,5,5,0,0,0,0,3.265,3.892,3.892,0,0,0,2.034,2.264,3.7,3.7,0,0,0,1.616.344,3.806,3.806,0,0,0,1.63-.343,3.9,3.9,0,0,0,1.255-.917,4.131,4.131,0,0,0,.808-1.347Zm16.042-8.308h3.186l-5.162,13.349h-3.952L98.154,15.441h3.186s2.051,9.655,4.027,9.655S109.244,15.441,109.244,15.441Zm10.044-.343c4.283,0,7.2,3.768,6.654,8.178H115.51a3.766,3.766,0,0,0,3.952,3.378,5.618,5.618,0,0,0,4-2.091l2.124,1.632c-1.9,2.014-3.455,2.939-5.891,2.939-4.353,0-7.3-2.734-7.3-7.018A6.934,6.934,0,0,1,119.289,15.1Zm-3.771,5.858h7.537a3.7,3.7,0,0,0-3.791-3.378A3.646,3.646,0,0,0,115.518,20.956Zm12.473,7.834V8.738h3.145V28.791ZM37.092,8.581a.6.6,0,0,1,.021.155v8.142a.593.593,0,0,1-.3.515L29.93,21.328v7.8a.593.593,0,0,1-.3.514L15.263,37.854a.6.6,0,0,1-.1.043c-.014,0-.027.013-.04.016a.605.605,0,0,1-.307,0c-.016,0-.031-.013-.047-.019a.535.535,0,0,1-.1-.04L.3,29.643a.593.593,0,0,1-.3-.516V4.7a.6.6,0,0,1,.021-.155A.5.5,0,0,1,.042,4.5.672.672,0,0,1,.08,4.4a.569.569,0,0,1,.04-.052.622.622,0,0,1,.054-.07.582.582,0,0,1,.059-.045A.633.633,0,0,1,.3,4.186h0L7.483.079a.6.6,0,0,1,.6,0l7.184,4.106h0c.024.015.043.034.066.051a.572.572,0,0,1,.058.045.688.688,0,0,1,.054.069.558.558,0,0,1,.041.053.672.672,0,0,1,.039.092c.006.016.016.032.021.05a.6.6,0,0,1,.02.155V19.957l5.987-3.422v-7.8a.6.6,0,0,1,.02-.155c.005-.018.015-.033.022-.05a.587.587,0,0,1,.038-.092.468.468,0,0,1,.041-.052.553.553,0,0,1,.054-.069.573.573,0,0,1,.058-.045.538.538,0,0,1,.066-.051h0l7.184-4.106a.6.6,0,0,1,.6,0l7.183,4.106h0a.788.788,0,0,1,.067.051c.019.015.041.028.058.045a.588.588,0,0,1,.053.069.558.558,0,0,1,.041.053.591.591,0,0,1,.039.092.416.416,0,0,1,.021.05Zm-1.176,7.954V9.764L33.4,11.2,29.93,13.186v6.771l5.985-3.422ZM28.732,28.783V22.008l-3.417,1.936-9.753,5.527V36.31l13.17-7.528ZM1.2,5.728V28.783l13.169,7.528V29.473l-6.88-3.865v0h0a.585.585,0,0,1-.064-.049.679.679,0,0,1-.057-.043v0a.568.568,0,0,1-.049-.063.541.541,0,0,1-.045-.057v0a.476.476,0,0,1-.031-.075.4.4,0,0,1-.028-.066h0a.572.572,0,0,1-.013-.087.66.66,0,0,1-.009-.067V9.149L3.712,7.165ZM7.781,1.28,1.8,4.7l5.983,3.42L13.765,4.7,7.781,1.28Zm3.113,21.345,3.472-1.984V5.728L11.853,7.165,8.38,9.15V24.062ZM29.331,5.317l-5.984,3.42,5.984,3.42,5.983-3.42-5.983-3.42Zm-.6,7.869L25.26,11.2,22.747,9.764v6.771l3.472,1.985,2.514,1.437V13.185ZM14.964,28.443l8.776-4.974,4.387-2.486-5.979-3.418L15.263,21.5,8.989,25.086Z" transform="translate(1215.609 2117.999)" fill="#ff2d20" fill-rule="evenodd"/>
  </g>
</svg>
