<svg xmlns="http://www.w3.org/2000/svg" xmlns:xlink="http://www.w3.org/1999/xlink" width="385" height="267" viewBox="0 0 385 267">
  <defs>
    <filter id="Rectangle_8556" x="0" y="0" width="385" height="267" filterUnits="userSpaceOnUse">
      <feOffset dy="3" input="SourceAlpha"/>
      <feGaussianBlur stdDeviation="28" result="blur"/>
      <feFlood flood-opacity="0.082"/>
      <feComposite operator="in" in2="blur"/>
      <feComposite in="SourceGraphic"/>
    </filter>
  </defs>
  <g id="Group_26266" data-name="Group 26266" transform="translate(-1410 -2008)">
    <g transform="matrix(1, 0, 0, 1, 1410, 2008)" filter="url(#Rectangle_8556)">
      <rect id="Rectangle_8556-2" data-name="Rectangle 8556" width="217" height="99" rx="26" transform="translate(84 81)" fill="#fff"/>
    </g>
    <g id="Group_26254" data-name="Group 26254" transform="translate(15307 5822.967)">
      <g id="vlpa" transform="translate(-13771 -3704.967)">
        <g id="vlpb">
          <g id="vlpc">
            <g id="vlpd">
              <path id="Path_23827" data-name="Path 23827" d="M7.628,0h27.82a7.622,7.622,0,0,1,7.628,7.628V34.371A7.622,7.622,0,0,1,35.448,42H7.628A7.622,7.622,0,0,1,0,34.371V7.628A7.622,7.622,0,0,1,7.628,0Z" fill="#300"/>
            </g>
          </g>
        </g>
        <g id="vlpe" transform="translate(8.847 9.315)">
          <g id="vlpf">
            <path id="Path_23828" data-name="Path 23828" d="M61.264,73.948H54.587l-1.364,4.218a.314.314,0,0,1-.341.251H49.508c-.2,0-.251-.108-.2-.323l5.779-16.638c.054-.179.108-.377.179-.592a6.269,6.269,0,0,0,.108-1.167.178.178,0,0,1,.144-.2h4.649c.144,0,.215.054.233.144L66.953,78.13c.054.2,0,.287-.179.287H63.023a.271.271,0,0,1-.287-.2l-1.472-4.272ZM55.628,70.3h4.559c-.108-.377-.251-.826-.413-1.292-.162-.485-.323-1.005-.485-1.544-.179-.556-.341-1.095-.521-1.651s-.341-1.077-.485-1.6c-.144-.5-.269-.969-.395-1.4h-.036a22.036,22.036,0,0,1-.61,2.315c-.269.862-.538,1.759-.826,2.656-.251.915-.521,1.759-.79,2.513Z" transform="translate(-49.29 -58.136)" fill="#ff9a00"/>
            <path id="Path_23829" data-name="Path 23829" d="M159.9,56.405a2.221,2.221,0,0,1-1.6-.628,2.332,2.332,0,0,1-.61-1.651,2.112,2.112,0,0,1,.646-1.6,2.3,2.3,0,0,1,1.6-.628,2.149,2.149,0,0,1,1.633.628,2.467,2.467,0,0,1-.036,3.249A2.111,2.111,0,0,1,159.9,56.405Zm-2.01,15.579V58.164c0-.179.072-.251.233-.251h3.554c.162,0,.233.09.233.251v13.82c0,.2-.072.287-.233.287h-3.518A.251.251,0,0,1,157.893,71.984Z" transform="translate(-138.238 -51.9)" fill="#ff9a00"/>
          </g>
        </g>
      </g>
      <path id="Path_23830" data-name="Path 23830" d="M8.773-1.58H2.583L1.25,1.388H.028L5.107-9.721H6.265l5.079,11.11H10.106Zm-.429-.952L5.678-8.5,3.012-2.532Zm12.617-7.856V1.388H19.883V-.262a3.437,3.437,0,0,1-1.341,1.286,3.933,3.933,0,0,1-1.881.444,4.237,4.237,0,0,1-2.127-.54A3.857,3.857,0,0,1,13.042-.58a4.454,4.454,0,0,1-.54-2.206,4.454,4.454,0,0,1,.54-2.206,3.8,3.8,0,0,1,1.492-1.5,4.287,4.287,0,0,1,2.127-.532,3.947,3.947,0,0,1,1.833.421,3.474,3.474,0,0,1,1.341,1.23v-5.015ZM16.756.468a3.119,3.119,0,0,0,1.579-.4,2.874,2.874,0,0,0,1.111-1.151,3.5,3.5,0,0,0,.4-1.7,3.5,3.5,0,0,0-.4-1.7,2.874,2.874,0,0,0-1.111-1.151,3.119,3.119,0,0,0-1.579-.4,3.15,3.15,0,0,0-1.6.4A2.874,2.874,0,0,0,14.05-4.484a3.5,3.5,0,0,0-.4,1.7,3.5,3.5,0,0,0,.4,1.7A2.874,2.874,0,0,0,15.161.063,3.15,3.15,0,0,0,16.756.468Zm11.237,1A4.339,4.339,0,0,1,25.818.92,3.993,3.993,0,0,1,24.295-.6a4.321,4.321,0,0,1-.555-2.19,4.321,4.321,0,0,1,.555-2.19,3.936,3.936,0,0,1,1.524-1.508,4.389,4.389,0,0,1,2.174-.54,4.389,4.389,0,0,1,2.174.54,3.881,3.881,0,0,1,1.516,1.508,4.37,4.37,0,0,1,.548,2.19A4.37,4.37,0,0,1,31.683-.6,3.937,3.937,0,0,1,30.167.92,4.339,4.339,0,0,1,27.993,1.468Zm0-1a3.15,3.15,0,0,0,1.6-.4,2.821,2.821,0,0,0,1.1-1.151,3.56,3.56,0,0,0,.4-1.7,3.56,3.56,0,0,0-.4-1.7,2.822,2.822,0,0,0-1.1-1.151,3.15,3.15,0,0,0-1.6-.4,3.15,3.15,0,0,0-1.6.4,2.874,2.874,0,0,0-1.111,1.151,3.5,3.5,0,0,0-.4,1.7,3.5,3.5,0,0,0,.4,1.7A2.874,2.874,0,0,0,26.4.063,3.15,3.15,0,0,0,27.993.468ZM39.309-7.023a4.287,4.287,0,0,1,2.127.532,3.8,3.8,0,0,1,1.492,1.5,4.454,4.454,0,0,1,.54,2.206,4.454,4.454,0,0,1-.54,2.206A3.857,3.857,0,0,1,41.435.928a4.237,4.237,0,0,1-2.127.54,3.933,3.933,0,0,1-1.881-.444A3.437,3.437,0,0,1,36.087-.262V1.388H35.008V-10.388h1.127v5.015A3.474,3.474,0,0,1,37.475-6.6,3.947,3.947,0,0,1,39.309-7.023ZM39.229.468a3.163,3.163,0,0,0,1.587-.4,2.859,2.859,0,0,0,1.119-1.151,3.5,3.5,0,0,0,.4-1.7,3.5,3.5,0,0,0-.4-1.7,2.859,2.859,0,0,0-1.119-1.151,3.163,3.163,0,0,0-1.587-.4,3.15,3.15,0,0,0-1.6.4,2.874,2.874,0,0,0-1.111,1.151,3.5,3.5,0,0,0-.4,1.7,3.5,3.5,0,0,0,.4,1.7A2.874,2.874,0,0,0,37.634.063,3.15,3.15,0,0,0,39.229.468Zm14.284-2.9H46.53a2.984,2.984,0,0,0,1,2.1,3.319,3.319,0,0,0,2.285.8A3.6,3.6,0,0,0,51.243.19,3.12,3.12,0,0,0,52.37-.627l.635.73a3.575,3.575,0,0,1-1.389,1.016,4.7,4.7,0,0,1-1.833.349A4.635,4.635,0,0,1,47.506.92,3.948,3.948,0,0,1,45.958-.6a4.321,4.321,0,0,1-.555-2.19,4.474,4.474,0,0,1,.532-2.19,3.85,3.85,0,0,1,1.46-1.508,4.077,4.077,0,0,1,2.087-.54,4.034,4.034,0,0,1,2.079.54,3.825,3.825,0,0,1,1.444,1.5,4.516,4.516,0,0,1,.524,2.2ZM49.482-6.055a2.839,2.839,0,0,0-2.024.77,3.023,3.023,0,0,0-.928,2.008h5.92a3.023,3.023,0,0,0-.928-2.008A2.859,2.859,0,0,0,49.482-6.055ZM1.314,8.417H3.885v11.11H1.314ZM6.821,7.75H9.3V19.526H6.821Zm5.253,0H14.55V19.526H12.074Zm13.855,3.238v8.539H23.58V18.511a3.284,3.284,0,0,1-1.174.849,3.7,3.7,0,0,1-1.476.294,3.636,3.636,0,0,1-2.666-.968,3.859,3.859,0,0,1-.984-2.873V10.988h2.476v4.46q0,2.063,1.73,2.063a1.86,1.86,0,0,0,1.428-.579,2.444,2.444,0,0,0,.54-1.722V10.988Zm5.65,8.666a8.294,8.294,0,0,1-2.079-.262,5.432,5.432,0,0,1-1.619-.659l.825-1.778a5.194,5.194,0,0,0,1.381.6,5.787,5.787,0,0,0,1.587.23q1.571,0,1.571-.778a.55.55,0,0,0-.429-.524,6.347,6.347,0,0,0-1.317-.27,12.708,12.708,0,0,1-1.73-.365,2.684,2.684,0,0,1-1.182-.73,2.076,2.076,0,0,1-.5-1.492,2.337,2.337,0,0,1,.468-1.436,3.013,3.013,0,0,1,1.365-.976,5.829,5.829,0,0,1,2.119-.349,8.316,8.316,0,0,1,1.8.2,5.035,5.035,0,0,1,1.484.548L34.5,13.368a4.927,4.927,0,0,0-2.46-.635,2.5,2.5,0,0,0-1.19.222.653.653,0,0,0-.4.571.567.567,0,0,0,.429.555,7.586,7.586,0,0,0,1.365.3,14.611,14.611,0,0,1,1.714.373,2.575,2.575,0,0,1,1.159.722,2.049,2.049,0,0,1,.492,1.46,2.255,2.255,0,0,1-.476,1.413,3.039,3.039,0,0,1-1.389.96A6.187,6.187,0,0,1,31.579,19.653Zm11.538-.54a2.545,2.545,0,0,1-.9.4,4.534,4.534,0,0,1-1.119.135,3.324,3.324,0,0,1-2.357-.778,2.976,2.976,0,0,1-.833-2.285V13.083H36.595v-1.9h1.317V9.1h2.476v2.079h2.127v1.9H40.388v3.476a1.166,1.166,0,0,0,.278.833,1.029,1.029,0,0,0,.786.294,1.591,1.591,0,0,0,1-.317Zm4.238-7a2.753,2.753,0,0,1,1.2-.936,4.447,4.447,0,0,1,1.738-.317v2.285q-.413-.032-.555-.032a2.269,2.269,0,0,0-1.666.6,2.4,2.4,0,0,0-.6,1.785v4.031H44.99V10.988h2.365Zm8.285-1.254a4.444,4.444,0,0,1,3.047.944,3.614,3.614,0,0,1,1.063,2.849v4.872H57.433V18.463a2.759,2.759,0,0,1-2.6,1.19,4.04,4.04,0,0,1-1.706-.333,2.544,2.544,0,0,1-1.1-.921,2.4,2.4,0,0,1-.381-1.333,2.225,2.225,0,0,1,.9-1.873,4.57,4.57,0,0,1,2.769-.682h1.968a1.578,1.578,0,0,0-.492-1.246,2.167,2.167,0,0,0-1.476-.436,4.31,4.31,0,0,0-1.341.214,3.548,3.548,0,0,0-1.119.579l-.889-1.73a5.363,5.363,0,0,1,1.674-.762A7.5,7.5,0,0,1,55.64,10.861Zm-.19,7.126a2.156,2.156,0,0,0,1.127-.294,1.607,1.607,0,0,0,.7-.865v-.873h-1.7q-1.524,0-1.524,1a.89.89,0,0,0,.373.754A1.68,1.68,0,0,0,55.449,17.987Zm12.522,1.127a2.545,2.545,0,0,1-.9.4,4.534,4.534,0,0,1-1.119.135,3.324,3.324,0,0,1-2.357-.778,2.976,2.976,0,0,1-.833-2.285V13.083H61.448v-1.9h1.317V9.1h2.476v2.079h2.127v1.9H65.242v3.476a1.166,1.166,0,0,0,.278.833,1.029,1.029,0,0,0,.786.294,1.591,1.591,0,0,0,1-.317Zm5.666.54a5.12,5.12,0,0,1-2.42-.563,4.188,4.188,0,0,1-1.674-1.563,4.572,4.572,0,0,1,0-4.539,4.188,4.188,0,0,1,1.674-1.563,5.463,5.463,0,0,1,4.833,0,4.2,4.2,0,0,1,1.666,1.563,4.572,4.572,0,0,1,0,4.539A4.2,4.2,0,0,1,76.05,19.09,5.073,5.073,0,0,1,73.637,19.653Zm0-2.031a2.062,2.062,0,0,0,1.563-.643,2.4,2.4,0,0,0,.611-1.722,2.4,2.4,0,0,0-.611-1.722,2.062,2.062,0,0,0-1.563-.643,2.088,2.088,0,0,0-1.571.643,2.378,2.378,0,0,0-.619,1.722,2.378,2.378,0,0,0,.619,1.722A2.088,2.088,0,0,0,73.637,17.622Zm9.173-5.507a2.753,2.753,0,0,1,1.2-.936,4.447,4.447,0,0,1,1.738-.317v2.285q-.413-.032-.555-.032a2.269,2.269,0,0,0-1.666.6,2.4,2.4,0,0,0-.6,1.785v4.031H80.446V10.988h2.365Z" transform="translate(-13722.952 -3688.579)" fill="#300"/>
    </g>
  </g>
</svg>
