<svg xmlns="http://www.w3.org/2000/svg" xmlns:xlink="http://www.w3.org/1999/xlink" width="385" height="267" viewBox="0 0 385 267">
  <defs>
    <filter id="Rectangle_8559" x="0" y="0" width="385" height="267" filterUnits="userSpaceOnUse">
      <feOffset dy="3" input="SourceAlpha"/>
      <feGaussianBlur stdDeviation="28" result="blur"/>
      <feFlood flood-opacity="0.082"/>
      <feComposite operator="in" in2="blur"/>
      <feComposite in="SourceGraphic"/>
    </filter>
  </defs>
  <g id="Group_26268" data-name="Group 26268" transform="translate(-768 -2187)">
    <g transform="matrix(1, 0, 0, 1, 768, 2187)" filter="url(#Rectangle_8559)">
      <rect id="Rectangle_8559-2" data-name="Rectangle 8559" width="217" height="99" rx="26" transform="translate(84 81)" fill="#fff"/>
    </g>
    <g id="figma-vector-logo" transform="translate(1029.9 2121.6)">
      <path id="Path_23837" data-name="Path 23837" d="M104.6,211.4v22.252l2.863.022v-10.6h6.907v-2.8h-6.907V214.2h8.984v-2.8Zm17.006,4.525a1.88,1.88,0,1,0-1.88-1.88,1.88,1.88,0,0,0,1.88,1.88Zm-1.464,2.8v14.951H123V218.722Zm13.486-.437c-3.8,0-6.448,3.213-6.448,7.038s2.645,7.038,6.448,7.038a5.61,5.61,0,0,0,4.219-1.771v1.989a4.492,4.492,0,0,1-4.437,4.546h-.044a4.524,4.524,0,0,1-2.536-.852l-1.443,2.492a7.319,7.319,0,0,0,10.142-2.186,7.436,7.436,0,0,0,1.18-4V218.744h-2.863v1.333a5.627,5.627,0,0,0-4.219-1.792Zm-3.585,7.038a3.914,3.914,0,1,1,3.913,4.219A4.1,4.1,0,0,1,130.043,225.324Zm20.984-4.24a3.1,3.1,0,0,0-3.06,3.126v9.443H145.1V218.7h2.863v1.377a4.506,4.506,0,0,1,3.694-1.792A4.933,4.933,0,0,1,156.1,220.8a5.494,5.494,0,0,1,4.546-2.514c3.257,0,5.29,2.623,5.29,5.88v9.486h-2.842v-9.443a3.061,3.061,0,1,0-6.12,0v9.443h-2.885v-9.443a3.112,3.112,0,0,0-3.06-3.126Zm30.164-.678a6.869,6.869,0,0,0-5.049-2.12c-4.262,0-7.279,3.607-7.279,7.891,0,4.306,3.016,7.891,7.279,7.891a7.078,7.078,0,0,0,5.049-2.12v1.7h2.863V218.7h-2.863v1.7Zm-9.465,5.771a4.745,4.745,0,1,1,4.721,5.093A4.97,4.97,0,0,1,171.726,226.176Z" transform="translate(-191.366 -29.694)"/>
      <path id="b" d="M-64.6,248.166a7.37,7.37,0,0,1,7.366-7.366,7.37,7.37,0,0,1,7.366,7.366,7.37,7.37,0,0,1-7.366,7.366A7.37,7.37,0,0,1-64.6,248.166Z" transform="translate(-52.59 -52.668)" fill="#1abcfe"/>
      <path id="c" d="M-131.9,315.466a7.37,7.37,0,0,1,7.366-7.366h7.366v7.366a7.37,7.37,0,0,1-7.366,7.366A7.37,7.37,0,0,1-131.9,315.466Z" transform="translate(0 -105.257)" fill="#0acf83"/>
      <path id="d" d="M-64.6,173.422v14.71h7.366a7.37,7.37,0,0,0,7.366-7.366,7.37,7.37,0,0,0-7.366-7.366H-64.6Z" transform="translate(-52.59)" fill="#ff7262"/>
      <path id="e" d="M-131.9,180.944a7.37,7.37,0,0,0,7.366,7.366h7.366V173.6h-7.366A7.337,7.337,0,0,0-131.9,180.944Z" transform="translate(0 -0.156)" fill="#f24e1e"/>
      <path id="e_1_" d="M-131.9,248.244a7.37,7.37,0,0,0,7.366,7.366h7.366V240.9h-7.366A7.337,7.337,0,0,0-131.9,248.244Z" transform="translate(0 -52.745)" fill="#a259ff"/>
    </g>
  </g>
</svg>
