<svg xmlns="http://www.w3.org/2000/svg" xmlns:xlink="http://www.w3.org/1999/xlink" width="385" height="267" viewBox="0 0 385 267">
  <defs>
    <filter id="Rectangle_8560" x="0" y="0" width="385" height="267" filterUnits="userSpaceOnUse">
      <feOffset dy="3" input="SourceAlpha"/>
      <feGaussianBlur stdDeviation="28" result="blur"/>
      <feFlood flood-opacity="0.082"/>
      <feComposite operator="in" in2="blur"/>
      <feComposite in="SourceGraphic"/>
    </filter>
  </defs>
  <g id="Group_26269" data-name="Group 26269" transform="translate(-447 -2187)">
    <g transform="matrix(1, 0, 0, 1, 447, 2187)" filter="url(#Rectangle_8560)">
      <rect id="Rectangle_8560-2" data-name="Rectangle 8560" width="217" height="99" rx="26" transform="translate(84 81)" fill="#fff"/>
    </g>
    <g id="Group_26257" data-name="Group 26257" transform="translate(14249.881 5891.74)">
      <g id="Layer_2_1_" transform="translate(-13682.881 -3591.74)">
        <g id="Surfaces">
          <g id="UI_UX_Surface">
            <g id="Outline_no_shadow">
              <path id="Path_23834" data-name="Path 23834" d="M6.293,0H29.246a6.288,6.288,0,0,1,6.293,6.293V28.357a6.288,6.288,0,0,1-6.293,6.293H6.293A6.288,6.288,0,0,1,0,28.357V6.293A6.288,6.288,0,0,1,6.293,0Z" fill="#470137"/>
            </g>
          </g>
        </g>
        <g id="Outlined_Mnemonics_Logos" transform="translate(5.177 7.594)">
          <g id="Xd">
            <path id="Path_23835" data-name="Path 23835" d="M48.472,60.222l-4.442,7.33,4.739,7.774a.255.255,0,0,1,.03.178c-.015.059-.074.015-.163.03H45.243c-.237,0-.4-.015-.5-.163-.311-.622-.637-1.229-.948-1.851s-.652-1.229-1.007-1.866-.711-1.274-1.066-1.925h-.03c-.311.637-.652,1.273-.992,1.91s-.681,1.273-1.007,1.9-.681,1.259-1.022,1.866c-.059.148-.178.163-.341.163H35.07c-.059,0-.1.03-.1-.044a.206.206,0,0,1,.03-.163L39.6,67.8l-4.487-7.6c-.044-.059-.059-.118-.03-.148A.172.172,0,0,1,35.233,60h3.361a.874.874,0,0,1,.207.03.42.42,0,0,1,.148.133c.281.637.607,1.273.948,1.91s.7,1.259,1.066,1.881.681,1.244.992,1.881h.03c.311-.652.637-1.288.963-1.91s.666-1.244,1.007-1.866.666-1.259.992-1.866a.252.252,0,0,1,.089-.148.282.282,0,0,1,.193-.03h3.125a.136.136,0,0,1,.163.1c.015.015-.015.074-.044.1Z" transform="translate(-34.961 -58.709)" fill="#ff61f6"/>
            <path id="Path_23836" data-name="Path 23836" d="M136.531,68.42a7.362,7.362,0,0,1-3.184-.666,5.162,5.162,0,0,1-2.236-2.014,6.407,6.407,0,0,1-.814-3.376,6.081,6.081,0,0,1,.814-3.125,6.149,6.149,0,0,1,2.354-2.3,7.574,7.574,0,0,1,3.746-.859,2.645,2.645,0,0,1,.311.015c.133.015.281.015.459.03V51.45c0-.1.044-.163.148-.163h3.006a.133.133,0,0,1,.148.1V65.517c0,.267.015.563.03.888s.044.607.059.859a.24.24,0,0,1-.148.237,11.309,11.309,0,0,1-2.414.711A13.061,13.061,0,0,1,136.531,68.42Zm1.451-2.962V58.943a3.787,3.787,0,0,0-.4-.074c-.163-.015-.326-.03-.489-.03a3.651,3.651,0,0,0-1.673.385,3.32,3.32,0,0,0-1.259,1.1,3.282,3.282,0,0,0-.489,1.881,4.127,4.127,0,0,0,.252,1.525,2.894,2.894,0,0,0,.666,1.051,2.559,2.559,0,0,0,1.007.592,3.876,3.876,0,0,0,1.229.193c.222,0,.429-.015.622-.03A1.3,1.3,0,0,0,137.982,65.458Z" transform="translate(-116.179 -51.284)" fill="#ff61f6"/>
          </g>
        </g>
      </g>
      <text id="Adobe_XD" data-name="Adobe XD" transform="translate(-13642.302 -3567.74)" fill="#470137" font-size="20" font-family="SegoeUI-Bold, Segoe UI" font-weight="700"><tspan x="0" y="0">Adobe XD</tspan></text>
    </g>
  </g>
</svg>
