<svg xmlns="http://www.w3.org/2000/svg" xmlns:xlink="http://www.w3.org/1999/xlink" width="385" height="267" viewBox="0 0 385 267">
  <defs>
    <filter id="Rectangle_8561" x="0" y="0" width="385" height="267" filterUnits="userSpaceOnUse">
      <feOffset dy="3" input="SourceAlpha"/>
      <feGaussianBlur stdDeviation="28" result="blur"/>
      <feFlood flood-opacity="0.082"/>
      <feComposite operator="in" in2="blur"/>
      <feComposite in="SourceGraphic"/>
    </filter>
  </defs>
  <g id="Group_26270" data-name="Group 26270" transform="translate(-126 -2187)">
    <g transform="matrix(1, 0, 0, 1, 126, 2187)" filter="url(#Rectangle_8561)">
      <rect id="Rectangle_8561-2" data-name="Rectangle 8561" width="217" height="99" rx="26" transform="translate(84 81)" fill="#fff"/>
    </g>
    <g id="Group_26255" data-name="Group 26255" transform="translate(13965 5765)">
      <g id="Layer_2_1_" transform="translate(-13718 -3468)">
        <g id="Surfaces">
          <g id="Photo_Surface">
            <g id="Outline_no_shadow">
              <path id="Path_23831" data-name="Path 23831" d="M7.465,0H34.689a7.458,7.458,0,0,1,7.465,7.465v26.17A7.458,7.458,0,0,1,34.689,41.1H7.465A7.458,7.458,0,0,1,0,33.635V7.465A7.458,7.458,0,0,1,7.465,0Z" fill="#001e36"/>
            </g>
          </g>
        </g>
        <g id="Outlined_Mnemonics_Logos" transform="translate(9.485 10.451)">
          <g id="Ps">
            <path id="Path_23832" data-name="Path 23832" d="M54,77.872V59.8c0-.123.053-.193.176-.193.3,0,.58,0,.984-.018.422-.018.861-.018,1.335-.035s.984-.018,1.528-.035,1.071-.018,1.6-.018a10.327,10.327,0,0,1,3.618.544,6.272,6.272,0,0,1,2.354,1.44,5.592,5.592,0,0,1,1.282,2,6.723,6.723,0,0,1,.4,2.283,6.279,6.279,0,0,1-1.054,3.741A6.017,6.017,0,0,1,63.4,71.654a11.383,11.383,0,0,1-3.952.6c-.422,0-.7,0-.878-.018s-.422-.018-.755-.018v5.638a.219.219,0,0,1-.193.246H54.211C54.07,78.1,54,78.03,54,77.872ZM57.829,63v5.9c.246.018.474.035.685.035h.931a6.561,6.561,0,0,0,2.02-.316,3.021,3.021,0,0,0,1.44-.931,2.714,2.714,0,0,0,.544-1.809,2.891,2.891,0,0,0-.4-1.563,2.547,2.547,0,0,0-1.229-1,5.154,5.154,0,0,0-2.073-.351c-.457,0-.861,0-1.194.018a4.022,4.022,0,0,0-.72.018Z" transform="translate(-54 -59.5)" fill="#31a8ff"/>
            <path id="Path_23833" data-name="Path 23833" d="M149.37,88.269a6.216,6.216,0,0,0-1.686-.6,9.258,9.258,0,0,0-1.967-.228,3.536,3.536,0,0,0-1.054.123.9.9,0,0,0-.544.351.931.931,0,0,0-.141.474.781.781,0,0,0,.176.457,1.982,1.982,0,0,0,.6.474c.4.211.826.4,1.247.58a12.722,12.722,0,0,1,2.7,1.282,4.087,4.087,0,0,1,1.388,1.458,3.791,3.791,0,0,1,.4,1.809,4.086,4.086,0,0,1-.685,2.336,4.4,4.4,0,0,1-1.967,1.563,8.047,8.047,0,0,1-3.179.562,12.1,12.1,0,0,1-2.389-.228,7.085,7.085,0,0,1-1.792-.562.345.345,0,0,1-.193-.334V94.733a.191.191,0,0,1,.07-.158.134.134,0,0,1,.158.018,7.519,7.519,0,0,0,2.178.861,8.177,8.177,0,0,0,2.073.263,3.352,3.352,0,0,0,1.458-.246.816.816,0,0,0,.474-.738.931.931,0,0,0-.422-.7,7.45,7.45,0,0,0-1.721-.826,10.747,10.747,0,0,1-2.494-1.265,4.548,4.548,0,0,1-1.335-1.493,3.769,3.769,0,0,1-.4-1.792,4.131,4.131,0,0,1,.6-2.125,4.33,4.33,0,0,1,1.844-1.616,6.811,6.811,0,0,1,3.109-.615,15.143,15.143,0,0,1,2.178.158,6.18,6.18,0,0,1,1.511.4.309.309,0,0,1,.176.158.882.882,0,0,1,.035.211v2.863a.216.216,0,0,1-.088.176A.468.468,0,0,1,149.37,88.269Z" transform="translate(-125.132 -79.944)" fill="#31a8ff"/>
          </g>
        </g>
      </g>
      <text id="Adobe_Photoshop" data-name="Adobe
Photoshop" transform="translate(-13672.451 -3451.45)" fill="#001e36" font-size="17" font-family="SegoeUI, Segoe UI"><tspan x="0" y="0">Adobe</tspan><tspan font-family="SegoeUI-Bold, Segoe UI" font-weight="700"><tspan x="0" y="17">Photoshop</tspan></tspan></text>
    </g>
  </g>
</svg>
