<svg xmlns="http://www.w3.org/2000/svg" xmlns:xlink="http://www.w3.org/1999/xlink" width="385" height="267" viewBox="0 0 385 267">
  <defs>
    <filter id="Rectangle_8548" x="0" y="0" width="385" height="267" filterUnits="userSpaceOnUse">
      <feOffset dy="3" input="SourceAlpha"/>
      <feGaussianBlur stdDeviation="28" result="blur"/>
      <feFlood flood-opacity="0.082"/>
      <feComposite operator="in" in2="blur"/>
      <feComposite in="SourceGraphic"/>
    </filter>
  </defs>
  <g id="Group_26271" data-name="Group 26271" transform="translate(-126 -2008)">
    <g transform="matrix(1, 0, 0, 1, 126, 2008)" filter="url(#Rectangle_8548)">
      <rect id="Rectangle_8548-2" data-name="Rectangle 8548" width="217" height="99" rx="26" transform="translate(84 81)" fill="#fff"/>
    </g>
    <path id="Union_8" data-name="Union 8" d="M98.787,33.587a4.625,4.625,0,0,1,2.345-4.009,1.825,1.825,0,0,1-.436-1.144,2.252,2.252,0,0,1,1.353-1.9,4.041,4.041,0,0,1-.845-2.506c0-3.8,2.949-5.469,6.41-5.469a6.7,6.7,0,0,1,3.434,1.056l1.692-.349h2.346l-.871,2.468H113.4a5.257,5.257,0,0,1-1.16-.508,3.423,3.423,0,0,1,.338,1.474c0,3.773-3,5.225-6.362,5.225a9.54,9.54,0,0,1-2.1-.219l-.315-.048a.517.517,0,0,0-.581.555c0,.242.121.411.653.508l4.668.872c2.588.484,3.482,1.6,3.482,3.024,0,4.185-3.919,4.936-7.208,4.936C102.2,37.551,98.787,36.854,98.787,33.587Zm3.19-.323c0,1.235.871,1.79,3.192,1.79,1.523,0,3.628-.242,3.628-2.2,0-.605-.314-.943-1.232-1.113l-4.547-.847A2.97,2.97,0,0,0,101.977,33.264Zm2.418-9.577c0,1.211.774,1.718,2.177,1.718a2.522,2.522,0,0,0,2.831-2.759c0-1.183-.7-1.788-2.153-1.788A2.591,2.591,0,0,0,104.394,23.687ZM24.9,31.238c.3-2.762-1.182-5.144-3.187-6.905-1.906-1.676-4.181-2.756-6.254-4.186-1.195-.824-3.009-2.478-2.371-4.156a5.476,5.476,0,0,0-1.745,2.782c-.517,2.13.8,3.789,2.153,5.257,1.373,1.483,1.267,4.028-1.049,4.535a2.611,2.611,0,0,1-2.64-1,2.983,2.983,0,0,1-.242-2.761,8.359,8.359,0,0,0-3.9,6.609c.005,2.518,2.1,4.98,4.342,5.948C5.569,36.34,1.636,33.45.409,28.91s.443-9.123,3.172-12.764a38.752,38.752,0,0,1,4.62-5c1.546-1.443,3.248-2.77,4.647-4.358C14.292,5.147,16.1,2.216,14.727,0c2.487,1.858,4.492,4.962,4.157,8.16-.268,2.552-2.182,5.15-.307,7.56a2.744,2.744,0,0,0,4.4-.263l-.064.069a2.557,2.557,0,0,0,.323-.771l-.007.1a2.459,2.459,0,0,0,.081-.61,2.691,2.691,0,0,1-.074.505,1.859,1.859,0,0,0-.155-.761l.229.125c4.372,2.267,7.9,6.226,7.8,11.371-.119,6.254-5.946,10.63-11.585,11.875C22.2,36.314,24.576,34.232,24.9,31.238Zm107.33,1.6a2.62,2.62,0,0,1-2.8-2.9,11.284,11.284,0,0,1,.072-1.236l.968-6.555c.023-.195.144-.411.338-.411h-2.344l.337-2.468h5.346l-1.4,9.841-.024.332c0,.29.12.932.484.932h1.039l-.363,2.469Zm-40.921,0,.288-2.469h1.792l1.933-12.34H93.533l.289-2.468h6.822l-.29,2.468h-1.79l-1.934,12.34h1.791l-.292,2.469Zm-17.29,0-.241-1.5a4.929,4.929,0,0,1-3.386.772c-2.926,0-5.1-1.38-5.1-5.082a9.9,9.9,0,0,1,.121-1.621c.725-5.079,2.973-6.9,6.988-6.9a5.341,5.341,0,0,1,2.807.883c-.146-.363-.171-.235-.122-.621l.749-4.44H79.05l-2.709,18.51Zm-5.366-7.528a14.551,14.551,0,0,0-.17,1.911c0,1.475.484,2.395,2.25,2.395a5.549,5.549,0,0,0,2.8-.8l1.091-7.449a5.118,5.118,0,0,0-2.588-.582C70.442,20.783,69.208,21.462,68.652,25.307Zm90.287,7.527L160.8,19.26h2.66l.193.76a5.04,5.04,0,0,1,3.339-1.7h0a7.727,7.727,0,0,1,1.429.241l-.414,2.8a12.955,12.955,0,0,0-1.668.02,5.636,5.636,0,0,0-2.734.94l-1.426,10.512Zm-36.833,0,1.183-8.676a12.763,12.763,0,0,0,.074-1.345c0-1.112-.436-1.7-1.645-1.7-.992,0-2.152.843-3.1,1.423l-1.4,10.294H114l1.862-13.574h2.661l.217.906c1.5-1.184,2.709-1.849,4.063-1.849,2.709,0,3.8,2,3.8,4.3,0,.386-.048,1.06-.1,1.469l-1.184,8.747Zm14.8-3.876a3.553,3.553,0,0,1,.048-.7l.871-5.853c.008-.082.038-.045.083-.007.088.073.232.146.376-.669H136.01l.338-2.468h1.959l.606-4.349L142.3,13.83l-.749,5.431H146l-1.112,2.468H141.21L140.194,28.4l-.024.05c0,.724.387,1.063,1.184,1.063a3.882,3.882,0,0,0,2.372-.79l1.5,1.846a6.929,6.929,0,0,1-4.6,1.544C138.6,32.116,136.9,31.256,136.9,28.959ZM37.542,25.409a15.222,15.222,0,0,1,.194-2.339c.847-5.951,3.144-8.986,8.731-8.986,4.112,0,5.781,2.614,5.781,5.371,0,.193,0,1.039-.026,1.039h-2.3v-.92c0-1.887-1.133-2.925-3.455-2.925-3.434,0-4.857,2.3-5.44,6.311a20.637,20.637,0,0,0-.217,2.565c0,2.321.773,3.87,3.434,3.87,1.717,0,3.266-.6,4.693-2.849l2.2,1.483a7.892,7.892,0,0,1-7.28,4.077C38.922,32.107,37.542,28.916,37.542,25.409Zm108.287,1.445a13.566,13.566,0,0,1,.121-1.67c.7-4.764,2.782-6.867,7.208-6.867h0c4.016,0,4.934,3.1,4.934,5.516,0,.723-.145,1.6-.266,2.83H149.1a2.338,2.338,0,0,0-.075.773c0,1.6.727,2.078,2.515,2.078a3.636,3.636,0,0,0,3.315-1.789l2.442.992a6.441,6.441,0,0,1-6.12,3.363C147.5,32.08,145.829,30.12,145.829,26.854Zm3.677-2.658h5.321a3.783,3.783,0,0,0,.073-.883,1.972,1.972,0,0,0-2.129-2.261C150.931,21.052,150.037,22.962,149.506,24.2ZM78.783,26.854a13.4,13.4,0,0,1,.122-1.67c.7-4.764,2.781-6.867,7.208-6.867h0c4.014,0,4.933,3.1,4.933,5.516,0,.723-.143,1.6-.266,2.83H82.05a2.353,2.353,0,0,0-.073.773c0,1.6.726,2.078,2.516,2.078a3.634,3.634,0,0,0,3.313-1.789l2.443.992a6.445,6.445,0,0,1-6.121,3.363C80.453,32.08,78.783,30.12,78.783,26.854ZM82.461,24.2h5.321a3.707,3.707,0,0,0,.073-.883,1.972,1.972,0,0,0-2.129-2.261C83.887,21.052,82.994,22.962,82.461,24.2ZM52.174,26.782a11.975,11.975,0,0,1,.122-1.6c.653-4.57,2.587-6.867,7.062-6.867,3.8,0,5.225,2.225,5.224,5.223a13.131,13.131,0,0,1-.121,1.644c-.653,4.5-2.613,6.9-7.088,6.9C53.553,32.08,52.174,29.732,52.174,26.782Zm3.364-1.6a12.1,12.1,0,0,0-.145,1.718c0,1.959.773,2.613,2.345,2.613,1.961,0,3-1.016,3.484-4.33a11.2,11.2,0,0,0,.145-1.669c0-1.983-.8-2.636-2.394-2.636C56.989,20.881,56.022,21.9,55.538,25.186Zm75.627-7.16c-.194,0-.194-.477-.169-.7l.437-3.478c.023-.242.023.47.217.47h3.145c.195,0,.195-.289.17-.047l-.437,2.684c-.023.22-.023,1.066-.217,1.066Z" transform="translate(234 2115)" fill="#ee4323"/>
  </g>
</svg>
