<svg xmlns="http://www.w3.org/2000/svg" xmlns:xlink="http://www.w3.org/1999/xlink" width="385" height="267" viewBox="0 0 385 267">
  <defs>
    <filter id="Rectangle_8552" x="0" y="0" width="385" height="267" filterUnits="userSpaceOnUse">
      <feOffset dy="3" input="SourceAlpha"/>
      <feGaussianBlur stdDeviation="28" result="blur"/>
      <feFlood flood-opacity="0.082"/>
      <feComposite operator="in" in2="blur"/>
      <feComposite in="SourceGraphic"/>
    </filter>
  </defs>
  <g id="Group_26974" data-name="Group 26974" transform="translate(-1410 -2004)">
    <g transform="matrix(1, 0, 0, 1, 1410, 2004)" filter="url(#Rectangle_8552)">
      <rect id="Rectangle_8552-2" data-name="Rectangle 8552" width="217" height="99" rx="26" transform="translate(84 81)" fill="#fff"/>
    </g>
    <g id="Android_new_logo_2019" transform="translate(1517 2122)">
      <path id="Path_23804" data-name="Path 23804" d="M25.974,22.352a6.807,6.807,0,0,1,5.436,2.62V22.686h3.723V39.645H32.455a1.059,1.059,0,0,1-1.064-1.064V37.361A6.692,6.692,0,0,1,25.974,40c-4.648,0-8.174-3.979-8.174-8.824s3.526-8.824,8.174-8.824m.67,3.388c-3.014,0-5.062,2.383-5.062,5.436s2.029,5.436,5.062,5.436c3.014,0,5.062-2.383,5.062-5.436s-2.029-5.436-5.062-5.436m12.724-3.053h3.742v2.3a5.85,5.85,0,0,1,5.161-2.639c3.939,0,6.48,2.777,6.48,7.091v10.2H52.073a1.059,1.059,0,0,1-1.064-1.064V30.053c0-2.679-1.359-4.314-3.526-4.314-2.482,0-4.373,1.93-4.373,5.555v8.352H40.432a1.059,1.059,0,0,1-1.064-1.064Zm26.512-.335a6.807,6.807,0,0,1,5.436,2.62V14.217h3.723V39.665H72.361A1.059,1.059,0,0,1,71.3,38.6V37.38A6.777,6.777,0,0,1,65.861,40c-4.648,0-8.174-3.979-8.174-8.824.02-4.845,3.545-8.824,8.194-8.824m.67,3.388c-3.014,0-5.062,2.383-5.062,5.436s2.029,5.436,5.062,5.436c3.014,0,5.062-2.383,5.062-5.436s-2.048-5.436-5.062-5.436m12.724-3.053H83V25.7a4.778,4.778,0,0,1,4.471-3.191,7.587,7.587,0,0,1,1.458.138v3.841a6.016,6.016,0,0,0-1.871-.315c-2.147,0-4.077,1.792-4.077,5.2v8.273H80.3a1.059,1.059,0,0,1-1.064-1.064v-15.9ZM99.011,40a8.824,8.824,0,1,1,8.883-8.824A8.749,8.749,0,0,1,99.011,40m0-3.467a5.076,5.076,0,0,0,5.082-5.358,5.108,5.108,0,1,0-10.2,0,5.1,5.1,0,0,0,5.121,5.358m13.768-17.55a2.492,2.492,0,1,1,0-4.983,2.492,2.492,0,1,1,0,4.983m-1.852,3.7h3.723V39.645h-2.659a1.059,1.059,0,0,1-1.064-1.064Zm14.97-.335a6.807,6.807,0,0,1,5.436,2.62V14.217h3.723V39.665h-2.679a1.059,1.059,0,0,1-1.064-1.064V37.38A6.777,6.777,0,0,1,125.877,40c-4.648,0-8.174-3.979-8.174-8.824.02-4.845,3.545-8.824,8.194-8.824m.689,3.388c-3.014,0-5.062,2.383-5.062,5.436s2.029,5.436,5.062,5.436c3.014,0,5.062-2.383,5.062-5.436s-2.048-5.436-5.062-5.436" transform="translate(-17.8 -14)"/>
      <path id="Path_23805" data-name="Path 23805" d="M687.452,34.036a1.891,1.891,0,1,1,1.891-1.891,1.891,1.891,0,0,1-1.891,1.891m-20.82,0a1.891,1.891,0,1,1,1.891-1.891,1.891,1.891,0,0,1-1.891,1.891m21.489-11.345,3.782-6.52a.781.781,0,0,0-1.359-.768L686.723,22a23.08,23.08,0,0,0-9.671-2.088,23.469,23.469,0,0,0-9.691,2.068l-3.821-6.6a.781.781,0,0,0-1.359.768l3.762,6.52A22.279,22.279,0,0,0,654.4,40.477h45.244a22.165,22.165,0,0,0-11.523-17.786" transform="translate(-529.009 -14.792)" fill="#3ddc84"/>
    </g>
  </g>
</svg>
