<svg xmlns="http://www.w3.org/2000/svg" xmlns:xlink="http://www.w3.org/1999/xlink" width="385" height="267" viewBox="0 0 385 267">
  <defs>
    <filter id="Rectangle_8551" x="0" y="0" width="385" height="267" filterUnits="userSpaceOnUse">
      <feOffset dy="3" input="SourceAlpha"/>
      <feGaussianBlur stdDeviation="28" result="blur"/>
      <feFlood flood-opacity="0.082"/>
      <feComposite operator="in" in2="blur"/>
      <feComposite in="SourceGraphic"/>
    </filter>
  </defs>
  <g id="Group_26975" data-name="Group 26975" transform="translate(-1089 -2004)">
    <g transform="matrix(1, 0, 0, 1, 1089, 2004)" filter="url(#Rectangle_8551)">
      <rect id="Rectangle_8551-2" data-name="Rectangle 8551" width="217" height="99" rx="26" transform="translate(84 81)" fill="#fff"/>
    </g>
    <g id="Wix.com_website_logo" transform="translate(1238 2117.993)">
      <path id="Path_23800" data-name="Path 23800" d="M171.784.754c-1.663.832-2.384,2.384-2.384,6.6a6.62,6.62,0,0,1,2.162-1.331,8.834,8.834,0,0,0,2.162-1.192c1.441-1.081,1.663-2.384,1.663-4.657A8.156,8.156,0,0,0,171.784.754Z" transform="translate(-122.442 -0.111)" fill="#fbbd71"/>
      <path id="Path_23801" data-name="Path 23801" d="M39.168,1.613a6.064,6.064,0,0,0-1.8,3.243L32.71,22.708,28.884,8.1a12.467,12.467,0,0,0-2.162-4.8c-1.331-1.691-4.1-1.8-4.435-1.8-.249,0-2.994.111-4.435,1.8A12.467,12.467,0,0,0,15.69,8.1l-3.6,14.608L7.429,4.856a6.567,6.567,0,0,0-1.8-3.243A7.577,7.577,0,0,0,0,.061l8.87,33.4s2.883.249,4.324-.471c1.913-.97,2.883-1.663,3.964-6.237,1.081-4.075,3.964-15.939,4.186-16.771.111-.36.36-1.441,1.081-1.441s.97.97,1.081,1.441c.249.832,3.1,12.7,4.186,16.771,1.192,4.546,2.024,5.267,3.964,6.237,1.441.721,4.324.471,4.324.471L44.8.061A7.72,7.72,0,0,0,39.168,1.613Z" transform="translate(0 0)"/>
      <path id="Path_23802" data-name="Path 23802" d="M175.288,19.6a6.666,6.666,0,0,1-1.8,1.552c-.832.471-1.552.721-2.384,1.192-1.441.721-1.8,1.441-1.8,2.523v2.162h0V47.514a8.066,8.066,0,0,0,3.714-.471c1.913-.97,2.273-1.913,2.273-5.988V20.931h0V19.6Z" transform="translate(-122.37 -14.162)"/>
      <path id="Path_23803" data-name="Path 23803" d="M220.455,16.85,231.709.19s-4.657-.832-7.069,1.331a20.07,20.07,0,0,0-3.1,3.825l-4.075,5.988c-.249.36-.471.61-.832.61a1.081,1.081,0,0,1-.832-.61l-4.075-5.988a34.76,34.76,0,0,0-3.1-3.825C206.234-.642,201.549.19,201.549.19l10.894,16.632L201.3,33.454s4.906.61,7.318-1.552a19.146,19.146,0,0,0,2.994-3.6l4.075-5.988c.249-.36.471-.61.832-.61a1.081,1.081,0,0,1,.832.61l4.075,5.988a25.619,25.619,0,0,0,2.994,3.6c2.384,2.162,7.179,1.552,7.179,1.552Z" transform="translate(-145.499 -0.019)"/>
    </g>
  </g>
</svg>
