<svg xmlns="http://www.w3.org/2000/svg" xmlns:xlink="http://www.w3.org/1999/xlink" width="385" height="267" viewBox="0 0 385 267">
  <defs>
    <filter id="Rectangle_8561" x="0" y="0" width="385" height="267" filterUnits="userSpaceOnUse">
      <feOffset dy="3" input="SourceAlpha"/>
      <feGaussianBlur stdDeviation="28" result="blur"/>
      <feFlood flood-opacity="0.082"/>
      <feComposite operator="in" in2="blur"/>
      <feComposite in="SourceGraphic"/>
    </filter>
  </defs>
  <g id="Group_28382" data-name="Group 28382" transform="translate(-1089 -2541)">
    <g id="Group_28381" data-name="Group 28381" transform="translate(19072 21202)">
      <g transform="matrix(1, 0, 0, 1, -17983, -18661)" filter="url(#Rectangle_8561)">
        <rect id="Rectangle_8561-2" data-name="Rectangle 8561" width="217" height="99" rx="26" transform="translate(84 81)" fill="#fff"/>
      </g>
    </g>
    <g id="Logo_Google_Analytics" transform="translate(1210 2646.998)">
      <g id="g6562" transform="translate(50.801 0.044)">
        <path id="path6536" d="M76.617,28.745a6.311,6.311,0,1,1-6.311-6.291A6.213,6.213,0,0,1,76.617,28.745Zm-2.762,0a3.557,3.557,0,1,0-7.1,0,3.557,3.557,0,1,0,7.1,0Z" transform="translate(-43.89 -15.498)" fill="#747474"/>
        <path id="path6538" d="M119.73,28.745a6.311,6.311,0,1,1-6.311-6.291A6.213,6.213,0,0,1,119.73,28.745Zm-2.762,0a3.557,3.557,0,1,0-7.1,0,3.557,3.557,0,1,0,7.1,0Z" transform="translate(-73.389 -15.498)" fill="#747474"/>
        <path id="path6540" d="M162.264,22.835V34.129c0,4.646-2.74,6.543-5.979,6.543a5.991,5.991,0,0,1-5.576-3.707l2.405-1a3.475,3.475,0,0,0,3.168,2.232c2.073,0,3.358-1.279,3.358-3.687v-.9h-.1a4.283,4.283,0,0,1-3.313,1.429,6.3,6.3,0,0,1,0-12.579,4.359,4.359,0,0,1,3.313,1.407h.1V22.838h2.624Zm-2.428,5.933a3.544,3.544,0,0,0-3.358-3.835,3.638,3.638,0,0,0-3.5,3.835,3.61,3.61,0,0,0,3.5,3.789A3.516,3.516,0,0,0,159.836,28.768Z" transform="translate(-102.876 -15.498)" fill="#747474"/>
        <path id="path6542" d="M196.254,2.695V21.13H193.56V2.695Z" transform="translate(-132.542 -1.977)" fill="#747474"/>
        <path id="path6544" d="M215.106,30.81l2.144,1.429a6.262,6.262,0,0,1-5.241,2.788,6.155,6.155,0,0,1-6.243-6.291,5.978,5.978,0,0,1,5.933-6.291,5.842,5.842,0,0,1,5.383,4l.286.715-8.409,3.483a3.2,3.2,0,0,0,3.049,1.906A3.59,3.59,0,0,0,215.106,30.81Zm-6.6-2.263,5.621-2.334a2.436,2.436,0,0,0-2.334-1.333A3.451,3.451,0,0,0,208.506,28.546Z" transform="translate(-140.894 -15.491)" fill="#747474"/>
        <path id="path6546" d="M10.23,12.034V9.365h8.994a8.843,8.843,0,0,1,.133,1.611,8.814,8.814,0,0,1-2.312,6.243,8.932,8.932,0,0,1-6.813,2.74A9.9,9.9,0,0,1,.323,10.19,9.9,9.9,0,0,1,10.233.422a9.307,9.307,0,0,1,6.693,2.692L15.043,5A6.8,6.8,0,0,0,10.23,3.091a7.007,7.007,0,0,0-7.005,7.1,7.007,7.007,0,0,0,7.005,7.1,6.535,6.535,0,0,0,4.932-1.954,5.532,5.532,0,0,0,1.446-3.3Z" transform="translate(-0.323 -0.422)" fill="#747474"/>
      </g>
      <g id="g6607" transform="translate(50.611 26.636)">
        <g id="use3812" transform="translate(0 0.179)">
          <path id="path1196" d="M8.491-51.078l-2.77,7.661h5.651L8.581-51.078ZM3.332-36.783H.92L7.308-53.758H9.787l6.388,16.975H13.763l-1.631-4.6H4.985Zm0,0" transform="translate(-0.92 53.758)" fill="#747474"/>
        </g>
        <g id="use3814" transform="translate(16.355 5.16)">
          <path id="path1199" d="M4.173-37.6h2.1V-36h.089A3.766,3.766,0,0,1,7.881-37.4a4.391,4.391,0,0,1,2.144-.581,4.27,4.27,0,0,1,3.283,1.228,4.813,4.813,0,0,1,1.161,3.462v7.3H12.281v-7.147Q12.214-35.994,9.422-36a2.74,2.74,0,0,0-2.189,1.072,3.8,3.8,0,0,0-.871,2.5v6.433H4.173Zm0,0" transform="translate(-4.173 37.984)" fill="#747474"/>
        </g>
        <g id="use3818" transform="translate(28.435 5.16)">
          <path id="path1202" d="M4.378-29.541a1.758,1.758,0,0,0,.715,1.429,2.654,2.654,0,0,0,1.7.558,3.471,3.471,0,0,0,2.435-1.005,3.209,3.209,0,0,0,1.094-2.412,4.545,4.545,0,0,0-2.859-.8,3.664,3.664,0,0,0-2.211.648A1.891,1.891,0,0,0,4.378-29.541Zm2.814-8.443a5.361,5.361,0,0,1,3.8,1.3A4.594,4.594,0,0,1,12.4-33.138v7.147H10.319V-27.6H10.23A4.189,4.189,0,0,1,6.612-25.61,4.682,4.682,0,0,1,3.4-26.75a3.648,3.648,0,0,1-1.273-2.837,3.415,3.415,0,0,1,1.362-2.859,5.719,5.719,0,0,1,3.641-1.072,6.6,6.6,0,0,1,3.194.692v-.491A2.442,2.442,0,0,0,9.4-35.237a3.041,3.041,0,0,0-2.1-.8A3.3,3.3,0,0,0,4.423-34.5L2.5-35.706a5.341,5.341,0,0,1,4.691-2.278Zm0,0" transform="translate(-2.122 37.984)" fill="#747474"/>
        </g>
        <g id="use3820" transform="translate(41.088 0.179)">
          <path id="path1205" d="M6.362-53.758v16.975H4.173V-53.758Zm0,0" transform="translate(-4.173 53.758)" fill="#747474"/>
        </g>
        <g id="use3822" transform="translate(44.53 5.539)">
          <path id="path1208" d="M11.9-36.782,4.616-20.052H2.383l2.7-5.852L.283-36.782H2.651l3.462,8.354h.045L9.53-36.782Zm0,0" transform="translate(-0.283 36.782)" fill="#747474"/>
        </g>
        <g id="use3826" transform="translate(56.781 1.988)">
          <path id="path1211" d="M7.129-32.684a3.314,3.314,0,0,1-2.345-.871,3.209,3.209,0,0,1-.96-2.435v-6.5H1.768v-1.988H3.823v-3.551H5.99v3.551H8.849v1.988H5.99V-36.7a2.145,2.145,0,0,0,.447,1.586,1.542,1.542,0,0,0,1.027.4,2.586,2.586,0,0,0,.514-.045,4.2,4.2,0,0,0,.469-.156l.67,1.943A6.267,6.267,0,0,1,7.129-32.684Zm0,0" transform="translate(-1.768 48.029)" fill="#747474"/>
        </g>
        <g id="use3830" transform="translate(65.552 0)">
          <path id="path1214" d="M6.478-52.783a1.5,1.5,0,0,1-.469,1.094,1.46,1.46,0,0,1-1.072.447,1.465,1.465,0,0,1-1.094-.447A1.519,1.519,0,0,1,3.4-52.783a1.483,1.483,0,0,1,.447-1.094,1.487,1.487,0,0,1,1.094-.447,1.482,1.482,0,0,1,1.072.447,1.462,1.462,0,0,1,.469,1.094Zm-.447,4V-37.17H3.842V-48.785Zm0,0" transform="translate(-3.395 54.324)" fill="#747474"/>
        </g>
        <g id="use3834" transform="translate(69.576 5.16)">
          <path id="path1217" d="M8.086-25.61A5.68,5.68,0,0,1,3.8-27.375,6.213,6.213,0,0,1,2.122-31.8,6.121,6.121,0,0,1,3.8-36.22a5.7,5.7,0,0,1,4.288-1.765,5.44,5.44,0,0,1,3.1.893,5.556,5.556,0,0,1,1.988,2.457l-1.988.826A3.269,3.269,0,0,0,7.952-36,3.381,3.381,0,0,0,5.361-34.79,4.344,4.344,0,0,0,4.289-31.8,4.334,4.334,0,0,0,5.361-28.8,3.381,3.381,0,0,0,7.952-27.6a3.388,3.388,0,0,0,3.35-2.189l1.943.826A5.152,5.152,0,0,1,11.257-26.5a5.686,5.686,0,0,1-3.172.893Zm0,0" transform="translate(-2.122 37.984)" fill="#747474"/>
        </g>
        <g id="use3836" transform="translate(81.838 5.16)">
          <path id="path1220" d="M11.417-29.206a3.152,3.152,0,0,1-1.34,2.569A5.28,5.28,0,0,1,6.749-25.61a5.346,5.346,0,0,1-3.082-.916,5.087,5.087,0,0,1-1.9-2.412l1.943-.826a3.73,3.73,0,0,0,1.251,1.631,3.009,3.009,0,0,0,1.787.581A3.132,3.132,0,0,0,8.491-28a1.273,1.273,0,0,0,.715-1.072c0-.743-.575-1.284-1.72-1.631L5.5-31.194c-2.267-.581-3.4-1.675-3.4-3.283a3.017,3.017,0,0,1,1.3-2.546,5.421,5.421,0,0,1,3.306-.96,5.406,5.406,0,0,1,2.792.737,4,4,0,0,1,1.742,1.966l-1.943.8A2.4,2.4,0,0,0,8.2-35.617a3.3,3.3,0,0,0-1.653-.424,2.906,2.906,0,0,0-1.541.424,1.237,1.237,0,0,0-.67,1.05c0,.659.625,1.134,1.876,1.429l1.742.447Q11.415-31.836,11.417-29.206Zm0,0" transform="translate(-1.768 37.984)" fill="#747474"/>
        </g>
      </g>
      <g id="g6628" transform="translate(0 0.002)">
        <path id="path3806" d="M269.9,344.906v35.978c0,4.029,2.777,6.269,5.724,6.269,2.726,0,5.724-1.908,5.724-6.269V345.178a5.732,5.732,0,0,0-5.724-6,5.82,5.82,0,0,0-5.724,5.724Zm0,0" transform="translate(-239.915 -339.182)" fill="#f8ab00"/>
        <path id="path3808" d="M222.423,402.736v17.716c0,4.029,2.777,6.269,5.724,6.269,2.726,0,5.724-1.908,5.724-6.269V403.009a5.732,5.732,0,0,0-5.724-6,5.82,5.82,0,0,0-5.724,5.724Zm0,0" transform="translate(-207.432 -378.751)" fill="#e37300"/>
        <path id="path3810" d="M186.4,460.567a5.724,5.724,0,1,1-5.724-5.724,5.725,5.725,0,0,1,5.724,5.724" transform="translate(-174.949 -418.321)" fill="#e37300"/>
      </g>
    </g>
  </g>
</svg>
