<svg xmlns="http://www.w3.org/2000/svg" xmlns:xlink="http://www.w3.org/1999/xlink" width="385" height="267" viewBox="0 0 385 267">
  <defs>
    <filter id="Rectangle_8548" x="0" y="0" width="385" height="267" filterUnits="userSpaceOnUse">
      <feOffset dy="3" input="SourceAlpha"/>
      <feGaussianBlur stdDeviation="28" result="blur"/>
      <feFlood flood-opacity="0.082"/>
      <feComposite operator="in" in2="blur"/>
      <feComposite in="SourceGraphic"/>
    </filter>
  </defs>
  <g id="Group_26983" data-name="Group 26983" transform="translate(-768 -2004)">
    <g transform="matrix(1, 0, 0, 1, 768, 2004)" filter="url(#Rectangle_8548)">
      <rect id="Rectangle_8548-2" data-name="Rectangle 8548" width="217" height="99" rx="26" transform="translate(84 81)" fill="#fff"/>
    </g>
    <g id="JQuery-Logo" transform="translate(885.078 2115.529)">
      <path id="Path_24866" data-name="Path 24866" d="M221.513,46.167h0l-.964,3.418.964-3.416Z" transform="translate(-157.102 -32.885)" fill="#131b28"/>
      <path id="Path_24867" data-name="Path 24867" d="M238.509,71.946l-1.063-.006Z" transform="translate(-169.138 -51.244)" fill="#131b28"/>
      <path id="Path_24868" data-name="Path 24868" d="M224.428,89.7h0l-6.367.023,6.366-.023Z" transform="translate(-155.331 -63.897)" fill="#131b28"/>
      <path id="Path_24869" data-name="Path 24869" d="M242.2,71.968l-1.063-.006Z" transform="translate(-171.766 -51.26)" fill="#131b28"/>
      <path id="Path_24870" data-name="Path 24870" d="M242.13,77.722l1.109-4.229-1.109,4.23h0Z" transform="translate(-172.475 -52.351)" fill="#131b28"/>
      <path id="Path_24871" data-name="Path 24871" d="M318.495,20.49,316.429,30.2Z" transform="translate(-225.399 -14.595)" fill="#131b28"/>
      <path id="Path_24872" data-name="Path 24872" d="M301.267,20.489,299.7,27.744l1.568-7.256Z" transform="translate(-213.482 -14.594)" fill="#131b28"/>
      <path id="Path_24873" data-name="Path 24873" d="M273.19,18.971h-4.418a.581.581,0,0,0-.541.436l-1.568,7.256-1.568,7.256a.579.579,0,0,1-.54.435h-3.127c-3.093,0-2.736-2.139-2.1-5.071l.019-.088.07-.369c0-.024.009-.048.013-.07l.141-.752.151-.806c.046-.243.116-.6.162-.822l.713-3.483.714-3.483a.351.351,0,0,0-.357-.438h-4.534a.576.576,0,0,0-.538.437l-.975,4.626-.975,4.625a.031.031,0,0,0,0,.007l-.091.43c-1.123,5.127-.825,10.016,5.278,10.169l.177,0h9.58a.578.578,0,0,0,.539-.437l2.066-9.711,2.066-9.712a.347.347,0,0,0-.353-.437Z" transform="translate(-180.448 -13.513)" fill="#131b28"/>
      <path id="Path_24874" data-name="Path 24874" d="M383.461,72.621a.35.35,0,0,1,.357.437l-.429,2.1" transform="translate(-273.096 -51.73)" fill="#131b28"/>
      <path id="Path_24875" data-name="Path 24875" d="M381.9,83.524l.429-2.1-.429,2.1h0Z" transform="translate(-272.035 -58.002)" fill="#131b28"/>
      <path id="Path_24876" data-name="Path 24876" d="M359.872,90.252h0c-1.3.011-5.207.04-8.143.04,3.574,0,8.141-.039,8.141-.039Z" transform="translate(-250.546 -64.288)" fill="#131b28"/>
      <path id="Path_24877" data-name="Path 24877" d="M342.2,61.664c0-.23.258-.625.5-.625l-.552-.009C341.907,63.53,342.2,61.664,342.2,61.664Z" transform="translate(-243.655 -43.473)" fill="#131b28"/>
      <path id="Path_24878" data-name="Path 24878" d="M352.92,90.387h0Z" transform="translate(-251.332 -64.385)" fill="#131b28"/>
      <path id="Path_24879" data-name="Path 24879" d="M383.288,72.621a.35.35,0,0,1,.357.437l-.429,2.1-.07.342" transform="translate(-272.923 -51.73)" fill="#131b28"/>
      <path id="Path_24880" data-name="Path 24880" d="M360.356,90.37h0Z" transform="translate(-256.677 -64.373)" fill="#131b28"/>
      <path id="Path_24881" data-name="Path 24881" d="M356.474,90.382h0Z" transform="translate(-253.88 -64.381)" fill="#131b28"/>
      <path id="Path_24882" data-name="Path 24882" d="M355.223,90.385h0Z" transform="translate(-252.959 -64.383)" fill="#131b28"/>
      <path id="Path_24883" data-name="Path 24883" d="M354.084,90.387h0Z" transform="translate(-252.157 -64.385)" fill="#131b28"/>
      <path id="Path_24884" data-name="Path 24884" d="M355.747,90.382h0Z" transform="translate(-253.216 -64.381)" fill="#131b28"/>
      <path id="Path_24885" data-name="Path 24885" d="M357.7,90.37l-1.066,0Z" transform="translate(-254.039 -64.373)" fill="#131b28"/>
      <path id="Path_24886" data-name="Path 24886" d="M366.046,90.25h0c-.953.008-3.305.025-5.652.034C362.74,90.276,365.093,90.258,366.046,90.25Z" transform="translate(-256.717 -64.287)" fill="#131b28"/>
      <path id="Path_24887" data-name="Path 24887" d="M381.9,84.373l.359-1.757-.36,1.758h0Z" transform="translate(-272.035 -58.849)" fill="#131b28"/>
      <path id="Path_24888" data-name="Path 24888" d="M354.543,90.387h0Z" transform="translate(-252.383 -64.385)" fill="#131b28"/>
      <path id="Path_24889" data-name="Path 24889" d="M352.049,90.389h0Z" transform="translate(-250.548 -64.386)" fill="#131b28"/>
      <path id="Path_24890" data-name="Path 24890" d="M353.374,90.387h0Z" transform="translate(-251.539 -64.385)" fill="#131b28"/>
      <path id="Path_24891" data-name="Path 24891" d="M127.252,55.885l.686-3.042-.785,3.477-.753,3.542.66-3.1c.051-.24.137-.633.191-.872Z" transform="translate(-90.038 -37.641)" fill="#131b28"/>
      <path id="Path_24892" data-name="Path 24892" d="M142.243,18.793h-4.851a.587.587,0,0,0-.545.435l-.46,2.03-.46,2.031a.341.341,0,0,0,.348.435h4.889a.581.581,0,0,0,.542-.435l.445-2.03.445-2.029h0a.344.344,0,0,0-.351-.435Z" transform="translate(-96.816 -13.387)" fill="#131b28"/>
      <path id="Path_24893" data-name="Path 24893" d="M150.717,42.271h0l-1.423,6.583Z" transform="translate(-106.345 -30.11)" fill="#131b28"/>
      <path id="Path_24894" data-name="Path 24894" d="M105.245,118.088s2.446.032,4,.032c-1.181,0-3.131-.022-4-.032h0Z" transform="translate(-74.967 -84.116)" fill="#131b28"/>
      <path id="Path_24895" data-name="Path 24895" d="M132.429,42.269l-.687,3.042Z" transform="translate(-93.843 -30.109)" fill="#131b28"/>
      <path id="Path_24896" data-name="Path 24896" d="M118.114,40.756h-4.89a.586.586,0,0,0-.544.435l-.687,3.042-.686,3.042c-.054.24-.14.632-.191.872l-.66,3.1-.66,3.1c-.051.239-.157.626-.235.859,0,0-.913,2.718-2.449,2.687l-.192,0-1.329-.025h0a.582.582,0,0,0-.548.426l-.507,2.132-.506,2.131a.342.342,0,0,0,.341.439c.871.011,2.821.032,4,.032,3.836,0,5.858-2.125,7.154-8.241l1.517-7.019,1.423-6.583a.345.345,0,0,0-.352-.435Z" transform="translate(-74.093 -29.031)" fill="#131b28"/>
      <path id="Path_24897" data-name="Path 24897" d="M393.573,45.782a.347.347,0,0,1-.353-.437L396.9,28.116" transform="translate(-280.093 -20.028)" fill="#131b28"/>
      <path id="Path_24898" data-name="Path 24898" d="M412.24,69.8l1.488-7.354Z" transform="translate(-293.648 -44.479)" fill="#131b28"/>
      <path id="Path_24899" data-name="Path 24899" d="M393.273,66.9a1.9,1.9,0,0,1,.04-.655l1.746-8.178-1.839,8.614a.347.347,0,0,0,.353.437h.447c-.245,0-.716-.1-.746-.218Z" transform="translate(-280.092 -41.359)" fill="#131b28"/>
      <path id="Path_24900" data-name="Path 24900" d="M409.523,87.261a2.315,2.315,0,0,1-.689.1h.447a.57.57,0,0,0,.534-.438l.089-.437C409.855,86.725,409.657,87.207,409.523,87.261Z" transform="translate(-291.222 -61.605)" fill="#131b28"/>
      <path id="Path_24901" data-name="Path 24901" d="M414.83,67.187l.657-3.246a.04.04,0,0,1,0,.006l-.656,3.239Z" transform="translate(-295.493 -45.547)" fill="#131b28"/>
      <path id="Path_24902" data-name="Path 24902" d="M464.93,32.128l.2.837a.339.339,0,0,1-.344.435" transform="translate(-331.08 -22.886)" fill="#131b28"/>
      <path id="Path_24903" data-name="Path 24903" d="M412.55,78.464l.655-3.24Z" transform="translate(-293.869 -53.584)" fill="#131b28"/>
      <path id="Path_24904" data-name="Path 24904" d="M464.58,29.147l.2.858Z" transform="translate(-330.931 -20.762)" fill="#131b28"/>
      <path id="Path_24905" data-name="Path 24905" d="M417.11,53.659c.049-.24.13-.629.181-.867l.7-3.286-.794,3.722-.087.431Z" transform="translate(-297.117 -35.264)" fill="#131b28"/>
      <path id="Path_24906" data-name="Path 24906" d="M401.539,27.135c-.049.232-.111.525-.153.719l-1.746,8.179,1.839-8.615.059-.282Z" transform="translate(-284.673 -19.329)" fill="#131b28"/>
      <path id="Path_24907" data-name="Path 24907" d="M414.267,23.72l-.2-.837-.2-.858-.1-.434c-.4-1.543-1.563-2.434-4.095-2.434l-3.941,0-3.63,0h-4.084a.576.576,0,0,0-.538.436h0l-.181.853-.213,1.008-.059.282-1.839,8.615-1.746,8.178a1.9,1.9,0,0,0-.04.655c.029.12.5.218.745.218h3.685a2.315,2.315,0,0,0,.689-.1c.134-.054.331-.536.38-.776l.655-3.24.656-3.239v-.006l.087-.431.794-3.722.7-3.287a.578.578,0,0,1,.538-.435l11.593-.006a.339.339,0,0,0,.344-.435Z" transform="translate(-280.215 -13.64)" fill="#131b28"/>
      <path id="Path_24908" data-name="Path 24908" d="M466.8,8.7l-.892,0h-3.711a.949.949,0,0,0-.7.368l-8.205,12.021c-.139.2-.3.173-.351-.066l-.6-2.649a.587.587,0,0,0-.545-.435h-5.275a.319.319,0,0,0-.324.428l2.364,8.281a1.953,1.953,0,0,1,.012.861l-1.03,4.008a.33.33,0,0,0,.335.433h5.214a.607.607,0,0,0,.557-.433l1.031-4.008a2.665,2.665,0,0,1,.379-.789l13.321-17.68c.148-.2.068-.355-.177-.354l-1.4.009Z" transform="translate(-317.821 -6.192)" fill="#131b28"/>
      <path id="Path_24909" data-name="Path 24909" d="M336.949,25.66v0a.537.537,0,0,1-.521.461H329.74a.288.288,0,0,1-.315-.351.058.058,0,0,1,.006-.015l0,0c0-.008,0-.015,0-.022l.031-.114a4.191,4.191,0,0,1,4.385-2.813c2.753,0,3.29,1.345,3.1,2.857Zm-1.962-7.72c-8.585,0-10.619,5.211-11.76,10.47-1.141,5.36-1.043,10.372,7.84,10.372h1.408l1.066,0h.018c2.346-.009,4.7-.027,5.652-.034a.578.578,0,0,0,.532-.438l.36-1.758.07-.342.429-2.1a.35.35,0,0,0-.357-.437h-7.986c-3.176,0-4.12-.844-3.772-3.326h12.774a.527.527,0,0,0,.465-.329.468.468,0,0,0,.031-.112h0c1.9-7.15,1.352-11.965-6.768-11.965Z" transform="translate(-229.882 -12.779)" fill="#131b28"/>
      <path id="Path_24910" data-name="Path 24910" d="M179.428,12.853l-.121.428s0,0,0,0l-.964,3.416-.964,3.416a.625.625,0,0,1-.568.429h-5.1c-3.87,0-4.813-3.027-3.87-7.492.942-4.567,2.79-7.405,6.6-7.693,5.205-.393,6.247,3.269,4.99,7.495Zm3.5,7.427a57.216,57.216,0,0,0,2.952-9.215C186.624,6.55,184.362,0,175.629,0c-8.684,0-12.455,6.253-13.894,13.051-1.439,6.847.446,12.852,9.081,12.8l6.812-.025,6.367-.023a.616.616,0,0,0,.558-.433l1.109-4.23a.33.33,0,0,0-.333-.434l-1.063-.006L183.2,20.7a.273.273,0,0,1-.3-.315.41.41,0,0,1,.026-.1Z" transform="translate(-114.896)" fill="#131b28"/>
      <path id="Path_24911" data-name="Path 24911" d="M384.47,56.185a.293.293,0,1,1-.293-.292A.293.293,0,0,1,384.47,56.185Z" transform="translate(-273.449 -39.813)" fill="#131b28"/>
      <path id="Path_24912" data-name="Path 24912" d="M1.72,24.631c-2.4,3.446-2.1,7.93-.268,11.592.044.088.089.174.134.261.029.055.056.111.086.165.017.032.036.064.053.095.031.058.063.114.1.171q.085.151.175.3c.033.055.066.11.1.164.066.107.134.212.2.317.029.045.057.09.086.133.1.143.193.284.294.424l.008.011c.016.022.033.044.05.067.087.12.177.239.268.356l.1.129q.122.153.248.3l.094.113c.113.133.228.265.345.394l.007.007.013.015c.114.125.232.247.35.369l.112.113q.138.139.28.275c.038.037.076.074.114.109q.189.178.383.349l.006,0,.067.057c.114.1.231.2.348.294l.144.115q.144.115.29.227l.155.118q.162.119.326.234c.04.029.079.057.119.084l.033.023c.1.072.21.14.316.209.046.03.091.062.137.091.163.1.328.205.5.3l.137.077c.123.071.247.14.372.209.068.037.137.071.206.106.088.046.176.093.266.138l.061.029.109.053q.209.1.422.2l.089.04q.244.106.492.2l.12.047c.153.059.308.117.464.172l.058.02c.171.06.344.115.518.169l.125.037a5.035,5.035,0,0,0,.534.151c11.6,2.115,14.965-6.969,14.965-6.969-2.829,3.686-7.851,4.658-12.609,3.576-.18-.041-.355-.1-.531-.149l-.132-.04q-.258-.079-.511-.166l-.07-.025c-.152-.053-.3-.11-.451-.167L12,40.284q-.245-.1-.487-.2l-.1-.043c-.138-.063-.275-.126-.411-.191l-.119-.057c-.107-.052-.212-.108-.318-.162-.07-.037-.142-.072-.212-.111-.129-.069-.255-.14-.381-.213l-.129-.072c-.167-.1-.332-.2-.5-.3-.045-.029-.089-.06-.134-.089-.119-.077-.236-.154-.353-.234l-.114-.08q-.168-.119-.333-.241l-.148-.112c-.1-.077-.2-.155-.3-.235l-.134-.107c-.126-.1-.251-.209-.375-.316l-.041-.034c-.133-.117-.264-.237-.394-.358l-.111-.107c-.1-.091-.19-.183-.283-.277l-.111-.111q-.177-.181-.347-.367l-.017-.018c-.12-.131-.237-.265-.352-.4l-.092-.11c-.086-.1-.171-.208-.254-.313L5.363,35.3c-.1-.129-.2-.259-.293-.39-2.642-3.6-3.591-8.573-1.479-12.654" transform="translate(0 -15.854)" fill="#0868ac"/>
      <path id="Path_24913" data-name="Path 24913" d="M28.627,15.463a8.337,8.337,0,0,0-.287,8.475,11.04,11.04,0,0,0,.767,1.28A6.091,6.091,0,0,0,30,26.333c.125.138.256.272.389.4.034.034.068.067.1.1.13.126.261.249.4.369l.016.014,0,0c.151.132.306.259.464.384l.105.082c.158.122.32.241.486.355l.014.011c.073.051.147.1.222.146.035.023.069.048.105.07q.178.114.36.221l.051.029c.1.06.211.12.318.178.037.021.075.039.113.059.074.039.147.078.223.115l.034.015c.153.075.307.147.464.216l.1.042c.126.053.253.105.381.155l.163.06c.116.043.232.082.349.122l.158.051a3.814,3.814,0,0,0,.505.146c8.953,1.483,11.02-5.41,11.02-5.41-1.863,2.684-5.472,3.964-9.322,2.965-.171-.045-.34-.094-.507-.147-.051-.015-.1-.032-.152-.049q-.179-.058-.355-.122l-.16-.06q-.193-.074-.382-.154c-.034-.015-.069-.028-.1-.044q-.237-.1-.467-.217c-.079-.039-.157-.079-.234-.119l-.135-.07c-.1-.054-.2-.11-.3-.167l-.071-.04q-.182-.106-.359-.219c-.037-.023-.072-.048-.108-.072-.078-.051-.156-.1-.232-.154-.165-.114-.326-.233-.484-.354l-.109-.086a10.8,10.8,0,0,1-3.657-5.211,8.086,8.086,0,0,1,.631-6.487" transform="translate(-19.464 -9.59)" fill="#0868ac"/>
      <path id="Path_24914" data-name="Path 24914" d="M51.458,10.263a5.218,5.218,0,0,0-.413,5.034,7.089,7.089,0,0,0,4.07,3.8c.074.027.147.052.222.077l.1.031a2.8,2.8,0,0,0,.319.092c4.944.955,6.285-2.537,6.642-3.051-1.175,1.691-3.149,2.1-5.571,1.509-.191-.047-.4-.116-.586-.181a7.09,7.09,0,0,1-1.916-1.034c-2.167-1.644-3.514-4.781-2.1-7.336" transform="translate(-36.035 -6.559)" fill="#0868ac"/>
      <path id="Path_24915" data-name="Path 24915" d="M233.316,112.746l-1.425,3.246h-1.573l.129-2.949-1.158,2.949h-1.523l-.04-3.246.168-.8h1.079l-.208,3.206,1.2-3.206h1.5l-.109,3.246,1.188-3.246h.94Z" transform="translate(-162.214 -79.741)" fill="#0868ac"/>
      <path id="Path_24916" data-name="Path 24916" d="M249.738,113.611c.139-.634.1-.752-.228-.752h-.495l-.317,1.485-.485,1.553h-.92l.752-3.522.109-.515H249l.109.237a2.208,2.208,0,0,1,.959-.287c1.01,0,.931.761.713,1.8h-1.039Z" transform="translate(-176.153 -79.645)" fill="#0868ac"/>
      <path id="Path_24917" data-name="Path 24917" d="M262.505,107.152c-.405,0-.663-.119-.564-.613a.722.722,0,0,1,.821-.614c.4,0,.663.119.555.614a.715.715,0,0,1-.812.613Zm-.435,4.552h-.911l.178-1.583.317-1.464-.633-.139.178-.86h1.731l-.86,4.047Z" transform="translate(-185.931 -75.453)" fill="#0868ac"/>
      <path id="Path_24918" data-name="Path 24918" d="M271.382,110.25l-1.138.139-.327,1.544c-.089.426-.089.544.287.544h.762l-.158.811a5.327,5.327,0,0,1-.99.208c-1.168,0-1.158-.643-.95-1.6l.317-1.514-.634-.138.188-.861h.663l.376-1.02h.9l-.218,1.02h1.108l-.188.87Z" transform="translate(-191.296 -77.187)" fill="#0868ac"/>
      <path id="Path_24919" data-name="Path 24919" d="M281.116,112.71a.859.859,0,0,0-.92.772l1.524-.129c.069-.336,0-.643-.6-.643Zm-1.068,1.5c-.07.5.118.663.751.663h1.593l-.158.752a7.712,7.712,0,0,1-1.672.267c-1.771,0-1.791-1-1.563-2.068.228-1.049.633-2.087,2.345-2.087,1.653,0,1.732,1,1.326,2.473h-2.622Z" transform="translate(-198.665 -79.596)" fill="#0868ac"/>
      <path id="Path_24920" data-name="Path 24920" d="M302.377,112.142h-.91l.178-1.583.643-3.008-.634-.148.188-.861h1.732l-1.2,5.6Z" transform="translate(-214.742 -75.892)" fill="#0868ac"/>
      <path id="Path_24921" data-name="Path 24921" d="M310.566,112.71a.86.86,0,0,0-.921.772l1.524-.129c.069-.336,0-.643-.6-.643Zm-1.069,1.5c-.069.5.119.663.752.663h1.593l-.158.752a7.716,7.716,0,0,1-1.673.267c-1.771,0-1.791-1-1.563-2.068.228-1.049.633-2.087,2.345-2.087,1.653,0,1.732,1,1.326,2.473H309.5Z" transform="translate(-219.642 -79.596)" fill="#0868ac"/>
      <path id="Path_24922" data-name="Path 24922" d="M326.585,112.805s-1.158.01-1.474.01c-.673,0-.742.207-.792.425l-.04.2,2.138.159a5.875,5.875,0,0,1-.079,1.068,1.846,1.846,0,0,1-1.989,1.3,8.841,8.841,0,0,1-1.554-.227l.168-.782h1.475c.653,0,.742-.178.782-.356l.049-.257-2.1-.159a3.381,3.381,0,0,1,.029-1.049,1.846,1.846,0,0,1,2.009-1.326,9.213,9.213,0,0,1,1.554.217l-.178.782Z" transform="translate(-229.934 -79.642)" fill="#0868ac"/>
      <path id="Path_24923" data-name="Path 24923" d="M340.416,112.805s-1.157.01-1.474.01c-.673,0-.742.207-.792.425l-.04.2,2.138.159a5.874,5.874,0,0,1-.079,1.068,1.846,1.846,0,0,1-1.989,1.3,8.847,8.847,0,0,1-1.554-.227l.168-.782h1.475c.653,0,.742-.178.782-.356l.049-.257-2.1-.159a3.381,3.381,0,0,1,.029-1.049,1.846,1.846,0,0,1,2.009-1.326,9.213,9.213,0,0,1,1.553.217l-.178.782Z" transform="translate(-239.786 -79.642)" fill="#0868ac"/>
      <path id="Path_24924" data-name="Path 24924" d="M351.3,123.84H350.5l.029-.594c-.287-.019-.435-.227-.366-.574a.717.717,0,0,1,.821-.613c.4,0,.662.119.554.613l-.248,1.168Z" transform="translate(-249.42 -86.945)" fill="#0868ac"/>
      <path id="Path_24925" data-name="Path 24925" d="M367.251,109.1c-.594,0-.8.356-.94,1.009s-.1,1.039.494,1.039h.821l.456-2.048Zm1.356,2.523-.109.525-.831-.01-.119-.257a4.018,4.018,0,0,1-1.227.316c-1.267,0-1.326-1.039-1.1-2.087.228-1.069.722-2.078,1.979-2.078a3.825,3.825,0,0,1,1.069.228l.5-1.712h.911l-1.079,5.076Z" transform="translate(-260.083 -75.895)" fill="#0868ac"/>
      <path id="Path_24926" data-name="Path 24926" d="M382.941,112.806c-.772,0-1.019.435-1.158,1.068s-.069,1.079.693,1.079c.792,0,1.03-.426,1.168-1.079C383.782,113.26,383.742,112.806,382.941,112.806Zm-.672,3.147c-1.633,0-1.762-1.019-1.544-2.078a2.292,2.292,0,0,1,2.435-2.068c1.622,0,1.771,1.009,1.543,2.068A2.285,2.285,0,0,1,382.268,115.952Z" transform="translate(-271.141 -79.642)" fill="#0868ac"/>
      <path id="Path_24927" data-name="Path 24927" d="M407.708,115.866l.178-1.563.089-.445c.129-.593.208-1.029-.416-1.029h-.485a3.839,3.839,0,0,1-.119,1.019l-.425,2.019h-.92l.178-1.563.089-.445c.129-.593.208-1.029-.415-1.029h-.4l-.653,3.038h-1.059l.861-4.047h.831l.129.247a2.7,2.7,0,0,1,1.019-.3.735.735,0,0,1,.693.356,3.014,3.014,0,0,1,1.168-.356c1.266,0,1.227,1.029,1,2.078l-.425,2.019h-.92Z" transform="translate(-287.318 -79.616)" fill="#0868ac"/>
      <path id="Path_24928" data-name="Path 24928" d="M427.42,112.806c-.772,0-1.019.435-1.158,1.068s-.069,1.079.693,1.079c.792,0,1.03-.426,1.168-1.079C428.261,113.26,428.222,112.806,427.42,112.806Zm-.673,3.147c-1.633,0-1.761-1.019-1.544-2.078a2.291,2.291,0,0,1,2.434-2.068c1.623,0,1.771,1.009,1.543,2.068A2.285,2.285,0,0,1,426.747,115.952Z" transform="translate(-302.824 -79.642)" fill="#0868ac"/>
      <path id="Path_24929" data-name="Path 24929" d="M442.738,113.611c.138-.634.1-.752-.227-.752h-.5l-.317,1.485-.485,1.553h-.92l.752-3.522.109-.515H442l.108.237a2.209,2.209,0,0,1,.96-.287c1.009,0,.93.761.712,1.8h-1.039Z" transform="translate(-313.631 -79.645)" fill="#0868ac"/>
      <path id="Path_24930" data-name="Path 24930" d="M455.617,112.71a.859.859,0,0,0-.92.772l1.523-.129c.07-.336,0-.643-.6-.643Zm-1.069,1.5c-.069.5.119.663.752.663h1.593l-.158.752a7.716,7.716,0,0,1-1.672.267c-1.771,0-1.791-1-1.564-2.068.228-1.049.634-2.087,2.345-2.087,1.652,0,1.732,1,1.326,2.473h-2.622Z" transform="translate(-322.966 -79.596)" fill="#0868ac"/>
      <path id="Path_24931" data-name="Path 24931" d="M468.142,123.206c-.416,0-.672-.119-.564-.6s.405-.614.821-.614c.386,0,.652.118.554.614A.726.726,0,0,1,468.142,123.206Z" transform="translate(-333.049 -86.896)" fill="#0868ac"/>
    </g>
  </g>
</svg>
