<svg xmlns="http://www.w3.org/2000/svg" xmlns:xlink="http://www.w3.org/1999/xlink" width="385" height="267" viewBox="0 0 385 267">
  <defs>
    <filter id="Rectangle_8544" x="0" y="0" width="385" height="267" filterUnits="userSpaceOnUse">
      <feOffset dy="3" input="SourceAlpha"/>
      <feGaussianBlur stdDeviation="28" result="blur"/>
      <feFlood flood-opacity="0.082"/>
      <feComposite operator="in" in2="blur"/>
      <feComposite in="SourceGraphic"/>
    </filter>
  </defs>
  <g id="Group_26249" data-name="Group 26249" transform="translate(-447 -1650)">
    <g transform="matrix(1, 0, 0, 1, 447, 1650)" filter="url(#Rectangle_8544)">
      <rect id="Rectangle_8544-2" data-name="Rectangle 8544" width="217" height="99" rx="26" transform="translate(84 81)" fill="#fff"/>
    </g>
    <g id="Layer_2" transform="translate(564.508 1763)">
      <g id="Group_26244" data-name="Group 26244">
        <path id="Path_23788" data-name="Path 23788" d="M265.809,48.227h-5.92v.628c1.852,0,2.149.4,2.149,2.745v4.233c0,2.348-.3,2.778-2.149,2.778-1.422-.2-2.381-.959-3.7-2.414l-1.521-1.653c2.05-.364,3.141-1.654,3.141-3.109,0-1.819-1.554-3.208-4.465-3.208H247.52v.628c1.852,0,2.149.4,2.149,2.745v4.233c0,2.348-.3,2.778-2.149,2.778v.628H254.1v-.628c-1.852,0-2.149-.43-2.149-2.778v-1.19h.562l3.671,4.6h9.624c4.729,0,6.78-2.513,6.78-5.523S270.538,48.227,265.809,48.227Zm-13.857,5.39v-4.4h1.356a2.2,2.2,0,0,1,0,4.4h-1.356Zm13.956,4.6h-.232c-1.19,0-1.356-.3-1.356-1.819V49.219h1.587c3.439,0,4.067,2.513,4.067,4.465C269.976,55.7,269.347,58.215,265.908,58.215Z" transform="translate(-178.587 -34.796)" fill="#00749a"/>
        <path id="Path_23789" data-name="Path 23789" d="M142.479,46.273l2.282-6.747c.662-1.951.364-2.513-1.753-2.513v-.662h6.217v.662c-2.083,0-2.579.5-3.406,2.91l-3.771,11.311h-.43l-3.374-10.352-3.439,10.352h-.43l-3.671-11.311c-.794-2.414-1.323-2.91-3.241-2.91v-.662h7.342v.662c-1.951,0-2.481.463-1.786,2.513l2.216,6.747,3.34-9.922h.629Z" transform="translate(-91.967 -26.227)" fill="#00749a"/>
        <path id="Path_23790" data-name="Path 23790" d="M204.616,58.554c-3.638,0-6.614-2.679-6.614-5.953,0-3.241,2.977-5.92,6.614-5.92s6.614,2.679,6.614,5.92C211.23,55.876,208.254,58.554,204.616,58.554Zm0-10.847c-3.042,0-4.1,2.745-4.1,4.894,0,2.183,1.059,4.895,4.1,4.895,3.076,0,4.134-2.712,4.134-4.895C208.751,50.452,207.692,47.707,204.616,47.707Z" transform="translate(-142.859 -33.681)" fill="#00749a"/>
        <path id="Path_23791" data-name="Path 23791" d="M347.243,50.009v.661H339.67v-.661c2.216,0,2.613-.562,2.613-3.87V40.848c0-3.308-.4-3.837-2.613-3.837V36.35h6.846c3.406,0,5.292,1.753,5.292,4.1,0,2.282-1.886,4.068-5.292,4.068h-1.885v1.62C344.631,49.447,345.027,50.009,347.243,50.009Zm-.728-12.468h-1.885V43.3h1.885a2.584,2.584,0,0,0,2.712-2.844A2.621,2.621,0,0,0,346.516,37.541Z" transform="translate(-245.074 -26.227)" fill="#464342"/>
        <path id="Path_23792" data-name="Path 23792" d="M407.943,56.131l-.165.6c-.3,1.091-.662,1.488-3.01,1.488H404.3c-1.719,0-2.017-.4-2.017-2.745V53.949c2.58,0,2.778.231,2.778,1.951h.628V50.972h-.628c0,1.72-.2,1.951-2.778,1.951v-3.7h1.819c2.349,0,2.712.4,3.01,1.488l.166.628h.529l-.231-3.109h-9.723v.628c1.852,0,2.15.4,2.15,2.745v4.233c0,2.148-.253,2.689-1.713,2.766-1.388-.212-2.34-.969-3.644-2.4l-1.521-1.653c2.051-.364,3.142-1.654,3.142-3.109,0-1.819-1.554-3.208-4.465-3.208h-5.821v.628c1.852,0,2.149.4,2.149,2.745v4.233c0,2.348-.3,2.778-2.149,2.778v.628h6.581v-.628c-1.852,0-2.15-.43-2.15-2.778v-1.19h.562l3.671,4.6h13.592l.2-3.108h-.5Zm-17.528-2.514v-4.4h1.356a2.2,2.2,0,0,1,0,4.4h-1.356Z" transform="translate(-278.489 -34.796)" fill="#464342"/>
        <path id="Path_23793" data-name="Path 23793" d="M478.229,58.555a4.889,4.889,0,0,1-2.977-1.125,2.376,2.376,0,0,0-.529,1.125H474.1V53.991h.661a3.67,3.67,0,0,0,3.737,3.472,1.7,1.7,0,0,0,1.918-1.587c0-.86-.761-1.521-2.117-2.15l-1.885-.893a3.6,3.6,0,0,1-2.315-3.175c0-1.587,1.488-2.943,3.539-2.943a4.142,4.142,0,0,1,2.58.86,1.869,1.869,0,0,0,.43-.893h.628v3.9h-.695c-.232-1.555-1.091-2.844-2.844-2.844-.926,0-1.786.529-1.786,1.356,0,.86.695,1.323,2.282,2.05l1.819.893a3.451,3.451,0,0,1,2.216,2.977C482.264,57.1,480.445,58.555,478.229,58.555Z" transform="translate(-342.062 -33.681)" fill="#464342"/>
        <path id="Path_23794" data-name="Path 23794" d="M514.8,58.555a4.888,4.888,0,0,1-2.977-1.125,2.377,2.377,0,0,0-.529,1.125h-.629V53.991h.661a3.67,3.67,0,0,0,3.737,3.472,1.7,1.7,0,0,0,1.918-1.587c0-.86-.761-1.521-2.117-2.15l-1.885-.893a3.6,3.6,0,0,1-2.315-3.175c0-1.587,1.488-2.943,3.539-2.943a4.142,4.142,0,0,1,2.58.86,1.865,1.865,0,0,0,.429-.893h.628v3.9h-.694c-.232-1.555-1.091-2.844-2.844-2.844-.926,0-1.786.529-1.786,1.356,0,.86.695,1.323,2.282,2.05l1.819.893a3.451,3.451,0,0,1,2.216,2.977C518.838,57.1,517.019,58.555,514.8,58.555Z" transform="translate(-368.45 -33.681)" fill="#464342"/>
        <g id="Group_26243" data-name="Group 26243">
          <path id="Path_23795" data-name="Path 23795" d="M8.708,45.828A14.639,14.639,0,0,0,16.957,59L9.975,39.872A14.58,14.58,0,0,0,8.708,45.828Z" transform="translate(-6.283 -28.768)" fill="#464342"/>
          <path id="Path_23796" data-name="Path 23796" d="M39.461,22.6a7.706,7.706,0,0,0-1.207-4.037,6.851,6.851,0,0,1-1.437-3.432,2.534,2.534,0,0,1,2.458-2.6c.065,0,.126.008.19.012A14.633,14.633,0,0,0,17.352,15.3c.343.01.667.018.942.018,1.531,0,3.9-.186,3.9-.186a.6.6,0,0,1,.094,1.206s-.793.093-1.675.14l5.33,15.853,3.2-9.606-2.28-6.248c-.788-.046-1.535-.14-1.535-.14a.6.6,0,0,1,.092-1.206s2.417.186,3.855.186c1.531,0,3.9-.186,3.9-.186a.6.6,0,0,1,.094,1.206s-.795.093-1.675.14l5.289,15.733,1.46-4.878A17.681,17.681,0,0,0,39.461,22.6Z" transform="translate(-12.52 -6.283)" fill="#464342"/>
          <path id="Path_23797" data-name="Path 23797" d="M50.807,65.857l-4.391,12.76a14.643,14.643,0,0,0,8.995-.233,1.285,1.285,0,0,1-.1-.2Z" transform="translate(-33.489 -47.516)" fill="#464342"/>
          <path id="Path_23798" data-name="Path 23798" d="M93.166,36.046a11.228,11.228,0,0,1,.1,1.5,13.806,13.806,0,0,1-1.113,5.242L87.681,55.719a14.638,14.638,0,0,0,5.485-19.673Z" transform="translate(-63.262 -26.007)" fill="#464342"/>
          <path id="Path_23799" data-name="Path 23799" d="M17.061,0A17.061,17.061,0,1,0,34.123,17.061,17.08,17.08,0,0,0,17.061,0Zm0,33.34A16.279,16.279,0,1,1,33.339,17.061,16.3,16.3,0,0,1,17.061,33.34Z" fill="#464342"/>
        </g>
      </g>
    </g>
  </g>
</svg>
