<svg xmlns="http://www.w3.org/2000/svg" xmlns:xlink="http://www.w3.org/1999/xlink" width="385" height="267" viewBox="0 0 385 267">
  <defs>
    <filter id="Rectangle_8548" x="0" y="0" width="385" height="267" filterUnits="userSpaceOnUse">
      <feOffset dy="3" input="SourceAlpha"/>
      <feGaussianBlur stdDeviation="28" result="blur"/>
      <feFlood flood-opacity="0.082"/>
      <feComposite operator="in" in2="blur"/>
      <feComposite in="SourceGraphic"/>
    </filter>
  </defs>
  <g id="Group_26980" data-name="Group 26980" transform="translate(-447 -2004)">
    <g transform="matrix(1, 0, 0, 1, 447, 2004)" filter="url(#Rectangle_8548)">
      <rect id="Rectangle_8548-2" data-name="Rectangle 8548" width="217" height="99" rx="26" transform="translate(84 81)" fill="#fff"/>
    </g>
    <g id="Group_26979" data-name="Group 26979" transform="translate(-4.565)">
      <g id="Group_26976" data-name="Group 26976" transform="translate(14498.198 6596)">
        <path id="path2999" d="M160,0h23.119V9.668H169.668v9.668h13.451V29H160Z" transform="translate(-14079.633 -4476)"/>
        <path id="path3001" d="M226,0h23.119V8.407H235.668v1.681h13.451V29.424H226V20.6h13.451V18.915H226Z" transform="translate(-14117.891 -4476)"/>
        <path id="path3003" d="M292,0h23.119V8.407H301.668v1.681h13.451V29.424H292V20.6h13.451V18.915H292Z" transform="translate(-14156.147 -4476)"/>
      </g>
      <g id="Group_26977" data-name="Group 26977" transform="translate(14677.363 6488.38)">
        <path id="polygon2989" d="M112.641,100.62l-3.463,38.79-15.564,4.315-15.522-4.309-3.459-38.8Z" transform="translate(-14079.633 -4476)" fill="#264de4"/>
        <path id="polygon2991" d="M268.577,164.042l2.959-33.148H256v36.634Z" transform="translate(-14241.996 -4503.102)" fill="#2965f1"/>
        <path id="polygon2993" d="M150.31,268.217l.426,4.758h10.648v-4.758Z" transform="translate(-14147.381 -4626.036)" fill="#ebebeb"/>
        <path id="polygon2995" d="M154.063,176.3H142.132l.433,4.758h11.5Z" transform="translate(-14140.06 -4543.754)" fill="#ebebeb"/>
        <path id="polygon2997" d="M166.844,346.5v-4.951l-.021.006-5.3-1.431-.339-3.795h-4.776l.667,7.471,9.747,2.706Z" transform="translate(-14152.841 -4687.015)" fill="#ebebeb"/>
        <path id="polygon3005" d="M261.7,190.694l-.552,6.171-5.307,1.432v4.95l9.754-2.7.072-.8,1.118-12.527.116-1.278.859-9.631H255.843v4.758h6.7l-.433,4.872h-6.272v4.758Z" transform="translate(-14241.856 -4543.754)" fill="#fff"/>
      </g>
    </g>
  </g>
</svg>
