<svg xmlns="http://www.w3.org/2000/svg" xmlns:xlink="http://www.w3.org/1999/xlink" width="385" height="267" viewBox="0 0 385 267">
  <defs>
    <filter id="Rectangle_8550" x="0" y="0" width="385" height="267" filterUnits="userSpaceOnUse">
      <feOffset dy="3" input="SourceAlpha"/>
      <feGaussianBlur stdDeviation="28" result="blur"/>
      <feFlood flood-opacity="0.082"/>
      <feComposite operator="in" in2="blur"/>
      <feComposite in="SourceGraphic"/>
    </filter>
  </defs>
  <g id="Group_26260" data-name="Group 26260" transform="translate(-768 -1829)">
    <g transform="matrix(1, 0, 0, 1, 768, 1829)" filter="url(#Rectangle_8550)">
      <rect id="Rectangle_8550-2" data-name="Rectangle 8550" width="217" height="99" rx="26" transform="translate(84 81)" fill="#fff"/>
    </g>
    <g id="Group_26223" data-name="Group 26223" transform="translate(915 1922.103)">
      <path id="Path_22145" data-name="Path 22145" d="M7.61,33.066a10.307,10.307,0,0,1-1.464-.095v1.836a5.966,5.966,0,0,0,2.147.516q3.26,0,6-4,3.5-5.177,5.659-16.61H16.618a56.379,56.379,0,0,1-3.167,12.972,11.6,11.6,0,0,0-.778-4.18L9.916,14.716H6.465L10.311,26.47a14.988,14.988,0,0,1,.872,3.516,2.982,2.982,0,0,1-1.119,2.257,3.619,3.619,0,0,1-2.454.823Z" transform="translate(17.166 30.254)" fill="#105e86"/>
      <path id="Path_22146" data-name="Path 22146" d="M19.482,13.293V33.881h9.976V31.355H22.839V13.293Z" transform="translate(54.413 26.28)" fill="#de8a03"/>
      <path id="Path_22147" data-name="Path 22147" d="M3.945,17.465h.038l5.31,16.42h2.674l5.348-16.42h.03c.558,5.14.91,10.605,1.024,16.42H21.9q-.25-9.325-1.623-20.588H16.12l-5.109,15.13h-.03L5.917,13.293H1.555Q.315,22.9,0,33.881H3.205q.154-9.024.74-16.416Z" transform="translate(0 26.28)" fill="#105e86"/>
      <path id="Path_22148" data-name="Path 22148" d="M41.889,23.436q0-10.224-8.174-10.226a7.841,7.841,0,0,0-6.258,2.6q-2.446,2.839-2.45,8.36c0,3.619.721,6.277,2.181,7.965q1.986,2.3,6,2.295a9.647,9.647,0,0,0,2.75-.368l5.026,2.875,1.365-2.318h-.011l-3.854-1.862a8.62,8.62,0,0,0,.971-.929q2.452-2.828,2.45-8.39Zm-8.356,8.439a4.076,4.076,0,0,1-3.71-1.862l.008-.019c-.853-1.339-1.278-3.5-1.278-6.463q0-7.778,4.817-7.783a4.074,4.074,0,0,1,3.706,1.862q1.274,2.02,1.274,6.414c0,5.227-1.608,7.851-4.817,7.851Zm-12.426-7.8s-3.012-1.7-4.5-2.5c-1.639-.891-2.526-1.946-2.526-3.163a2.54,2.54,0,0,1,.941-1.953,3.6,3.6,0,0,1,2.481-.766,10.451,10.451,0,0,1,4.036.857l.808-1.775a9.648,9.648,0,0,0-5.31-1.525A6.8,6.8,0,0,0,12.406,14.8a5.061,5.061,0,0,0-1.783,4.04,4.908,4.908,0,0,0,2.4,4.385s2.943,1.654,4.411,2.446c1.585.872,2.458,1.919,2.458,3.148a2.8,2.8,0,0,1-1.138,2.291,4.812,4.812,0,0,1-2.97.819,10.271,10.271,0,0,1-4.514-1.221l-.9,1.775A10.648,10.648,0,0,0,16.335,34.4a7.793,7.793,0,0,0,5.253-1.68,5.408,5.408,0,0,0,1.957-4.305l.023.011a4.842,4.842,0,0,0-2.462-4.354Z" transform="translate(28.961 26.048)" fill="#de8a03"/>
      <path id="Path_22149" data-name="Path 22149" d="M18.9,16.008H15.8a52.783,52.783,0,0,1-2.348,8.071,11.6,11.6,0,0,0-.778-4.18l-1.221-3.888H8.069l2.242,6.854a14.988,14.988,0,0,1,.872,3.516,2.982,2.982,0,0,1-1.119,2.257,3.6,3.6,0,0,1-2.454.827,10.308,10.308,0,0,1-1.464-.095v1.836a5.966,5.966,0,0,0,2.147.516q3.26,0,6-4,2.7-4.005,4.6-11.717Z" transform="translate(17.166 33.863)" fill="#0e5275"/>
      <path id="Path_22150" data-name="Path 22150" d="M22.839,16.008H19.482V26.3h9.976V23.772H22.839Z" transform="translate(54.413 33.863)" fill="#c17803"/>
      <path id="Path_22151" data-name="Path 22151" d="M3.546,16.008H.52Q.15,20.992,0,26.3H3.205q.091-5.439.341-10.29Zm11.773,0H12.642L11.011,20.84h-.03l-1.62-4.832H5.966L9.293,26.3h2.674L15.32,16.008Zm6.008,0H17.9q.364,4.956.47,10.294H21.9q-.131-4.882-.569-10.294Z" transform="translate(0 33.863)" fill="#0e5275"/>
      <path id="Path_22152" data-name="Path 22152" d="M41.885,16.008H38.35v.2q0,7.84-4.817,7.848a4.076,4.076,0,0,1-3.71-1.862l.008-.019c-.827-1.3-1.248-3.357-1.278-6.171H25.006c0,.114,0,.228,0,.345,0,3.619.721,6.277,2.181,7.965q1.986,2.3,6,2.295a9.647,9.647,0,0,0,2.75-.368l5.026,2.875L42.329,26.8h-.011L38.464,24.94a8.62,8.62,0,0,0,.971-.929c1.582-1.817,2.4-4.491,2.45-8Zm-21.226,0H14.094c.99.554,2.439,1.362,3.338,1.843,1.585.872,2.458,1.919,2.458,3.148a2.8,2.8,0,0,1-1.138,2.291,4.812,4.812,0,0,1-2.97.819,10.271,10.271,0,0,1-4.514-1.221l-.9,1.775a10.648,10.648,0,0,0,5.966,1.919,7.793,7.793,0,0,0,5.253-1.68A5.408,5.408,0,0,0,23.546,20.6l.023.011a4.824,4.824,0,0,0-2.458-4.347s-.174-.1-.451-.254Z" transform="translate(28.961 33.863)" fill="#c17803"/>
      <path id="Path_22154" data-name="Path 22154" d="M63.994,51.5a16.668,16.668,0,0,0-3.636-3.463c-1.12-.753-3.568-1.8-4.028-3.06l-.068-.073a14.562,14.562,0,0,0,2.406-.544c1.188-.314,2.276-.241,3.5-.544.555-.136,1.114-.309,1.669-.481v-.314c-.628-.612-1.1-1.449-1.747-2.025a46.308,46.308,0,0,0-5.775-4.222c-1.1-.691-2.49-1.13-3.646-1.716l-1.36-.654a13.065,13.065,0,0,1-1.439-2.637c-1-1.889-1.988-3.981-2.862-5.979a35.946,35.946,0,0,0-1.779-3.918A34.978,34.978,0,0,0,31.707,9.03a17.219,17.219,0,0,0-4.478-1.4c-.874-.042-1.747-.1-2.616-.141a12.558,12.558,0,0,1-1.622-1.208c-1.988-1.229-7.136-3.9-8.6-.366-.942,2.229,1.4,4.426,2.213,5.561a15.935,15.935,0,0,1,1.779,2.563c.246.6.314,1.208.56,1.831a40.545,40.545,0,0,0,1.815,4.609,15.587,15.587,0,0,0,1.292,2.119c.282.382.764.555.874,1.167a9.9,9.9,0,0,0-.806,2.569c-1.256,3.887-.764,8.695,1.015,11.556.56.853,1.894,2.746,3.678,2.019,1.569-.612,1.224-2.569,1.674-4.285l.251-.963v.078c.492.968.983,1.883,1.433,2.851a19.714,19.714,0,0,0,4.536,4.6c.837.612,1.5,1.679,2.548,2.061v-.1h-.078l-.806-.685a18.563,18.563,0,0,1-1.831-2.051,45.193,45.193,0,0,1-3.908-6.257c-.575-1.078-1.057-2.239-1.517-3.3l-.56-1.25a12.58,12.58,0,0,0-1.674,2.328,19.262,19.262,0,0,0-.983,5.184l-.141.073c-1.12-.267-1.5-1.4-1.92-2.359a14.66,14.66,0,0,1-.314-9.171c.246-.717,1.292-2.992.874-3.672-.22-.654-.91-1.031-1.292-1.559a12.987,12.987,0,0,1-1.256-2.192c-.837-1.92-1.256-4.049-2.166-5.974a17.394,17.394,0,0,0-1.747-2.631,17.411,17.411,0,0,1-1.925-2.673L15.866,6.55l.492-.466,2.208.319a18.1,18.1,0,0,1,3.463,1.716c.492.34,1.02.994,1.648,1.161h.732c1.12.241,2.38.073,3.427.377a22.747,22.747,0,0,1,5.033,2.359A30.784,30.784,0,0,1,43.775,23.756c.419.79.6,1.517.983,2.338.732,1.695,1.637,3.4,2.38,5.043a22.246,22.246,0,0,0,2.49,4.609c.523.717,2.626,1.093,3.568,1.465.7.314,1.779.6,2.406.968,1.2.722,2.375,1.543,3.5,2.333.575.387,2.317,1.245,2.422,1.941a16.226,16.226,0,0,0-6.785.968c-.523.2-1.36.2-1.433.858l.575,1.1A7.952,7.952,0,0,0,55.7,47.47c.732.565,1.465,1.109,2.234,1.59,1.36.821,2.9,1.308,4.237,2.134.759.481,1.533,1.093,2.3,1.606.382.256.628.717,1.12.884v-.11l-.549-1.1L63.994,51.5Z" transform="translate(16.983 -0.94) rotate(-9)" fill="#105e86"/>
      <path id="Path_22155" data-name="Path 22155" d="M17.579,5.767l-.01.01a5.841,5.841,0,0,0-1.439.167v.068H16.2a11.538,11.538,0,0,0,1.12,1.4c.282.544.523,1.1.806,1.643l.068-.078a1.9,1.9,0,0,0,.738-1.711l-.419-.717-.936-.785Z" transform="translate(26.242 4.525) rotate(-9)" fill="#0e5275"/>
      <path id="Path_22156" data-name="Path 22156" d="M17.17,4.148a2.758,2.758,0,0,0-2.778,1.763c-.942,2.229,1.4,4.426,2.213,5.561a15.935,15.935,0,0,1,1.779,2.563c.246.6.314,1.208.56,1.831a40.542,40.542,0,0,0,1.815,4.609,15.586,15.586,0,0,0,1.292,2.119c.282.382.764.555.874,1.167a9.9,9.9,0,0,0-.806,2.569c-1.256,3.887-.764,8.695,1.015,11.556.471.722,1.5,2.181,2.877,2.181a2.063,2.063,0,0,0,.8-.162c1.569-.612,1.224-2.569,1.674-4.284l.251-.963v.078c.492.968.983,1.883,1.433,2.851a19.714,19.714,0,0,0,4.536,4.6c.837.612,1.5,1.679,2.548,2.061v-.1h-.078l-.806-.685a18.564,18.564,0,0,1-1.831-2.051,45.194,45.194,0,0,1-3.908-6.257c-.575-1.078-1.057-2.239-1.517-3.3l-.565-1.245a12.579,12.579,0,0,0-1.674,2.328,19.262,19.262,0,0,0-.983,5.184l-.141.073c-1.12-.267-1.5-1.4-1.92-2.359a14.66,14.66,0,0,1-.314-9.171c.246-.717,1.292-2.992.874-3.672-.22-.654-.91-1.031-1.292-1.559a12.987,12.987,0,0,1-1.256-2.192c-.837-1.92-1.256-4.049-2.166-5.974a17.4,17.4,0,0,0-1.747-2.631A17.411,17.411,0,0,1,16,7.962l-.141-1.407.492-.466,2.208.319a18.1,18.1,0,0,1,3.463,1.716c.492.34,1.02.994,1.648,1.161H24.4c1.12.241,2.38.073,3.427.377a22.747,22.747,0,0,1,5.033,2.359,30.615,30.615,0,0,1,4.614,3.531V12.921A44.382,44.382,0,0,0,31.7,9.034a17.219,17.219,0,0,0-4.478-1.4c-.874-.042-1.747-.1-2.616-.141a12.558,12.558,0,0,1-1.622-1.208C21.737,5.5,19.22,4.148,17.17,4.148Z" transform="translate(16.987 -0.945) rotate(-9)" fill="#0e5275"/>
    </g>
  </g>
</svg>
