<svg xmlns="http://www.w3.org/2000/svg" xmlns:xlink="http://www.w3.org/1999/xlink" width="385" height="267" viewBox="0 0 385 267">
  <defs>
    <filter id="Rectangle_8549" x="0" y="0" width="385" height="267" filterUnits="userSpaceOnUse">
      <feOffset dy="3" input="SourceAlpha"/>
      <feGaussianBlur stdDeviation="28" result="blur"/>
      <feFlood flood-opacity="0.082"/>
      <feComposite operator="in" in2="blur"/>
      <feComposite in="SourceGraphic"/>
    </filter>
  </defs>
  <g id="Group_26261" data-name="Group 26261" transform="translate(-447 -1829)">
    <g transform="matrix(1, 0, 0, 1, 447, 1829)" filter="url(#Rectangle_8549)">
      <rect id="Rectangle_8549-2" data-name="Rectangle 8549" width="217" height="99" rx="26" transform="translate(84 81)" fill="#fff"/>
    </g>
    <g id="layer1" transform="translate(454.056 1435.306)">
      <path id="path22" d="M191.034,501.421a.6.6,0,0,0-.6.6v15.253a.4.4,0,0,1-.2.359.416.416,0,0,1-.419,0l-2.492-1.436a1.2,1.2,0,0,0-1.2,0l-9.95,5.742a1.225,1.225,0,0,0-.6,1.057V534.48a1.194,1.194,0,0,0,.6,1.037l9.95,5.742a1.192,1.192,0,0,0,1.2,0l9.95-5.742a1.194,1.194,0,0,0,.6-1.037V505.848a1.216,1.216,0,0,0-.618-1.057l-5.922-3.31a.585.585,0,0,0-.3-.06Zm-64,14.336a1.125,1.125,0,0,0-.538.14l-9.95,5.742a1.191,1.191,0,0,0-.6,1.037l.02,15.413a.589.589,0,0,0,.3.518.581.581,0,0,0,.6,0l5.9-3.39a1.218,1.218,0,0,0,.618-1.037v-7.2a1.19,1.19,0,0,1,.6-1.037l2.512-1.456a1.2,1.2,0,0,1,1.2,0l2.512,1.456a1.19,1.19,0,0,1,.6,1.037v7.2a1.22,1.22,0,0,0,.618,1.037l5.9,3.39a.581.581,0,0,0,.6,0,.6.6,0,0,0,.3-.518l.02-15.413a1.186,1.186,0,0,0-.6-1.037l-9.949-5.742a1.115,1.115,0,0,0-.538-.14h-.12Zm89.407.14a1.189,1.189,0,0,0-.6.159l-9.95,5.742a1.193,1.193,0,0,0-.6,1.037v11.485a1.2,1.2,0,0,0,.618,1.037l9.87,5.623a1.2,1.2,0,0,0,1.176.02l5.982-3.33a.6.6,0,0,0,.319-.518.589.589,0,0,0-.3-.518l-10.009-5.742a.644.644,0,0,1-.319-.538v-3.589a.616.616,0,0,1,.319-.518l3.111-1.795a.6.6,0,0,1,.6,0l3.111,1.795a.6.6,0,0,1,.3.518V529.6a.6.6,0,0,0,.9.518l5.962-3.469a1.2,1.2,0,0,0,.6-1.037v-2.772a1.2,1.2,0,0,0-.6-1.037l-9.89-5.742a1.185,1.185,0,0,0-.6-.16Zm-29.749,8.574a.336.336,0,0,1,.16.039l3.41,1.974a.309.309,0,0,1,.16.259v3.948a.307.307,0,0,1-.16.259l-3.41,1.974a.3.3,0,0,1-.3,0l-3.41-1.974a.308.308,0,0,1-.16-.259v-3.948a.31.31,0,0,1,.16-.259l3.41-1.974a.263.263,0,0,1,.14-.04Z" transform="translate(0 0)" fill="#404137" fill-rule="evenodd"/>
      <path id="path28" d="M335.007,557.863a1.964,1.964,0,0,0-.977.239l-9.391,5.423a1.978,1.978,0,0,0-.977,1.715v10.827a1.98,1.98,0,0,0,.977,1.715l2.452,1.416a4.011,4.011,0,0,0,2.173.578,2.6,2.6,0,0,0,2.772-2.931V566.158a.268.268,0,0,0-.279-.259h-1.176a.267.267,0,0,0-.279.259v10.687c0,.825-.859,1.654-2.253.957l-2.552-1.5a.282.282,0,0,1-.159-.239V565.24a.316.316,0,0,1,.159-.259l9.371-5.4a.277.277,0,0,1,.279,0l9.371,5.4a.318.318,0,0,1,.16.259v10.827a.3.3,0,0,1-.14.259l-9.391,5.4a.289.289,0,0,1-.279,0l-2.413-1.436a.251.251,0,0,0-.239,0,6.212,6.212,0,0,1-1.416.638c-.154.054-.388.137.08.4l3.15,1.854a1.971,1.971,0,0,0,1.954,0l9.391-5.4a1.983,1.983,0,0,0,.977-1.715V565.24a1.98,1.98,0,0,0-.977-1.715l-9.391-5.423A1.958,1.958,0,0,0,335.007,557.863Zm-89.327.219a1.191,1.191,0,0,0-.6.159l-9.95,5.723a1.225,1.225,0,0,0-.6,1.057v11.485a1.193,1.193,0,0,0,.6,1.037l9.95,5.742a1.191,1.191,0,0,0,1.2,0l9.95-5.742a1.194,1.194,0,0,0,.6-1.037V565.021a1.224,1.224,0,0,0-.6-1.057l-9.95-5.723A1.192,1.192,0,0,0,245.68,558.082Zm103.264.06v.279h.778v2.054h.319v-2.054h.8v-.279Zm2.173,0v2.333h.3V559.1c0-.056,0-.143,0-.259s0-.221,0-.279v-.06l.658,1.974h.319l.678-1.974c0,.126-.017.247-.02.359s0,.191,0,.239v1.376h.3v-2.333h-.439l-.678,1.974-.658-1.974h-.459Zm-13.6,7.457c-2.674,0-4.267,1.138-4.267,3.031,0,2.053,1.581,2.617,4.147,2.871,3.071.3,3.31.751,3.31,1.356,0,1.048-.836,1.5-2.811,1.5-2.482,0-3.028-.62-3.21-1.854a.27.27,0,0,0-.259-.239h-1.216a.285.285,0,0,0-.279.279c0,1.581.86,3.45,4.965,3.45,2.972,0,4.686-1.167,4.686-3.21,0-2.026-1.385-2.57-4.267-2.951-2.913-.385-3.19-.574-3.19-1.256,0-.563.235-1.316,2.393-1.316,1.927,0,2.639.416,2.931,1.715a.273.273,0,0,0,.259.219h1.216a.3.3,0,0,0,.2-.1.262.262,0,0,0,.08-.2C342.017,566.652,340.525,565.6,337.52,565.6Zm-32.341,2.732a.247.247,0,0,0-.12.02l-1.914,1.117a.233.233,0,0,0-.12.2v2.193a.233.233,0,0,0,.12.2l1.914,1.1a.209.209,0,0,0,.219,0l1.914-1.1a.234.234,0,0,0,.12-.2v-2.193a.235.235,0,0,0-.12-.2l-1.914-1.117A.164.164,0,0,0,305.178,568.331Z" transform="translate(-88.761 -42.245)" fill="#83cd29" fill-rule="evenodd"/>
    </g>
  </g>
</svg>
