<svg xmlns="http://www.w3.org/2000/svg" xmlns:xlink="http://www.w3.org/1999/xlink" width="385" height="267" viewBox="0 0 385 267">
  <defs>
    <filter id="Rectangle_8553" x="0" y="0" width="385" height="267" filterUnits="userSpaceOnUse">
      <feOffset dy="3" input="SourceAlpha"/>
      <feGaussianBlur stdDeviation="28" result="blur"/>
      <feFlood flood-opacity="0.082"/>
      <feComposite operator="in" in2="blur"/>
      <feComposite in="SourceGraphic"/>
    </filter>
  </defs>
  <g id="Group_26262" data-name="Group 26262" transform="translate(-447 -2008)">
    <g transform="matrix(1, 0, 0, 1, 447, 2008)" filter="url(#Rectangle_8553)">
      <rect id="Rectangle_8553-2" data-name="Rectangle 8553" width="217" height="99" rx="26" transform="translate(84 81)" fill="#fff"/>
    </g>
    <g id="MongoDB_Logo" transform="translate(555.637 2111.129)">
      <path id="Path_23806" data-name="Path 23806" d="M24.384,21c-2.159-9.522-6.657-12.057-7.805-13.849A20.383,20.383,0,0,1,15.324,4.69a2.5,2.5,0,0,1-.891,2.02C12.989,8,6.858,12.994,6.342,23.814,5.861,33.9,13.758,40.122,14.8,40.765a2.318,2.318,0,0,0,2.256-.354C20.863,37.8,26.065,30.834,24.388,21" fill="#10aa50"/>
      <path id="Path_23807" data-name="Path 23807" d="M67.346,222.46a20.739,20.739,0,0,1-.846,5.374s.331,2.377.564,4.9h.823a45.786,45.786,0,0,1,.9-5.272C67.72,226.934,67.387,224.651,67.346,222.46Z" transform="translate(-51.695 -187.067)" fill="#b8c4c2"/>
      <path id="Path_23808" data-name="Path 23808" d="M72.538,41.7h0c-1.077-.5-1.389-2.828-1.437-5a102.336,102.336,0,0,0,.233-10.764c-.056-1.884.027-17.446-.464-19.724a18.934,18.934,0,0,0,1.158,2.24c1.148,1.793,5.648,4.328,7.805,13.851C81.513,32.122,76.34,39.069,72.538,41.7Z" transform="translate(-55.449 -1.306)" fill="#12924f"/>
      <path id="Path_23809" data-name="Path 23809" d="M1075.45,205a2.339,2.339,0,1,1,2.339-2.371A2.309,2.309,0,0,1,1075.45,205m0-4.467a2.129,2.129,0,1,0,2.115,2.135,2.094,2.094,0,0,0-2.115-2.135m.564,3.606-.6-1.3h-.486v1.3h-.354v-2.961h.873c.65,0,.921.282.921.828a.719.719,0,0,1-.585.788l.623,1.341Zm-1.076-1.607h.512c.415,0,.573-.141.573-.519s-.151-.506-.618-.506h-.467Z" transform="translate(-916.386 -168.048)" fill="#21313c"/>
      <path id="Path_23810" data-name="Path 23810" d="M802.677,117.489a5.37,5.37,0,0,0,3.013.715,5.865,5.865,0,0,0,4.247-1.518c1.41-1.282,2.38-3.243,2.38-6.374a7.585,7.585,0,0,0-3.494-6.88,9.346,9.346,0,0,0-5-1.162,4.151,4.151,0,0,0-1.475.179.774.774,0,0,0-.272.423c-.059.536-.059,4.616-.059,7.028,0,2.473,0,5.922.059,6.344a1.825,1.825,0,0,0,.6,1.251m-6.012-16.565c.512,0,2.457.089,3.363.089,1.692,0,2.861-.089,6.023-.089a9.751,9.751,0,0,1,6.476,2.084,8.672,8.672,0,0,1,2.961,6.821,8.852,8.852,0,0,1-3.676,7.654,12.16,12.16,0,0,1-7.613,2.144c-1.807,0-4.911-.059-7.5-.089h-.054c-.121-.238.221-1.167.433-1.191a3.831,3.831,0,0,0,1.215-.241c.547-.224.675-.5.736-1.486.09-1.847.061-4.051.061-6.553,0-1.786.03-5.272-.03-6.374-.092-.922-.481-1.16-1.269-1.339a16.388,16.388,0,0,0-1.692-.268c-.059-.179.4-.987.554-1.162" transform="translate(-678.424 -82.671)" fill="#21313c"/>
      <path id="Path_23811" data-name="Path 23811" d="M950.338,102.759c-.12.03-.271.329-.271.477-.031,1.073-.061,3.872-.061,5.807a.192.192,0,0,0,.151.149c.391.03,1.355.061,2.168.061a5.151,5.151,0,0,0,2.168-.328,2.808,2.808,0,0,0,1.41-2.651c0-2.591-1.807-3.574-4.488-3.574a8.089,8.089,0,0,0-1.084.059m6.838,11.914c0-2.621-1.929-4.11-5.453-4.11a13.767,13.767,0,0,0-1.535.03c-.09.03-.181.089-.181.149,0,1.877-.031,4.884.061,6.075a2.01,2.01,0,0,0,.873,1.43,6.059,6.059,0,0,0,2.319.327,3.62,3.62,0,0,0,3.917-3.9M944.9,101.3c.272,0,1.073.089,3.122.089,1.927,0,3.494-.059,5.358-.059,2.319,0,5.511.835,5.511,4.289a4.179,4.179,0,0,1-2.771,3.723c-.09.03-.09.089,0,.118,2.229.564,4.186,1.936,4.186,4.557,0,2.562-1.6,4.17-3.915,5.183a12.43,12.43,0,0,1-4.935.833c-1.355,0-4.987-.141-7.006-.118-.212-.089.193-1.043.374-1.191a5.552,5.552,0,0,0,1.366-.214c.722-.178.808-.41.9-1.483.061-.923.061-4.23.061-6.583,0-3.217.031-5.39,0-6.463-.03-.833-.331-1.1-.9-1.251-.451-.09-1.2-.179-1.806-.268-.151-.149.313-1.043.463-1.162" transform="translate(-805.81 -82.989)" fill="#21313c"/>
      <path id="Path_23812" data-name="Path 23812" d="M180.03,157.847a1.306,1.306,0,0,1-.092-.6.766.766,0,0,1,.092-.4,10.231,10.231,0,0,0,1.156-.235c.533-.133.733-.423.764-1.1.087-1.606.093-4.619.062-6.736v-.062a.858.858,0,0,0-.282-.757,6.054,6.054,0,0,0-1.6-.7c-.252-.075-.392-.207-.385-.362s.166-.338.495-.4a19,19,0,0,0,4.058-1.049.6.6,0,0,1,.12.423c0,.093-.014.192-.024.293-.025.3-.054.639-.054.977a.223.223,0,0,0,.378.128,7.481,7.481,0,0,1,4.028-1.819,3.464,3.464,0,0,1,3.079,1.889.207.207,0,0,0,.175.1.2.2,0,0,0,.164-.087,8.068,8.068,0,0,1,4.173-1.9c2.464,0,3.938,1.846,3.938,4.935,0,.888-.008,2.015-.017,3.065-.007.922-.014,1.786-.014,2.384a.824.824,0,0,0,.486.627,6.232,6.232,0,0,0,1.54.379h.025a2.291,2.291,0,0,1-.155,1.008c-.164,0-.389-.014-.671-.028-.512-.025-1.214-.061-2.03-.061-1.638,0-2.494.031-3.312.085a2.479,2.479,0,0,1-.008-1,8.677,8.677,0,0,0,1-.219c.522-.172.672-.409.7-1.1.013-.492.107-4.827-.061-5.857a2.621,2.621,0,0,0-2.717-2.316,4.783,4.783,0,0,0-2.71,1.033.4.4,0,0,0-.1.255v.021a11.085,11.085,0,0,1,.118,2.184c0,.564,0,1.152-.007,1.74-.007,1.2-.013,2.323.007,3.176a.8.8,0,0,0,.634.832c.154.034.275.063.4.092.235.058.481.117.846.175a1.62,1.62,0,0,1-.014.75.6.6,0,0,1-.106.255c-.911-.031-1.846-.058-3.195-.058-.409,0-1.076.017-1.665.032-.478.013-.929.025-1.186.027a1.162,1.162,0,0,1-.09-.519.9.9,0,0,1,.094-.485l.362-.066c.316-.056.589-.1.846-.169.446-.141.613-.383.646-.952a44.765,44.765,0,0,0-.032-6.1,2.5,2.5,0,0,0-2.6-2.312,4.884,4.884,0,0,0-2.71,1.032.826.826,0,0,0-.25.613v1.578c0,1.917-.013,4.3.034,5.336a.845.845,0,0,0,.737.835c.131.038.357.075.619.118.151.025.316.052.486.083a2.137,2.137,0,0,1-.08,1.008c-.262,0-.585-.017-.954-.032-.564-.025-1.269-.056-2.065-.056-.942,0-1.6.031-2.123.056-.354.017-.66.031-.966.032" transform="translate(-148.976 -120.897)" fill="#21313c"/>
      <path id="Path_23813" data-name="Path 23813" d="M361.728,146.776a2.569,2.569,0,0,0-1.438.4c-1.046.636-1.579,1.906-1.579,3.773,0,3.494,1.75,5.934,4.255,5.934a2.679,2.679,0,0,0,1.836-.65c.77-.627,1.179-1.91,1.179-3.707,0-3.442-1.71-5.755-4.255-5.755m.482,11.407c-4.526,0-6.137-3.32-6.137-6.426a5.746,5.746,0,0,1,2.636-5.043,8.052,8.052,0,0,1,4.073-1.2,5.7,5.7,0,0,1,5.865,6.04,6.249,6.249,0,0,1-2.786,5.518,7.9,7.9,0,0,1-3.652,1.115" transform="translate(-300.439 -120.966)" fill="#21313c"/>
      <path id="Path_23814" data-name="Path 23814" d="M688.545,146.776a2.562,2.562,0,0,0-1.441.4c-1.046.636-1.579,1.906-1.579,3.773,0,3.494,1.75,5.934,4.255,5.934a2.679,2.679,0,0,0,1.841-.65c.77-.627,1.177-1.91,1.177-3.707,0-3.442-1.709-5.755-4.254-5.755m.482,11.407c-4.526,0-6.137-3.32-6.137-6.425a5.743,5.743,0,0,1,2.638-5.045,8.037,8.037,0,0,1,4.072-1.2,5.7,5.7,0,0,1,5.865,6.039,6.244,6.244,0,0,1-2.786,5.518,7.887,7.887,0,0,1-3.652,1.117" transform="translate(-581.181 -120.966)" fill="#21313c"/>
      <path id="Path_23815" data-name="Path 23815" d="M583.283,146.589c-1.394,0-2.3,1.1-2.3,2.806s.777,3.731,2.961,3.731a2.125,2.125,0,0,0,1.392-.537,3.482,3.482,0,0,0,.846-2.449c0-2.223-1.083-3.55-2.894-3.55m-.18,11.764a2.3,2.3,0,0,0-1.128.282c-1.1.7-1.616,1.41-1.616,2.229a2.38,2.38,0,0,0,.938,1.919,4.753,4.753,0,0,0,3.2.977c2.706,0,3.918-1.455,3.918-2.9a2.053,2.053,0,0,0-1.54-2.057,12.079,12.079,0,0,0-3.764-.453m.18,6.908a5.841,5.841,0,0,1-3.794-1.112,3.555,3.555,0,0,1-1.41-2.634,2.06,2.06,0,0,1,.533-1.339,14.009,14.009,0,0,1,2.453-1.965.13.13,0,0,0,.079-.12.125.125,0,0,0-.1-.124,2.591,2.591,0,0,1-1.738-1.692.145.145,0,0,0-.013-.066.391.391,0,0,1,.158-.486c.175-.124.454-.29.753-.467a10.134,10.134,0,0,0,1.211-.788.2.2,0,0,0-.051-.31,3.9,3.9,0,0,1-2.777-4.089,4.064,4.064,0,0,1,1.706-3.346,7.782,7.782,0,0,1,3.817-1.294h.07a7.869,7.869,0,0,1,2.913.649,4.631,4.631,0,0,0,1.723.274,2.321,2.321,0,0,0,1.864-.7,1.618,1.618,0,0,1,.1.533,2.005,2.005,0,0,1-.336,1.224,1.521,1.521,0,0,1-1.158.5.964.964,0,0,1-.141-.007,3.8,3.8,0,0,1-.7-.117l-.116.041c-.037.054-.013.113.017.189a.241.241,0,0,1,.017.047,8.247,8.247,0,0,1,.168,1.142,4.266,4.266,0,0,1-1.8,3.855,6.142,6.142,0,0,1-3.1,1.2h0c-.024,0-.141.01-.361.03-.141.013-.324.03-.351.03H582.9c-.2.056-.733.309-.733.778,0,.389.24.873,1.386.96l.742.052a22.809,22.809,0,0,1,4.287.537,2.969,2.969,0,0,1,1.984,2.858c0,1.967-1.4,3.817-3.74,4.947a8.129,8.129,0,0,1-3.537.794" transform="translate(-491.157 -120.897)" fill="#21313c"/>
      <path id="Path_23816" data-name="Path 23816" d="M474.8,156.54a5.38,5.38,0,0,1-1.717-.447.79.79,0,0,1-.211-.423c-.061-.923-.061-3.6-.061-5.358a6.4,6.4,0,0,0-.846-3.574,3.625,3.625,0,0,0-3.072-1.609,7.134,7.134,0,0,0-4.035,1.906c-.031.03-.23.219-.226-.075s.049-.888.078-1.269a.653.653,0,0,0-.2-.553,17.954,17.954,0,0,1-4.1,1.073c-.64.124-.8.74-.118.953h.01a5.845,5.845,0,0,1,1.551.682.814.814,0,0,1,.241.744c.03,1.995.03,5.063-.061,6.731-.03.656-.211.894-.694,1.014l.045-.016a9.368,9.368,0,0,1-1.115.209,1.624,1.624,0,0,0,0,1.191c.3,0,1.833-.089,3.1-.089,1.745,0,2.649.089,3.1.089a1.662,1.662,0,0,0,.121-1.191,6.344,6.344,0,0,1-1.236-.179c-.481-.118-.6-.358-.632-.892-.059-1.4-.059-4.379-.059-6.405a1.193,1.193,0,0,1,.33-.987,3.969,3.969,0,0,1,2.47-.892,2.7,2.7,0,0,1,1.833.625,2.552,2.552,0,0,1,.863,1.683c.12,1.128.089,3.4.089,5.358,0,1.073-.089,1.342-.481,1.461a4.864,4.864,0,0,1-1.235.238,1.625,1.625,0,0,0,0,1.191c.783,0,1.692-.089,3.012-.089,1.657,0,2.711.089,3.133.089a1.657,1.657,0,0,0,.121-1.191" transform="translate(-389.587 -120.64)" fill="#21313c"/>
    </g>
  </g>
</svg>
