<svg xmlns="http://www.w3.org/2000/svg" width="184.332" height="58" viewBox="0 0 184.332 58">
  <g id="Group_28324" data-name="Group 28324" transform="translate(-248.834 -970)">
    <rect id="Rectangle_8958" data-name="Rectangle 8958" width="184" height="58" transform="translate(248.834 970)" fill="rgba(255,255,255,0)"/>
    <g id="vlpa" transform="translate(248.834 970)">
      <g id="vlpb">
        <g id="vlpc">
          <g id="vlpd">
            <path id="Path_23827" data-name="Path 23827" d="M10.509,0H48.837A10.5,10.5,0,0,1,59.347,10.509V47.354A10.5,10.5,0,0,1,48.837,57.863H10.509A10.5,10.5,0,0,1,0,47.354V10.509A10.5,10.5,0,0,1,10.509,0Z" fill="#300"/>
          </g>
        </g>
      </g>
      <g id="vlpe" transform="translate(12.188 12.834)">
        <g id="vlpf">
          <path id="Path_23828" data-name="Path 23828" d="M65.786,79.406h-9.2l-1.879,5.811a.433.433,0,0,1-.47.346H49.59c-.272,0-.346-.148-.272-.445L57.28,62.2c.074-.247.148-.519.247-.816a8.638,8.638,0,0,0,.148-1.607.245.245,0,0,1,.2-.272h6.4c.2,0,.3.074.321.2l9.026,25.47c.074.272,0,.4-.247.4H68.21a.373.373,0,0,1-.4-.272l-2.028-5.885Zm-7.765-5.02H64.3c-.148-.519-.346-1.137-.569-1.78-.223-.668-.445-1.385-.668-2.127-.247-.767-.47-1.508-.717-2.275s-.47-1.484-.668-2.2c-.2-.692-.371-1.335-.544-1.929h-.049a30.361,30.361,0,0,1-.841,3.19c-.371,1.187-.742,2.423-1.137,3.66C58.764,72.185,58.393,73.348,58.022,74.386Z" transform="translate(-49.29 -57.621)" fill="#ff9a00"/>
          <path id="Path_23829" data-name="Path 23829" d="M160.737,58.107a3.06,3.06,0,0,1-2.2-.865,3.212,3.212,0,0,1-.841-2.275,2.909,2.909,0,0,1,.89-2.2,3.167,3.167,0,0,1,2.2-.865,2.961,2.961,0,0,1,2.25.865,3.4,3.4,0,0,1-.049,4.476A2.908,2.908,0,0,1,160.737,58.107Zm-2.77,21.464V60.53c0-.247.1-.346.321-.346h4.9c.223,0,.321.124.321.346V79.57c0,.272-.1.4-.321.4h-4.847A.346.346,0,0,1,157.968,79.57Z" transform="translate(-130.888 -51.9)" fill="#ff9a00"/>
        </g>
      </g>
    </g>
    <path id="Path_23830" data-name="Path 23830" d="M12.076,1.748H3.548L1.712,5.836H.028l7-15.306h1.6l7,15.306H13.913ZM11.486.436,7.812-7.786,4.139.436ZM28.869-10.388V5.836H27.382V3.562a4.735,4.735,0,0,1-1.848,1.771,5.419,5.419,0,0,1-2.591.612,5.838,5.838,0,0,1-2.93-.743,5.313,5.313,0,0,1-2.055-2.077A6.136,6.136,0,0,1,17.214.086a6.136,6.136,0,0,1,.743-3.039A5.238,5.238,0,0,1,20.013-5.02a5.907,5.907,0,0,1,2.93-.733,5.438,5.438,0,0,1,2.525.579,4.786,4.786,0,0,1,1.848,1.695v-6.91ZM23.074,4.568a4.3,4.3,0,0,0,2.176-.558,3.96,3.96,0,0,0,1.531-1.585,4.827,4.827,0,0,0,.558-2.34,4.827,4.827,0,0,0-.558-2.34A3.96,3.96,0,0,0,25.25-3.839,4.3,4.3,0,0,0,23.074-4.4a4.34,4.34,0,0,0-2.2.558,3.96,3.96,0,0,0-1.531,1.585,4.827,4.827,0,0,0-.558,2.34,4.827,4.827,0,0,0,.558,2.34,3.96,3.96,0,0,0,1.531,1.585A4.34,4.34,0,0,0,23.074,4.568ZM38.555,5.946a5.978,5.978,0,0,1-3-.754,5.5,5.5,0,0,1-2.1-2.088A5.953,5.953,0,0,1,32.7.086a5.953,5.953,0,0,1,.765-3.017,5.423,5.423,0,0,1,2.1-2.077,6.407,6.407,0,0,1,5.991,0,5.347,5.347,0,0,1,2.088,2.077A6.021,6.021,0,0,1,44.394.086,6.021,6.021,0,0,1,43.639,3.1a5.424,5.424,0,0,1-2.088,2.088A5.978,5.978,0,0,1,38.555,5.946Zm0-1.378a4.34,4.34,0,0,0,2.2-.558,3.887,3.887,0,0,0,1.52-1.585,4.9,4.9,0,0,0,.547-2.34,4.9,4.9,0,0,0-.547-2.34,3.887,3.887,0,0,0-1.52-1.585,4.34,4.34,0,0,0-2.2-.558,4.34,4.34,0,0,0-2.2.558,3.96,3.96,0,0,0-1.531,1.585A4.827,4.827,0,0,0,34.27.086a4.827,4.827,0,0,0,.558,2.34,3.96,3.96,0,0,0,1.531,1.585A4.34,4.34,0,0,0,38.555,4.568ZM54.146-5.752a5.907,5.907,0,0,1,2.93.733,5.238,5.238,0,0,1,2.055,2.066A6.136,6.136,0,0,1,59.874.086a6.136,6.136,0,0,1-.743,3.039A5.313,5.313,0,0,1,57.076,5.2a5.838,5.838,0,0,1-2.93.743,5.419,5.419,0,0,1-2.591-.612,4.735,4.735,0,0,1-1.848-1.771V5.836H48.22V-10.388h1.552v6.91A4.786,4.786,0,0,1,51.62-5.173,5.438,5.438,0,0,1,54.146-5.752ZM54.036,4.568a4.357,4.357,0,0,0,2.187-.558,3.938,3.938,0,0,0,1.542-1.585,4.827,4.827,0,0,0,.558-2.34,4.827,4.827,0,0,0-.558-2.34,3.938,3.938,0,0,0-1.542-1.585A4.357,4.357,0,0,0,54.036-4.4a4.34,4.34,0,0,0-2.2.558,3.96,3.96,0,0,0-1.531,1.585,4.827,4.827,0,0,0-.558,2.34,4.827,4.827,0,0,0,.558,2.34,3.96,3.96,0,0,0,1.531,1.585A4.34,4.34,0,0,0,54.036,4.568Zm19.679-4H64.095a4.111,4.111,0,0,0,1.378,2.9,4.573,4.573,0,0,0,3.149,1.1,4.962,4.962,0,0,0,1.968-.383,4.3,4.3,0,0,0,1.552-1.126l.875,1.006a4.925,4.925,0,0,1-1.913,1.4,6.471,6.471,0,0,1-2.525.481,6.385,6.385,0,0,1-3.138-.754A5.439,5.439,0,0,1,63.307,3.1,5.953,5.953,0,0,1,62.542.086a6.164,6.164,0,0,1,.732-3.017,5.3,5.3,0,0,1,2.012-2.077,5.616,5.616,0,0,1,2.875-.743,5.558,5.558,0,0,1,2.864.743,5.27,5.27,0,0,1,1.99,2.066A6.222,6.222,0,0,1,73.737.086ZM68.162-4.419a3.911,3.911,0,0,0-2.788,1.06A4.165,4.165,0,0,0,64.095-.592H72.25a4.165,4.165,0,0,0-1.279-2.766A3.939,3.939,0,0,0,68.162-4.419ZM1.8,15.52H5.341V30.826H1.8ZM9.387,14.6H12.8V30.826H9.387Zm7.238,0h3.411V30.826H16.624Zm19.089,4.461V30.826H32.477v-1.4a4.524,4.524,0,0,1-1.618,1.17,5.09,5.09,0,0,1-2.034.4,5.01,5.01,0,0,1-3.673-1.334A5.317,5.317,0,0,1,23.8,25.709V19.062h3.411v6.144q0,2.843,2.383,2.843a2.562,2.562,0,0,0,1.968-.8,3.367,3.367,0,0,0,.743-2.372V19.062ZM43.5,31a11.427,11.427,0,0,1-2.864-.361,7.484,7.484,0,0,1-2.23-.907l1.137-2.449a7.156,7.156,0,0,0,1.9.82,7.973,7.973,0,0,0,2.187.317q2.165,0,2.165-1.071a.758.758,0,0,0-.59-.722,8.744,8.744,0,0,0-1.815-.372,17.508,17.508,0,0,1-2.383-.5,3.7,3.7,0,0,1-1.629-1.006,2.86,2.86,0,0,1-.689-2.055,3.22,3.22,0,0,1,.645-1.979,4.151,4.151,0,0,1,1.88-1.345,8.031,8.031,0,0,1,2.919-.481,11.456,11.456,0,0,1,2.482.273,6.937,6.937,0,0,1,2.044.754L47.52,22.342a6.788,6.788,0,0,0-3.389-.875,3.448,3.448,0,0,0-1.64.306.9.9,0,0,0-.547.787.781.781,0,0,0,.59.765,10.451,10.451,0,0,0,1.88.415,20.13,20.13,0,0,1,2.361.514,3.548,3.548,0,0,1,1.6.995,2.823,2.823,0,0,1,.678,2.012,3.106,3.106,0,0,1-.656,1.946,4.187,4.187,0,0,1-1.913,1.323A8.524,8.524,0,0,1,43.5,31Zm15.9-.743a3.506,3.506,0,0,1-1.235.558A6.246,6.246,0,0,1,56.616,31a4.58,4.58,0,0,1-3.247-1.071,4.1,4.1,0,0,1-1.148-3.149V21.948H50.407V19.325h1.815V16.46h3.411v2.864h2.93v2.624h-2.93v4.789a1.606,1.606,0,0,0,.383,1.148,1.418,1.418,0,0,0,1.082.4,2.192,2.192,0,0,0,1.378-.437Zm5.838-9.643a3.793,3.793,0,0,1,1.651-1.29,6.127,6.127,0,0,1,2.394-.437v3.149q-.568-.044-.765-.044a3.127,3.127,0,0,0-2.3.82,3.314,3.314,0,0,0-.831,2.46v5.554H61.974V19.062h3.258Zm11.414-1.727a6.122,6.122,0,0,1,4.2,1.3,4.979,4.979,0,0,1,1.465,3.925v6.713H79.116V29.361Q78.154,31,75.53,31a5.566,5.566,0,0,1-2.351-.459,3.5,3.5,0,0,1-1.52-1.268,3.3,3.3,0,0,1-.525-1.837,3.065,3.065,0,0,1,1.235-2.58,6.3,6.3,0,0,1,3.816-.94H78.9A2.174,2.174,0,0,0,78.22,22.2a2.986,2.986,0,0,0-2.034-.6,5.938,5.938,0,0,0-1.848.3,4.888,4.888,0,0,0-1.542.8l-1.224-2.383a7.388,7.388,0,0,1,2.307-1.05A10.334,10.334,0,0,1,76.646,18.887ZM76.383,28.7a2.971,2.971,0,0,0,1.552-.4,2.213,2.213,0,0,0,.962-1.192v-1.2h-2.34q-2.1,0-2.1,1.378a1.227,1.227,0,0,0,.514,1.039A2.315,2.315,0,0,0,76.383,28.7Zm17.252,1.552a3.506,3.506,0,0,1-1.235.558A6.246,6.246,0,0,1,90.858,31a4.58,4.58,0,0,1-3.247-1.071,4.1,4.1,0,0,1-1.148-3.149V21.948H84.648V19.325h1.815V16.46h3.411v2.864H92.8v2.624h-2.93v4.789a1.606,1.606,0,0,0,.383,1.148,1.418,1.418,0,0,0,1.082.4,2.192,2.192,0,0,0,1.378-.437Zm7.806.743a7.054,7.054,0,0,1-3.335-.776A5.771,5.771,0,0,1,95.8,28.071a6.3,6.3,0,0,1,0-6.254,5.771,5.771,0,0,1,2.307-2.154,7.527,7.527,0,0,1,6.658,0,5.788,5.788,0,0,1,2.3,2.154,6.3,6.3,0,0,1,0,6.254,5.788,5.788,0,0,1-2.3,2.154A6.989,6.989,0,0,1,101.441,31Zm0-2.8a2.841,2.841,0,0,0,2.154-.886,3.3,3.3,0,0,0,.842-2.372,3.3,3.3,0,0,0-.842-2.372,2.841,2.841,0,0,0-2.154-.886,2.876,2.876,0,0,0-2.165.886,3.276,3.276,0,0,0-.853,2.372,3.276,3.276,0,0,0,.853,2.372A2.876,2.876,0,0,0,101.441,28.2Zm12.638-7.587a3.793,3.793,0,0,1,1.651-1.29,6.127,6.127,0,0,1,2.394-.437v3.149q-.569-.044-.765-.044a3.127,3.127,0,0,0-2.3.82,3.314,3.314,0,0,0-.831,2.46v5.554h-3.411V19.062h3.258Z" transform="translate(315.041 988.654)" fill="#300"/>
  </g>
</svg>
