<svg xmlns="http://www.w3.org/2000/svg" width="104" height="104" viewBox="0 0 104 104">
  <g id="Advancement" transform="translate(-218 -1660)">
    <rect id="Rectangle_9018" data-name="Rectangle 9018" width="104" height="104" transform="translate(218 1660)" fill="rgba(255,255,255,0)"/>
    <g id="Group_28334" data-name="Group 28334" transform="translate(233.015 1675.015)">
      <path id="Path_31489" data-name="Path 31489" d="M35.025,7A20.025,20.025,0,1,0,55.051,27.025,20.025,20.025,0,0,0,35.025,7ZM36.2,25.834V19.978c2.33-.023,4.605-.113,6.795-.269A32.418,32.418,0,0,1,43.78,25.5C41.355,25.693,38.811,25.808,36.2,25.834Zm7.6,2.024a32.687,32.687,0,0,1-.72,6.105c-2.223.165-4.532.262-6.877.286V28.19c2.609-.026,5.159-.139,7.6-.332ZM36.2,17.622V13.755a20.387,20.387,0,0,0,4.363-.663,25.526,25.526,0,0,1,1.81,4.3C40.382,17.522,38.317,17.6,36.2,17.622ZM35.025,9.356a17.548,17.548,0,0,1,6.041,1.086,17.613,17.613,0,0,1-6.041.992,17.613,17.613,0,0,1-6.041-.992,17.548,17.548,0,0,1,6.041-1.086Zm-6,3.593a19.808,19.808,0,0,0,4.818.806v3.867c-2.3-.023-4.541-.113-6.695-.268a25.4,25.4,0,0,1,1.876-4.405Zm-3.289,12.5a32.4,32.4,0,0,1,.788-5.782c2.348.18,4.8.28,7.319.305v5.857C31.05,25.806,28.322,25.677,25.74,25.454Zm8.107,2.736v6.06c-2.535-.027-5.03-.136-7.418-.327a32.71,32.71,0,0,1-.713-6.109C28.315,28.035,31.048,28.162,33.847,28.19Zm-7.6-16.476c.187.119.389.229.594.339a28.24,28.24,0,0,0-2.075,5.1c-1.39-.136-2.736-.3-4.021-.489a17.779,17.779,0,0,1,5.5-4.952Zm-6.859,7.117q2.277.373,4.782.632a34.8,34.8,0,0,0-.774,5.757c-2.076-.235-4.023-.535-5.808-.893a17.523,17.523,0,0,1,1.8-5.5Zm-2.029,8.194c0-.114.015-.223.017-.336,1.844.361,3.851.66,5.981.9a35.326,35.326,0,0,0,.618,6.113c-1.985-.211-3.86-.481-5.592-.8a17.552,17.552,0,0,1-1.024-5.871Zm8.888,15.311a17.785,17.785,0,0,1-6.725-6.851c1.584.253,3.269.463,5.022.634A28.644,28.644,0,0,0,26.838,42c-.205.11-.408.22-.594.339Zm7.6-5.731V40.3a19.809,19.809,0,0,0-4.818.806,25.642,25.642,0,0,1-1.98-4.77C29.253,36.49,31.534,36.582,33.847,36.606Zm1.178,8.089a17.548,17.548,0,0,1-6.041-1.086,17.613,17.613,0,0,1,6.041-.992,17.613,17.613,0,0,1,6.041.992,17.548,17.548,0,0,1-6.041,1.086Zm5.541-3.736A20.387,20.387,0,0,0,36.2,40.3v-3.69c2.122-.022,4.221-.1,6.255-.234a25.72,25.72,0,0,1-1.892,4.587Zm3.241,1.378a9.4,9.4,0,0,0-1.008-.56,28.776,28.776,0,0,0,2.164-5.6c1.951-.178,3.82-.408,5.569-.687a17.785,17.785,0,0,1-6.725,6.851Zm8.888-15.311A17.552,17.552,0,0,1,51.671,32.9c-1.889.349-3.952.635-6.136.854a35.291,35.291,0,0,0,.628-6.108c2.328-.243,4.518-.562,6.515-.953C52.68,26.8,52.695,26.912,52.695,27.025Zm-.228-2.7c-1.935.389-4.065.707-6.338.949a34.821,34.821,0,0,0-.765-5.765c1.856-.178,3.628-.407,5.3-.681a17.523,17.523,0,0,1,1.8,5.5Zm-7.7-7.127A28.422,28.422,0,0,0,42.8,12.274a9.4,9.4,0,0,0,1.008-.56,17.779,17.779,0,0,1,5.5,4.952c-1.443.215-2.967.391-4.54.535Z" transform="translate(2.316 0.892)" fill="#f24b57"/>
      <path id="Path_31490" data-name="Path 31490" d="M69.146,13.782V11.259a4.712,4.712,0,1,0-2.356,0V12.6H58.231A25.867,25.867,0,0,0,19.672,8.985V6.715a1.178,1.178,0,0,0-1.178-1.178H11.259a4.712,4.712,0,1,0,0,2.356h6.057v3.534h.05a25.8,25.8,0,0,0-5.939,16.491,36.183,36.183,0,0,0,5.893,18.847H7.892V44.242a4.712,4.712,0,1,0-2.356,0v3.7a1.178,1.178,0,0,0,1.178,1.178H18.963c.451.6.912,1.182,1.4,1.743a17.223,17.223,0,0,1,2.046,2.969H16.138a1.178,1.178,0,0,0-1.178,1.178v8.246H12.437a4.712,4.712,0,1,0,0,2.356h3.7a1.178,1.178,0,0,0,1.178-1.178V56.189H23.47a15.158,15.158,0,0,1,.914,5.1v.527a3.5,3.5,0,0,0,1.382,6,3.269,3.269,0,0,0-.2,1.106v.451a3.312,3.312,0,0,0,3.309,3.308H45.812a3.312,3.312,0,0,0,3.309-3.308v-.451a3.269,3.269,0,0,0-.2-1.106,3.5,3.5,0,0,0,1.382-6v-.527a16.073,16.073,0,0,1,4.025-10.429c.159-.184.309-.377.465-.565h3.756v11.78a1.178,1.178,0,0,0,1.178,1.178h3.7a4.712,4.712,0,1,0,0-2.356H60.9V49.121a1.178,1.178,0,0,0-1.178-1.178H56.575a38.367,38.367,0,0,0,6.073-14.136H66.79v2.523a4.712,4.712,0,1,0,2.356,0v-3.7a1.178,1.178,0,0,0-1.178-1.178H63.023a28.77,28.77,0,0,0,.233-3.534A25.747,25.747,0,0,0,59.77,14.96h8.2a1.178,1.178,0,0,0,1.178-1.178ZM6.715,9.07A2.356,2.356,0,1,1,9.07,6.715,2.356,2.356,0,0,1,6.715,9.07ZM4.359,39.7a2.356,2.356,0,1,1,2.356,2.356A2.356,2.356,0,0,1,4.359,39.7ZM7.892,66.79a2.356,2.356,0,1,1,2.356-2.356A2.356,2.356,0,0,1,7.892,66.79Zm60.076-7.068a2.356,2.356,0,1,1-2.356,2.356,2.356,2.356,0,0,1,2.356-2.356Zm2.356-18.847a2.356,2.356,0,1,1-2.356-2.356,2.356,2.356,0,0,1,2.356,2.356Zm-23.559,28.5a.953.953,0,0,1-.953.952H28.871a.953.953,0,0,1-.953-.952v-.451a.953.953,0,0,1,.953-.952H45.812a.953.953,0,0,1,.953.952Zm1.178-3.759H26.74a1.178,1.178,0,1,1,0-2.356h21.2a1.178,1.178,0,1,1,0,2.356ZM60.9,27.918A34.476,34.476,0,0,1,52.54,49.325,18.487,18.487,0,0,0,47.948,60.9H26.735a18.487,18.487,0,0,0-4.592-11.576,34.476,34.476,0,0,1-8.361-21.407,23.559,23.559,0,1,1,47.118,0Zm4.712-21.2A2.356,2.356,0,1,1,67.968,9.07a2.356,2.356,0,0,1-2.356-2.356Z" fill="#f24b57"/>
      <rect id="Rectangle_8991" data-name="Rectangle 8991" width="2.356" height="2.356" transform="translate(38.519 53.833)" fill="#f24b57"/>
      <rect id="Rectangle_8992" data-name="Rectangle 8992" width="2.356" height="2.356" transform="translate(36.164 51.477)" fill="#f24b57"/>
      <rect id="Rectangle_8993" data-name="Rectangle 8993" width="2.356" height="2.356" transform="translate(33.808 53.833)" fill="#f24b57"/>
      <rect id="Rectangle_8994" data-name="Rectangle 8994" width="2.356" height="2.356" transform="translate(40.875 56.189)" fill="#f24b57"/>
      <rect id="Rectangle_8995" data-name="Rectangle 8995" width="2.356" height="2.356" transform="translate(31.452 56.189)" fill="#f24b57"/>
    </g>
  </g>
</svg>
