<svg xmlns="http://www.w3.org/2000/svg" width="104" height="104" viewBox="0 0 104 104">
  <g id="Affordable_Prices" transform="translate(-720 -1434)">
    <rect id="Rectangle_9015" data-name="Rectangle 9015" width="104" height="104" transform="translate(720 1434)" fill="rgba(255,255,255,0)"/>
    <path id="Path_31492" data-name="Path 31492" d="M113.154,53.051a5.374,5.374,0,0,0-1.452-9.557l2.727-2.727a5.473,5.473,0,0,0-6.773-8.51,5.473,5.473,0,0,0-10.667,0,5.473,5.473,0,0,0-6.773,8.51l2.727,2.727a5.374,5.374,0,0,0-1.452,9.557C86.1,59,82.406,63.84,79.956,68.142c-4.147,7.281-4.229,15.332-.226,22.087,4.463,7.53,13.118,12.118,22.593,11.963.151,0,.3,0,.449,0,9.3,0,17.752-4.556,22.144-11.967,4-6.755,3.921-14.806-.226-22.087C122.24,63.84,118.542,59,113.154,53.051Zm-18.61-2.825a1.6,1.6,0,1,1,0-3.2H110.1a1.6,1.6,0,1,1,0,3.2ZM92.889,35.7a1.707,1.707,0,0,1,2.116-.226,3.732,3.732,0,0,0,5.662-2.345,1.694,1.694,0,0,1,3.312,0,3.732,3.732,0,0,0,5.662,2.345,1.695,1.695,0,0,1,2.116,2.623L106.6,43.251H98.046L92.89,38.094A1.7,1.7,0,0,1,92.889,35.7Zm28.776,52.6c-3.777,6.374-11.173,10.254-19.31,10.111h-.064c-8.125.142-15.533-3.737-19.31-10.111-3.341-5.637-3.249-12.133.259-18.291,2.522-4.428,6.508-9.53,12.5-16.007H108.9c6,6.478,9.982,11.58,12.5,16.007C124.914,76.17,125.006,82.665,121.665,88.3Zm-9.019-6.075a6.99,6.99,0,0,1-1.636,5.565,10.868,10.868,0,0,1-6.864,3.3v2a1.889,1.889,0,1,1-3.779,0V91.069a9.908,9.908,0,0,1-8.5-7.225,1.889,1.889,0,0,1,3.666-.914c.854,3.427,4.32,4.566,7.031,4.5a7.925,7.925,0,0,0,5.592-2.111,3.224,3.224,0,0,0,.743-2.638c-.306-2.519-2.44-3.971-6.92-4.706-7.407-1.216-9.132-5-9.276-7.953-.2-4.1,2.661-7.527,7.117-8.537.181-.041.366-.078.551-.11V59.322a1.889,1.889,0,1,1,3.779,0V61.36a9.828,9.828,0,0,1,7.709,6.011,1.889,1.889,0,0,1-3.484,1.463,6.515,6.515,0,0,0-7.719-3.663c-2.107.478-4.31,1.955-4.178,4.669.072,1.473.783,3.533,6.114,4.408C104.881,74.625,111.862,75.771,112.646,82.227Z" transform="translate(669.215 1420.989)" fill="#f24b57"/>
  </g>
</svg>
