<svg xmlns="http://www.w3.org/2000/svg" width="84" height="84" viewBox="0 0 84 84">
  <g id="Check" transform="translate(-1335 -1554)">
    <g id="Ellipse_904" data-name="Ellipse 904" transform="translate(1335 1554)" fill="#f9f9f9" stroke="#f24b57" stroke-width="3">
      <circle cx="42" cy="42" r="42" stroke="none"/>
      <circle cx="42" cy="42" r="40.5" fill="none"/>
    </g>
    <circle id="Ellipse_909" data-name="Ellipse 909" cx="30" cy="30" r="30" transform="translate(1347 1566)" fill="#f24b57"/>
    <path id="Path_31540" data-name="Path 31540" d="M163.368,213.11l-7.913,7.914L153,218.566a1.053,1.053,0,1,0-1.489,1.489l3.2,3.2a1.053,1.053,0,0,0,1.489,0l8.658-8.658a1.053,1.053,0,0,0-1.489-1.489Zm4.654-4.766a3.9,3.9,0,0,1-.417-1.3,2.869,2.869,0,0,0-4.456-2.593,3.836,3.836,0,0,1-1.363.288,3.9,3.9,0,0,1-.978-.894,2.924,2.924,0,0,0-5.249,0,3.9,3.9,0,0,1-.978.894,3.814,3.814,0,0,1-1.363-.287,2.869,2.869,0,0,0-4.456,2.593,3.9,3.9,0,0,1-.417,1.3,3.9,3.9,0,0,1-1.3.417,2.869,2.869,0,0,0-2.593,4.456,3.819,3.819,0,0,1,.288,1.363,3.9,3.9,0,0,1-.894.978,2.924,2.924,0,0,0,0,5.249,3.9,3.9,0,0,1,.894.978,3.819,3.819,0,0,1-.288,1.363,2.869,2.869,0,0,0,2.593,4.456,3.9,3.9,0,0,1,1.3.417,3.9,3.9,0,0,1,.417,1.3,2.869,2.869,0,0,0,4.456,2.593,3.839,3.839,0,0,1,1.363-.287,3.9,3.9,0,0,1,.978.894,2.924,2.924,0,0,0,5.249,0,3.9,3.9,0,0,1,.978-.894,3.8,3.8,0,0,1,1.363.287,2.869,2.869,0,0,0,4.456-2.593,1.493,1.493,0,0,1,1.716-1.716,2.869,2.869,0,0,0,2.593-4.456,3.814,3.814,0,0,1-.287-1.363,3.9,3.9,0,0,1,.894-.978,2.924,2.924,0,0,0,0-5.249,3.9,3.9,0,0,1-.894-.978,3.814,3.814,0,0,1,.287-1.363,2.869,2.869,0,0,0-2.593-4.456A3.89,3.89,0,0,1,168.022,208.344Zm2.17,2.9a3.836,3.836,0,0,1-.283,1.333,4.632,4.632,0,0,0-.316,2.547,4.439,4.439,0,0,0,1.515,1.995c.282.255.943.853.943,1.064s-.66.808-.943,1.064a4.439,4.439,0,0,0-1.515,1.995,4.631,4.631,0,0,0,.316,2.547,3.939,3.939,0,0,1,.287,1.327,3.744,3.744,0,0,1-1.319.431,3.369,3.369,0,0,0-3.33,3.33,3.841,3.841,0,0,1-.425,1.315,3.83,3.83,0,0,1-1.333-.283,4.632,4.632,0,0,0-2.547-.316,4.44,4.44,0,0,0-1.995,1.515c-.255.282-.853.943-1.064.943s-.808-.66-1.064-.943a4.44,4.44,0,0,0-1.995-1.515,2.531,2.531,0,0,0-.656-.082,6.39,6.39,0,0,0-1.891.4,3.922,3.922,0,0,1-1.326.287,3.741,3.741,0,0,1-.431-1.319,3.369,3.369,0,0,0-3.33-3.33,3.846,3.846,0,0,1-1.315-.425,3.837,3.837,0,0,1,.283-1.333,4.632,4.632,0,0,0,.316-2.547,4.439,4.439,0,0,0-1.515-1.995c-.282-.255-.943-.853-.943-1.064s.66-.808.943-1.064a4.44,4.44,0,0,0,1.515-1.995,4.632,4.632,0,0,0-.316-2.547,3.94,3.94,0,0,1-.287-1.327,3.744,3.744,0,0,1,1.319-.431,3.369,3.369,0,0,0,3.33-3.33,3.843,3.843,0,0,1,.425-1.315,3.839,3.839,0,0,1,1.333.283,4.629,4.629,0,0,0,2.547.316,4.439,4.439,0,0,0,1.995-1.515c.255-.282.853-.943,1.064-.943s.808.661,1.064.943a4.44,4.44,0,0,0,1.995,1.515,4.632,4.632,0,0,0,2.547-.316,3.933,3.933,0,0,1,1.327-.287,3.744,3.744,0,0,1,.431,1.319,3.369,3.369,0,0,0,3.33,3.33,3.845,3.845,0,0,1,1.315.425Z" transform="translate(1218.789 1377.789)" fill="#f9f9f9"/>
  </g>
</svg>
