<svg xmlns="http://www.w3.org/2000/svg" xmlns:xlink="http://www.w3.org/1999/xlink" width="300" height="267.616" viewBox="0 0 300 267.616">
  <defs>
    <linearGradient id="linear-gradient" x1="0.028" y1="1.449" x2="0.657" y2="0.244" gradientUnits="objectBoundingBox">
      <stop offset="0" stop-color="#3076a1"/>
      <stop offset="1" stop-color="#639c38"/>
    </linearGradient>
    <filter id="Path_25084">
      <feOffset dy="3" input="SourceAlpha"/>
      <feGaussianBlur stdDeviation="3" result="blur"/>
      <feFlood flood-opacity="0.302" result="color"/>
      <feComposite operator="out" in="SourceGraphic" in2="blur"/>
      <feComposite operator="in" in="color"/>
      <feComposite operator="in" in2="SourceGraphic"/>
    </filter>
    <filter id="Path_25085">
      <feOffset dy="3" input="SourceAlpha"/>
      <feGaussianBlur stdDeviation="3" result="blur-2"/>
      <feFlood flood-opacity="0.302" result="color-2"/>
      <feComposite operator="out" in="SourceGraphic" in2="blur-2"/>
      <feComposite operator="in" in="color-2"/>
      <feComposite operator="in" in2="SourceGraphic"/>
    </filter>
  </defs>
  <g id="Group_27112" data-name="Group 27112" transform="translate(-0.363 0)">
    <g data-type="innerShadowGroup">
      <path id="Path_25084-2" data-name="Path 25084" d="M816.862,448.256A234.692,234.692,0,0,1,796.9,492.063c-.186.318-.373.629-.562.946l-20.7-6.547c.119-.3.249-.635.39-1,8.348-21.588,58.711-153.117,56.45-179.05C832.727,308.533,840.606,378.782,816.862,448.256Z" transform="translate(-558.42 -227.458)" fill="url(#linear-gradient)"/>
      <g transform="matrix(1, 0, 0, 1, 0.36, 0)" filter="url(#Path_25084)">
        <path id="Path_25084-3" data-name="Path 25084" d="M816.862,448.256A234.692,234.692,0,0,1,796.9,492.063c-.186.318-.373.629-.562.946l-20.7-6.547c.119-.3.249-.635.39-1,8.348-21.588,58.711-153.117,56.45-179.05C832.727,308.533,840.606,378.782,816.862,448.256Z" transform="translate(-558.78 -227.46)" fill="#fff"/>
      </g>
    </g>
    <g data-type="innerShadowGroup">
      <path id="Path_25085-2" data-name="Path 25085" d="M815.319,647.22c-.281.288-.57.573-.861.852l-15.526-4.912c.21-.254.454-.553.735-.891,4.6-5.616,18.269-22.428,31.618-40.118,14.345-19.01,28.322-39.031,30.281-47.257C861.173,556.764,848.922,613.71,815.319,647.22Z" transform="translate(-572.843 -381.352)" fill="url(#linear-gradient)"/>
      <g transform="matrix(1, 0, 0, 1, 0.36, 0)" filter="url(#Path_25085)">
        <path id="Path_25085-3" data-name="Path 25085" d="M815.319,647.22c-.281.288-.57.573-.861.852l-15.526-4.912c.21-.254.454-.553.735-.891,4.6-5.616,18.269-22.428,31.618-40.118,14.345-19.01,28.322-39.031,30.281-47.257C861.173,556.764,848.922,613.71,815.319,647.22Z" transform="translate(-573.21 -381.35)" fill="#fff"/>
      </g>
    </g>
    <path id="Path_25086" data-name="Path 25086" d="M646.724,145.869l-.017,0V112.59A13.586,13.586,0,0,0,633.121,99h-104.2a13.586,13.586,0,0,0-13.586,13.586v17.062a1.1,1.1,0,0,0-1.077,1.1V139.2a1.1,1.1,0,0,0,1.077,1.1v8.853h-.055a1.1,1.1,0,0,0-1.1,1.1V166.6a1.1,1.1,0,0,0,1.1,1.1h.055v6.49h-.017a1.1,1.1,0,0,0-1.1,1.1v16.5a1.1,1.1,0,0,0,1.1,1.1h.017V352.4a13.586,13.586,0,0,0,13.586,13.586h104.2A13.586,13.586,0,0,0,646.707,352.4V178.232l.017,0a1.962,1.962,0,0,0,1.962-1.962V147.832a1.962,1.962,0,0,0-1.962-1.963Z" transform="translate(-396.487 -99.004)" fill="#005264"/>
    <path id="Path_25087" data-name="Path 25087" d="M653.676,127.708V359.914a10.434,10.434,0,0,1-10.434,10.43H548.966a10.434,10.434,0,0,1-10.434-10.43V127.708a10.434,10.434,0,0,1,10.434-10.434h14.107v1.831a8.6,8.6,0,0,0,8.592,8.592h47.964a8.592,8.592,0,0,0,8.573-8.592v-1.812h15.04a10.434,10.434,0,0,1,10.434,10.415Z" transform="translate(-411.568 -110.319)" fill="#fff"/>
    <path id="Path_25088" data-name="Path 25088" d="M375.82,440.837a4.089,4.089,0,0,0-5.49,3.03l-33.6,18.267,5.907,6.648,31.2-20.023a4.112,4.112,0,0,0,1.979-7.922Z" transform="translate(-286.588 -310.542)" fill="#ffb8b8"/>
    <path id="Path_25089" data-name="Path 25089" d="M194.91,654.778l4.186-2.708-8.452-17.436-6.179,4Z" transform="translate(-114.246 -393.052)" fill="#ffb8b8"/>
    <path id="Path_25090" data-name="Path 25090" d="M0,0H15.669V6.054H5.828A5.828,5.828,0,0,1,0,.226V0Z" transform="translate(95.439 257.683) rotate(147.104)"/>
    <path id="Path_25091" data-name="Path 25091" d="M88.511,657.918H93.5l2.373-19.23H88.511Z" transform="translate(-54.818 -395.562)" fill="#ffb8b8"/>
    <path id="Path_25092" data-name="Path 25092" d="M0,0H15.669V6.054H5.828A5.828,5.828,0,0,1,0,.227V0Z" transform="translate(48.294 266.986) rotate(180)"/>
    <path id="Path_25093" data-name="Path 25093" d="M575.73,194.9H565.452a.952.952,0,0,1,0-1.9H575.73a.952.952,0,0,1,0,1.9Z" transform="translate(-427.651 -157.217)" fill="#3f3d56"/>
    <path id="Path_25094" data-name="Path 25094" d="M575.73,201.9H565.452a.952.952,0,0,1,0-1.9H575.73a.952.952,0,0,1,0,1.9Z" transform="translate(-427.651 -161.552)" fill="#3f3d56"/>
    <path id="Path_25095" data-name="Path 25095" d="M575.73,208.9H565.452a.952.952,0,0,1,0-1.9H575.73a.952.952,0,0,1,0,1.9Z" transform="translate(-427.651 -165.887)" fill="#3f3d56"/>
    <path id="Path_25096" data-name="Path 25096" d="M794.4,197.255h-.346l-.133-.11a2.9,2.9,0,0,0,.678-1.861,2.832,2.832,0,1,0-2.817,2.847,2.942,2.942,0,0,0,1.858-.678l.129.11v.35l2.185,2.189.655-.655Zm-2.619,0a1.972,1.972,0,1,1,1.964-1.979v.008a1.96,1.96,0,0,1-1.949,1.972h-.015Z" transform="translate(-566.65 -156.888)" fill="#3f3d56"/>
    <path id="Path_25097" data-name="Path 25097" d="M612.151,276.371H593.687a4.187,4.187,0,0,1,0-8.375h18.464a4.187,4.187,0,0,1,0,8.375Z" transform="translate(-443.134 -203.667)" fill="#eb506e"/>
    <path id="Path_25098" data-name="Path 25098" d="M668.678,306.564H591.784a2.284,2.284,0,1,1,0-4.568h76.894a2.284,2.284,0,0,1,0,4.568Z" transform="translate(-443.134 -224.724)" fill="#e6e6e6"/>
    <path id="Path_25099" data-name="Path 25099" d="M620.029,330.564H591.784a2.284,2.284,0,1,1,0-4.568h28.245a2.284,2.284,0,0,1,0,4.568Z" transform="translate(-443.134 -239.588)" fill="#e6e6e6"/>
    <path id="Path_25100" data-name="Path 25100" d="M612.151,542.371H593.687a4.187,4.187,0,0,1,0-8.375h18.464a4.187,4.187,0,0,1,0,8.375Z" transform="translate(-443.134 -368.41)" fill="#eb506e"/>
    <path id="Path_25101" data-name="Path 25101" d="M668.678,572.564H591.784a2.284,2.284,0,0,1,0-4.568h76.894a2.284,2.284,0,0,1,0,4.568Z" transform="translate(-443.134 -389.467)" fill="#e6e6e6"/>
    <path id="Path_25102" data-name="Path 25102" d="M620.029,596.564H591.784a2.284,2.284,0,0,1,0-4.568h28.245a2.284,2.284,0,0,1,0,4.568Z" transform="translate(-443.134 -404.331)" fill="#e6e6e6"/>
    <path id="Path_25103" data-name="Path 25103" d="M612.151,665.371H593.687a4.187,4.187,0,0,1,0-8.375h18.464a4.187,4.187,0,0,1,0,8.375Z" transform="translate(-443.134 -444.588)" fill="#eb506e"/>
    <path id="Path_25104" data-name="Path 25104" d="M668.678,695.564H591.784a2.284,2.284,0,0,1,0-4.568h76.894a2.284,2.284,0,0,1,0,4.568Z" transform="translate(-443.134 -465.645)" fill="#e6e6e6"/>
    <path id="Path_25105" data-name="Path 25105" d="M620.029,719.564H591.784a2.284,2.284,0,0,1,0-4.568h28.245a2.284,2.284,0,0,1,0,4.568Z" transform="translate(-443.134 -480.509)" fill="#e6e6e6"/>
    <path id="Path_25106" data-name="Path 25106" d="M581.672,417.937H434.736A3.239,3.239,0,0,1,431.5,414.7v-39.97a3.239,3.239,0,0,1,3.236-3.236H581.672a3.239,3.239,0,0,1,3.236,3.236V414.7A3.239,3.239,0,0,1,581.672,417.937Z" transform="translate(-345.279 -267.768)" fill="#eb506e"/>
    <path id="Path_25107" data-name="Path 25107" d="M292.655,604.2c1.4,9.855-6.034,53.518-5.207,53.514l10.681-.057c.381-.731,5.284-24.29,6.822-28.07,2.147-5.246,4.313-10.556,5.158-16.159.8-5.261.4-10.621-.114-15.916a1,1,0,0,0-1.165-1.142l-14.332-.739c-2.954-.152-3.654-.8-3.205,2.1C291.6,599.9,292.343,602.008,292.655,604.2Z" transform="translate(-256.023 -406.479)" fill="#43496d"/>
    <path id="Path_25108" data-name="Path 25108" d="M300.2,553.736c-2.912,4.187-5.965,9.007-5,14.02.735,3.807,3.635,6.757,6.372,9.517,10.94,10.986,32.513,59.46,32.513,59.46,10.411-6.662-.248.19,10.316-6.852-.936-.072-22.212-76.552-23.974-76.655C313.3,552.754,307.15,552.058,300.2,553.736Z" transform="translate(-260.754 -379.977)" fill="#43496d"/>
    <path id="Path_25109" data-name="Path 25109" d="M315.471,441.977c-1.479-1.319-11.874-5.387-11.874-5.387a1.784,1.784,0,0,0-.574.017,1.238,1.238,0,0,0-.735,1.479c.126.594-.91,10.363-1.177,14.806-.468,7.753,4.1,25.316,4.057,25.853a8.023,8.023,0,0,1-2.363,5.06c.356.441,22.941,1.327,24.477,1.849.31-.393-1.749-28.25-1.844-29.824C325.28,453.441,317.424,443.786,315.471,441.977Z" transform="translate(-264.504 -308.073)" fill="#0480e3"/>
    <path id="Path_25110" data-name="Path 25110" d="M286.864,513.641a4.089,4.089,0,0,0,1.462-6.1l9.529-52.737-8.892-.117-6.617,52.15a4.112,4.112,0,0,0,4.518,6.8Z" transform="translate(-252.006 -319.292)" fill="#ffb8b8"/>
    <path id="Path_25111" data-name="Path 25111" d="M294.59,452.251a1.686,1.686,0,0,1-1.051-.274c-.529-.453,3.788-7.385,4.64-7.488a21.762,21.762,0,0,1,8.321.324,9.953,9.953,0,0,1,6.426,4.979c.5,1.051-3.141,6.338-4.8,5.562A65.618,65.618,0,0,0,294.59,452.251Z" transform="translate(-259.808 -312.825)" fill="#0480e3"/>
    <circle id="Ellipse_735" data-name="Ellipse 735" cx="9.988" cy="9.988" r="9.988" transform="translate(34.588 107.972)" fill="#ffb8b8"/>
    <path id="Path_25112" data-name="Path 25112" d="M276.215,396.429A8.346,8.346,0,0,0,285,385.495c-.4-1.2-1.062-2.29-1.426-3.5a3.9,3.9,0,0,1,.433-3.6c1.58-1.891,4.624-.7,7.06-1.078a6.067,6.067,0,0,0,4.793-5.508,8.321,8.321,0,0,0-3.187-6.872,13.481,13.481,0,0,0-7.263-2.74,19.64,19.64,0,0,0-20.158,26.835,13.55,13.55,0,0,0,5.408,6.771,8.4,8.4,0,0,0,8.4.273" transform="translate(-241.449 -261.954)" fill="#2f2e41"/>
    <path id="Path_25113" data-name="Path 25113" d="M530.965,405.871H505.44c-1.621,0-2.94-1.878-2.94-4.187s1.319-4.187,2.94-4.187h25.525c1.621,0,2.94,1.878,2.94,4.187S532.586,405.871,530.965,405.871Z" transform="translate(-389.252 -283.871)" fill="#fff"/>
    <path id="Path_25114" data-name="Path 25114" d="M599.57,436.064H504.784a2.284,2.284,0,1,1,0-4.568H599.57a2.284,2.284,0,0,1,0,4.568Z" transform="translate(-389.252 -304.928)" fill="#e6e6e6"/>
    <path id="Path_25115" data-name="Path 25115" d="M550.921,460.064H504.784a2.284,2.284,0,0,1,0-4.568h46.137a2.284,2.284,0,0,1,0,4.568Z" transform="translate(-389.252 -319.792)" fill="#e6e6e6"/>
    <rect id="Rectangle_8754" data-name="Rectangle 8754" width="300" height="1" transform="translate(0.363 266.616)" fill="#3f3d56"/>
  </g>
</svg>
