<svg xmlns="http://www.w3.org/2000/svg" width="92" height="92" viewBox="0 0 92 92">
  <g id="Group_28373" data-name="Group 28373" transform="translate(-839 -244)">
    <rect id="Rectangle_9004" data-name="Rectangle 9004" width="92" height="92" transform="translate(839 244)" fill="rgba(255,255,255,0)"/>
    <g id="Group_28370" data-name="Group 28370" transform="translate(853 257.88)">
      <path id="Path_31523" data-name="Path 31523" d="M43.99,61.87H20.03a3.636,3.636,0,0,1-3.63-3.63V54.21a3.636,3.636,0,0,1,3.63-3.63H43.99a3.636,3.636,0,0,1,3.63,3.63v4.03A3.643,3.643,0,0,1,43.99,61.87ZM20.17,58.11H43.85V54.36H20.17ZM12.94,16.9a4.36,4.36,0,1,1,4.36-4.36A4.355,4.355,0,0,1,12.94,16.9Zm0-4.94a.59.59,0,1,0,.59.59A.591.591,0,0,0,12.94,11.96Zm0,29.04a4.36,4.36,0,1,1,4.36-4.36A4.355,4.355,0,0,1,12.94,41Zm0-4.95a.591.591,0,0,0-.59.59.59.59,0,1,0,.59-.59Z" fill="#f24b57"/>
      <path id="Path_31524" data-name="Path 31524" d="M59.29,22.98H4.71A4.712,4.712,0,0,1,0,18.27V6.83A4.718,4.718,0,0,1,4.71,2.12H59.3a4.718,4.718,0,0,1,4.71,4.71V18.27A4.727,4.727,0,0,1,59.29,22.98ZM4.71,5.89a.939.939,0,0,0-.94.94V18.27a.939.939,0,0,0,.94.94H59.3a.939.939,0,0,0,.94-.94V6.83a.939.939,0,0,0-.94-.94ZM59.29,47.07H4.71A4.712,4.712,0,0,1,0,42.36V30.92a4.718,4.718,0,0,1,4.71-4.71H59.3a4.718,4.718,0,0,1,4.71,4.71V42.36A4.727,4.727,0,0,1,59.29,47.07ZM4.71,29.98a.939.939,0,0,0-.94.94V42.36a.939.939,0,0,0,.94.94H59.3a.939.939,0,0,0,.94-.94V30.92a.939.939,0,0,0-.94-.94Z" fill="#f24b57"/>
      <g id="Group_28367" data-name="Group 28367">
        <path id="Path_31525" data-name="Path 31525" d="M26.32,54.36a1.878,1.878,0,0,1-1.88-1.88v-7.3a1.88,1.88,0,1,1,3.76,0v7.3A1.878,1.878,0,0,1,26.32,54.36Zm0-24.38a1.878,1.878,0,0,1-1.88-1.88v-7a1.88,1.88,0,0,1,3.76,0v7A1.884,1.884,0,0,1,26.32,29.98ZM37.7,54.36a1.878,1.878,0,0,1-1.88-1.88v-7.3a1.88,1.88,0,0,1,3.76,0v7.3A1.878,1.878,0,0,1,37.7,54.36Zm0-24.38a1.878,1.878,0,0,1-1.88-1.88v-7a1.88,1.88,0,0,1,3.76,0v7A1.884,1.884,0,0,1,37.7,29.98Z" fill="#f24b57"/>
      </g>
      <g id="Group_28369" data-name="Group 28369">
        <path id="Path_31526" data-name="Path 31526" d="M40.7,14.43H37.02a1.88,1.88,0,1,1,0-3.76H40.7a1.88,1.88,0,1,1,0,3.76Zm11.21,0H48.23a1.88,1.88,0,1,1,0-3.76h3.68a1.88,1.88,0,1,1,0,3.76Z" fill="#f24b57"/>
        <g id="Group_28368" data-name="Group 28368">
          <path id="Path_31527" data-name="Path 31527" d="M40.7,38.53H37.02a1.88,1.88,0,1,1,0-3.76H40.7a1.88,1.88,0,1,1,0,3.76Zm11.21,0H48.23a1.88,1.88,0,0,1,0-3.76h3.68a1.88,1.88,0,0,1,0,3.76Z" fill="#f24b57"/>
        </g>
      </g>
    </g>
  </g>
</svg>
