<svg xmlns="http://www.w3.org/2000/svg" xmlns:xlink="http://www.w3.org/1999/xlink" width="290" height="290" viewBox="0 0 290 290">
  <defs>
    <clipPath id="clip-path">
      <rect id="Rectangle_8989" data-name="Rectangle 8989" width="151" height="186" transform="translate(8258 -1496)" fill="#f24b57" stroke="#ffb623" stroke-width="1"/>
    </clipPath>
  </defs>
  <g id="Design" transform="translate(-8188 1555)">
    <rect id="Rectangle_8983" data-name="Rectangle 8983" width="290" height="290" transform="translate(8188 -1555)" fill="rgba(255,255,255,0)"/>
    <g id="Mask_Group_146" data-name="Mask Group 146" transform="translate(0 -7)" clip-path="url(#clip-path)">
      <g id="Group_28331" data-name="Group 28331" transform="translate(-0.213)">
        <path id="Path_31475" data-name="Path 31475" d="M20.94,117.118v.7h0v.47a3.583,3.583,0,0,0,.294.7l.294.529a2.82,2.82,0,0,0,.529.646s0,.294,0,.411h.294l.294.352h.294l.646.352.587.294h.411a5.345,5.345,0,0,0,1.351,0h0a5.873,5.873,0,0,0,1.41,0L93.828,104.96a5.873,5.873,0,0,0,4.111-3.818l7.87-23.493,23.963-23.963a5.873,5.873,0,0,0,0-8.281l-32.127-32.6a5.873,5.873,0,0,0-8.281,0L65.4,36.77l-23.493,7.87a5.873,5.873,0,0,0-3.818,4.111l-16.8,66.486h0v.7ZM93.182,25.259,118.144,50.22,101.522,66.842,76.561,41.88ZM48.251,54.625l18.442-5.873L94.768,76.827,88.895,95.269,46.137,105.958,59.645,92.45a12.276,12.276,0,0,0,2.76.294A11.747,11.747,0,1,0,50.659,81a12.276,12.276,0,0,0,.411,3L37.562,97.5Z" transform="translate(8437.113 -1372.843) rotate(135)" fill="#f24b57"/>
        <path id="Path_31477" data-name="Path 31477" d="M43.5,99.979c.411.7.881,1.351,1.351,2.056a11.747,11.747,0,0,0,11.159,15.858,12.157,12.157,0,0,0,4.111-.764l2.056,1.351,36.885,36.885a5.9,5.9,0,1,0,8.34-8.34L87.488,127.173c2,0,3.935.294,5.873.294a58.734,58.734,0,0,0,33.126-10.337,12.393,12.393,0,0,0,4.111.764,11.747,11.747,0,0,0,8.34-20.087h0a11.747,11.747,0,0,0-16.622,0,12.04,12.04,0,0,0-3.289,10.22,46.987,46.987,0,0,1-49.747,1.116l-1.821-1.821a11.747,11.747,0,0,0-3.289-9.515h0a11.747,11.747,0,0,0-9.515-3.289L52.894,92.7a46.987,46.987,0,0,1,1.057-49.747H55.83a11.63,11.63,0,0,0,8.281-19.911h0a11.546,11.546,0,0,0-19.852,8.34,10.924,10.924,0,0,0,.822,4.111A58.733,58.733,0,0,0,34.8,74.841L19.063,59.1a5.9,5.9,0,1,0-8.34,8.34Z" transform="translate(8449.002 -1443.273) rotate(135)" fill="#f24b57"/>
      </g>
    </g>
  </g>
</svg>
