<svg xmlns="http://www.w3.org/2000/svg" width="290" height="290" viewBox="0 0 290 290">
  <g id="Develop" transform="translate(-8538 1555)">
    <rect id="Rectangle_8984" data-name="Rectangle 8984" width="290" height="290" transform="translate(8538 -1555)" fill="rgba(255,255,255,0)"/>
    <path id="Path_31478" data-name="Path 31478" d="M47.723,404.768,41.891,410.6a3.669,3.669,0,0,1-5.366,0l-54.359-54.359A3.688,3.688,0,0,1-19,353.559a3.688,3.688,0,0,1,1.166-2.683l54.359-54.359a3.669,3.669,0,0,1,5.366,0l5.832,5.832a3.669,3.669,0,0,1,0,5.366L1.88,353.559,47.723,399.4a3.669,3.669,0,0,1,0,5.366ZM116.663,280.3,73.153,430.9a3.794,3.794,0,0,1-1.808,2.275,3.256,3.256,0,0,1-2.741.292l-7.232-1.983a3.794,3.794,0,0,1-2.275-1.808,3.492,3.492,0,0,1-.292-2.858l43.51-150.594a3.794,3.794,0,0,1,1.808-2.275,3.256,3.256,0,0,1,2.741-.292l7.232,1.983a3.794,3.794,0,0,1,2.275,1.808A3.492,3.492,0,0,1,116.663,280.3ZM193.3,356.242,138.943,410.6a3.669,3.669,0,0,1-5.366,0l-5.832-5.833a3.669,3.669,0,0,1,0-5.366l45.843-45.843-45.843-45.843a3.669,3.669,0,0,1,0-5.366l5.832-5.832a3.669,3.669,0,0,1,5.366,0L193.3,350.876a3.669,3.669,0,0,1,0,5.366Z" transform="translate(8595.266 -1763.559)" fill="#f24b57" stroke="#ffb623" stroke-width="1"/>
  </g>
</svg>
