<svg xmlns="http://www.w3.org/2000/svg" width="290" height="290" viewBox="0 0 290 290">
  <g id="DM" transform="translate(-8955 1548)">
    <path id="Path_31487" data-name="Path 31487" d="M0,0H290V290H0Z" transform="translate(8955 -1548)" fill="rgba(255,255,255,0)"/>
    <g id="Group_28332" data-name="Group 28332" transform="translate(8994.552 -1504.5)">
      <path id="Path_31479" data-name="Path 31479" d="M94.571,36.56h-13.8a3.451,3.451,0,1,0,0,6.9h13.8a3.451,3.451,0,0,0,0-6.9Zm10.353-13.8H80.767a3.261,3.261,0,0,0-3.451,3.451,3.261,3.261,0,0,0,3.451,3.451h24.158a3.261,3.261,0,0,0,3.451-3.451A3.261,3.261,0,0,0,104.925,22.756ZM42.8,5.5H32.451A3.261,3.261,0,0,0,29,8.951,3.261,3.261,0,0,0,32.451,12.4H42.8a3.261,3.261,0,0,0,3.451-3.451A3.261,3.261,0,0,0,42.8,5.5Z" transform="translate(66.18 9.804)" fill="#f24b57"/>
      <path id="Path_31480" data-name="Path 31480" d="M198.714,15.3h-62.12V11.853A10.169,10.169,0,0,0,126.24,1.5H91.729c-7.592,0-10.353,6.212-10.353,10.353V29.109A10.383,10.383,0,0,0,91.729,39.462h5.522l7.938,7.938L36.166,60.514a29.008,29.008,0,0,0-15.875,10.7H19.256C13.389,72.248,2,79.15,2,98.476S13.044,124.7,19.256,125.74h1.035a28.785,28.785,0,0,0,9.663,8.283c0,.345.345.69.69,1.035l48.316,62.12c.345.345.69.69,1.035.69a15.935,15.935,0,0,0,10.353,3.8,15.465,15.465,0,0,0,15.53-15.53,16.644,16.644,0,0,0-3.8-10.353c0-.345-.345-.345-.345-.69l-26.229-31.75L146.6,156.8h2.416c16.565,0,29.335-25.883,29.335-58.669a128.817,128.817,0,0,0-1.726-20.707l6.9-6.9h15.185a10.383,10.383,0,0,0,10.353-10.353V25.658C209.067,21.516,206.306,15.3,198.714,15.3ZM129,122.289a101.124,101.124,0,0,1-2.761-24.158A101.124,101.124,0,0,1,129,73.974h.69c7.592,0,13.8,11.044,13.8,24.158s-6.212,24.158-13.8,24.158ZM98.631,32.56h-6.9a3.458,3.458,0,0,1-3.451-3.451V11.853c0-1.726.69-3.451,3.451-3.451H126.24a3.261,3.261,0,0,1,3.451,3.451V29.109a3.261,3.261,0,0,1-3.451,3.451H115.887a3.261,3.261,0,0,0-3.451,3.451v8.973L101.047,33.6A3.133,3.133,0,0,0,98.631,32.56Zm20.707,6.9h6.9v3.8l-6.9,1.38Zm-5.867,16.22a3.133,3.133,0,0,0,2.416,1.035,2.075,2.075,0,0,0,1.38-.345,3.316,3.316,0,0,0,2.071-3.106V51.541l6.9-1.38v9.663c-4.141,10.008-6.9,23.468-6.9,37.962,0,20.707,5.177,38.653,13.114,49.006L65.5,134.368h0c-5.177-9.663-7.938-22.777-7.938-36.237S60.324,71.558,65.5,61.895h0l45.555-8.628ZM8.9,98.131c0-9.663,3.106-14.84,6.212-17.6a50.88,50.88,0,0,0-2.761,17.6,48.8,48.8,0,0,0,2.761,17.256C12.008,112.971,8.9,107.794,8.9,98.131Zm10.353,0c0-27.609,17.256-31.06,17.946-31.06l19.671-3.8a92.253,92.253,0,0,0-6.557,34.856,92.253,92.253,0,0,0,6.557,34.856l-20.017-3.8S19.256,126.085,19.256,98.131ZM64.81,141.615l30.37,37.272c0,.345.345.69.69,1.035a8.317,8.317,0,0,1,2.416,6.212,8.544,8.544,0,0,1-8.628,8.628,9.922,9.922,0,0,1-6.212-2.416L83.1,192,40.653,136.784l24.158,4.832ZM171.1,98.131c0,31.06-11.734,51.767-22.432,51.767-6.557,0-13.459-7.592-17.946-20.707,11.044-1.035,19.671-14.15,19.671-31.06,0-12.079-4.486-22.432-11.044-27.609h21.4v13.8a3.018,3.018,0,0,0,2.071,3.106,2.075,2.075,0,0,0,1.38.345,3.133,3.133,0,0,0,2.416-1.035l3.451-3.451A100.178,100.178,0,0,1,171.1,98.131Zm31.06-37.962a3.458,3.458,0,0,1-3.451,3.451H181.458a3.133,3.133,0,0,0-2.416,1.035L167.654,76.044V67.071A3.261,3.261,0,0,0,164.2,63.62H136.594a3.261,3.261,0,0,1-3.451-3.451V36.7a9.889,9.889,0,0,0,3.451-7.592v-6.9h62.12c2.761,0,3.451,1.726,3.451,3.451Z" transform="translate(0 0)" fill="#f24b57"/>
    </g>
  </g>
</svg>
