<svg xmlns="http://www.w3.org/2000/svg" width="172" height="61" viewBox="0 0 172 61">
  <g id="Group_28327" data-name="Group 28327" transform="translate(-1508 -969)">
    <rect id="Rectangle_8961" data-name="Rectangle 8961" width="172" height="61" transform="translate(1508 969)" fill="rgba(255,255,255,0)"/>
    <g id="figma-vector-logo" transform="translate(1508 969)" opacity="0.4" style="mix-blend-mode: luminosity;isolation: isolate">
      <path id="Path_23837" data-name="Path 23837" d="M104.6,211.4v30.657l3.945.03V227.481h9.516v-3.855h-9.516v-8.372h12.377V211.4Zm23.429,6.234a2.59,2.59,0,1,0-2.59-2.59,2.59,2.59,0,0,0,2.59,2.59Zm-2.018,3.855v20.6h3.945v-20.6Zm18.581-.6c-5.24,0-8.884,4.427-8.884,9.7s3.644,9.7,8.884,9.7a7.729,7.729,0,0,0,5.812-2.439v2.74a6.189,6.189,0,0,1-6.113,6.264h-.06a6.233,6.233,0,0,1-3.493-1.174L138.75,249.1a10.083,10.083,0,0,0,13.973-3.011,10.245,10.245,0,0,0,1.626-5.511V221.518H150.4v1.837a7.752,7.752,0,0,0-5.812-2.469Zm-4.939,9.7a5.392,5.392,0,1,1,5.39,5.812A5.651,5.651,0,0,1,139.653,230.583Zm28.91-5.842a4.267,4.267,0,0,0-4.216,4.306v13.009H160.4v-20.6h3.945v1.9a6.208,6.208,0,0,1,5.089-2.469,6.8,6.8,0,0,1,6.113,3.463,7.569,7.569,0,0,1,6.264-3.463c4.487,0,7.288,3.614,7.288,8.1v13.07h-3.915V229.047a4.217,4.217,0,1,0-8.432,0v13.009h-3.975V229.047a4.287,4.287,0,0,0-4.216-4.306Zm41.558-.934a9.463,9.463,0,0,0-6.956-2.921c-5.872,0-10.028,4.969-10.028,10.871,0,5.933,4.156,10.871,10.028,10.871a9.751,9.751,0,0,0,6.956-2.921v2.349h3.945v-20.6h-3.945v2.349Zm-13.039,7.95a6.537,6.537,0,1,1,6.5,7.017C200.123,238.8,197.081,235.7,197.081,231.757Z" transform="translate(-42.417 -199.957)"/>
      <path id="b" d="M-64.6,250.949A10.153,10.153,0,0,1-54.451,240.8,10.153,10.153,0,0,1-44.3,250.949,10.153,10.153,0,0,1-54.451,261.1,10.153,10.153,0,0,1-64.6,250.949Z" transform="translate(84.867 -220.503)" fill="#1abcfe"/>
      <path id="c" d="M-131.9,318.249A10.153,10.153,0,0,1-121.751,308.1H-111.6v10.149A10.153,10.153,0,0,1-121.751,328.4,10.153,10.153,0,0,1-131.9,318.249Z" transform="translate(131.9 -267.536)" fill="#0acf83"/>
      <path id="d" d="M-64.6,173.43V193.7h10.149A10.153,10.153,0,0,0-44.3,183.549,10.153,10.153,0,0,0-54.451,173.4H-64.6Z" transform="translate(84.867 -173.4)" fill="#ff7262"/>
      <path id="e" d="M-131.9,183.718a10.153,10.153,0,0,0,10.149,10.149H-111.6V173.6h-10.149A10.108,10.108,0,0,0-131.9,183.718Z" transform="translate(131.9 -173.54)" fill="#f24e1e"/>
      <path id="e_1_" d="M-131.9,251.018a10.153,10.153,0,0,0,10.149,10.149H-111.6V240.9h-10.149A10.108,10.108,0,0,0-131.9,251.018Z" transform="translate(131.9 -220.573)" fill="#a259ff"/>
    </g>
  </g>
</svg>
