<svg xmlns="http://www.w3.org/2000/svg" width="135.947" height="133.663" viewBox="0 0 135.947 133.663">
  <g id="Group_28389" data-name="Group 28389" transform="translate(-1050.658 -2532.668)">
    <path id="Path_31551" data-name="Path 31551" d="M32.09,11.889C41.541,6.329,99.048-18.9,96.508,27.178s22.528,45.9-1.144,67.268S19.922,83.653,4.1,63.013,22.639,17.45,32.09,11.889Z" transform="translate(1088.676 2532.668) rotate(22)" fill="#f24b57" opacity="0.2"/>
    <path id="_24_Hours" data-name="24 Hours" d="M41.571,72.5a3.214,3.214,0,0,1-3.214,3.214A35.357,35.357,0,1,1,73.714,40.357a3.214,3.214,0,0,1-6.429,0A28.928,28.928,0,1,0,38.357,69.285,3.214,3.214,0,0,1,41.571,72.5ZM35.143,21.071V37.143H25.5a3.214,3.214,0,1,0,0,6.429H38.357a3.214,3.214,0,0,0,3.214-3.214V21.071a3.214,3.214,0,1,0-6.429,0ZM60.857,46.785H48a3.214,3.214,0,1,0,0,6.429h9.643v3.214H48a3.214,3.214,0,0,0-3.214,3.214v9.643A3.214,3.214,0,0,0,48,72.5H60.857a3.214,3.214,0,1,0,0-6.429H51.214V62.857h9.643a3.214,3.214,0,0,0,3.214-3.214V50A3.214,3.214,0,0,0,60.857,46.785Zm22.5,0A3.214,3.214,0,0,0,80.142,50v6.429H73.714V50a3.214,3.214,0,0,0-6.429,0v9.643A3.214,3.214,0,0,0,70.5,62.857h9.643v6.429a3.214,3.214,0,0,0,6.429,0V50A3.214,3.214,0,0,0,83.357,46.785Z" transform="translate(1091 2565)"/>
  </g>
</svg>
