<svg xmlns="http://www.w3.org/2000/svg" width="290" height="290" viewBox="0 0 290 290">
  <g id="Graphic_design" data-name="Graphic design" transform="translate(-8678 7482)">
    <rect id="Rectangle_8988" data-name="Rectangle 8988" width="290" height="290" transform="translate(8678 -7482)" fill="rgba(255,255,255,0)"/>
    <path id="Layer_5" data-name="Layer 5" d="M208.614,180.229h-5.656V67.11a5.656,5.656,0,0,0-5.656-5.656H150.414L117.271,7.61a3.9,3.9,0,0,0-.622-.735,5.656,5.656,0,0,0-8.371,0,3.9,3.9,0,0,0-.622.735L74.512,61.454H27.624a5.656,5.656,0,0,0-5.656,5.656V180.229H16.312A11.312,11.312,0,0,0,5,191.541V197.2a22.624,22.624,0,0,0,22.624,22.624H197.3A22.624,22.624,0,0,0,219.926,197.2v-5.656A11.312,11.312,0,0,0,208.614,180.229Zm-130.087-50.9H146.4v11.312H78.527Zm9.389-11.312L73.55,84.53l33.257-54.014V73.784a16.968,16.968,0,1,0,11.312,0V30.516L151.376,84.53,137.01,118.014Zm24.547-33.936a5.656,5.656,0,1,1-5.656,5.656A5.656,5.656,0,0,1,112.463,84.078ZM33.28,72.766H67.555l-5.147,8.371a5.656,5.656,0,0,0-.4,5.147l13.574,31.73H72.871a5.656,5.656,0,0,0-5.656,5.656v22.624a5.656,5.656,0,0,0,5.656,5.656h79.183a5.656,5.656,0,0,0,5.656-5.656V123.67a5.656,5.656,0,0,0-5.656-5.656H149.34l13.574-31.73a5.656,5.656,0,0,0-.4-5.147l-5.147-8.371h34.275v90.5H33.28Zm0,101.807H191.646v5.656H146.4a5.656,5.656,0,0,0-5.034,3.111l-4.129,8.2H87.69l-4.129-8.2a5.656,5.656,0,0,0-5.034-3.111H33.28ZM208.614,197.2A11.312,11.312,0,0,1,197.3,208.509H27.624A11.312,11.312,0,0,1,16.312,197.2v-5.656H75.021l4.129,8.2a5.656,5.656,0,0,0,5.034,3.111h56.559a5.656,5.656,0,0,0,5.034-3.111l4.129-8.2h58.709Z" transform="translate(8710.218 -7449.799)" fill="#f24b57"/>
  </g>
</svg>
