<svg xmlns="http://www.w3.org/2000/svg" xmlns:xlink="http://www.w3.org/1999/xlink" width="657" height="558" viewBox="0 0 657 558">
  <defs>
    <clipPath id="clip-path">
      <rect id="Rectangle_8891" data-name="Rectangle 8891" width="657" height="558" transform="translate(628 164)" fill="#fff" stroke="#707070" stroke-width="1"/>
    </clipPath>
    <radialGradient id="radial-gradient" cx="0.5" cy="0.5" r="0.419" gradientTransform="matrix(-1, 0, 0, 0.666, 1, 0.167)" gradientUnits="objectBoundingBox">
      <stop offset="0" stop-color="#fff"/>
      <stop offset="0.28" stop-color="#fff" stop-opacity="0.961"/>
      <stop offset="0.531" stop-color="#fff" stop-opacity="0.91"/>
      <stop offset="0.816" stop-color="#fff" stop-opacity="0.741"/>
      <stop offset="1" stop-color="#fff" stop-opacity="0.051"/>
    </radialGradient>
  </defs>
  <g id="Mask_Group_145" data-name="Mask Group 145" transform="translate(-628 -164)" clip-path="url(#clip-path)">
    <g id="Group_16386" data-name="Group 16386" transform="translate(579.896 119.013)">
      <g id="Group_16322" data-name="Group 16322" transform="translate(62.174 41.273)">
        <g id="Group_16278" data-name="Group 16278">
          <g id="Group_16273" data-name="Group 16273" transform="translate(229.027 379.682)" opacity="0.09">
            <g id="Group_16272" data-name="Group 16272" transform="translate(22.351)">
              <path id="Path_2963" data-name="Path 2963" d="M278.088,274.054a94.253,94.253,0,0,1-19.08,24.642,96.964,96.964,0,0,1-25.978,17.25,92.539,92.539,0,0,1-16.563,5.657.443.443,0,0,0,.227.856,95.061,95.061,0,0,0,28.887-12.294,97.689,97.689,0,0,0,23.454-20.891,93.563,93.563,0,0,0,9.812-14.767c.269-.5-.49-.957-.759-.454Z" transform="translate(-216.148 -273.835)" fill="#0090c6"/>
            </g>
            <path id="Path_2964" data-name="Path 2964" d="M251.284,284.506c2.668,8.294,4.986,19.015,4.54,28.621-.253,5.438-1.076,11.178-3.647,16.289-1.216,2.419-2.983,4.785-5.141,5.572-3.2,1.167-5.859-1.664-6.772-5.056-.988-3.673-.615-7.977-.038-12.163,1.533-11.131,6.868-22.476,11.058-33.263" transform="translate(-178.928 -267.085)" fill="#0090c6"/>
            <path id="Path_2965" data-name="Path 2965" d="M239.567,296.1c.772,6.759.9,15.324-.913,22.612a31.385,31.385,0,0,1-5.288,11.915c-1.3,1.665-3.019,3.206-4.792,3.477-2.633.4-4.232-2.171-4.41-4.909-.194-2.965.751-6.2,1.835-9.321,2.882-8.289,8.707-16.158,13.567-23.774" transform="translate(-188.741 -259.752)" fill="#0090c6"/>
            <path id="Path_2966" data-name="Path 2966" d="M249.85,297.537c-5.868,6.439-14.016,13.783-22.572,18.172-4.842,2.485-10.232,4.627-15.946,4.939-2.7.147-5.634-.209-7.389-1.69-2.607-2.2-1.473-5.91,1.017-8.39,2.7-2.684,6.615-4.5,10.534-6.081,10.419-4.207,22.915-5.22,34.357-6.95" transform="translate(-202.457 -258.841)" fill="#0090c6"/>
            <path id="Path_2967" data-name="Path 2967" d="M260.533,292.174c-6.937,2.188-16.021,4.134-24.416,3.907a40.853,40.853,0,0,1-14.527-2.638c-2.225-.919-4.46-2.269-5.361-3.943-1.339-2.488.852-4.6,3.708-5.352,3.092-.818,6.872-.581,10.568-.185,9.83,1.056,20.23,5.077,30.029,8.21" transform="translate(-194 -267.658)" fill="#0090c6"/>
            <path id="Path_2968" data-name="Path 2968" d="M260.815,283.661a50.253,50.253,0,0,1-15.662,2.506,26.192,26.192,0,0,1-9.319-1.691,6.948,6.948,0,0,1-3.44-2.531c-.859-1.6.547-2.947,2.379-3.432a19.659,19.659,0,0,1,6.779-.119c6.307.677,12.978,3.257,19.263,5.267" transform="translate(-183.682 -271.098)" fill="#0090c6"/>
          </g>
          <g id="Group_16275" data-name="Group 16275" transform="translate(378.44)" opacity="0.09">
            <g id="Group_16274" data-name="Group 16274" transform="translate(0 24.841)">
              <path id="Path_2969" data-name="Path 2969" d="M294.8,108.119a94.274,94.274,0,0,1,17.738-25.625,96.966,96.966,0,0,1,25.023-18.612,92.439,92.439,0,0,1,16.236-6.53.443.443,0,0,0-.271-.842,95.037,95.037,0,0,0-28.19,13.815,97.693,97.693,0,0,0-22.308,22.112,93.609,93.609,0,0,0-9.01,15.27c-.242.514.54.929.782.413Z" transform="translate(-293.975 -56.488)" fill="#0090c6"/>
            </g>
            <path id="Path_2970" data-name="Path 2970" d="M303.569,96.957c-3.107-8.139-5.993-18.721-6.06-28.339-.038-5.443.478-11.219,2.772-16.46,1.086-2.48,2.725-4.937,4.837-5.837,3.138-1.337,5.939,1.347,7.032,4.686,1.182,3.616,1.04,7.934.687,12.143-.939,11.2-5.66,22.812-9.268,33.806" transform="translate(-291.741 -38.301)" fill="#0090c6"/>
            <path id="Path_2971" data-name="Path 2971" d="M314.209,79.886c-1.13-6.71-1.717-15.255-.294-22.63a31.392,31.392,0,0,1,4.646-12.179c1.211-1.732,2.842-3.363,4.6-3.729,2.607-.542,4.341,1.944,4.666,4.668.351,2.95-.42,6.235-1.335,9.4-2.436,8.432-7.833,16.6-12.282,24.466" transform="translate(-281.891 -41.273)" fill="#0090c6"/>
            <path id="Path_2972" data-name="Path 2972" d="M315.794,73.156c5.517-6.743,13.262-14.509,21.572-19.351,4.7-2.74,9.97-5.166,15.658-5.781,2.692-.291,5.639-.093,7.469,1.293,2.722,2.059,1.786,5.824-.568,8.432-2.548,2.823-6.366,4.847-10.192,6.635-10.183,4.756-22.607,6.434-33.939,8.772" transform="translate(-280.172 -37.076)" fill="#0090c6"/>
            <path id="Path_2973" data-name="Path 2973" d="M304.55,74.7c6.811-2.553,15.777-4.981,24.172-5.2a40.836,40.836,0,0,1,14.646,1.86c2.271.8,4.576,2.028,5.566,3.652,1.469,2.411-.606,4.633-3.419,5.539-3.043.983-6.831.949-10.542.749C325.1,80.764,314.5,77.3,304.55,74.7" transform="translate(-287.285 -23.437)" fill="#0090c6"/>
            <path id="Path_2974" data-name="Path 2974" d="M298.457,81.629a50.274,50.274,0,0,1,15.506-3.339,26.156,26.156,0,0,1,9.4,1.193,6.937,6.937,0,0,1,3.571,2.341c.942,1.548-.389,2.973-2.193,3.554a19.573,19.573,0,0,1-6.764.48c-6.333-.34-13.133-2.56-19.516-4.23" transform="translate(-291.14 -17.866)" fill="#0090c6"/>
          </g>
          <g id="Group_16277" data-name="Group 16277" transform="translate(0 73.139)">
            <g id="Group_16276" data-name="Group 16276" transform="translate(32.412 28.027)">
              <path id="Path_2975" data-name="Path 2975" d="M192.426,123.39A134.763,134.763,0,0,1,148,126.669a138.626,138.626,0,0,1-43.163-11.12,132.328,132.328,0,0,1-21.844-12.2c-.669-.462-1.363.6-.692,1.06a135.856,135.856,0,0,0,40.676,18.948,139.653,139.653,0,0,0,44.621,4.958,134.069,134.069,0,0,0,25.074-3.688c.789-.194.547-1.437-.245-1.241Z" transform="translate(-82.027 -103.239)" fill="#ffb623"/>
            </g>
            <path id="Path_2976" data-name="Path 2976" d="M155.062,117.885c-6.264,10.762-15.443,23.474-26.078,32.184-6.019,4.929-12.907,9.541-20.8,11.694-3.734,1.019-7.938,1.4-10.834-.139-4.305-2.291-3.835-7.817-1.1-12.029,2.96-4.562,7.89-8.279,12.889-11.667,13.3-9.01,30.453-14.184,45.92-20.043" transform="translate(-41.94 -65.947)" fill="#ffb623"/>
            <path id="Path_2977" data-name="Path 2977" d="M126.924,114.949c-6.447,7.281-15.425,15.608-24.9,20.646-5.365,2.851-11.347,5.327-17.717,5.766-3.015.207-6.294-.142-8.276-1.768-2.945-2.413-1.737-6.573,1-9.379,2.966-3.038,7.312-5.131,11.658-6.958,11.564-4.86,25.495-6.192,38.237-8.307" transform="translate(-54.491 -67.804)" fill="#ffb623"/>
            <path id="Path_2978" data-name="Path 2978" d="M128.824,127.756c-12.45-.08-28.043-1.721-40.889-6.617-7.27-2.771-14.7-6.452-20.489-12.225-2.741-2.731-5.164-6.188-5.268-9.469-.153-4.872,4.875-7.213,9.889-6.937,5.428.3,11.107,2.726,16.532,5.379,14.431,7.054,27.452,19.364,40.226,29.869" transform="translate(-62.174 -82.014)" fill="#ffb623"/>
            <path id="Path_2979" data-name="Path 2979" d="M138.907,138.6c-8.956-5.283-19.707-13.077-27.491-22.215-4.4-5.17-8.648-11.105-11.079-17.959-1.151-3.244-1.855-6.909-.937-9.467,1.363-3.8,5.7-3.487,9.231-1.174,3.827,2.5,7.187,6.748,10.3,11.054C127.2,110.3,132.871,125.2,138.907,138.6" transform="translate(-38.891 -86.072)" fill="#ffb623"/>
            <path id="Path_2980" data-name="Path 2980" d="M147.347,131.207c-5.745-3.389-12.643-8.388-17.635-14.249a37.442,37.442,0,0,1-7.108-11.521c-.738-2.082-1.189-4.433-.6-6.073.873-2.437,3.654-2.237,5.921-.753,2.454,1.606,4.609,4.328,6.606,7.09,5.308,7.35,8.943,16.9,12.816,25.506" transform="translate(-24.496 -78.837)" fill="#ffb623"/>
          </g>
        </g>
        <g id="Group_16279" data-name="Group 16279" transform="translate(90.51 36.411)">
          <path id="Path_2981" data-name="Path 2981" d="M246.854,63.575,117.613,263.344,376.1,261.215Z" transform="translate(-117.613 -63.575)" fill="#0090c6" opacity="0.09"/>
          <path id="Path_31287" data-name="Path 31287" d="M86.271,0A86.271,86.271,0,1,1,0,86.271,86.271,86.271,0,0,1,86.271,0Z" transform="translate(53.887 189.934)" fill="#ffb623" opacity="0.45"/>
          <rect id="Rectangle_560" data-name="Rectangle 560" width="239.074" height="222.597" transform="translate(221.194 82.674)" fill="#ffb623" opacity="0.45"/>
        </g>
        <rect id="Rectangle_561" data-name="Rectangle 561" width="200.25" height="186.448" transform="translate(406.628 71.596)" fill="none" stroke="#0090c6" stroke-miterlimit="10" stroke-width="1"/>
        <g id="Group_16280" data-name="Group 16280" transform="translate(95.738 344.059)">
          <rect id="Rectangle_562" data-name="Rectangle 562" width="37.02" height="37.02" fill="#1b1a1b"/>
          <rect id="Rectangle_563" data-name="Rectangle 563" width="37.02" height="37.02" transform="translate(37.02)" fill="#ffb623"/>
          <rect id="Rectangle_564" data-name="Rectangle 564" width="37.02" height="37.02" transform="translate(74.04)" fill="#f24b57"/>
          <rect id="Rectangle_565" data-name="Rectangle 565" width="37.02" height="37.02" transform="translate(111.06)" fill="#0090c6"/>
        </g>
        <g id="Group_16282" data-name="Group 16282" transform="translate(413.444 312.615)">
          <path id="Path_2982" data-name="Path 2982" d="M384.811,270.619a32.092,32.092,0,1,1-32.092-32.091A32.093,32.093,0,0,1,384.811,270.619Z" transform="translate(-312.118 -229.104)" fill="none" stroke="#febb09" stroke-miterlimit="10" stroke-width="1"/>
          <g id="Group_16281" data-name="Group 16281">
            <line id="Line_9" data-name="Line 9" y2="83.032" transform="translate(41.516)" fill="none" stroke="#010305" stroke-miterlimit="10" stroke-width="3"/>
            <line id="Line_10" data-name="Line 10" x1="83.032" transform="translate(0 41.516)" fill="none" stroke="#010305" stroke-miterlimit="10" stroke-width="3"/>
          </g>
        </g>
        <g id="Group_16289" data-name="Group 16289" transform="translate(42.884 240.644)">
          <g id="Group_16283" data-name="Group 16283" transform="translate(5.844 6.446)">
            <path id="Path_2983" data-name="Path 2983" d="M113.633,235.846a21.613,21.613,0,1,1,21.612-21.614A21.637,21.637,0,0,1,113.633,235.846Zm0-42.154a20.541,20.541,0,1,0,20.541,20.54A20.565,20.565,0,0,0,113.633,193.693Z" transform="translate(-92.021 -192.62)" fill="#ff0b00"/>
          </g>
          <g id="Group_16288" data-name="Group 16288">
            <g id="Group_16285" data-name="Group 16285" transform="translate(27.231)">
              <g id="Group_16284" data-name="Group 16284">
                <path id="Path_2984" data-name="Path 2984" d="M105.128,189.464v52.312c0,.709-.016,1.42,0,2.129V244a.821.821,0,0,0,1.641,0v-52.31c0-.71.016-1.42,0-2.131v-.091a.821.821,0,0,0-1.641,0Z" transform="translate(-105.121 -188.672)" fill="#010305"/>
              </g>
            </g>
            <g id="Group_16287" data-name="Group 16287" transform="translate(0 27.232)">
              <g id="Group_16286" data-name="Group 16286">
                <path id="Path_2985" data-name="Path 2985" d="M143.767,205.359H91.455c-.709,0-1.42-.016-2.131,0h-.09a.821.821,0,0,0,0,1.641h52.31c.709,0,1.42.015,2.131,0,.029,0,.06,0,.091,0a.821.821,0,0,0,0-1.641Z" transform="translate(-88.441 -205.352)" fill="#010305"/>
              </g>
            </g>
          </g>
        </g>
        <path id="Path_2986" data-name="Path 2986" d="M407.989,79.571h51.257a7.134,7.134,0,0,1,7.022,5.872l3.778,21.013a24.7,24.7,0,0,0,24.311,20.331h0l-2.219-49.355a17.07,17.07,0,0,0-17.053-16.3H307.232a18.028,18.028,0,0,0-18.008,17.217l-2.178,48.441h0a24.7,24.7,0,0,0,24.316-20.334l3.964-22.05a5.871,5.871,0,0,1,5.779-4.831h52.3c.653,31.942.694,64.049.694,95.907v18.447c0,32.25-.039,64.2-.679,95.519l-23.382,2.5a16.422,16.422,0,0,0-14.672,16.328H446.036a16.422,16.422,0,0,0-14.672-16.328l-23.377-2.5c-.645-31.816-.684-63.792-.684-95.52V175.478C407.3,143.1,407.341,111.01,407.989,79.571Z" transform="translate(80.082 -28.713)" fill="#f24b57"/>
        <g id="Group_16290" data-name="Group 16290" transform="translate(96.907 66.454)">
          <path id="Path_2987" data-name="Path 2987" d="M228.852,253.683H144.316a1.125,1.125,0,0,1-1.113-1.3l4.9-31.784a1.124,1.124,0,0,1,1.112-.955h71.769a1.127,1.127,0,0,1,1.1.9l6.769,33.134Z" transform="translate(-107.83 5.114)" fill="none" stroke="#4b0263" stroke-miterlimit="10" stroke-width="2"/>
          <path id="Path_2988" data-name="Path 2988" d="M274.787,194.873l-67.5-111.615A2.016,2.016,0,0,0,203.55,84.3V183.85a9.985,9.985,0,1,1-5.255-.062V84a2.017,2.017,0,0,0-3.713-1.092L121.853,195.761a2.012,2.012,0,0,0-.17,1.858l39.764,96.952a2.016,2.016,0,0,0,1.866,1.251h70.862a2.018,2.018,0,0,0,1.874-1.272l38.887-97.888A2.018,2.018,0,0,0,274.787,194.873Z" transform="translate(-121.531 -81.978)" fill="none" stroke="#4b0263" stroke-miterlimit="10" stroke-width="2"/>
        </g>
        <g id="Group_16291" data-name="Group 16291" transform="translate(58.273 12.667)">
          <path id="Path_2989" data-name="Path 2989" d="M103.533,95.4s96.952-96.952,218.146,0" transform="translate(-94.283 -46.955)" fill="none" stroke="#4b0263" stroke-miterlimit="10" stroke-width="2"/>
          <path id="Path_2990" data-name="Path 2990" d="M110.538,82.682a6.335,6.335,0,1,1-6.336-6.335A6.336,6.336,0,0,1,110.538,82.682Z" transform="translate(-97.867 -31.752)" fill="#4b0263"/>
          <circle id="Ellipse_310" data-name="Ellipse 310" cx="6.335" cy="6.335" r="6.335" transform="translate(221.06 44.595)" fill="#4b0263"/>
          <rect id="Rectangle_566" data-name="Rectangle 566" width="10.719" height="10.719" transform="translate(112.963)" fill="#4b0263"/>
        </g>
        <g id="Group_16296" data-name="Group 16296" transform="translate(96.618 423.602)">
          <g id="Group_16292" data-name="Group 16292" transform="translate(3.324 4.717)">
            <path id="Path_2991" data-name="Path 2991" d="M124.667,303.626c38.783,31.026,73.425,29.415,95.651,22.594A104.575,104.575,0,0,0,259.786,303.7l1.443,1.445a106.708,106.708,0,0,1-40.227,23c-22.719,6.991-58.1,8.687-97.612-22.925Z" transform="translate(-123.39 -303.626)" fill="#0090c6"/>
          </g>
          <g id="Group_16293" data-name="Group 16293" transform="translate(138.301)">
            <path id="Path_2992" data-name="Path 2992" d="M206.066,304.7a3.964,3.964,0,1,1,3.964,3.962A3.964,3.964,0,0,1,206.066,304.7Z" transform="translate(-206.066 -300.737)" fill="#0090c6"/>
          </g>
          <g id="Group_16294" data-name="Group 16294">
            <path id="Path_2993" data-name="Path 2993" d="M121.354,304.7a3.963,3.963,0,1,1,3.962,3.962A3.964,3.964,0,0,1,121.354,304.7Z" transform="translate(-121.354 -300.737)" fill="#0090c6"/>
          </g>
          <g id="Group_16295" data-name="Group 16295" transform="translate(68.849 29.12)">
            <rect id="Rectangle_567" data-name="Rectangle 567" width="6.706" height="6.706" transform="translate(6.706 6.706) rotate(180)" fill="#0090c6"/>
          </g>
        </g>
        <g id="Group_16301" data-name="Group 16301" transform="translate(531.947 150.665)">
          <g id="Group_16297" data-name="Group 16297" transform="translate(3.401 1.609)">
            <path id="Path_2994" data-name="Path 2994" d="M481.792,153.825c-26.043-20.835-49.306-19.751-64.233-15.172a70.225,70.225,0,0,0-26.505,15.123l-.97-.971A71.676,71.676,0,0,1,417.1,137.361c15.258-4.7,39.016-5.833,65.552,15.394Z" transform="translate(-390.084 -134.543)" fill="#0090c6"/>
          </g>
          <g id="Group_16298" data-name="Group 16298" transform="translate(0 18.736)">
            <circle id="Ellipse_311" data-name="Ellipse 311" cx="2.662" cy="2.662" r="2.662" fill="#02a2cb"/>
          </g>
          <g id="Group_16299" data-name="Group 16299" transform="translate(92.877 18.736)">
            <circle id="Ellipse_312" data-name="Ellipse 312" cx="2.662" cy="2.662" r="2.662" fill="#02a2cb"/>
          </g>
          <g id="Group_16300" data-name="Group 16300" transform="translate(47.461)">
            <rect id="Rectangle_568" data-name="Rectangle 568" width="4.504" height="4.504" fill="#0090c6"/>
          </g>
        </g>
        <g id="Group_16309" data-name="Group 16309" transform="translate(269.338 71.418)">
          <g id="Group_16303" data-name="Group 16303" transform="translate(0 34.948)">
            <g id="Group_16302" data-name="Group 16302">
              <path id="Path_2995" data-name="Path 2995" d="M260.31,150.159l-22.231,4.547a.3.3,0,0,1-.362-.281l-.423-8.622a.3.3,0,0,1,.242-.312l18.873-3.859a.3.3,0,0,1,.34.176l3.562,8.351Z" transform="translate(-220.73 -84.156)" fill="#004964"/>
              <path id="Path_2996" data-name="Path 2996" d="M267.356,132.323,243.6,106.6a.542.542,0,0,0-.929.477l5.355,26.179a2.679,2.679,0,1,1-1.386.266l-5.368-26.243a.54.54,0,0,0-1.033-.088l-13.056,33.591a.54.54,0,0,0,.054.5l15.673,23.358a.541.541,0,0,0,.558.229l18.635-3.811a.544.544,0,0,0,.424-.436l4.962-27.834A.539.539,0,0,0,267.356,132.323Z" transform="translate(-227.148 -106.424)" fill="#004964"/>
            </g>
            <rect id="Rectangle_569" data-name="Rectangle 569" width="22.991" height="114.426" transform="translate(16.985 70.268) rotate(-11.56)" fill="#f24b57"/>
          </g>
          <g id="Group_16305" data-name="Group 16305" transform="translate(39.712)">
            <rect id="Rectangle_570" data-name="Rectangle 570" width="22.991" height="114.426" transform="matrix(1, -0.027, 0.027, 1, 10.512, 69.378)" fill="#ffb623"/>
            <g id="Group_16304" data-name="Group 16304">
              <path id="Path_2997" data-name="Path 2997" d="M280.9,130.868l-22.683.6a.3.3,0,0,1-.309-.34L259,122.568a.3.3,0,0,1,.291-.263l19.258-.514a.3.3,0,0,1,.3.233l2.054,8.844Z" transform="translate(-247.4 -61.755)" fill="none" stroke="#4b0263" stroke-miterlimit="10" stroke-width="1"/>
              <path id="Path_2998" data-name="Path 2998" d="M292.582,114.749l-18.91-29.467a.542.542,0,0,0-1,.307l.713,26.713a2.681,2.681,0,1,1-1.411.021l-.715-26.778a.541.541,0,0,0-1-.266l-18.706,30.8a.536.536,0,0,0-.033.5l11.363,25.73a.545.545,0,0,0,.509.323l19.015-.508a.544.544,0,0,0,.495-.354l9.734-26.544A.542.542,0,0,0,292.582,114.749Z" transform="translate(-251.472 -85.018)" fill="none" stroke="#4b0263" stroke-miterlimit="10" stroke-width="1"/>
            </g>
          </g>
          <g id="Group_16307" data-name="Group 16307" transform="translate(62.547 47.666)">
            <path id="Path_2999" data-name="Path 2999" d="M304.606,151.736l-22.367-5.544,2.3-9.373,22.182,5.764-2.113,9.154Z" transform="translate(-254.844 -99.915)" fill="#004964"/>
            <rect id="Rectangle_571" data-name="Rectangle 571" width="22.991" height="114.426" transform="matrix(0.971, 0.241, -0.241, 0.971, 27.531, 45.952)" fill="#f24b57"/>
            <g id="Group_16306" data-name="Group 16306" transform="translate(31.079)">
              <path id="Path_3000" data-name="Path 3000" d="M305.126,153.365l4.024-17.5-6.29-21.647-14.074,16.634L284.5,148.232Z" transform="translate(-284.495 -114.215)" fill="none" stroke="#4b0263" stroke-miterlimit="10" stroke-width="1"/>
              <line id="Line_11" data-name="Line 11" x2="11.666" y2="2.606" transform="translate(10.225 9.53)" fill="none" stroke="#4b0263" stroke-miterlimit="10" stroke-width="1"/>
            </g>
          </g>
          <g id="Group_16308" data-name="Group 16308" transform="translate(8.581 173.766)">
            <path id="Rectangle_572" data-name="Rectangle 572" d="M3.294,0h99.5a3.342,3.342,0,0,1,3.342,3.342V127.23A25.367,25.367,0,0,1,80.769,152.6H24.461A24.461,24.461,0,0,1,0,128.136V3.294A3.294,3.294,0,0,1,3.294,0Z" fill="#004964"/>
            <rect id="Rectangle_573" data-name="Rectangle 573" width="106.136" height="14.176" transform="translate(0 16.43)" fill="#fdf6e6" opacity="0.2"/>
            <rect id="Rectangle_574" data-name="Rectangle 574" width="106.136" height="14.176" transform="translate(0 40.026)" fill="#fdf6e6" opacity="0.2"/>
          </g>
        </g>
        <g id="Group_16310" data-name="Group 16310" transform="translate(297.408 230.383)">
          <line id="Line_12" data-name="Line 12" y2="226.51" transform="translate(284.52)" fill="none" stroke="#004964" stroke-miterlimit="10" stroke-width="2"/>
          <line id="Line_13" data-name="Line 13" x1="313.063" transform="translate(0 201.416)" fill="none" stroke="#004964" stroke-miterlimit="10" stroke-width="2"/>
        </g>
        <g id="Group_16314" data-name="Group 16314" transform="translate(394.03 236.179)">
          <path id="Path_3001" data-name="Path 3001" d="M391.51,308.232l-1.861-5.459A12.266,12.266,0,0,0,382,295.124l-5.458-1.861,5.559-2.028a12.361,12.361,0,0,0,7.381-7.381l2.028-5.559,1.422,4.464a13.976,13.976,0,0,0,9.082,9.084l4.465,1.42-4.591,1.809c-3.92,1.546-6.679,2.793-8.568,8.57Z" transform="translate(-257.332 -127.511)" fill="#004964"/>
          <path id="Path_3002" data-name="Path 3002" d="M447.419,225.688l-1.22-3.575a8.038,8.038,0,0,0-5.01-5.01l-3.575-1.218,3.642-1.329a8.1,8.1,0,0,0,4.834-4.836l1.329-3.641L448.35,209a9.16,9.16,0,0,0,5.949,5.951l2.926.931-3.007,1.184c-2.568,1.012-4.375,1.83-5.613,5.615Z" transform="translate(-218.698 -173.195)" fill="#ffb623"/>
          <g id="Group_16311" data-name="Group 16311" transform="translate(84.812 170.821)">
            <path id="Path_3003" data-name="Path 3003" d="M363.086,305.792a7.612,7.612,0,1,1,7.613-7.611A7.62,7.62,0,0,1,363.086,305.792Zm0-12.94a5.328,5.328,0,1,0,5.327,5.329A5.334,5.334,0,0,0,363.086,292.852Z" transform="translate(-355.473 -290.568)" fill="#ffb623"/>
          </g>
          <g id="Group_16312" data-name="Group 16312" transform="translate(235.108)">
            <path id="Path_3004" data-name="Path 3004" d="M450.893,192.658a3.361,3.361,0,1,1,3.36-3.36A3.365,3.365,0,0,1,450.893,192.658Zm0-5.713a2.352,2.352,0,1,0,2.351,2.353A2.354,2.354,0,0,0,450.893,186.946Z" transform="translate(-447.532 -185.937)" fill="#ffb623"/>
          </g>
          <g id="Group_16313" data-name="Group 16313" transform="translate(0 160.591)">
            <path id="Path_3005" data-name="Path 3005" d="M306.884,291.025a3.362,3.362,0,1,1,3.362-3.362A3.365,3.365,0,0,1,306.884,291.025Zm0-5.714a2.353,2.353,0,1,0,2.353,2.353A2.355,2.355,0,0,0,306.884,285.311Z" transform="translate(-303.524 -284.302)" fill="#fcb610"/>
          </g>
        </g>
        <g id="Group_16321" data-name="Group 16321" transform="translate(19.862 8.418)">
          <path id="Path_3006" data-name="Path 3006" d="M257.664,76.366,255.8,70.907a12.27,12.27,0,0,0-7.649-7.649L242.7,61.4l5.559-2.028a12.365,12.365,0,0,0,7.381-7.381l2.028-5.559,1.42,4.464a13.981,13.981,0,0,0,9.084,9.084l4.465,1.42-4.591,1.809c-3.92,1.546-6.679,2.793-8.57,8.57Z" transform="translate(32.163 -46.429)" fill="#ffb623"/>
          <path id="Path_3007" data-name="Path 3007" d="M89.309,174.945l-1.861-5.458a12.263,12.263,0,0,0-7.649-7.649l-5.459-1.863,5.561-2.028a12.365,12.365,0,0,0,7.381-7.381l2.028-5.559,1.42,4.465a13.979,13.979,0,0,0,9.084,9.082l4.464,1.42-4.589,1.811c-3.922,1.544-6.679,2.792-8.57,8.568Z" transform="translate(-74.34 15.933)" fill="#ff0b00"/>
          <path id="Path_3008" data-name="Path 3008" d="M149.5,307.327l-1.3-3.822a8.587,8.587,0,0,0-5.357-5.357l-3.824-1.3,3.9-1.42a8.664,8.664,0,0,0,5.169-5.169l1.42-3.894.994,3.126a9.794,9.794,0,0,0,6.362,6.362l3.126.994-3.215,1.267c-2.746,1.082-4.677,1.956-6,6Z" transform="translate(-33.425 105.353)" fill="#005264"/>
          <g id="Group_16315" data-name="Group 16315" transform="translate(316.716 33.619)">
            <path id="Path_3009" data-name="Path 3009" d="M275.947,82.247a7.613,7.613,0,1,1,7.613-7.613A7.622,7.622,0,0,1,275.947,82.247Zm0-12.94a5.327,5.327,0,1,0,5.327,5.327A5.333,5.333,0,0,0,275.947,69.307Z" transform="translate(-268.334 -67.021)" fill="#ffb623"/>
          </g>
          <g id="Group_16316" data-name="Group 16316" transform="translate(37.132 328.03)">
            <path id="Path_3010" data-name="Path 3010" d="M104.7,262.577a7.612,7.612,0,1,1,7.613-7.611A7.62,7.62,0,0,1,104.7,262.577Zm0-12.94a5.328,5.328,0,1,0,5.327,5.329A5.334,5.334,0,0,0,104.7,249.637Z" transform="translate(-97.084 -247.353)" fill="#ffb623"/>
          </g>
          <g id="Group_16317" data-name="Group 16317" transform="translate(142.244 392.178)">
            <path id="Path_3011" data-name="Path 3011" d="M164.827,293.368a3.362,3.362,0,1,1,3.362-3.362A3.365,3.365,0,0,1,164.827,293.368Zm0-5.714a2.353,2.353,0,1,0,2.353,2.353A2.355,2.355,0,0,0,164.827,287.654Z" transform="translate(-161.467 -286.645)" fill="#fcb610"/>
          </g>
          <g id="Group_16318" data-name="Group 16318" transform="translate(106.557 55.179)">
            <path id="Path_3012" data-name="Path 3012" d="M142.97,86.948a3.361,3.361,0,1,1,3.36-3.36A3.365,3.365,0,0,1,142.97,86.948Zm0-5.712a2.352,2.352,0,1,0,2.351,2.353A2.355,2.355,0,0,0,142.97,81.236Z" transform="translate(-139.608 -80.227)" fill="#ffb623"/>
          </g>
          <g id="Group_16319" data-name="Group 16319" transform="translate(325.77 0.888)">
            <path id="Path_3013" data-name="Path 3013" d="M277.24,53.694a3.361,3.361,0,1,1,3.362-3.36A3.363,3.363,0,0,1,277.24,53.694Zm0-5.712a2.352,2.352,0,1,0,2.353,2.353A2.354,2.354,0,0,0,277.24,47.982Z" transform="translate(-273.88 -46.973)" fill="#ffb623"/>
          </g>
          <g id="Group_16320" data-name="Group 16320" transform="translate(32.998 201.113)">
            <path id="Path_3014" data-name="Path 3014" d="M102.165,184.838a7.612,7.612,0,1,1,7.613-7.611A7.62,7.62,0,0,1,102.165,184.838Zm0-12.94a5.328,5.328,0,1,0,5.327,5.329A5.334,5.334,0,0,0,102.165,171.9Z" transform="translate(-94.552 -169.614)" fill="#ffb623"/>
          </g>
        </g>
      </g>
    </g>
    <ellipse id="Ellipse_851" data-name="Ellipse 851" cx="758" cy="324" rx="758" ry="324" transform="translate(202 296)" fill="url(#radial-gradient)"/>
  </g>
</svg>
