<svg xmlns="http://www.w3.org/2000/svg" width="94" height="94" viewBox="0 0 94 94">
  <g id="Group_26072" data-name="Group 26072" transform="translate(-890 -722)">
    <rect id="Rectangle_8510" data-name="Rectangle 8510" width="94" height="94" rx="8" transform="translate(890 722)" fill="#ffb623"/>
    <path id="Icon_awesome-home" data-name="Icon awesome-home" d="M20.593,10.789,7.051,21.942V33.98a1.175,1.175,0,0,0,1.175,1.175l8.231-.021a1.175,1.175,0,0,0,1.169-1.175v-7.03A1.175,1.175,0,0,1,18.8,25.753h4.7a1.175,1.175,0,0,1,1.175,1.175v7.025a1.175,1.175,0,0,0,1.175,1.179l8.228.023a1.175,1.175,0,0,0,1.175-1.175V21.934L21.717,10.789A.9.9,0,0,0,20.593,10.789Zm21.39,7.581-6.14-5.061V3.135a.881.881,0,0,0-.881-.881H30.848a.881.881,0,0,0-.881.881V8.468l-6.576-5.41a3.526,3.526,0,0,0-4.48,0L.319,18.37A.881.881,0,0,0,.2,19.611l1.873,2.277a.881.881,0,0,0,1.242.12L20.593,7.778a.9.9,0,0,1,1.124,0l17.277,14.23a.881.881,0,0,0,1.241-.118l1.873-2.277a.881.881,0,0,0-.125-1.243Z" transform="translate(916.001 750.747)" fill="#fff"/>
  </g>
</svg>
