<svg xmlns="http://www.w3.org/2000/svg" width="290" height="290" viewBox="0 0 290 290">
  <g id="Group_28385" data-name="Group 28385" transform="translate(-8478 1262)">
    <rect id="Rectangle_8988" data-name="Rectangle 8988" width="290" height="290" transform="translate(8478 -1262)" fill="rgba(255,255,255,0)"/>
    <g id="Icon_feather-server" data-name="Icon feather-server" transform="translate(8529 -1211)">
      <path id="Path_23393" data-name="Path 23393" d="M21.173,3H166.561a18.173,18.173,0,0,1,18.173,18.173V57.52a18.173,18.173,0,0,1-18.173,18.173H21.173A18.173,18.173,0,0,1,3,57.52V21.173A18.173,18.173,0,0,1,21.173,3Z" transform="translate(0 0)" fill="none" stroke="#f24b57" stroke-linecap="round" stroke-linejoin="round" stroke-width="10"/>
      <path id="Path_23394" data-name="Path 23394" d="M21.173,21H166.561a18.173,18.173,0,0,1,18.173,18.173V75.52a18.173,18.173,0,0,1-18.173,18.173H21.173A18.173,18.173,0,0,1,3,75.52V39.173A18.173,18.173,0,0,1,21.173,21Z" transform="translate(0 91.041)" fill="none" stroke="#f24b57" stroke-linecap="round" stroke-linejoin="round" stroke-width="10"/>
      <path id="Path_23395" data-name="Path 23395" d="M9,9H9" transform="translate(30.347 30.347)" fill="none" stroke="#f24b57" stroke-linecap="round" stroke-linejoin="round" stroke-width="15"/>
      <path id="Path_23396" data-name="Path 23396" d="M9,27H9" transform="translate(30.347 121.388)" fill="none" stroke="#f24b57" stroke-linecap="round" stroke-linejoin="round" stroke-width="15"/>
    </g>
  </g>
</svg>
