<svg xmlns="http://www.w3.org/2000/svg" width="290" height="290" viewBox="0 0 290 290">
  <g id="IT_Infra" data-name="IT Infra" transform="translate(-7801 1548)">
    <rect id="Rectangle_8988" data-name="Rectangle 8988" width="290" height="290" transform="translate(7801 -1548)" fill="rgba(255,255,255,0)"/>
    <path id="Path_31474" data-name="Path 31474" d="M106.107,122.124a8.008,8.008,0,1,0,8.008,8.008A8.008,8.008,0,0,0,106.107,122.124Zm-48.05,0H34.033a8.008,8.008,0,1,0,0,16.016H58.058a8.008,8.008,0,1,0,0-16.016Zm72.074,0a8.008,8.008,0,1,0,8.008,8.008A8.008,8.008,0,0,0,130.132,122.124Zm-24.025-48.05a8.008,8.008,0,1,0,8.008,8.008A8.008,8.008,0,0,0,106.107,74.074Zm-48.05,0H34.033a8.008,8.008,0,1,0,0,16.017H58.058a8.008,8.008,0,0,0,0-16.017Zm72.074-48.05a8.008,8.008,0,1,0,8.008,8.008A8.008,8.008,0,0,0,130.132,26.025Zm0,48.05a8.008,8.008,0,1,0,8.008,8.008A8.008,8.008,0,0,0,130.132,74.074Zm32.033-48.05A24.025,24.025,0,0,0,138.14,2H26.025A24.025,24.025,0,0,0,2,26.025V42.041A24.025,24.025,0,0,0,8.246,58.058,24.025,24.025,0,0,0,2,74.074V90.091a24.025,24.025,0,0,0,6.246,16.017A24.025,24.025,0,0,0,2,122.124V138.14a24.025,24.025,0,0,0,24.025,24.025H138.14a24.025,24.025,0,0,0,24.025-24.025V122.124a24.025,24.025,0,0,0-6.246-16.017,24.025,24.025,0,0,0,6.246-16.016V74.074a24.025,24.025,0,0,0-6.246-16.017,24.025,24.025,0,0,0,6.246-16.017ZM146.149,138.14a8.008,8.008,0,0,1-8.008,8.008H26.025a8.008,8.008,0,0,1-8.008-8.008V122.124a8.008,8.008,0,0,1,8.008-8.008H138.14a8.008,8.008,0,0,1,8.008,8.008Zm0-48.049A8.008,8.008,0,0,1,138.14,98.1H26.025a8.008,8.008,0,0,1-8.008-8.008V74.074a8.008,8.008,0,0,1,8.008-8.008H138.14a8.008,8.008,0,0,1,8.008,8.008Zm0-48.05a8.008,8.008,0,0,1-8.008,8.008H26.025a8.008,8.008,0,0,1-8.008-8.008V26.025a8.008,8.008,0,0,1,8.008-8.008H138.14a8.008,8.008,0,0,1,8.008,8.008ZM106.107,26.025a8.008,8.008,0,1,0,8.008,8.008A8.008,8.008,0,0,0,106.107,26.025Zm-48.05,0H34.033a8.008,8.008,0,1,0,0,16.017H58.058a8.008,8.008,0,0,0,0-16.017Z" transform="translate(7863.917 -1492.083)" fill="#f24b57"/>
  </g>
</svg>
