<svg xmlns="http://www.w3.org/2000/svg" width="290" height="290" viewBox="0 0 290 290">
  <g id="IT_Help_Desk" transform="translate(-9618 5504)">
    <rect id="Rectangle_8988" data-name="Rectangle 8988" width="290" height="290" transform="translate(9618 -5504)" fill="rgba(255,255,255,0)"/>
    <path id="Path_31517" data-name="Path 31517" d="M108.765,195.645a3.21,3.21,0,1,0,3.21,3.21,3.21,3.21,0,0,0-3.21-3.21Zm6.977-33.9a10.329,10.329,0,0,0-12.114.133,10.157,10.157,0,0,0-3.942,11.24,3.212,3.212,0,1,0,6.16-1.823,3.775,3.775,0,0,1,1.524-4.2,3.951,3.951,0,0,1,4.666-.107,3.6,3.6,0,0,1,1.01,4.559,12.112,12.112,0,0,1-2.714,2.513,18.082,18.082,0,0,0-3.921,3.724,13.356,13.356,0,0,0-1.13,12.965,3.215,3.215,0,0,0,2.919,1.866,3.172,3.172,0,0,0,1.34-.3,3.215,3.215,0,0,0,1.571-4.28,6.882,6.882,0,0,1,.509-6.523,13.038,13.038,0,0,1,2.615-2.376,17.462,17.462,0,0,0,4.139-4.032A9.926,9.926,0,0,0,115.742,161.744Zm100.2-46.7H152.854V106.2H173.16a9.644,9.644,0,0,0,9.631-9.631V56.895a9.644,9.644,0,0,0-9.631-9.631H113.29a9.639,9.639,0,0,0-9.631,9.631V74.046l-14.7-4.477a5.175,5.175,0,0,1-3.673-4.952V62.708a21.072,21.072,0,0,0,6.9-15.606V39.88l2.7-11.472A17.49,17.49,0,0,0,92.4,14.583,17.759,17.759,0,0,0,80.583,6.934c-2.166-.36-4.345-.762-6.481-1.194l-1.417-.278A41.7,41.7,0,0,0,64.056,4.31h-.33a17.426,17.426,0,0,0-13.7,6.622,17.622,17.622,0,0,0-3.373,15.076l3.279,13.928V47.1a21.064,21.064,0,0,0,6.673,15.409V64.69a5.179,5.179,0,0,1-3.664,4.952l-8.912,2.714-.086.026-8.158,2.491A19.883,19.883,0,0,0,21.616,93.98v21.06H3.21A3.21,3.21,0,0,0,0,118.25v19.262a3.21,3.21,0,0,0,3.21,3.21H16.052v77.69a3.21,3.21,0,0,0,6.421,0v-77.69H196.685v77.69a3.21,3.21,0,0,0,6.421,0v-77.69h12.841a3.21,3.21,0,0,0,3.21-3.21V118.25a3.21,3.21,0,0,0-3.21-3.21ZM110.079,56.895a3.21,3.21,0,0,1,3.21-3.21h59.87a3.215,3.215,0,0,1,3.21,3.21V96.566a3.215,3.215,0,0,1-3.21,3.21H152.854V86.147a3.21,3.21,0,0,0-3.21-3.21H136.8a3.21,3.21,0,0,0-3.21,3.21V99.776h-20.3a3.21,3.21,0,0,1-3.21-3.21Zm36.354,32.463V115.04h-6.421V89.358ZM133.592,106.2v8.843h-13.1V106.2ZM103.659,80.758V96.566a9.639,9.639,0,0,0,9.631,9.631h.783v8.843H99.948v-11.5a3.21,3.21,0,0,0-6.421,0v11.5H74.265V86.361l4.28,4.85a3.215,3.215,0,0,0,4.494.321L97.778,78.969ZM70.909,74.2,62.19,68.961a11.8,11.8,0,0,0,.663-2.384,21.107,21.107,0,0,0,16.2.081,11.463,11.463,0,0,0,.646,2.26Zm16.176,1.507,3.39,1.036-9.211,7.85-5.252-5.967,7.671-4.61a11.613,11.613,0,0,0,3.4,1.691ZM54.01,29.325l-1.121-4.781a11.219,11.219,0,0,1,2.162-9.627,11.035,11.035,0,0,1,8.672-4.2h.257a35.858,35.858,0,0,1,7.405,1.019l1.455.3c2.2.428,4.456.856,6.695,1.237a11.253,11.253,0,0,1,9.109,13.672L88.1,29.269a11.022,11.022,0,0,0-5.779-1.793,7.436,7.436,0,0,1-4.122-1.228c-5.817-4.315-10.628-1.8-14.168.856-.946.715-1.986.753-3.741.758A10.886,10.886,0,0,0,54.01,29.325ZM56.343,47.1V39.777c-.171-2.444.193-4.2,1.027-4.948.522-.471,1.284-.522,2.945-.526,2.063,0,4.888,0,7.589-2.055,1.755-1.327,2.936-1.9,3.968-1.9a4.2,4.2,0,0,1,2.508,1.053,13.511,13.511,0,0,0,7.32,2.461c1.712.167,2.358.278,2.941.856,1.126,1.117,1.241,3.386,1.143,5.094v7.29a14.712,14.712,0,1,1-29.424,0ZM54.8,75.78a11.651,11.651,0,0,0,3.424-1.712l7.585,4.55-5.291,5.993-9.1-7.79ZM28.037,93.98A13.5,13.5,0,0,1,37.668,81l6.476-1.978,14.613,12.5a3.21,3.21,0,0,0,4.49-.312L67.862,86V115.04H48.6v-11.5a3.21,3.21,0,0,0-6.421,0v11.5H28.054Zm184.7,40.322H6.421V121.461H212.737ZM109.579,149.925a31.033,31.033,0,1,0,31.033,31.033,31.033,31.033,0,0,0-31.033-31.033Zm0,55.645a24.612,24.612,0,1,1,24.612-24.612,24.612,24.612,0,0,1-24.612,24.612Z" transform="translate(9653.801 -5472.011)" fill="#f24b57"/>
  </g>
</svg>
