<svg xmlns="http://www.w3.org/2000/svg" xmlns:xlink="http://www.w3.org/1999/xlink" width="681.891" height="49.548" viewBox="0 0 681.891 49.548">
  <defs>
    <linearGradient id="linear-gradient" x1="0.5" x2="0.284" y2="1.06" gradientUnits="objectBoundingBox">
      <stop offset="0" stop-color="#edb74a"/>
      <stop offset="1" stop-color="#e16c43"/>
    </linearGradient>
    <linearGradient id="linear-gradient-2" x1="-0.24" y1="0.244" x2="0.775" y2="-0.09" gradientUnits="objectBoundingBox">
      <stop offset="0" stop-color="#5dd8e0"/>
      <stop offset="1" stop-color="#1f7deb"/>
    </linearGradient>
    <linearGradient id="linear-gradient-3" x1="0.102" y1="1" x2="0.705" y2="-0.099" gradientUnits="objectBoundingBox">
      <stop offset="0" stop-color="#5edae0"/>
      <stop offset="1" stop-color="#217eea"/>
    </linearGradient>
    <filter id="Path_2249" x="2.021" y="10.389" width="35.958" height="35.764" filterUnits="userSpaceOnUse">
      <feOffset dy="3" input="SourceAlpha"/>
      <feGaussianBlur stdDeviation="3" result="blur"/>
      <feFlood flood-opacity="0.161" result="color"/>
      <feComposite operator="out" in="SourceGraphic" in2="blur"/>
      <feComposite operator="in" in="color"/>
      <feComposite operator="in" in2="SourceGraphic"/>
    </filter>
    <filter id="Path_2250" x="18.87" y="22.311" width="24.266" height="19.962" filterUnits="userSpaceOnUse">
      <feOffset dy="3" input="SourceAlpha"/>
      <feGaussianBlur stdDeviation="3" result="blur-2"/>
      <feFlood flood-opacity="0.161" result="color-2"/>
      <feComposite operator="out" in="SourceGraphic" in2="blur-2"/>
      <feComposite operator="in" in="color-2"/>
      <feComposite operator="in" in2="SourceGraphic"/>
    </filter>
  </defs>
  <g id="logo" transform="translate(-158 -59.976)">
    <path id="Path_80229" data-name="Path 80229" d="M15.092-3.808,16.632,0h4.732L12.992-19.6H8.428L-.084,0H4.48L6.02-3.808ZM13.664-7.364H7.476l3.108-7.616ZM31.92-19.74c-5.936,0-10.444,4.256-10.444,9.912A9.952,9.952,0,0,0,31.752.2a11.474,11.474,0,0,0,7.924-3.5l-2.6-2.828a7.563,7.563,0,0,1-5.1,2.3,5.918,5.918,0,0,1-5.964-6.048,5.894,5.894,0,0,1,5.964-6.02,7.1,7.1,0,0,1,5.1,2.548l2.576-3.136A11.154,11.154,0,0,0,31.92-19.74ZM49.476-19.8c-4.536,0-7.588,2.24-7.588,5.8,0,6.944,10.444,4.788,10.444,8.484,0,1.2-1.092,1.876-2.912,1.876a11.605,11.605,0,0,1-6.944-2.94L40.712-2.968A13.762,13.762,0,0,0,49.364.14c4.34,0,7.672-2.072,7.672-5.908.028-7.056-10.416-5.04-10.416-8.652,0-1.064,1.008-1.6,2.492-1.6A13.669,13.669,0,0,1,55.216-14l1.708-3.668A14.01,14.01,0,0,0,49.476-19.8ZM84.644,0V-19.6h-4.2V-7l-9.52-12.6H66.892V0H71.12V-12.572L80.612,0ZM103.88-15.932V-19.6H88.956V0h15.232V-3.668H93.38v-4.34h9.464v-3.668H93.38v-4.256Zm18.228.084V-19.6h-16.38v3.752h5.964V0h4.424V-15.848ZM145.908,0l6.5-19.6h-4.536L143.78-4.816,139.636-19.6H135.3L131.208-4.816,127.092-19.6h-4.76L128.8,0h4.564L137.4-13.972,141.344,0ZM163.38-19.74c-5.992,0-10.528,4.228-10.528,9.94,0,5.684,4.536,10,10.528,10s10.528-4.34,10.528-10C173.908-15.484,169.372-19.74,163.38-19.74Zm.056,3.864A5.953,5.953,0,0,1,169.372-9.8a6,6,0,0,1-5.936,6.132A6.1,6.1,0,0,1,157.388-9.8,6.029,6.029,0,0,1,163.436-15.876ZM188.86,0h5.012L189.7-6.468c2.38-1.12,3.668-3.3,3.668-6.328,0-4.34-2.912-6.8-8.036-6.8H176.82V0h4.424V-5.6h4.508Zm-7.616-9.3v-6.636h4.088c2.436,0,3.836,1.092,3.836,3.276,0,2.24-1.4,3.36-3.836,3.36ZM209.972,0h5.32l-7.868-11.424,7.364-8.176h-5.124l-8.148,8.9v-8.9h-4.424V0h4.424V-4.844l2.828-3.136ZM224.9-19.8c-4.536,0-7.588,2.24-7.588,5.8,0,6.944,10.444,4.788,10.444,8.484,0,1.2-1.092,1.876-2.912,1.876A11.605,11.605,0,0,1,217.9-6.58l-1.764,3.612A13.762,13.762,0,0,0,224.784.14c4.34,0,7.672-2.072,7.672-5.908.028-7.056-10.416-5.04-10.416-8.652,0-1.064,1.008-1.6,2.492-1.6a13.669,13.669,0,0,1,6.1,2.016l1.708-3.668A14.01,14.01,0,0,0,224.9-19.8ZM256.76.756l2.184-2.184-3-2.884A17.461,17.461,0,0,0,257.8-7.84l-2.744-2.044a14.7,14.7,0,0,1-1.484,3.276c-1.372-1.344-2.492-2.52-3.388-3.528,2.352-1.2,4.648-2.632,4.648-5.348,0-2.52-2.212-4.312-5.4-4.312-3.3,0-5.432,1.848-5.432,4.62a7.307,7.307,0,0,0,1.708,4.4c-2.128,1.176-4,2.632-4,5.32,0,3.3,2.8,5.656,6.524,5.656a8.581,8.581,0,0,0,5.684-2.24Zm-9.38-15.932a1.977,1.977,0,0,1,2.1-2.072,1.783,1.783,0,0,1,1.96,1.792c0,1.456-1.288,2.38-2.912,3.248A5.39,5.39,0,0,1,247.38-15.176ZM248.388-2.94a2.885,2.885,0,0,1-3.136-2.828c0-1.232.9-2.1,2.156-2.884,1.12,1.232,2.492,2.66,4.228,4.4A5.074,5.074,0,0,1,248.388-2.94Zm34.1-12.908V-19.6h-16.38v3.752h5.964V0H276.5V-15.848Zm17.3-.084V-19.6H284.872V0H300.1V-3.668H289.3v-4.34h9.464v-3.668H289.3v-4.256ZM312.62-19.74c-5.936,0-10.444,4.256-10.444,9.912A9.952,9.952,0,0,0,312.452.2a11.474,11.474,0,0,0,7.924-3.5l-2.6-2.828a7.563,7.563,0,0,1-5.1,2.3,5.918,5.918,0,0,1-5.964-6.048,5.894,5.894,0,0,1,5.964-6.02,7.1,7.1,0,0,1,5.1,2.548l2.576-3.136A11.154,11.154,0,0,0,312.62-19.74ZM340.732,0V-19.6h-4.424v8.176h-8.876V-19.6h-4.424V0h4.424V-7.728h8.876V0ZM362.8,0V-19.6h-4.2V-7l-9.52-12.6h-4.032V0h4.228V-12.572L358.764,0Zm13.44-19.74c-5.992,0-10.528,4.228-10.528,9.94,0,5.684,4.536,10,10.528,10s10.528-4.34,10.528-10C386.764-15.484,382.228-19.74,376.236-19.74Zm.056,3.864A5.953,5.953,0,0,1,382.228-9.8a6,6,0,0,1-5.936,6.132A6.1,6.1,0,0,1,370.244-9.8,6.029,6.029,0,0,1,376.292-15.876ZM394.1-3.864V-19.6h-4.424V0H402.5V-3.864ZM414.26-19.74c-5.992,0-10.528,4.228-10.528,9.94,0,5.684,4.536,10,10.528,10s10.528-4.34,10.528-10C424.788-15.484,420.252-19.74,414.26-19.74Zm.056,3.864A5.953,5.953,0,0,1,420.252-9.8a6,6,0,0,1-5.936,6.132A6.1,6.1,0,0,1,408.268-9.8,6.029,6.029,0,0,1,414.316-15.876Zm26.04,5.992v5.152a8.924,8.924,0,0,1-3.836,1.064A6.073,6.073,0,0,1,430.332-9.8a6.043,6.043,0,0,1,6.16-6.1,8.2,8.2,0,0,1,5.376,2.184l2.492-3.164a12.352,12.352,0,0,0-7.868-2.856c-6.1,0-10.7,4.284-10.7,9.94,0,5.684,4.508,10,10.444,10a14.508,14.508,0,0,0,7.952-2.548V-9.884ZM452.48,0V-19.6h-4.424V0Zm19.264-15.932V-19.6H456.82V0h15.232V-3.668H461.244v-4.34h9.464v-3.668h-9.464v-4.256ZM482.692-19.8c-4.536,0-7.588,2.24-7.588,5.8,0,6.944,10.444,4.788,10.444,8.484,0,1.2-1.092,1.876-2.912,1.876a11.605,11.605,0,0,1-6.944-2.94l-1.764,3.612A13.762,13.762,0,0,0,482.58.14c4.34,0,7.672-2.072,7.672-5.908.028-7.056-10.416-5.04-10.416-8.652,0-1.064,1.008-1.6,2.492-1.6a13.669,13.669,0,0,1,6.1,2.016l1.708-3.668A14.01,14.01,0,0,0,482.692-19.8Zm17.416.2V0h4.424V-5.6h3.892c4.984,0,7.84-2.632,7.84-7.2,0-4.34-2.856-6.8-7.84-6.8Zm4.424,3.668H508.2c2.464,0,3.864,1.092,3.864,3.276,0,2.24-1.4,3.36-3.864,3.36h-3.668ZM529.2,0l7.784-19.6H532.42L527.044-4.816,521.7-19.6h-4.76l7.7,19.6Zm24.388-15.848V-19.6h-16.38v3.752h5.964V0H547.6V-15.848ZM555.548-4.2a2.1,2.1,0,0,0-2.156,2.212,2.143,2.143,0,0,0,2.156,2.24,2.126,2.126,0,0,0,2.156-2.24A2.088,2.088,0,0,0,555.548-4.2Zm16.632.336V-19.6h-4.424V0H580.58V-3.864Zm25.48-11.984V-19.6H581.28v3.752h5.964V0h4.424V-15.848Zm2.38-3.752V0h8.148c6.188,0,10.472-4.032,10.472-9.8,0-5.8-4.228-9.8-10.3-9.8Zm4.424,3.724h3.808a5.783,5.783,0,0,1,5.88,6.1c0,3.584-2.408,6.048-5.684,6.048h-4Z" transform="translate(221.23 94.75)" fill="#23274e"/>
    <path id="Path_2247" data-name="Path 2247" d="M497.829,506.136s-.034,4.5-.136,5.791a30.54,30.54,0,0,1-.511,3.474,23.431,23.431,0,0,1-.817,3.031,22.821,22.821,0,0,1-1.09,2.657,15.3,15.3,0,0,1-1.328,2.282,16.671,16.671,0,0,1-1.533,1.941,18.882,18.882,0,0,1-1.669,1.635,21.809,21.809,0,0,1-1.771,1.328,14.585,14.585,0,0,1-1.873,1.056,18.932,18.932,0,0,1-1.907.817c-.613.238-1.26.443-1.873.613a16.8,16.8,0,0,1-9.265.068,6.36,6.36,0,0,1-3.679-2.418,6.512,6.512,0,0,1-.136-5.348,20.56,20.56,0,0,1,3.168-5.041,22.3,22.3,0,0,1,1.669-1.908c3.065-3.031,6.812-5.211,10.491-7.391a68.843,68.843,0,0,1,6.676-3.474c2.486-1.124,5.007-2.214,7.528-3.27,1.771-.749,3.542-1.465,5.348-2.214.2-.068.375-.17.579-.238l.681,3.406,6.812-7.834h-9.2a8.862,8.862,0,0,0,1.022,2.384c-1.6.545-3.168,1.26-4.735,1.907-2.793,1.192-5.586,2.044-8.345,3.27-2.963,1.294-6.029,2.316-8.89,3.849a61.643,61.643,0,0,0-10.559,6.983,36.107,36.107,0,0,0-8.073,8.958,15.965,15.965,0,0,0-1.942,4.734,7.362,7.362,0,0,0,.783,4.8,6.768,6.768,0,0,0,2.112,2.486,18.685,18.685,0,0,0,5.314,2.214,24.9,24.9,0,0,0,12.943.17,25.437,25.437,0,0,0,10.389-5.552,24.826,24.826,0,0,0,7.8-13.522,24.875,24.875,0,0,0-.477-11.956,25.264,25.264,0,0,1-3.508.307v1.908" transform="translate(-294.527 -428.107)" fill="url(#linear-gradient)"/>
    <path id="Path_2248" data-name="Path 2248" d="M475.94,481.789a24.856,24.856,0,0,0-42.44,17.576,24.549,24.549,0,0,0,.818,6.37s6.335-11.819,18.257-17.95A55.189,55.189,0,0,1,475.94,481.789Z" transform="translate(-275.5 -414.523)" fill="url(#linear-gradient-2)"/>
    <g data-type="innerShadowGroup">
      <path id="Path_2249-2" data-name="Path 2249" d="M475.39,505c-2.146.92-4.19,1.907-6.2,2.929-2.01,1.056-3.985,2.146-5.893,3.3a66.151,66.151,0,0,0-10.559,7.9,48.3,48.3,0,0,0-4.462,4.7l-.511.613-.477.613-.477.613a1.6,1.6,0,0,0-.2.306l-.238.341c-.647.885-1.192,1.771-1.7,2.623a13.318,13.318,0,0,0-1.873,5.484,10.544,10.544,0,0,0,.238,3.065,22.694,22.694,0,0,0,1.056,3.27,9.68,9.68,0,0,1-2.691-2.453,10.437,10.437,0,0,1-1.669-3.508,11.385,11.385,0,0,1-.2-4.019A14.152,14.152,0,0,1,440.579,527a23.278,23.278,0,0,1,1.737-3.3l.238-.375c.1-.136.17-.273.272-.409l.579-.749c.17-.239.375-.511.579-.749l.579-.681a42.289,42.289,0,0,1,5.109-5.075,47.781,47.781,0,0,1,12.16-7.323,46.453,46.453,0,0,1,6.676-2.214A36.248,36.248,0,0,1,475.39,505Z" transform="translate(-279.411 -434.635)" fill="url(#linear-gradient-3)"/>
      <g transform="matrix(1, 0, 0, 1, 158, 59.98)" filter="url(#Path_2249)">
        <path id="Path_2249-3" data-name="Path 2249" d="M475.39,505c-2.146.92-4.19,1.907-6.2,2.929-2.01,1.056-3.985,2.146-5.893,3.3a66.151,66.151,0,0,0-10.559,7.9,48.3,48.3,0,0,0-4.462,4.7l-.511.613-.477.613-.477.613a1.6,1.6,0,0,0-.2.306l-.238.341c-.647.885-1.192,1.771-1.7,2.623a13.318,13.318,0,0,0-1.873,5.484,10.544,10.544,0,0,0,.238,3.065,22.694,22.694,0,0,0,1.056,3.27,9.68,9.68,0,0,1-2.691-2.453,10.437,10.437,0,0,1-1.669-3.508,11.385,11.385,0,0,1-.2-4.019A14.152,14.152,0,0,1,440.579,527a23.278,23.278,0,0,1,1.737-3.3l.238-.375c.1-.136.17-.273.272-.409l.579-.749c.17-.239.375-.511.579-.749l.579-.681a42.289,42.289,0,0,1,5.109-5.075,47.781,47.781,0,0,1,12.16-7.323,46.453,46.453,0,0,1,6.676-2.214A36.248,36.248,0,0,1,475.39,505Z" transform="translate(-437.41 -494.61)" fill="#fff"/>
      </g>
    </g>
    <g data-type="innerShadowGroup">
      <path id="Path_2250-2" data-name="Path 2250" d="M513.118,540a17.347,17.347,0,0,1-.306,4.6,20.662,20.662,0,0,1-1.431,4.462,19.019,19.019,0,0,1-9.98,9.776,13.775,13.775,0,0,1-4.7,1.124,8.719,8.719,0,0,1-4.7-1.192,8.009,8.009,0,0,1-3.1-3.474,9,9,0,0,0,3.542,2.589,8.555,8.555,0,0,0,4.121.477,12.34,12.34,0,0,0,4.019-1.294,22.813,22.813,0,0,0,3.679-2.282,22.111,22.111,0,0,0,5.654-6.506A27.005,27.005,0,0,0,513.118,540Z" transform="translate(-312.03 -457.713)" fill="#dbdbdb"/>
      <g transform="matrix(1, 0, 0, 1, 158, 59.98)" filter="url(#Path_2250)">
        <path id="Path_2250-3" data-name="Path 2250" d="M513.118,540a17.347,17.347,0,0,1-.306,4.6,20.662,20.662,0,0,1-1.431,4.462,19.019,19.019,0,0,1-9.98,9.776,13.775,13.775,0,0,1-4.7,1.124,8.719,8.719,0,0,1-4.7-1.192,8.009,8.009,0,0,1-3.1-3.474,9,9,0,0,0,3.542,2.589,8.555,8.555,0,0,0,4.121.477,12.34,12.34,0,0,0,4.019-1.294,22.813,22.813,0,0,0,3.679-2.282,22.111,22.111,0,0,0,5.654-6.506A27.005,27.005,0,0,0,513.118,540Z" transform="translate(-470.03 -517.69)" fill="#fff"/>
      </g>
    </g>
  </g>
</svg>
