<svg xmlns="http://www.w3.org/2000/svg" width="92" height="92" viewBox="0 0 92 92">
  <g id="Group_28372" data-name="Group 28372" transform="translate(-840 -63)">
    <rect id="Rectangle_9003" data-name="Rectangle 9003" width="92" height="92" transform="translate(840 63)" fill="rgba(255,255,255,0)"/>
    <path id="Path_31522" data-name="Path 31522" d="M70.655,54.851a8.191,8.191,0,0,0,2.961-6.241,8,8,0,0,0-16,0,8.191,8.191,0,0,0,2.961,6.241,9.548,9.548,0,0,0-4.561,7.442l-12.8-9.682v-10.4h6.4a1.605,1.605,0,0,0,1.6-1.6v-11.2a9.615,9.615,0,0,0-4.561-8.162A8.191,8.191,0,0,0,49.61,15a8,8,0,1,0-16,0,8.191,8.191,0,0,0,2.961,6.241,9.615,9.615,0,0,0-4.561,8.162v11.2a1.605,1.605,0,0,0,1.6,1.6h6.4v10.4l-12.8,9.6a9.677,9.677,0,0,0-4.561-7.442A7.9,7.9,0,0,0,25.6,48.61a8,8,0,0,0-16,0,8.191,8.191,0,0,0,2.961,6.241A9.615,9.615,0,0,0,8,63.013v11.2a1.605,1.605,0,0,0,1.6,1.6h16a1.605,1.605,0,0,0,1.6-1.6v-8l14.4-10.8,14.4,10.8v8a1.605,1.605,0,0,0,1.6,1.6h16a1.605,1.605,0,0,0,1.6-1.6v-11.2A9.615,9.615,0,0,0,70.655,54.851ZM17.6,43.809a4.8,4.8,0,1,1-4.8,4.8A4.815,4.815,0,0,1,17.6,43.809ZM24,72.616H11.2v-9.6a6.4,6.4,0,1,1,12.8,0ZM41.608,10.2a4.8,4.8,0,1,1-4.8,4.8A4.815,4.815,0,0,1,41.608,10.2Zm-6.4,28.807v-9.6a6.4,6.4,0,1,1,12.8,0v9.6Zm30.407,4.8a4.8,4.8,0,1,1-4.8,4.8A4.815,4.815,0,0,1,65.614,43.809Zm6.4,28.807h-12.8v-9.6a6.4,6.4,0,1,1,12.8,0Z" transform="translate(844 68)" fill="#f24b57"/>
  </g>
</svg>
