<svg xmlns="http://www.w3.org/2000/svg" width="265.467" height="299.996" viewBox="0 0 265.467 299.996">
  <path id="Path_26352" data-name="Path 26352" d="M264.742,70.014,155.224,6.488a23.7,23.7,0,0,0-22.892,0L21.958,70.014A23.575,23.575,0,0,0,10,90.043V216.925c0,8.234,4.942,15.935,12.063,20.054l29.1,16.593c13.96,6.877,17.828,6.877,24.18,6.877,20.676,0,31.414-12.5,31.414-34.307V100.877c0-1.769,1.107-4.4-.633-4.4H92.175c-1.766,0-5.265,2.632-5.265,4.4V226.139c0,9.666-8.971,19.285-25.311,11.115l-30.074-17.4a3.327,3.327,0,0,1-1.677-2.93V90.043c0-1.2,1.149-2.4,2.211-3.009l110.1-63.416a3.742,3.742,0,0,1,3.511,0l109.071,63.4c1.044.628.878,1.791.878,3.024V216.925c0,1.211.228,2.389-.8,2.972L145.325,283.35a3.218,3.218,0,0,1-3.188,0L114.06,266.606a2.737,2.737,0,0,0-2.679-.213c-7.8,4.424-9.252,5.012-16.57,7.55-1.8.628-4.463,1.717,1.012,4.786l36.713,21.718a23.133,23.133,0,0,0,23.105,0l109.1-63.468c7.123-4.148,10.723-11.819,10.723-20.054V90.043c0-8.234-3.6-15.913-10.725-20.029ZM178.029,196.819c-29.094,0-35.5-8.026-37.636-22.493-.253-1.558-1.573-3.421-3.161-3.421H123.016c-1.759,0-3.176,2.134-3.176,3.885,0,18.523,10.073,40.966,58.189,40.966,34.828,0,54.8-13.534,54.8-37.485,0-23.748-16.044-29.98-49.823-34.451-34.143-4.513-37.612-6.793-37.612-14.792,0-6.594,2.937-15.39,28.219-15.39,22.587,0,30.913,4.848,34.339,20.074a3.137,3.137,0,0,0,3.079,2.459h14.276a3.259,3.259,0,0,0,2.33-.982,3.212,3.212,0,0,0,.834-2.429c-2.215-26.221-19.632-38.44-54.859-38.44-31.34,0-50.031,13.234-50.031,35.416,0,24.06,18.6,30.71,48.682,33.684,35.987,3.528,38.785,8.788,38.785,15.866C211.046,191.582,201.177,196.819,178.029,196.819Z" transform="translate(-10 -3.541)" fill="#83cd29"/>
</svg>
