<svg xmlns="http://www.w3.org/2000/svg" width="135.947" height="133.663" viewBox="0 0 135.947 133.663">
  <g id="Group_28387" data-name="Group 28387" transform="translate(-376.658 -2521.668)">
    <path id="Path_31550" data-name="Path 31550" d="M32.09,11.889C41.541,6.329,99.048-18.9,96.508,27.178s22.528,45.9-1.144,67.268S19.922,83.653,4.1,63.013,22.639,17.45,32.09,11.889Z" transform="translate(414.676 2521.668) rotate(22)" fill="#ef6f23" opacity="0.2"/>
    <g id="Group_28383" data-name="Group 28383" transform="translate(423.658 2555.525)">
      <circle id="Ellipse_913" data-name="Ellipse 913" cx="2.612" cy="2.612" r="2.612" transform="translate(47.715 37.081)"/>
      <path id="Path_31543" data-name="Path 31543" d="M20,23.033a1.306,1.306,0,0,0-1.306-1.306H9.627V17.808a1.306,1.306,0,1,0-2.612,0v5.225a1.306,1.306,0,0,0,1.306,1.306H18.694A1.306,1.306,0,0,0,20,23.033Zm1.345,22.2H39.629a1.306,1.306,0,0,0,0-2.612H21.343a1.306,1.306,0,0,0,0,2.612Z" transform="translate(8.085 25.803)"/>
      <path id="Path_31544" data-name="Path 31544" d="M2,56.672a6.537,6.537,0,0,0,5.225,6.4V80.183a1.306,1.306,0,0,0,1.306,1.306H68.613a1.306,1.306,0,0,0,1.306-1.306V63.07a6.539,6.539,0,0,0,5.225-6.4V54.06a1.306,1.306,0,0,0-1.306-1.306H63.357a6.469,6.469,0,0,0,1.337-3.918V30.55a1.306,1.306,0,0,0-1.306-1.306H37.266a1.306,1.306,0,0,0-1.306,1.306v1.3l-2.134-2.372a1.294,1.294,0,0,0-.478-.269v-2.7a9.981,9.981,0,0,0,3.487-7.547V15.407L38.36,8.351A5.325,5.325,0,0,0,34,2.149L24.528.572A5.222,5.222,0,0,0,18.541,4.7,4.5,4.5,0,0,0,16.192,6.23a4.578,4.578,0,0,0-.9,3.89l1.45,5.3v3.547a9.988,9.988,0,0,0,3.54,7.591v2.625a1.269,1.269,0,0,0-.522.3L17.287,32.23,10.66,36.211a7.1,7.1,0,0,0-3.435,6.066v9.172a3.874,3.874,0,0,0,.24,1.306H3.306A1.306,1.306,0,0,0,2,54.06v2.612Zm65.307,22.2H9.837V63.2h57.47ZM33.572,50.142H61.857a3.923,3.923,0,0,1-3.694,2.612h-20.9a3.924,3.924,0,0,1-3.694-2.612Zm5-18.286h23.51V47.53H38.572Zm-6.04.094,1.2,1.337-2.241,2.8-2.469-2.466,3.506-1.672ZM18.225,7.873a1.933,1.933,0,0,1,1.507-.718,1.4,1.4,0,0,0,1.306-1.413,2.638,2.638,0,0,1,2.628-2.631,2.692,2.692,0,0,1,.431.037l9.469,1.578A2.713,2.713,0,0,1,35.8,7.841L34.834,12.3l-.713-.886V9.863a1.306,1.306,0,0,0-1.306-1.306H20.766A1.306,1.306,0,0,0,19.46,9.863v1.549l-.823,1.021-.8-2.934A1.928,1.928,0,0,1,18.225,7.873Zm1.134,11.089v-3.25l2.427-3.022a1.311,1.311,0,0,0,.287-.818v-.7h9.435v.7a1.306,1.306,0,0,0,.288.818L34.222,15.7v3.26a7.432,7.432,0,1,1-14.864,0Zm7.429,10.047a10,10,0,0,0,3.947-.812v1.716l-3.942,1.878L22.9,29.936V28.225A9.992,9.992,0,0,0,26.788,29.009ZM21.054,31.95l3.508,1.672-2.469,2.466-2.244-2.8,1.2-1.337ZM9.837,51.448V47.524l0-5.251A4.478,4.478,0,0,1,12,38.447l5.831-3.5,3.132,3.913a1.311,1.311,0,0,0,.948.488l.071,0a1.32,1.32,0,0,0,.925-.381l3.884-3.884,3.884,3.884a1.309,1.309,0,0,0,.925.381l.071,0a1.3,1.3,0,0,0,.948-.488l3.132-3.916.206.123V47.53H32.041a1.306,1.306,0,0,0-1.306,1.306,6.469,6.469,0,0,0,1.337,3.918H11.143a1.309,1.309,0,0,1-1.306-1.306ZM4.612,55.366H72.531v1.306a3.923,3.923,0,0,1-3.918,3.918H8.531a3.923,3.923,0,0,1-3.918-3.918ZM52.939,10.953H68.613a1.306,1.306,0,1,0,0-2.612H52.939a1.306,1.306,0,0,0,0,2.612Zm15.674,5.225a1.306,1.306,0,1,0,0-2.612H52.939a1.306,1.306,0,0,0,0,2.612Z"/>
      <path id="Path_31545" data-name="Path 31545" d="M24.914,24.854a1.3,1.3,0,0,0,1.34-.063l7.508-5.005H43.816a3.923,3.923,0,0,0,3.918-3.918V5.418A3.923,3.923,0,0,0,43.816,1.5h-20.9A3.923,3.923,0,0,0,19,5.418V15.867a3.923,3.923,0,0,0,3.918,3.918h1.306V23.7A1.3,1.3,0,0,0,24.914,24.854Zm-2-7.68a1.309,1.309,0,0,1-1.306-1.306V5.418a1.31,1.31,0,0,1,1.306-1.306h20.9a1.31,1.31,0,0,1,1.306,1.306V15.867a1.31,1.31,0,0,1-1.306,1.306H33.367a1.3,1.3,0,0,0-.724.219l-5.807,3.869V18.48a1.306,1.306,0,0,0-1.306-1.306Z" transform="translate(27.408 1.616)"/>
    </g>
  </g>
</svg>
