<svg xmlns="http://www.w3.org/2000/svg" width="189" height="59.242" viewBox="0 0 189 59.242">
  <g id="Group_28326" data-name="Group 28326" transform="translate(-649 -968.758)">
    <rect id="Rectangle_8959" data-name="Rectangle 8959" width="189" height="58" transform="translate(649 970)" fill="rgba(255,255,255,0)"/>
    <g id="Group_26255" data-name="Group 26255" transform="translate(649 971)" opacity="0.4" style="mix-blend-mode: luminosity;isolation: isolate">
      <g id="Layer_2_1_" transform="translate(0)">
        <g id="Surfaces">
          <g id="Photo_Surface">
            <g id="Outline_no_shadow">
              <path id="Path_23831" data-name="Path 23831" d="M10.284,0H47.792A10.276,10.276,0,0,1,58.076,10.284V46.34A10.276,10.276,0,0,1,47.792,56.624H10.284A10.276,10.276,0,0,1,0,46.34V10.284A10.276,10.276,0,0,1,10.284,0Z" fill="#001e36"/>
            </g>
          </g>
        </g>
        <g id="Outlined_Mnemonics_Logos" transform="translate(13.067 14.398)">
          <g id="Ps">
            <path id="Path_23832" data-name="Path 23832" d="M54,84.811v-24.9c0-.169.073-.266.242-.266.411,0,.8,0,1.355-.024.581-.024,1.186-.024,1.839-.048s1.355-.024,2.105-.048,1.476-.024,2.2-.024a14.228,14.228,0,0,1,4.985.75,8.641,8.641,0,0,1,3.243,1.984,7.7,7.7,0,0,1,1.766,2.759,9.262,9.262,0,0,1,.557,3.146,8.651,8.651,0,0,1-1.452,5.154,8.29,8.29,0,0,1-3.9,2.952,15.683,15.683,0,0,1-5.445.823c-.581,0-.968,0-1.21-.024s-.581-.024-1.041-.024v7.768a.3.3,0,0,1-.266.339H54.29C54.1,85.126,54,85.029,54,84.811Zm5.275-20.5v8.131c.339.024.653.048.944.048H61.5a9.039,9.039,0,0,0,2.783-.436,4.161,4.161,0,0,0,1.984-1.283,3.739,3.739,0,0,0,.75-2.492,3.983,3.983,0,0,0-.557-2.154,3.509,3.509,0,0,0-1.694-1.379,7.1,7.1,0,0,0-2.855-.484c-.629,0-1.186,0-1.645.024a5.541,5.541,0,0,0-.992.024Z" transform="translate(-54 -59.5)" fill="#31a8ff"/>
            <path id="Path_23833" data-name="Path 23833" d="M152.8,89.769a8.564,8.564,0,0,0-2.323-.823,12.755,12.755,0,0,0-2.71-.315,4.872,4.872,0,0,0-1.452.169,1.243,1.243,0,0,0-.75.484,1.282,1.282,0,0,0-.194.653,1.076,1.076,0,0,0,.242.629,2.73,2.73,0,0,0,.823.653c.557.29,1.137.557,1.718.8a17.527,17.527,0,0,1,3.727,1.766,5.631,5.631,0,0,1,1.912,2.008,5.224,5.224,0,0,1,.557,2.492,5.63,5.63,0,0,1-.944,3.218,6.064,6.064,0,0,1-2.71,2.154,11.087,11.087,0,0,1-4.38.774,16.669,16.669,0,0,1-3.291-.315,9.762,9.762,0,0,1-2.468-.774.476.476,0,0,1-.266-.46V98.674a.263.263,0,0,1,.1-.218.184.184,0,0,1,.218.024,10.359,10.359,0,0,0,3,1.186,11.265,11.265,0,0,0,2.855.363,4.619,4.619,0,0,0,2.008-.339,1.124,1.124,0,0,0,.653-1.016,1.282,1.282,0,0,0-.581-.968,10.263,10.263,0,0,0-2.371-1.137,14.806,14.806,0,0,1-3.436-1.742,6.266,6.266,0,0,1-1.839-2.057,5.192,5.192,0,0,1-.557-2.468,5.691,5.691,0,0,1,.823-2.928,5.965,5.965,0,0,1,2.541-2.226,9.384,9.384,0,0,1,4.283-.847,20.862,20.862,0,0,1,3,.218,8.515,8.515,0,0,1,2.081.557.425.425,0,0,1,.242.218,1.214,1.214,0,0,1,.048.29v3.944a.3.3,0,0,1-.121.242A.645.645,0,0,1,152.8,89.769Z" transform="translate(-119.407 -78.299)" fill="#31a8ff"/>
          </g>
        </g>
      </g>
      <text id="Adobe_Photoshop" data-name="Adobe
Photoshop" transform="translate(62.754 21.757)" fill="#001e36" font-size="22" font-family="SegoeUI, Segoe UI"><tspan x="0" y="0">Adobe</tspan><tspan font-family="SegoeUI-Bold, Segoe UI" font-weight="700"><tspan x="0" y="22">Photoshop</tspan></tspan></text>
    </g>
  </g>
</svg>
