<svg xmlns="http://www.w3.org/2000/svg" xmlns:xlink="http://www.w3.org/1999/xlink" width="461.638" height="248.65" viewBox="0 0 461.638 248.65">
  <defs>
    <linearGradient id="linear-gradient" x1="0.5" x2="0.5" y2="1" gradientUnits="objectBoundingBox">
      <stop offset="0" stop-color="#883d43"/>
      <stop offset="1" stop-color="#f24b57"/>
    </linearGradient>
    <filter id="Path_26339">
      <feOffset dy="3" input="SourceAlpha"/>
      <feGaussianBlur stdDeviation="5" result="blur"/>
      <feFlood flood-opacity="0.271" result="color"/>
      <feComposite operator="out" in="SourceGraphic" in2="blur"/>
      <feComposite operator="in" in="color"/>
      <feComposite operator="in" in2="SourceGraphic"/>
    </filter>
    <linearGradient id="linear-gradient-2" x1="0.672" y1="0.774" x2="-0.091" y2="-0.442" gradientUnits="objectBoundingBox">
      <stop offset="0" stop-color="#a1baff"/>
      <stop offset="0.488" stop-color="#fff"/>
    </linearGradient>
    <linearGradient id="linear-gradient-3" x1="0.5" x2="0.5" y2="1" gradientUnits="objectBoundingBox">
      <stop offset="0" stop-color="#f24b57"/>
      <stop offset="1" stop-color="#79262c"/>
    </linearGradient>
  </defs>
  <g id="Group_28129" data-name="Group 28129" transform="matrix(0.978, 0.208, -0.208, 0.978, 51.165, -42.423)">
    <g id="Layer_2" transform="translate(0 0)">
      <g id="Group_28115" data-name="Group 28115">
        <g id="Group_28113" data-name="Group 28113">
          <g id="Group_28111" data-name="Group 28111" transform="translate(0 134.145)">
            <path id="Path_26338" data-name="Path 26338" d="M246.407,972.326c-13.1,9.735-44.1,18.67-44.1,18.67s2.482-1.42,6.562-3.435a25.989,25.989,0,0,0,7.457-6.291,109.572,109.572,0,0,1-19.9,8.985c-11.571,3.906-27.044,6.754-27.044,6.754a89.026,89.026,0,0,0,8.661-5.134c5.517-3.606,15.01-9.889,15.01-9.889s-23.68,12.97-59.875,15.46c-14.165.974-37.333,6.046-37.333,6.046s11.192-9.652,16.522-15.219c8.457-8.836,18.3-23.038,26.007-32.011C149.849,942.9,173.42,919.4,173.42,919.4l-4.743,2.124c-4.743,2.123-10.476,4.409-10.476,4.409s23.7-22.6,41.346-29.409c19.874-7.678,46.41-4.176,46.41-4.176s2.332,11.346,11.009,26.028c8.969,15.181,16.351,21.356,16.351,21.356S266.477,957.411,246.407,972.326Z" transform="translate(-95.84 -891.546)" fill="url(#linear-gradient)"/>
            <g data-type="innerShadowGroup">
              <path id="Path_26339-2" data-name="Path 26339" d="M306.425,968.947c-9.843,7.316-33.144,14.032-33.144,14.032s1.865-1.066,4.934-2.581a19.576,19.576,0,0,0,5.6-4.73,82.373,82.373,0,0,1-14.956,6.754,176.468,176.468,0,0,1-20.328,5.076,67.564,67.564,0,0,0,6.508-3.856c4.147-2.711,11.28-7.432,11.28-7.432s-17.8,9.747-45,11.617c-10.647.733-28.056,4.543-28.056,4.543s8.411-7.253,12.416-11.438c6.354-6.641,13.749-17.313,19.545-24.058,8.627-10.043,26.344-27.706,26.344-27.706l-3.564,1.595c-3.564,1.595-7.87,3.314-7.87,3.314s17.813-16.98,31.07-22.1c14.936-5.771,34.876-3.135,34.876-3.135s1.753,8.527,8.273,19.562c6.741,11.409,12.287,16.051,12.287,16.051S321.507,957.734,306.425,968.947Z" transform="translate(-152.702 -901.288)" fill="#ffb623"/>
              <g transform="matrix(0.98, -0.21, 0.21, 0.98, -41.23, -82.01)" filter="url(#Path_26339)">
                <path id="Path_26339-3" data-name="Path 26339" d="M306.425,968.947c-9.843,7.316-33.144,14.032-33.144,14.032s1.865-1.066,4.934-2.581a19.576,19.576,0,0,0,5.6-4.73,82.373,82.373,0,0,1-14.956,6.754,176.468,176.468,0,0,1-20.328,5.076,67.564,67.564,0,0,0,6.508-3.856c4.147-2.711,11.28-7.432,11.28-7.432s-17.8,9.747-45,11.617c-10.647.733-28.056,4.543-28.056,4.543s8.411-7.253,12.416-11.438c6.354-6.641,13.749-17.313,19.545-24.058,8.627-10.043,26.344-27.706,26.344-27.706l-3.564,1.595c-3.564,1.595-7.87,3.314-7.87,3.314s17.813-16.98,31.07-22.1c14.936-5.771,34.876-3.135,34.876-3.135s1.753,8.527,8.273,19.562c6.741,11.409,12.287,16.051,12.287,16.051S321.507,957.734,306.425,968.947Z" transform="matrix(0.98, 0.21, -0.21, 0.98, 61.3, -824.55)" fill="#fff"/>
              </g>
              <path id="Path_26339-4" data-name="Path 26339" d="M306.425,968.947c-9.843,7.316-33.144,14.032-33.144,14.032s1.865-1.066,4.934-2.581a19.576,19.576,0,0,0,5.6-4.73,82.373,82.373,0,0,1-14.956,6.754,176.468,176.468,0,0,1-20.328,5.076,67.564,67.564,0,0,0,6.508-3.856c4.147-2.711,11.28-7.432,11.28-7.432s-17.8,9.747-45,11.617c-10.647.733-28.056,4.543-28.056,4.543s8.411-7.253,12.416-11.438c6.354-6.641,13.749-17.313,19.545-24.058,8.627-10.043,26.344-27.706,26.344-27.706l-3.564,1.595c-3.564,1.595-7.87,3.314-7.87,3.314s17.813-16.98,31.07-22.1c14.936-5.771,34.876-3.135,34.876-3.135s1.753,8.527,8.273,19.562c6.741,11.409,12.287,16.051,12.287,16.051S321.507,957.734,306.425,968.947Z" transform="translate(-152.702 -901.288)" fill="none" stroke="rgba(0,0,0,0)" stroke-width="1"/>
            </g>
          </g>
          <g id="Group_28112" data-name="Group 28112" transform="translate(111.827)">
            <path id="Path_26340" data-name="Path 26340" d="M500.658,689.379c1.5-2.253,43.3-47.051,94.1-73.329s73.832-28.53,73.832-28.53,12.762,9.011,25.528,32.536,16.518,33.036,15.518,36.042-50.557,56.561-104.865,78.837-60.567,23.525-60.567,23.525-6.758-.749-14.515-12.512S503.914,704.9,501.911,698.4,500.658,689.379,500.658,689.379Z" transform="translate(-443.847 -579.966)" fill="url(#linear-gradient-2)"/>
            <path id="Path_26341" data-name="Path 26341" d="M988.016,574.175c-3-4.255-7.008-5-31.283-4.755s-49.553,8.261-49.553,8.261l.287.466c3.76,3.148,13.87,12.67,23.988,31.316,9.606,17.7,14.107,27.473,15.323,32.5l.945,1.536,4.255-4.006c4.255-4.006,21.773-29.784,28.281-41.8S991.018,578.43,988.016,574.175Z" transform="translate(-681.182 -569.377)" fill="url(#linear-gradient-3)"/>
            <path id="Path_26342" data-name="Path 26342" d="M571.311,954.144l-27.781,58.564a388.038,388.038,0,0,0,59.063-32.286c31.786-21.023,34.289-24.275,34.289-24.275l8.511-32.036S594.332,947.635,571.311,954.144Z" transform="translate(-468.948 -776.406)" fill="url(#linear-gradient-3)"/>
            <path id="Path_26343" data-name="Path 26343" d="M483.54,694.488l-29.284-6.008s-25.778,10.764-47.3,24.779-42.546,29.784-42.546,29.784l58.814,3S464.77,703.5,483.54,694.488Z" transform="translate(-364.41 -638.888)" fill="url(#linear-gradient-3)"/>
            <path id="Path_26344" data-name="Path 26344" d="M508.805,895.119c-7.757-11.763-25.778-41.047-27.781-47.551a35.568,35.568,0,0,1-1.087-4.439l-15.181,11.2s-1,11.013,12.512,31.532,20.523,27.531,23.775,27.281,17.267-7.507,17.267-7.507l-.287-.471A36.657,36.657,0,0,1,508.805,895.119Z" transform="translate(-422.965 -729.145)" fill="#840d15"/>
            <path id="Path_26345" data-name="Path 26345" d="M460.87,885.64l-4.505,3.252s-.5,7.008,9.76,24.025,16.518,23.276,19.27,23.526,4.755-2.253,4.755-2.253S466.124,907.413,460.87,885.64Z" transform="translate(-418.074 -753.954)" fill="url(#linear-gradient-3)"/>
            <path id="Path_26346" data-name="Path 26346" d="M519.339,796.68l-22.526,7.757s-34.922,19.374-46.3,26.278c-14.273,8.661-56.061,36.292-56.061,36.292l1.753,3.756,103.612-61.816,22.776-8.761Z" transform="translate(-381.942 -702.036)" fill="#f24b57"/>
            <path id="Path_26347" data-name="Path 26347" d="M398.67,875.676,455.731,849.4s21.914-12.533,29.03-17.018c10.289-6.491,40.293-27.281,40.293-27.281l-23.775,9.01Z" transform="translate(-384.405 -706.95)" fill="url(#linear-gradient-3)"/>
          </g>
        </g>
      </g>
    </g>
  </g>
</svg>
