<svg xmlns="http://www.w3.org/2000/svg" width="104" height="104" viewBox="0 0 104 104">
  <g id="Quality" transform="translate(-218 -1434)">
    <rect id="Rectangle_9013" data-name="Rectangle 9013" width="104" height="104" transform="translate(218 1434)" fill="rgba(255,255,255,0)"/>
    <path id="Path_31488" data-name="Path 31488" d="M34.138,2.025a1.942,1.942,0,0,0-.727.012v.012a1.918,1.918,0,0,0-1.079.543,7.361,7.361,0,0,0-.7.658c-.459.482-.938,1.058-1.414,1.628S29.272,6.008,28.9,6.417c-.155.171-.275.29-.375.387-.138,0-.3-.034-.525-.058-.542-.074-1.258-.2-1.986-.329s-1.465-.257-2.124-.329a7.486,7.486,0,0,0-.952-.052,1.893,1.893,0,0,0-1.177.289,1.922,1.922,0,0,0-.825.877,7.544,7.544,0,0,0-.427.854c-.267.611-.531,1.32-.785,2.02s-.5,1.393-.71,1.9c-.088.216-.163.375-.225.5-.133.038-.3.083-.519.133-.534.118-1.247.245-1.974.375s-1.469.266-2.112.427a7.2,7.2,0,0,0-.912.277A2.112,2.112,0,0,0,11.8,15.473a7.431,7.431,0,0,0-.115.947c-.044.666-.044,1.424-.046,2.17s0,1.484-.023,2.037c-.009.236-.031.407-.046.548-.112.083-.248.186-.444.312-.463.3-1.1.664-1.737,1.039s-1.285.758-1.835,1.131a7.38,7.38,0,0,0-.762.577A2.14,2.14,0,0,0,6,26.4a7.469,7.469,0,0,0,.219.929c.184.641.436,1.353.687,2.055s.5,1.395.664,1.922c.071.225.117.394.15.531-.077.118-.179.269-.323.456-.335.438-.8,1-1.276,1.57s-.949,1.157-1.339,1.7a7.358,7.358,0,0,0-.519.8,2.127,2.127,0,0,0,0,2.308,7.358,7.358,0,0,0,.519.8c.39.54.866,1.124,1.339,1.7s.941,1.132,1.276,1.57c.144.189.246.338.323.456-.033.139-.079.306-.15.531-.166.527-.413,1.221-.664,1.922S6.4,47.06,6.221,47.7A7.573,7.573,0,0,0,6,48.636a2.14,2.14,0,0,0,.785,2.17,7.256,7.256,0,0,0,.762.577c.55.373,1.2.756,1.835,1.131s1.274.737,1.737,1.033c.2.124.332.228.444.312.016.142.037.317.046.554.022.554.021,1.291.023,2.037s0,1.5.046,2.165a7.533,7.533,0,0,0,.115.952,2.112,2.112,0,0,0,1.478,1.778,7.21,7.21,0,0,0,.912.283c.644.16,1.385.3,2.112.427s1.44.257,1.974.375c.222.05.387.094.519.133.062.127.137.287.225.5.134.329.3.792.456,1.224l-7.8,13.292a1.588,1.588,0,0,0,1.783,2.337L20.592,78l1.916,7.145a1.588,1.588,0,0,0,2.9.381l7.365-12.75a2.124,2.124,0,0,0,1.835.081,7.412,7.412,0,0,0,.877-.375c.595-.3,1.247-.668,1.887-1.039s1.27-.742,1.755-1c.2-.106.352-.181.479-.237.127.056.277.13.479.237.485.257,1.113.627,1.755,1s1.292.744,1.887,1.039a7.411,7.411,0,0,0,.877.375,1.909,1.909,0,0,0,1.2.138,1.882,1.882,0,0,0,.629-.219L53.8,85.528a1.587,1.587,0,0,0,2.9-.381l1.916-7.139,7.134,1.916a1.587,1.587,0,0,0,1.778-2.337L59.741,64.312c.161-.441.326-.912.462-1.247.088-.216.163-.376.225-.5.133-.038.3-.082.519-.133.534-.118,1.246-.243,1.974-.375s1.468-.266,2.112-.427a7.194,7.194,0,0,0,.912-.283,2.111,2.111,0,0,0,1.478-1.778,7.554,7.554,0,0,0,.116-.952c.044-.667.044-1.418.046-2.165s0-1.483.023-2.037c.009-.236.03-.413.046-.554.112-.083.249-.186.444-.312.462-.3,1.093-.658,1.732-1.033s1.285-.758,1.835-1.131a7.371,7.371,0,0,0,.762-.577,2.14,2.14,0,0,0,.785-2.17,7.6,7.6,0,0,0-.219-.935c-.184-.641-.436-1.348-.687-2.049s-.5-1.395-.664-1.922c-.071-.225-.117-.393-.15-.531.077-.118.179-.269.323-.456.335-.438.8-1,1.276-1.57s.954-1.157,1.345-1.7a7.378,7.378,0,0,0,.519-.8,2.125,2.125,0,0,0,0-2.308,7.378,7.378,0,0,0-.519-.8c-.391-.54-.871-1.124-1.345-1.7s-.94-1.138-1.276-1.576c-.144-.189-.246-.332-.323-.45.033-.139.079-.306.15-.531.167-.527.413-1.221.664-1.922s.5-1.413.687-2.055a7.5,7.5,0,0,0,.219-.929,2.14,2.14,0,0,0-.785-2.17,7.289,7.289,0,0,0-.762-.577c-.55-.373-1.2-.756-1.835-1.131s-1.269-.743-1.732-1.039c-.2-.127-.332-.228-.444-.312-.016-.142-.037-.313-.046-.548-.022-.553-.021-1.291-.023-2.037s0-1.5-.046-2.17a7.452,7.452,0,0,0-.116-.947A2.111,2.111,0,0,0,65.945,13.7a7.186,7.186,0,0,0-.912-.277c-.644-.16-1.385-.3-2.112-.427s-1.44-.257-1.974-.375c-.223-.05-.387-.094-.519-.133-.062-.127-.137-.286-.225-.5-.208-.512-.456-1.2-.71-1.9s-.517-1.409-.785-2.02a7.428,7.428,0,0,0-.427-.854,2.129,2.129,0,0,0-2-1.166c-.315,0-.623.028-.952.052-.659.071-1.4.2-2.124.329s-1.444.257-1.986.329c-.224.03-.387.046-.525.058-.1-.1-.22-.216-.375-.387-.369-.409-.84-.971-1.316-1.541s-.961-1.151-1.42-1.633a7.164,7.164,0,0,0-.693-.652,2.114,2.114,0,0,0-2.28-.416,7.513,7.513,0,0,0-.877.381c-.6.3-1.246.668-1.887,1.039s-1.27.742-1.755,1c-.2.106-.352.169-.479.225-.127-.056-.276-.119-.479-.225-.484-.257-1.114-.627-1.755-1s-1.293-.744-1.887-1.039a7.415,7.415,0,0,0-.877-.381A3.2,3.2,0,0,0,34.138,2.025Zm-.185,3.094c.081.035.127.045.225.092.464.23,1.083.58,1.714.947s1.275.745,1.853,1.05c.289.154.559.292.831.4a2.17,2.17,0,0,0,1.033.242,2.145,2.145,0,0,0,1.027-.242c.273-.112.542-.251.831-.4.578-.306,1.226-.684,1.858-1.05s1.25-.717,1.714-.947c.1-.05.144-.057.225-.092.064.062.1.088.179.167.359.377.823.927,1.293,1.489s.947,1.141,1.385,1.628c.219.242.423.459.641.658a2.3,2.3,0,0,0,1.933.71,6.836,6.836,0,0,0,.918-.087c.646-.089,1.384-.222,2.1-.346s1.42-.245,1.933-.3a.629.629,0,0,0,.243-.029c.04.083.063.124.11.231.21.479.465,1.156.716,1.847s.5,1.4.75,2.008c.124.3.244.581.381.843a2.308,2.308,0,0,0,1.57,1.327c.281.092.57.166.889.237.638.142,1.372.269,2.089.4s1.421.257,1.922.381c.111.03.155.051.243.075.01.092.021.142.029.26.035.523.039,1.244.04,1.98s0,1.49.029,2.147c.013.329.03.63.069.923a2.35,2.35,0,0,0,1.022,1.783c.233.183.481.355.756.531.551.353,1.2.727,1.829,1.1s1.244.736,1.674,1.027c.1.065.134.1.208.156-.022.092-.03.145-.064.26-.144.5-.381,1.184-.629,1.876s-.5,1.394-.7,2.02c-.1.313-.186.606-.248.894a2.334,2.334,0,0,0,.352,2.02c.157.251.337.5.537.762.4.521.878,1.092,1.345,1.657s.923,1.124,1.229,1.547c.072.1.1.145.15.225-.052.08-.079.128-.15.225-.306.423-.762.975-1.229,1.541s-.946,1.141-1.345,1.662c-.2.26-.38.5-.537.75a2.243,2.243,0,0,0-.41.981,2.186,2.186,0,0,0,.058,1.05c.062.29.15.576.248.889.2.626.451,1.334.7,2.026s.485,1.373.629,1.876c.033.115.041.168.064.26-.074.056-.111.088-.208.156-.429.293-1.044.657-1.674,1.027s-1.279.744-1.829,1.1c-.275.177-.524.343-.756.525a2.353,2.353,0,0,0-1.022,1.778c-.04.293-.056.6-.069.929-.026.657-.027,1.4-.029,2.141s-.006,1.457-.04,1.98c-.008.118-.018.171-.029.265-.087.03-.132.04-.243.069-.5.124-1.2.257-1.922.387s-1.452.257-2.089.4c-.319.071-.608.139-.889.231a2.335,2.335,0,0,0-1.57,1.333c-.137.263-.257.539-.381.843-.247.608-.5,1.317-.75,2.008S56.211,65.31,56,65.79c-.047.106-.074.154-.116.237A.706.706,0,0,1,55.649,66c-.513-.056-1.216-.174-1.933-.3s-1.454-.26-2.1-.346c-.323-.044-.623-.08-.918-.092a2.331,2.331,0,0,0-1.051.133,2.156,2.156,0,0,0-.883.577c-.218.2-.421.421-.641.664-.439.486-.915,1.066-1.385,1.628s-.934,1.106-1.293,1.483c-.077.08-.115.111-.179.173-.081-.035-.127-.051-.225-.1-.465-.23-1.082-.586-1.714-.952s-1.28-.745-1.858-1.051a9.1,9.1,0,0,0-.831-.4,2.144,2.144,0,0,0-1.027-.243,2.169,2.169,0,0,0-1.033.243c-.273.112-.543.251-.831.4-.577.306-1.221.685-1.853,1.051s-1.25.716-1.714.947c-.1.047-.145.063-.225.1-.064-.062-.1-.09-.179-.173-.359-.377-.823-.921-1.293-1.483s-.946-1.141-1.385-1.628c-.219-.242-.423-.464-.641-.664a2.352,2.352,0,0,0-1.933-.71,6.876,6.876,0,0,0-.918.092c-.646.089-1.384.222-2.1.346s-1.42.245-1.933.3a.6.6,0,0,0-.237.029c-.041-.083-.068-.127-.116-.237-.21-.479-.465-1.15-.716-1.841s-.5-1.4-.75-2.008c-.124-.3-.244-.581-.381-.843a2.335,2.335,0,0,0-1.57-1.333c-.281-.092-.57-.16-.889-.231-.638-.142-1.372-.269-2.089-.4s-1.42-.263-1.922-.387c-.111-.03-.155-.043-.242-.069-.01-.095-.021-.147-.029-.265-.035-.523-.039-1.243-.04-1.98s0-1.484-.029-2.141c-.013-.328-.03-.636-.069-.929a2.353,2.353,0,0,0-1.022-1.778c-.233-.183-.486-.349-.762-.525-.551-.352-1.2-.727-1.83-1.1S9.635,49.228,9.2,48.937c-.1-.065-.134-.1-.208-.156.022-.092.03-.145.063-.26.144-.5.382-1.184.629-1.876s.5-1.4.7-2.026c.1-.313.186-.6.248-.889a2.185,2.185,0,0,0,.058-1.05,2.247,2.247,0,0,0-.41-.981c-.156-.251-.338-.49-.537-.75-.4-.521-.878-1.1-1.345-1.662s-.918-1.118-1.224-1.541c-.071-.1-.1-.145-.15-.225.052-.08.079-.128.15-.225.305-.423.757-.981,1.224-1.547s.947-1.141,1.345-1.662c.2-.26.38-.506.537-.756a2.334,2.334,0,0,0,.352-2.02c-.062-.29-.149-.581-.248-.894-.2-.626-.451-1.328-.7-2.02s-.485-1.373-.629-1.876c-.033-.115-.041-.168-.063-.26.074-.056.111-.091.208-.156.43-.293,1.043-.658,1.674-1.027s1.278-.744,1.83-1.1c.276-.177.529-.349.762-.531a2.35,2.35,0,0,0,1.022-1.783c.039-.293.056-.595.069-.923.026-.657.027-1.411.029-2.147s.006-1.457.04-1.98c.008-.118.019-.165.029-.26a2.166,2.166,0,0,1,.242-.075c.5-.124,1.2-.251,1.922-.381s1.452-.257,2.089-.4c.319-.071.608-.145.889-.237a2.307,2.307,0,0,0,1.57-1.327c.136-.263.257-.539.381-.843.247-.608.5-1.318.75-2.008s.506-1.368.716-1.847c.046-.106.069-.148.11-.231a.742.742,0,0,1,.243.029c.513.056,1.216.174,1.933.3s1.454.26,2.1.346c.323.044.623.081.918.092a2.331,2.331,0,0,0,1.051-.133,2.155,2.155,0,0,0,.883-.577c.218-.2.421-.421.641-.664.439-.486.915-1.065,1.385-1.628s.934-1.112,1.293-1.489C33.85,5.206,33.89,5.18,33.953,5.118Zm5.656,7.3A25.118,25.118,0,1,0,64.728,37.532,25.139,25.139,0,0,0,39.61,12.414Zm0,2.788a22.327,22.327,0,1,1-22.325,22.33A22.307,22.307,0,0,1,39.61,15.2Zm-.069,8.184a1.917,1.917,0,0,0-1.57.779,6.266,6.266,0,0,0-.75,1.05c-.461.764-.907,1.682-1.345,2.615s-.863,1.873-1.218,2.586c-.177.356-.337.66-.456.854a.607.607,0,0,1-.058.081.8.8,0,0,1-.087.029c-.22.056-.553.117-.947.179-.787.127-1.811.253-2.834.392a29.305,29.305,0,0,0-2.909.508,6.284,6.284,0,0,0-1.218.4,1.985,1.985,0,0,0-.958,2.99,6.241,6.241,0,0,0,.768,1.033c.585.673,1.324,1.386,2.078,2.09s1.52,1.4,2.089,1.957c.285.278.522.52.67.693a.55.55,0,0,1,.046.069.616.616,0,0,1,.006.1c-.015.228-.054.571-.116.964-.123.786-.319,1.791-.5,2.8s-.355,2.025-.421,2.915a6.219,6.219,0,0,0,.012,1.287,1.983,1.983,0,0,0,2.551,1.829,6.24,6.24,0,0,0,1.223-.4c.822-.348,1.729-.829,2.632-1.327s1.8-1.011,2.5-1.379c.353-.183.662-.329.871-.416a.607.607,0,0,1,.1-.029.452.452,0,0,1,.081.023c.211.086.522.231.877.41.711.36,1.607.858,2.516,1.345s1.823.967,2.649,1.3a6.264,6.264,0,0,0,1.229.387,1.994,1.994,0,0,0,2.534-1.864,6.194,6.194,0,0,0-.006-1.281c-.077-.888-.267-1.9-.462-2.915s-.4-2.014-.531-2.8c-.066-.392-.115-.732-.133-.958a.638.638,0,0,1,0-.092.578.578,0,0,1,.052-.075c.146-.174.377-.428.658-.71.563-.564,1.322-1.267,2.066-1.98s1.478-1.426,2.055-2.107a6.267,6.267,0,0,0,.75-1.05,1.905,1.905,0,0,0,.237-1.726A1.937,1.937,0,0,0,53.046,32.7a6.233,6.233,0,0,0-1.229-.392c-.87-.2-1.885-.335-2.909-.462s-2.051-.241-2.84-.358c-.394-.059-.731-.114-.952-.167a.6.6,0,0,1-.081-.029.636.636,0,0,1-.063-.081c-.121-.192-.28-.489-.462-.843-.363-.709-.8-1.641-1.252-2.568s-.9-1.845-1.374-2.6a6.274,6.274,0,0,0-.767-1.039,1.925,1.925,0,0,0-1.576-.762Zm.023,3.723c.318.552.666,1.205,1.033,1.962.436.9.871,1.842,1.275,2.632.2.4.394.749.595,1.068a2.673,2.673,0,0,0,1.962,1.4c.366.089.767.154,1.206.219.879.13,1.915.245,2.909.369.835.1,1.562.223,2.188.346-.428.472-.94,1.006-1.547,1.587-.723.693-1.485,1.4-2.112,2.026-.314.314-.59.606-.831.895a2.63,2.63,0,0,0-.646,1.062,2.6,2.6,0,0,0-.087,1.235c.03.375.087.775.162,1.212.148.875.365,1.892.554,2.874.159.826.27,1.555.346,2.188-.583-.26-1.249-.584-1.991-.981-.883-.473-1.793-.978-2.586-1.379-.4-.2-.758-.373-1.108-.514a2.653,2.653,0,0,0-2.418.017c-.348.145-.709.325-1.1.531-.788.411-1.691.925-2.568,1.408-.738.407-1.4.737-1.98,1q.1-.951.323-2.193c.177-.984.376-2,.514-2.88.069-.438.119-.837.144-1.212a2.649,2.649,0,0,0-.756-2.285c-.245-.287-.531-.578-.848-.889-.635-.621-1.4-1.314-2.135-2-.615-.574-1.13-1.1-1.564-1.57.624-.13,1.353-.261,2.187-.375.993-.136,2.02-.257,2.9-.4.439-.071.835-.145,1.2-.236a2.622,2.622,0,0,0,1.149-.479,2.593,2.593,0,0,0,.8-.947c.2-.321.385-.682.583-1.079.4-.794.822-1.738,1.247-2.643C38.91,28.327,39.252,27.664,39.564,27.108ZM21,67.948a1.782,1.782,0,0,0,.762.773,1.956,1.956,0,0,0,1.177.288c.315,0,.623-.028.952-.052.659-.071,1.4-.2,2.124-.329S27.461,68.375,28,68.3c.224-.03.387-.046.525-.058.1.1.22.215.375.387.369.409.84.971,1.316,1.541.079.1.157.176.236.271L24.58,80.622l-1.333-4.975a1.588,1.588,0,0,0-1.945-1.12l-4.935,1.322Zm37.2.017,4.629,7.89L57.9,74.534a1.587,1.587,0,0,0-1.939,1.125l-1.333,4.964-5.875-10.17c.083-.1.165-.183.248-.283.476-.57.947-1.132,1.316-1.541.155-.171.275-.289.375-.387.138,0,.3.034.525.058.542.074,1.258.2,1.986.329s1.465.257,2.124.329a7.539,7.539,0,0,0,.952.052,1.894,1.894,0,0,0,1.178-.288A1.768,1.768,0,0,0,58.206,67.965Z" transform="translate(230.076 1442.004)" fill="#f24b57"/>
  </g>
</svg>
