<svg xmlns="http://www.w3.org/2000/svg" xmlns:xlink="http://www.w3.org/1999/xlink" width="202" height="202" viewBox="0 0 202 202">
  <defs>
    <filter id="Ellipse_852" x="0" y="0" width="202" height="202" filterUnits="userSpaceOnUse">
      <feOffset dy="3" input="SourceAlpha"/>
      <feGaussianBlur stdDeviation="8" result="blur"/>
      <feFlood flood-opacity="0.11"/>
      <feComposite operator="in" in2="blur"/>
      <feComposite in="SourceGraphic"/>
    </filter>
    <linearGradient id="linear-gradient" x1="0.5" y1="-0.097" x2="0.5" y2="1.41" gradientUnits="objectBoundingBox">
      <stop offset="0" stop-color="#f24b57"/>
      <stop offset="1" stop-color="#ffb623"/>
    </linearGradient>
    <filter id="Path_31467" x="46.817" y="58.477" width="107.51" height="88.288" filterUnits="userSpaceOnUse">
      <feOffset dx="-1" input="SourceAlpha"/>
      <feGaussianBlur stdDeviation="0.5" result="blur-2"/>
      <feFlood flood-opacity="0.161"/>
      <feComposite operator="in" in2="blur-2"/>
      <feComposite in="SourceGraphic"/>
    </filter>
    <linearGradient id="linear-gradient-2" y1="0.5" x2="1" y2="0.5" gradientUnits="objectBoundingBox">
      <stop offset="0" stop-color="#183866"/>
      <stop offset="1" stop-color="#1a7fc1"/>
    </linearGradient>
    <linearGradient id="linear-gradient-3" x1="-0.001" y1="0.5" x2="1" y2="0.5" gradientUnits="objectBoundingBox">
      <stop offset="0"/>
      <stop offset="0.99" stop-opacity="0"/>
    </linearGradient>
    <linearGradient id="linear-gradient-4" x1="0.118" y1="1.039" x2="1.461" y2="-0.217" xlink:href="#linear-gradient-3"/>
    <linearGradient id="linear-gradient-5" x1="3.035" y1="0.435" x2="-4.541" y2="0.629" xlink:href="#linear-gradient-3"/>
    <linearGradient id="linear-gradient-6" x1="0.98" y1="0.104" x2="-0.5" y2="1.924" xlink:href="#linear-gradient-3"/>
    <linearGradient id="linear-gradient-7" x1="1.141" y1="0.298" x2="-0.843" y2="0.925" xlink:href="#linear-gradient-3"/>
    <linearGradient id="linear-gradient-8" x1="1.015" y1="0.887" x2="-0.067" y2="0.289" xlink:href="#linear-gradient-3"/>
    <linearGradient id="linear-gradient-9" x1="0.964" y1="0.449" x2="-0.477" y2="0.596" xlink:href="#linear-gradient-3"/>
    <linearGradient id="linear-gradient-10" x1="0" y1="0.5" x2="1" y2="0.5" xlink:href="#linear-gradient-2"/>
    <linearGradient id="linear-gradient-11" x1="0.497" y1="0.073" x2="0.509" y2="0.654" gradientUnits="objectBoundingBox">
      <stop offset="0" stop-color="#68e1fd"/>
      <stop offset="0.2" stop-color="#5db4cf"/>
      <stop offset="0.46" stop-color="#50819b"/>
      <stop offset="0.69" stop-color="#475c76"/>
      <stop offset="0.87" stop-color="#41455e"/>
      <stop offset="0.99" stop-color="#3f3d56"/>
    </linearGradient>
    <linearGradient id="linear-gradient-12" x1="0.452" y1="-0.66" x2="0.542" y2="1.355" xlink:href="#linear-gradient-11"/>
    <linearGradient id="linear-gradient-13" x1="0.504" y1="-0.343" x2="0.498" y2="1.383" xlink:href="#linear-gradient-11"/>
    <linearGradient id="linear-gradient-14" x1="1.175" y1="0.432" x2="0.287" y2="0.498" xlink:href="#linear-gradient-3"/>
    <linearGradient id="linear-gradient-15" x1="1.116" y1="0.419" x2="0.545" y2="0.474" xlink:href="#linear-gradient-3"/>
    <linearGradient id="linear-gradient-16" x1="0.57" y1="-1.373" x2="0.281" y2="6.356" xlink:href="#linear-gradient-3"/>
    <linearGradient id="linear-gradient-17" x1="0.028" y1="1.449" x2="0.657" y2="0.244" gradientUnits="objectBoundingBox">
      <stop offset="0" stop-color="#3076a1"/>
      <stop offset="1" stop-color="#639c38"/>
    </linearGradient>
    <filter id="Path_31317">
      <feOffset dy="3" input="SourceAlpha"/>
      <feGaussianBlur stdDeviation="3" result="blur-3"/>
      <feFlood flood-opacity="0.302" result="color"/>
      <feComposite operator="out" in="SourceGraphic" in2="blur-3"/>
      <feComposite operator="in" in="color"/>
      <feComposite operator="in" in2="SourceGraphic"/>
    </filter>
    <filter id="Path_31318">
      <feOffset dy="3" input="SourceAlpha"/>
      <feGaussianBlur stdDeviation="3" result="blur-4"/>
      <feFlood flood-opacity="0.302" result="color-2"/>
      <feComposite operator="out" in="SourceGraphic" in2="blur-4"/>
      <feComposite operator="in" in="color-2"/>
      <feComposite operator="in" in2="SourceGraphic"/>
    </filter>
    <linearGradient id="linear-gradient-19" x1="0.947" y1="0.996" x2="0.249" y2="-0.009" xlink:href="#linear-gradient-3"/>
    <linearGradient id="linear-gradient-20" x1="2.912" y1="1.21" x2="-0.262" y2="0.178" xlink:href="#linear-gradient-3"/>
    <linearGradient id="linear-gradient-21" x1="-0.021" y1="1.05" x2="0.678" y2="0.205" xlink:href="#linear-gradient-3"/>
    <filter id="Path_31334" x="115.697" y="68.146" width="36.443" height="28.181" filterUnits="userSpaceOnUse">
      <feOffset dx="-1" input="SourceAlpha"/>
      <feGaussianBlur stdDeviation="0.5" result="blur-5"/>
      <feFlood flood-opacity="0.161"/>
      <feComposite operator="in" in2="blur-5"/>
      <feComposite in="SourceGraphic"/>
    </filter>
    <linearGradient id="linear-gradient-24" x1="4.363" y1="1.285" x2="-2.323" y2="-0.041" xlink:href="#linear-gradient-3"/>
    <linearGradient id="linear-gradient-25" x1="1.083" y1="0.285" x2="-0.083" y2="0.716" xlink:href="#linear-gradient-3"/>
  </defs>
  <g id="Group_28306" data-name="Group 28306" transform="translate(-317 -1350)">
    <g transform="matrix(1, 0, 0, 1, 317, 1350)" filter="url(#Ellipse_852)">
      <circle id="Ellipse_852-2" data-name="Ellipse 852" cx="77" cy="77" r="77" transform="translate(24 21)" fill="#fff"/>
    </g>
    <g id="Group_28302" data-name="Group 28302">
      <g transform="matrix(1, 0, 0, 1, 317, 1350)" filter="url(#Path_31467)">
        <path id="Path_31467-2" data-name="Path 31467" d="M115.574,48.678c-5.755,3.386-12.264,5.215-18.674,7.094S84,59.628,78.405,63.266,68.113,72.456,67.022,79.045c-.4,2.43-.31,4.946-1.007,7.309-1.356,4.6-5.437,7.893-7.439,12.252-2.785,6.029-1.131,13.394,2.681,18.832,5,7.12,13.253,11.455,21.758,13.285s17.324,1.395,25.988.6c9.682-.9,19.471-2.278,28.4-6.137s17.017-10.479,20.816-19.432c2.5-5.889,4.211-12.49,3.159-18.8C153.189,37.881,119.222,46.533,115.574,48.678Z" transform="translate(-7.87 13.26)" opacity="0.11" fill="url(#linear-gradient)"/>
      </g>
      <g id="Group_28295" data-name="Group 28295" transform="translate(366.761 1404.544)">
        <path id="Path_31289" data-name="Path 31289" d="M294.516,239.2s-3.563-.627-4.561,1.843,0,11,0,11l13.294,9.412Z" transform="translate(-256.397 -202.893)" fill="#3f3d56"/>
        <path id="Path_31290" data-name="Path 31290" d="M400.705,490.792l-5.157,1.527a1.418,1.418,0,0,1-1.758-.956h0a1.418,1.418,0,0,1,.956-1.758l5.155-1.526a1.418,1.418,0,0,1,1.758.954h0A1.418,1.418,0,0,1,400.705,490.792Z" transform="translate(-345.842 -416.496)" fill="#68e1fd"/>
        <circle id="Ellipse_856" data-name="Ellipse 856" cx="2.376" cy="2.376" r="2.376" transform="translate(51.723 79.333) rotate(-76.8)" fill="#25233a"/>
        <circle id="Ellipse_857" data-name="Ellipse 857" cx="1.188" cy="1.188" r="1.188" transform="translate(52.962 76.59)" fill="#3f3d56"/>
        <circle id="Ellipse_858" data-name="Ellipse 858" cx="2.376" cy="2.376" r="2.376" transform="translate(41.692 75.214) rotate(-45)" fill="#25233a"/>
        <path id="Path_31291" data-name="Path 31291" d="M364.7,508.348a1.188,1.188,0,1,1-1.188-1.188A1.188,1.188,0,0,1,364.7,508.348Z" transform="translate(-318.883 -432.92)" fill="url(#linear-gradient-2)"/>
        <circle id="Ellipse_859" data-name="Ellipse 859" cx="2.376" cy="2.376" r="2.376" transform="translate(41.988 76.087)" fill="#25233a"/>
        <path id="Path_31292" data-name="Path 31292" d="M367.716,530.318a1.188,1.188,0,1,1-1.188-1.188A1.188,1.188,0,0,1,367.716,530.318Z" transform="translate(-321.475 -451.775)" fill="#3f3d56"/>
        <path id="Path_31293" data-name="Path 31293" d="M371.625,493.77l-10.868-2.193a1.418,1.418,0,0,1-1.106-1.667h0a1.418,1.418,0,0,1,1.666-1.106L372.185,491a1.418,1.418,0,0,1,1.106,1.667h0A1.418,1.418,0,0,1,371.625,493.77Z" transform="translate(-316.569 -417.143)" fill="#0090c6"/>
        <path id="Path_31294" data-name="Path 31294" d="M341.07,403.17h2.968v12.5a1.483,1.483,0,0,1-1.483,1.483h0a1.483,1.483,0,0,1-1.483-1.483v-12.5Z" transform="translate(-292.713 -343.617)" fill="#0090c6"/>
        <path id="Path_31295" data-name="Path 31295" d="M362.325,501.459l-5.155,1.53a1.418,1.418,0,0,1-1.76-.956h0a1.418,1.418,0,0,1,.956-1.758l5.155-1.526a1.418,1.418,0,0,1,1.758.954h0A1.418,1.418,0,0,1,362.325,501.459Z" transform="translate(-312.903 -425.653)" fill="#0090c6"/>
        <path id="Path_31296" data-name="Path 31296" d="M403.959,516.659l-.567.169a1.4,1.4,0,0,1-.522.052l.237-.069a1.394,1.394,0,0,0,.455-.231Z" transform="translate(-353.683 -441.005)" fill="url(#linear-gradient-3)"/>
        <path id="Path_31297" data-name="Path 31297" d="M420.829,489.451a1.409,1.409,0,0,1-.32.893L416,489.433a1.462,1.462,0,0,0,.241-.516l2.778-.822a1.418,1.418,0,0,1,1.811,1.357Z" transform="translate(-364.952 -416.51)" fill="url(#linear-gradient-4)"/>
        <path id="Path_31298" data-name="Path 31298" d="M397.058,416.416a1.471,1.471,0,0,1-.038-.337v-12.5h1.031v13.47a.5.5,0,0,0,.01.2,1.341,1.341,0,0,0-.493-.109,2.617,2.617,0,0,0-.36,0l.074-.021A6.59,6.59,0,0,0,397.058,416.416Z" transform="translate(-348.663 -344.027)" opacity="0.31" fill="url(#linear-gradient-5)"/>
        <path id="Path_31299" data-name="Path 31299" d="M369.264,505.945a1.4,1.4,0,0,1-.676.174,1.475,1.475,0,0,1-.284-.028l-4.781-.966-.4-.079a1.394,1.394,0,0,1-.455.231l-.237.069-4.913,1.46a1.418,1.418,0,0,1-1.76-.956,1.212,1.212,0,0,0,1.541.088,22.285,22.285,0,0,1,4.34-1.371,1.663,1.663,0,0,0,1.248-1.314.95.95,0,0,1,.017-.113,3.111,3.111,0,0,0,1.388.75,36.347,36.347,0,0,0,4.836.943A.883.883,0,0,1,369.264,505.945Z" transform="translate(-313.253 -429.471)" opacity="0.31" fill="url(#linear-gradient-6)"/>
        <path id="Path_31300" data-name="Path 31300" d="M452.483,519.56a1.373,1.373,0,0,1-.353.376C452.225,519.838,452.347,519.708,452.483,519.56Z" transform="translate(-395.959 -443.562)" fill="url(#linear-gradient-7)"/>
        <path id="Path_31301" data-name="Path 31301" d="M365.116,489.484a1.479,1.479,0,0,0,.357.672c-.044.008-.089.02-.135.033l-4.469,1.323a1.418,1.418,0,0,1,.318-2.792,1.477,1.477,0,0,1,.284.028Z" transform="translate(-316.721 -417.095)" fill="url(#linear-gradient-8)"/>
        <path id="Path_31302" data-name="Path 31302" d="M399.81,498.85" transform="translate(-351.057 -425.789)" fill="#fff"/>
        <path id="Path_31303" data-name="Path 31303" d="M399.81,498.85" transform="translate(-351.057 -425.789)" fill="#fff"/>
        <path id="Path_31304" data-name="Path 31304" d="M399.81,498.85" transform="translate(-351.057 -425.789)" fill="#fff"/>
        <path id="Path_31305" data-name="Path 31305" d="M360.587,39.491s-.058-4.407-3.59-4.027-3.261-1.079-4.77-.919-3.261,1.649-2.758,3.488-1.331,2.25-2.537,3.645.284,2.537,2.314,3.9-.126,1.011,1.078,3.168,5.279-.6,5.279-.6Z" transform="translate(-305.306 -27.306)" fill="#3f3d56"/>
        <path id="Path_31306" data-name="Path 31306" d="M235.337,373.008l2.505.085V353.085s.126-5.174,5.009-5.693,49.169-6.929,49.169-6.929,1.755-.186,2.763,3.176,1.995,16.6,1.995,16.6l13.6,1.829s.359-23.375-4.55-24.664-69.1,5.284-69.1,5.284S231.962,367.522,235.337,373.008Z" transform="translate(-208.867 -287.092)" fill="#68e1fd"/>
        <path id="Path_31307" data-name="Path 31307" d="M235.337,373.008l2.505.085V353.085s.126-5.174,5.009-5.693,49.169-6.929,49.169-6.929,1.755-.186,2.763,3.176,1.995,16.6,1.995,16.6l13.6,1.829s.359-23.375-4.55-24.664-69.1,5.284-69.1,5.284S231.962,367.522,235.337,373.008Z" transform="translate(-208.867 -287.092)" fill="url(#linear-gradient-9)"/>
        <path id="Path_31308" data-name="Path 31308" d="M149.42,298.74s1.228-6.794,9.864-8.575l60.956-6.984s5.985-.248,8.723,1.409,6.646,3.031,8.248,10.532,1.985,20.314,1.985,20.314l-1.514.23s-2.206-23.2-4.55-24.664-65.712,7.543-65.712,7.543-4.4.875-4.778,7.389,0,20.67,0,20.67l-13.22-5.338Z" transform="translate(-136.169 -240.687)" fill="#40acd5"/>
        <path id="Path_31309" data-name="Path 31309" d="M358.386,297.975a57.01,57.01,0,0,0-9.514-.588c-2.389.094-4.763.425-7.132.756l-20.9,2.922a1.2,1.2,0,0,0-.936.442c-.34.6.459,1.183,1.107,1.409,6.948,2.436,14.37,4.9,21.522,3.166,3.27-.794,6.307-2.443,9.623-3.016s6.721-.045,10.03-.586c3.111-.508,6.073-1.95,9.226-1.964a9.044,9.044,0,0,0,2.88-.181,1.988,1.988,0,0,0,1.475-2.175c-2.96-.1-6.284-.651-9.188-.057C363.71,298.691,361.264,297.975,358.386,297.975Z" transform="translate(-282.415 -252.867)" opacity="0.19" fill="url(#linear-gradient-10)"/>
        <path id="Path_31310" data-name="Path 31310" d="M458.5,315.629l.122.466s3.61,2.245,3.587,2.317,14.974-3.583,14.974-3.583l.349-1.049Z" transform="translate(-401.426 -266.959)" fill="url(#linear-gradient-11)"/>
        <path id="Path_31311" data-name="Path 31311" d="M404.93,308.413l13.193-2.973,5.5,1.124-14.988,3.77Z" transform="translate(-347.518 -259.744)" fill="url(#linear-gradient-12)"/>
        <path id="Path_31312" data-name="Path 31312" d="M425.254,329.173l3.132.1s.8.047,1-.557-1.269-1.879-1.435-1.9-4.281,1.07-3.686,2.165Z" transform="translate(-371.995 -278.148)" fill="url(#linear-gradient-13)"/>
        <path id="Path_31313" data-name="Path 31313" d="M110.907,559.653l-1.524,4.628a12.281,12.281,0,0,1-8.18,0l-1.093-4.851A20.121,20.121,0,0,0,110.907,559.653Z" transform="translate(-93.851 -477.779)" fill="#0090c6"/>
        <path id="Path_31314" data-name="Path 31314" d="M110.907,559.653l-1.524,4.628a12.281,12.281,0,0,1-8.18,0l-1.093-4.851A20.121,20.121,0,0,0,110.907,559.653Z" transform="translate(-93.851 -477.779)" fill="url(#linear-gradient-14)"/>
        <path id="Path_31315" data-name="Path 31315" d="M104.191,530.61l-.489,3.659-1.239.649a20.144,20.144,0,0,1-10.8-.223l-.951-.709-.444-3.377Z" transform="translate(-85.406 -453.046)" fill="#0090c6"/>
        <path id="Path_31316" data-name="Path 31316" d="M104.191,530.61l-.489,3.659-1.239.649a20.144,20.144,0,0,1-10.8-.223l-.951-.709-.444-3.377Z" transform="translate(-85.406 -453.046)" fill="url(#linear-gradient-15)"/>
        <ellipse id="Ellipse_860" data-name="Ellipse 860" cx="6.959" cy="1.252" rx="6.959" ry="1.252" transform="translate(4.864 76.312)" fill="#68e1fd"/>
        <ellipse id="Ellipse_861" data-name="Ellipse 861" cx="6.959" cy="1.252" rx="6.959" ry="1.252" transform="translate(4.864 76.312)" fill="url(#linear-gradient-16)"/>
        <g data-type="innerShadowGroup">
          <path id="Path_31317-2" data-name="Path 31317" d="M64.477,280.565a9.8,9.8,0,0,1-2.009-1.039c-1.191-.96-1.493-2.613-1.866-4.1s-1.093-3.119-2.565-3.545a1.7,1.7,0,0,0-1.614.3,1.825,1.825,0,0,0-.41,1.69,10.128,10.128,0,0,0,.641,1.7,7.824,7.824,0,0,1,.466,4.156,8.645,8.645,0,0,0-.345,3.443c.483,1.913,2.892,3.034,2.959,5.005.045,1.33-1.049,2.561-.8,3.869.183.968,1.075,1.724,1.123,2.708.054,1.116-1,2.06-.95,3.176S60.273,299.8,61,300.668a4.561,4.561,0,0,1,1.036,2.6,6.735,6.735,0,0,0,.156,1.777,6.457,6.457,0,0,0,.645,1.134,11.357,11.357,0,0,0,.717,1.207,2.952,2.952,0,0,0,3.162.993,41.274,41.274,0,0,0,.091-4.495c.123-2.9,1.222-5.83.519-8.649a19.824,19.824,0,0,1-.842-3.075,10.669,10.669,0,0,1,.35-2.82,22.588,22.588,0,0,0,.208-5.876C66.926,281.922,65.837,281.209,64.477,280.565Z" transform="translate(-55.965 -230.936)" fill="url(#linear-gradient-17)"/>
          <g transform="matrix(1, 0, 0, 1, -49.76, -54.54)" filter="url(#Path_31317)">
            <path id="Path_31317-3" data-name="Path 31317" d="M64.477,280.565a9.8,9.8,0,0,1-2.009-1.039c-1.191-.96-1.493-2.613-1.866-4.1s-1.093-3.119-2.565-3.545a1.7,1.7,0,0,0-1.614.3,1.825,1.825,0,0,0-.41,1.69,10.128,10.128,0,0,0,.641,1.7,7.824,7.824,0,0,1,.466,4.156,8.645,8.645,0,0,0-.345,3.443c.483,1.913,2.892,3.034,2.959,5.005.045,1.33-1.049,2.561-.8,3.869.183.968,1.075,1.724,1.123,2.708.054,1.116-1,2.06-.95,3.176S60.273,299.8,61,300.668a4.561,4.561,0,0,1,1.036,2.6,6.735,6.735,0,0,0,.156,1.777,6.457,6.457,0,0,0,.645,1.134,11.357,11.357,0,0,0,.717,1.207,2.952,2.952,0,0,0,3.162.993,41.274,41.274,0,0,0,.091-4.495c.123-2.9,1.222-5.83.519-8.649a19.824,19.824,0,0,1-.842-3.075,10.669,10.669,0,0,1,.35-2.82,22.588,22.588,0,0,0,.208-5.876C66.926,281.922,65.837,281.209,64.477,280.565Z" transform="translate(-6.2 -176.39)" fill="#fff"/>
          </g>
        </g>
        <g data-type="innerShadowGroup">
          <path id="Path_31318-2" data-name="Path 31318" d="M132.746,291.831c-.011,1.295.284,2.633-.13,3.862-.313.932-1,1.694-1.358,2.61-.821,2.114.284,4.485.058,6.742a24.1,24.1,0,0,1-.614,2.736,10.961,10.961,0,0,0-.189,3.521.889.889,0,0,0,.7.927,11.077,11.077,0,0,0,2.148.58,5.7,5.7,0,0,1,.734-3.977c1.124-1.843,3.309-3.085,3.716-5.2.275-1.433-.366-2.888-.32-4.347a4.669,4.669,0,0,1,.956-2.68c.529-.689,1.245-1.222,1.737-1.937,1.182-1.723.814-4.025.462-6.085s-.556-4.431.834-5.992c.44-.493,1.012-.864,1.411-1.391a3.208,3.208,0,0,0-.369-4.037,4.052,4.052,0,0,0-4.1-.879,2.954,2.954,0,0,0-1.494,1.017c-.709,1.007-.425,2.382-.125,3.579a5.922,5.922,0,0,1,.115,3.287,4.679,4.679,0,0,1-1.524,1.745A8.314,8.314,0,0,0,132.746,291.831Z" transform="translate(-119.888 -234.596)" fill="url(#linear-gradient-17)"/>
          <g transform="matrix(1, 0, 0, 1, -49.76, -54.54)" filter="url(#Path_31318)">
            <path id="Path_31318-3" data-name="Path 31318" d="M132.746,291.831c-.011,1.295.284,2.633-.13,3.862-.313.932-1,1.694-1.358,2.61-.821,2.114.284,4.485.058,6.742a24.1,24.1,0,0,1-.614,2.736,10.961,10.961,0,0,0-.189,3.521.889.889,0,0,0,.7.927,11.077,11.077,0,0,0,2.148.58,5.7,5.7,0,0,1,.734-3.977c1.124-1.843,3.309-3.085,3.716-5.2.275-1.433-.366-2.888-.32-4.347a4.669,4.669,0,0,1,.956-2.68c.529-.689,1.245-1.222,1.737-1.937,1.182-1.723.814-4.025.462-6.085s-.556-4.431.834-5.992c.44-.493,1.012-.864,1.411-1.391a3.208,3.208,0,0,0-.369-4.037,4.052,4.052,0,0,0-4.1-.879,2.954,2.954,0,0,0-1.494,1.017c-.709,1.007-.425,2.382-.125,3.579a5.922,5.922,0,0,1,.115,3.287,4.679,4.679,0,0,1-1.524,1.745A8.314,8.314,0,0,0,132.746,291.831Z" transform="translate(-70.13 -180.05)" fill="#fff"/>
          </g>
        </g>
        <path id="Path_31319" data-name="Path 31319" d="M67.375,299.581c-.2,1.407-.492,2.824-.552,4.235v.142a.372.372,0,0,1-.024.1,10.96,10.96,0,0,0-.189,3.521,1.321,1.321,0,0,0,.15.552c-.007.06-.016.118-.024.177a2.952,2.952,0,0,1-3.162-.993,13,13,0,0,1-.717-1.207,6.127,6.127,0,0,1-.645-1.134,6.746,6.746,0,0,1-.156-1.777,4.561,4.561,0,0,0-1.036-2.6c-.727-.872-1.843-1.6-1.893-2.738s1-2.06.95-3.176c-.048-.984-.94-1.74-1.123-2.708-.248-1.309.851-2.539.8-3.869-.067-1.971-2.476-3.092-2.959-5.005a8.671,8.671,0,0,1,.345-3.443,7.824,7.824,0,0,0-.466-4.156,9.946,9.946,0,0,1-.641-1.7,1.82,1.82,0,0,1,.41-1.69,1.7,1.7,0,0,1,1.614-.3c1.472.425,2.191,2.062,2.565,3.545s.675,3.136,1.866,4.1A9.6,9.6,0,0,0,64.5,280.5c1.361.644,2.45,1.357,2.566,2.891a22.9,22.9,0,0,1-.208,5.876,10.787,10.787,0,0,0-.35,2.82,14.067,14.067,0,0,0,.757,2.762c.03.1.06.208.085.313A11.52,11.52,0,0,1,67.375,299.581Z" transform="translate(-55.982 -230.876)" fill="url(#linear-gradient-19)"/>
        <path id="Path_31320" data-name="Path 31320" d="M130.7,503.184a1.322,1.322,0,0,1-.15-.552,10.96,10.96,0,0,1,.189-3.521c.007-.034.016-.068.024-.1C130.716,500.4,130.878,501.806,130.7,503.184Z" transform="translate(-119.923 -425.926)" fill="url(#linear-gradient-20)"/>
        <path id="Path_31321" data-name="Path 31321" d="M142.921,281.2c-.4.527-.971.9-1.411,1.391-1.389,1.56-1.185,3.932-.834,5.992s.72,4.363-.462,6.085c-.492.709-1.208,1.248-1.737,1.937a4.669,4.669,0,0,0-.956,2.68c-.045,1.459.6,2.914.32,4.347-.407,2.117-2.592,3.362-3.716,5.2a5.7,5.7,0,0,0-.729,3.977,11.076,11.076,0,0,1-2.142-.58,1.148,1.148,0,0,1-.5-.3.537.537,0,0,1-.052-.074,1.321,1.321,0,0,1-.15-.552,10.96,10.96,0,0,1,.189-3.521c.007-.034.016-.068.024-.1a21.724,21.724,0,0,0,.59-2.634,8.451,8.451,0,0,0-.034-1.744,11.384,11.384,0,0,0-.033-4.414c-.026-.1-.055-.21-.085-.313.027-.091.058-.181.094-.271.356-.916,1.045-1.679,1.358-2.61.413-1.229.119-2.568.13-3.862a8.334,8.334,0,0,1,2.646-5.921,4.679,4.679,0,0,0,1.524-1.745,5.974,5.974,0,0,0-.115-3.287c-.3-1.2-.588-2.572.125-3.579a2.931,2.931,0,0,1,1.494-1.017,4.054,4.054,0,0,1,4.1.879A3.21,3.21,0,0,1,142.921,281.2Z" transform="translate(-119.923 -234.596)" fill="url(#linear-gradient-21)"/>
        <path id="Path_31322" data-name="Path 31322" d="M505.11-16.44" transform="translate(-441.427 16.44)" fill="none" stroke="#6c62ff" stroke-miterlimit="10" stroke-width="1.86"/>
        <path id="Path_31323" data-name="Path 31323" d="M332.375,152.619a12.257,12.257,0,0,0-8.724,7.415c-2.759,6.5-1.324,14.573-1.276,15.275s8.455,3.784,10.858,3.784a3.026,3.026,0,0,0,2.9-2.379l-4.247-1.788,12.9-1.473h2.317l-1.276,2.12s2.518.261,4.2.32,2.826-3.231,3.014-4.868-7.434-15.985-8.572-16.849S340.241,151.255,332.375,152.619Z" transform="translate(-284.245 -128.259)" fill="#0090c6"/>
        <path id="Path_31324" data-name="Path 31324" d="M399.586,62.045a2.651,2.651,0,0,1,.961,2.552c-.095,1.95-.69,4.883-1.292,5.643s-2.7,1.058-2.7,1.058a13.509,13.509,0,0,0,2,3.477c.854.713-.858,3.34-2.522,2.478a16.362,16.362,0,0,1-3.594-3.033s1.388-2.607.919-3.98-2.269-6.183-.919-7.5S396.674,59.54,399.586,62.045Z" transform="translate(-344.306 -49.86)" fill="#f5ab86"/>
        <path id="Path_31325" data-name="Path 31325" d="M316.784,221.03,315.85,232.5l2.857,1.473,2.325-.4-2.9-3.5Z" transform="translate(-271.069 -187.302)" fill="#fff" opacity="0.25"/>
        <path id="Path_31326" data-name="Path 31326" d="M484.66,217.36s3.736,8.891,2.08,12.045l-1.276-.245Z" transform="translate(-423.877 -184.21)" fill="#fff" opacity="0.25"/>
        <path id="Path_31327" data-name="Path 31327" d="M405.229,316.955s-1.426,1.276-.79,2.269a1.3,1.3,0,0,0,2.03.52c.634-.444,1.879-1.5,3.362-1.014a6.369,6.369,0,0,1,1.843.791s.781-.512.578-1.025a9.387,9.387,0,0,0-2.2-2.4c-.449-.221-2.315.447-2.315.447A3.245,3.245,0,0,0,405.229,316.955Z" transform="translate(-354.89 -268.91)" fill="#f5ab86"/>
        <path id="Path_31328" data-name="Path 31328" d="M489.2,303.534s-1.358.156-1.7,1.018a3.444,3.444,0,0,1-.466.967s.767.142,1.086-.259a.533.533,0,0,1,.651-.233l-.095.515a9.108,9.108,0,0,0,3.026-.023,3.964,3.964,0,0,0,1.346-.709l.369-.871a4.722,4.722,0,0,0-1.56-.719A13.227,13.227,0,0,0,489.2,303.534Z" transform="translate(-425.911 -257.885)" fill="#f5ab86"/>
        <path id="Path_31329" data-name="Path 31329" d="M485.965,373.13s4.626,3.522,4.215,8.286-1.015,11.838-1.015,11.838-1.866.785-3.1,0-1.985-11.534-2.6-12.561-4.3-5.654-8.235-6.053Z" transform="translate(-415.784 -317.894)" fill="#25233a"/>
        <path id="Path_31330" data-name="Path 31330" d="M386.4,384.767a12.579,12.579,0,0,0,6.206,2.795c3.976.668,5.829,1.225,7.044,4.643s2.381,10.776,2.762,11.6,2,.4,2,.4.917-1.052.917-6.9c0-8.156.567-9.827-1.476-11.876a10.424,10.424,0,0,0-3.9-2.607Z" transform="translate(-339.549 -326.21)" fill="#3f3d56"/>
        <path id="Path_31331" data-name="Path 31331" d="M499.33,530.81l.379,2.985h.709s4.566.25,4.709.142-.22-2.364-1.95-2.3-1.843-.425-1.843-.425Z" transform="translate(-436.467 -453.217)" fill="#25233a"/>
        <path id="Path_31332" data-name="Path 31332" d="M555.57,515.305l.737,2.938,8.056-1.106s.284-1.93-2.269-1.738c-.673.05-1.175.523-1.985.527a2.511,2.511,0,0,1-1.993-.866h0Z" transform="translate(-484.733 -439.7)" fill="#25233a"/>
        <path id="Path_31333" data-name="Path 31333" d="M560.6,113.613l-30.494,1.633a1.337,1.337,0,0,1-1.408-1.334V92.3a1.608,1.608,0,0,1,1.576-1.608l30.369-.627a1.469,1.469,0,0,1,1.5,1.469v20.45A1.629,1.629,0,0,1,560.6,113.613Z" transform="translate(-461.672 -74.966)" fill="url(#linear-gradient)"/>
        <g transform="matrix(1, 0, 0, 1, -49.76, -54.54)" filter="url(#Path_31334)">
          <path id="Path_31334-2" data-name="Path 31334" d="M570.531,113.613l-30.494,1.633a1.337,1.337,0,0,1-1.406-1.334V92.3a1.606,1.606,0,0,1,1.574-1.608l30.369-.627a1.469,1.469,0,0,1,1.5,1.469v20.45A1.63,1.63,0,0,1,570.531,113.613Z" transform="translate(-420.43 -20.42)" fill="url(#linear-gradient)"/>
        </g>
        <path id="Path_31336" data-name="Path 31336" d="M640.6,213.943l-7.743.825s-2.358-.476-2.23-.825,2.59-.685,2.59-.685V199.2h0a2.386,2.386,0,0,0-1.235-.709h0a4.649,4.649,0,0,0-.525-.122,1.532,1.532,0,0,1-.44-.133c-.529-.274.055-.75.876-.771a2.1,2.1,0,0,1,.384.023h5.955s2.254.635,2.364,3.806S640.6,213.943,640.6,213.943Z" transform="translate(-549.146 -167.134)" fill="#ffb623"/>
        <path id="Path_31337" data-name="Path 31337" d="M634.276,213.98l-1.446.8s-2.358-.476-2.23-.825,2.59-.685,2.59-.685v-14.06h0a3.237,3.237,0,0,0-1.235-.709h0a6.174,6.174,0,0,0-.964-.255c-.529-.274.055-.75.876-.771.7.1,2.076.861,2.165,1.3S634.276,213.98,634.276,213.98Z" transform="translate(-549.12 -167.14)" fill="#ffb623"/>
        <path id="Path_31338" data-name="Path 31338" d="M634.276,213.98l-1.446.8s-2.358-.476-2.23-.825,2.59-.685,2.59-.685v-14.06h0a3.237,3.237,0,0,0-1.235-.709h0a6.174,6.174,0,0,0-.964-.255c-.529-.274.055-.75.876-.771.7.1,2.076.861,2.165,1.3S634.276,213.98,634.276,213.98Z" transform="translate(-549.12 -167.14)" fill="url(#linear-gradient-24)"/>
        <path id="Path_31339" data-name="Path 31339" d="M450.893,522.21c-.18.184-.264.252-.157.1A1.126,1.126,0,0,0,450.893,522.21Z" transform="translate(-394.722 -445.837)" fill="url(#linear-gradient-25)"/>
      </g>
    </g>
  </g>
</svg>
