<svg xmlns="http://www.w3.org/2000/svg" xmlns:xlink="http://www.w3.org/1999/xlink" width="385" height="267" viewBox="0 0 385 267">
  <defs>
    <filter id="Rectangle_344" x="0" y="0" width="385" height="267" filterUnits="userSpaceOnUse">
      <feOffset dy="3" input="SourceAlpha"/>
      <feGaussianBlur stdDeviation="28" result="blur"/>
      <feFlood flood-opacity="0.082"/>
      <feComposite operator="in" in2="blur"/>
      <feComposite in="SourceGraphic"/>
    </filter>
  </defs>
  <g id="Group_26250" data-name="Group 26250" transform="translate(-126 -1659)">
    <g transform="matrix(1, 0, 0, 1, 126, 1659)" filter="url(#Rectangle_344)">
      <rect id="Rectangle_344-2" data-name="Rectangle 344" width="217" height="99" rx="26" transform="translate(84 81)" fill="#fff"/>
    </g>
    <g id="reactjs-ar21" transform="translate(241.506 1752.983)">
      <g id="Group_26241" data-name="Group 26241" transform="translate(12.494 18.017)">
        <circle id="Ellipse_700" data-name="Ellipse 700" cx="3.801" cy="3.801" r="3.801" transform="translate(16.574 14.189)" fill="#00d8ff"/>
        <g id="Group_26240" data-name="Group 26240" transform="translate(0 0)">
          <path id="Path_23784" data-name="Path 23784" d="M20.419,9.4a42.649,42.649,0,0,1,13.42,1.963c4.307,1.483,6.955,3.73,6.955,5.766,0,2.121-2.807,4.509-7.432,6.041a42.825,42.825,0,0,1-12.943,1.763A42.686,42.686,0,0,1,7.212,23.153C2.738,21.624.043,19.205.043,17.125c0-2.019,2.528-4.249,6.775-5.73a43.022,43.022,0,0,1,13.6-2Z" transform="translate(-0.043 0.865)" fill="none" stroke="#00d8ff" stroke-width="2" fill-rule="evenodd"/>
          <path id="Path_23785" data-name="Path 23785" d="M12.986,14.162a42.65,42.65,0,0,1,8.4-10.644C24.827.527,28.1-.644,29.86.373c1.837,1.06,2.5,4.684,1.521,9.456a42.8,42.8,0,0,1-4.938,12.093,42.674,42.674,0,0,1-8.136,10.553c-3.56,3.112-7,4.238-8.8,3.2-1.749-1.008-2.418-4.313-1.579-8.731a43.038,43.038,0,0,1,5.062-12.78Z" transform="translate(0.662 -0.014)" fill="none" stroke="#00d8ff" stroke-width="2" fill-rule="evenodd"/>
          <path id="Path_23786" data-name="Path 23786" d="M12.991,21.93a42.662,42.662,0,0,1-5.024-12.6C7.092,4.862,7.711,1.444,9.472.424c1.835-1.063,5.308.17,8.952,3.405a42.822,42.822,0,0,1,8.011,10.318,42.677,42.677,0,0,1,5.079,12.319c.918,4.638.175,8.182-1.626,9.224-1.747,1.011-4.944-.059-8.353-2.993A43.025,43.025,0,0,1,12.991,21.93Z" transform="translate(0.663 -0.01)" fill="none" stroke="#00d8ff" stroke-width="2" fill-rule="evenodd"/>
        </g>
      </g>
      <path id="Path_23787" data-name="Path 23787" d="M68.372,44.022l-5.656-8.545A5.793,5.793,0,0,0,68.15,29.37c0-3.85-2.732-6.314-6.565-6.314H53.168v20.95h2.607V35.682h4.178l5.34,8.324Zm-7.1-10.617h-5.5V25.4h5.5a4.01,4.01,0,1,1,0,8.012ZM78.079,44.4a8.244,8.244,0,0,0,6.031-2.323l-1.131-1.54A6.632,6.632,0,0,1,78.3,42.45a5.346,5.346,0,0,1-5.466-5.244H85.114v-.6c0-4.554-2.7-8.136-7.289-8.136-4.335,0-7.475,3.55-7.475,7.947,0,4.744,3.235,7.966,7.727,7.966Zm4.713-8.922H72.834A5.062,5.062,0,0,1,77.8,30.418,4.918,4.918,0,0,1,82.792,35.476Zm17.968,8.545V33.592c0-3.675-2.669-5.121-5.874-5.121a7.937,7.937,0,0,0-6.062,2.513l1.1,1.633a6.028,6.028,0,0,1,4.649-2.1c2.2,0,3.833,1.162,3.833,3.2v2.732a6.343,6.343,0,0,0-5.026-2.074c-2.576,0-5.311,1.6-5.311,4.995A5.053,5.053,0,0,0,93.38,44.4a6.563,6.563,0,0,0,5.026-2.1v1.726ZM94.228,42.7c-2.2,0-3.739-1.381-3.739-3.3,0-1.948,1.54-3.33,3.739-3.33a5.081,5.081,0,0,1,4.178,1.885v2.858A5.083,5.083,0,0,1,94.228,42.7Zm17.923,1.7a6.5,6.5,0,0,0,5.56-2.638l-1.571-1.444a4.568,4.568,0,0,1-3.85,1.978c-3.235,0-5.244-2.513-5.244-5.874s2.01-5.842,5.244-5.842a4.463,4.463,0,0,1,3.85,1.978l1.571-1.444a6.492,6.492,0,0,0-5.56-2.638c-4.523,0-7.57,3.456-7.57,7.947,0,4.523,3.047,7.966,7.57,7.966Zm12.692,0a3.861,3.861,0,0,0,2.828-.973l-.69-1.759a2.252,2.252,0,0,1-1.6.628c-1.036,0-1.54-.817-1.54-1.948V30.922h3.08V28.85h-3.08V24.7h-2.357V28.85h-2.513v2.074h2.513V40.85c0,2.262,1.131,3.55,3.362,3.55Z" transform="translate(13.146 2.314)" fill="#00d8ff" fill-rule="evenodd"/>
    </g>
  </g>
</svg>
