<svg xmlns="http://www.w3.org/2000/svg" width="299.2" height="267.178" viewBox="0 0 299.2 267.178">
  <g id="Group_28131" data-name="Group 28131" transform="translate(-1.4 -8.1)">
    <circle id="Ellipse_812" data-name="Ellipse 812" cx="27.243" cy="27.243" r="27.243" transform="translate(123.757 114.445)" fill="#61dafb"/>
    <path id="Path_26351" data-name="Path 26351" d="M254.477,96.761c-5.257-1.912-10.754-3.824-16.489-5.5,1.434-5.735,2.629-11.471,3.585-16.967,5.019-31.545-.478-53.77-15.773-62.373A29.686,29.686,0,0,0,210.505,8.1c-16.728,0-38,12.427-59.505,33.218C129.492,20.527,108.223,8.1,91.495,8.1A29.686,29.686,0,0,0,76.2,11.924C60.905,20.766,55.409,42.991,60.427,74.3c.956,5.5,2.151,11.232,3.585,16.967a166.659,166.659,0,0,0-16.489,5.5C17.65,108.232,1.4,124,1.4,141.688s16.489,33.457,46.123,44.928c5.258,1.912,10.754,3.824,16.489,5.5-1.434,5.735-2.629,11.471-3.585,16.967-5.019,31.545.478,53.77,15.773,62.373a29.687,29.687,0,0,0,15.295,3.824c16.967,0,38.236-12.427,59.505-33.218,21.508,20.791,42.777,33.218,59.505,33.218a29.687,29.687,0,0,0,15.295-3.824c15.295-8.842,20.791-31.067,15.773-62.373-.956-5.5-2.151-11.232-3.585-16.967a166.654,166.654,0,0,0,16.489-5.5c29.872-11.471,46.123-27.243,46.123-44.928S284.349,108.232,254.477,96.761ZM219.109,23.873c9.8,5.735,13.144,23.42,9.081,48.512a143.9,143.9,0,0,1-3.346,15.773,283.916,283.916,0,0,0-39.431-5.974,344.805,344.805,0,0,0-24.854-31.067c17.684-17.445,35.608-29.394,50.185-29.394a16.144,16.144,0,0,1,8.364,2.151ZM192.343,165.586c-4.3,7.647-9.32,15.295-14.578,22.942-8.842.717-17.684.956-26.765.956-9.32,0-18.162-.239-26.765-.956q-7.886-11.471-14.339-22.942c-4.541-7.886-8.842-16.011-12.666-23.9,3.824-7.886,8.125-16.012,12.666-23.9,4.3-7.647,9.32-15.295,14.578-22.942,8.842-.717,17.684-.956,26.766-.956,9.32,0,18.162.239,26.765.956q7.886,11.471,14.339,22.942c4.541,7.886,8.842,16.011,12.666,23.9C200.946,149.575,196.884,157.461,192.343,165.586Zm19.835-7.886c3.585,8.364,6.452,16.489,9.081,24.615-8.125,1.912-16.728,3.346-25.81,4.541,2.868-4.541,5.974-9.32,8.6-14.339,2.868-5.019,5.5-10.037,8.125-14.817ZM151,222.463c-5.735-6.213-11.232-12.9-16.489-19.835,5.5.239,10.993.478,16.489.478s10.993-.239,16.489-.478C162.232,209.558,156.735,216.249,151,222.463Zm-44.45-35.847c-9.081-1.195-17.684-2.629-25.81-4.541,2.629-7.886,5.5-16.25,9.081-24.615,2.629,4.78,5.258,9.8,8.125,14.578,2.868,5.257,5.735,9.8,8.6,14.578ZM89.822,125.677c-3.585-8.364-6.452-16.489-9.081-24.615,8.125-1.912,16.728-3.346,25.81-4.541-2.868,4.541-5.974,9.32-8.6,14.339C95.079,115.879,92.45,120.9,89.822,125.677ZM151,60.914c5.735,6.213,11.232,12.9,16.489,19.835-5.5-.239-10.993-.478-16.489-.478s-10.993.239-16.489.478C139.768,73.819,145.265,67.127,151,60.914ZM204.053,111.1l-8.6-14.339c9.081,1.195,17.684,2.629,25.81,4.541-2.629,7.886-5.5,16.25-9.081,24.615C209.55,120.9,206.921,115.879,204.053,111.1ZM73.81,72.385c-4.063-25.093-.717-42.777,9.081-48.512a16.144,16.144,0,0,1,8.364-2.151c14.339,0,32.262,11.71,50.185,29.394a314.142,314.142,0,0,0-24.854,31.067,324.906,324.906,0,0,0-39.431,5.974c-1.434-5.5-2.39-10.754-3.346-15.773Zm-59.027,69.3c0-11.232,13.622-23.181,37.519-32.023A143.282,143.282,0,0,1,67.6,104.647a348.325,348.325,0,0,0,14.339,37.28A301.136,301.136,0,0,0,67.6,178.969c-32.979-9.559-52.814-23.9-52.814-37.281ZM82.891,259.5c-9.8-5.735-13.144-23.42-9.081-48.512a143.9,143.9,0,0,1,3.346-15.773,283.918,283.918,0,0,0,39.431,5.974,344.806,344.806,0,0,0,24.854,31.067c-17.684,17.445-35.608,29.394-50.185,29.394a16.144,16.144,0,0,1-8.364-2.151Zm145.3-48.512c4.063,25.093.717,42.777-9.081,48.512a16.144,16.144,0,0,1-8.364,2.151c-14.339,0-32.262-11.71-50.185-29.394a314.145,314.145,0,0,0,24.854-31.067,324.9,324.9,0,0,0,39.431-5.974C226.278,200.716,227.234,205.973,228.19,210.992ZM249.7,173.711A143.277,143.277,0,0,1,234.4,178.73a348.327,348.327,0,0,0-14.339-37.28A301.139,301.139,0,0,0,234.4,104.408c32.979,9.559,52.814,23.9,52.814,37.28C287.217,152.92,273.357,164.869,249.7,173.711Z" transform="translate(0)" fill="#61dafb"/>
  </g>
</svg>
