<svg xmlns="http://www.w3.org/2000/svg" width="84" height="84" viewBox="0 0 84 84">
  <g id="Resolution" transform="translate(-783 -1554)">
    <g id="Ellipse_904" data-name="Ellipse 904" transform="translate(783 1554)" fill="#f9f9f9" stroke="#f24b57" stroke-width="3">
      <circle cx="42" cy="42" r="42" stroke="none"/>
      <circle cx="42" cy="42" r="40.5" fill="none"/>
    </g>
    <circle id="Ellipse_907" data-name="Ellipse 907" cx="30" cy="30" r="30" transform="translate(795 1566)" fill="#f24b57"/>
    <g id="Outline" transform="translate(809.532 1579.356)">
      <path id="Path_31531" data-name="Path 31531" d="M23.668,26.01H10.543a.5.5,0,1,0,0,1.01H23.668a.5.5,0,0,0,0-1.01Zm-6.058,6.058H10.543a.5.5,0,0,0,0,1.01h7.067a.5.5,0,0,0,0-1.01Zm-4.039,6.058H10.543a.5.5,0,1,0,0,1.01h3.029a.5.5,0,1,0,0-1.01ZM7.514,25a1.514,1.514,0,1,0,1.514,1.514A1.514,1.514,0,0,0,7.514,25Zm0,2.019a.5.5,0,1,1,.5-.5A.5.5,0,0,1,7.514,27.019Zm0,4.039a1.514,1.514,0,1,0,1.514,1.514A1.514,1.514,0,0,0,7.514,31.058Zm0,2.019a.5.5,0,1,1,.5-.5A.5.5,0,0,1,7.514,33.077Zm0,4.039A1.514,1.514,0,1,0,9.029,38.63,1.514,1.514,0,0,0,7.514,37.116Zm0,2.019a.5.5,0,1,1,.5-.5A.5.5,0,0,1,7.514,39.135Z" transform="translate(-1.981 -11.389)" fill="#f9f9f9"/>
      <path id="Path_31532" data-name="Path 31532" d="M4.524,32.289H21.688a2.527,2.527,0,0,0,2.524-2.524V21.3l6.714-6.714a1.514,1.514,0,0,1-.291,1.719l-4.641,4.641a.5.5,0,1,0,.714.714l4.641-4.64a2.527,2.527,0,0,0,0-3.57l-.357-.357,1.071-1.071a1.514,1.514,0,0,0,0-2.142,1.551,1.551,0,0,0-2.141,0l-1.071,1.071h0a1.01,1.01,0,0,0-1.428,0l-3.21,3.211V7.048a2.527,2.527,0,0,0-2.524-2.524h-.252V3.767a1.767,1.767,0,1,0-3.534,0v.757H14.873V3.767a1.767,1.767,0,0,0-3.534,0v.757H8.31V3.767a1.767,1.767,0,1,0-3.534,0v.757H4.524A2.527,2.527,0,0,0,2,7.048V29.765a2.527,2.527,0,0,0,2.524,2.524Zm14.331-7.058-2.141-2.142,3.926-3.925,2.141,2.141ZM15.648,26.3l.61-2.236,1.625,1.625Zm6.42-8.562,2.144,2.142-.717.714-2.141-2.141ZM30.635,10.6a.516.516,0,0,1,.714,0,.5.5,0,0,1,0,.714L30.278,12.38l-.715-.714Zm-2.5,1.071,2.142,2.142-5.355,5.356-2.142-2.142ZM15.645,22.73a.5.5,0,0,0-.132.227l-.839,3.072a1.01,1.01,0,0,0,1.24,1.24c.768-.211,3.074-.839,3.074-.839a.5.5,0,0,0,.227-.132L23.2,22.31v7.455a1.514,1.514,0,0,1-1.514,1.514H4.524A1.514,1.514,0,0,1,3.01,29.765V11.591H23.2v3.581ZM18.911,3.767a.757.757,0,0,1,1.514,0V5.786a.757.757,0,0,1-1.514,0Zm-6.563,0a.757.757,0,0,1,1.514,0V5.786a.757.757,0,1,1-1.514,0Zm-6.563,0a.757.757,0,1,1,1.514,0V5.786a.757.757,0,1,1-1.514,0ZM4.524,5.534h.252v.252a1.767,1.767,0,0,0,3.534,0V5.534h3.029v.252a1.767,1.767,0,0,0,3.534,0V5.534H17.9v.252a1.767,1.767,0,0,0,3.534,0V5.534h.252A1.514,1.514,0,0,1,23.2,7.048v3.534H3.01V7.048A1.514,1.514,0,0,1,4.524,5.534Z" fill="#f9f9f9"/>
      <ellipse id="Ellipse_911" data-name="Ellipse 911" cx="0.858" cy="0.429" rx="0.858" ry="0.429" transform="translate(12.781 26.578)" fill="#f9f9f9"/>
    </g>
  </g>
</svg>
