<svg xmlns="http://www.w3.org/2000/svg" width="104" height="104" viewBox="0 0 104 104">
  <g id="Satisfaction" transform="translate(-720 -1653)">
    <rect id="Rectangle_9016" data-name="Rectangle 9016" width="104" height="104" transform="translate(720 1653)" fill="rgba(255,255,255,0)"/>
    <g id="Group_28336" data-name="Group 28336" transform="translate(50.792 -77.825)">
      <path id="_13_Helmet_Gear_Construction_Engineering" data-name="13 Helmet Gear, Construction, Engineering" d="M14.539,45.473V35.417h35.2v2.25h2.514v-2.25a5.028,5.028,0,0,0,1.257-9.893,18.718,18.718,0,0,0-15.5-17.448,6.285,6.285,0,0,0-11.741,0,18.919,18.919,0,0,0-15.5,17.448,5.028,5.028,0,0,0,1.257,9.893V45.473A20.113,20.113,0,0,0,32.138,65.586H33.4V63.072H32.138a17.6,17.6,0,0,1-17.6-17.6ZM25.853,10.716v7.1h2.514V10.276a3.771,3.771,0,0,1,7.542,0v7.542h2.514v-7.1a16.229,16.229,0,0,1,11.313,9.616h-8.8v2.514h9.616a16.618,16.618,0,0,1,.44,2.514H13.282A16.43,16.43,0,0,1,25.853,10.716ZM9.511,30.389a2.514,2.514,0,0,1,2.514-2.514H52.251a2.514,2.514,0,1,1,0,5.028H12.025A2.514,2.514,0,0,1,9.511,30.389Zm26.4-10.056h2.514v2.514H35.909Z" transform="translate(684.197 1744.789)" fill="#f24b57"/>
      <path id="Path_31497" data-name="Path 31497" d="M17.833,2A15.833,15.833,0,1,0,33.667,17.833,15.839,15.839,0,0,0,17.833,2Zm0,28.5A12.667,12.667,0,1,1,30.5,17.833,12.683,12.683,0,0,1,17.833,30.5Zm6.143-18.541-9.31,9.31L11.69,18.292a1.579,1.579,0,0,0-2.232,2.233l4.1,4.1a1.577,1.577,0,0,0,2.233,0L26.225,14.192a1.577,1.577,0,0,0,0-2.233A1.6,1.6,0,0,0,23.977,11.959Z" transform="translate(717.677 1783.167)" fill="#f24b57"/>
    </g>
  </g>
</svg>
