<svg xmlns="http://www.w3.org/2000/svg" width="92" height="92" viewBox="0 0 92 92">
  <g id="Group_28374" data-name="Group 28374" transform="translate(-471 -246)">
    <rect id="Rectangle_9005" data-name="Rectangle 9005" width="92" height="92" transform="translate(471 246)" fill="rgba(255,255,255,0)"/>
    <path id="Security" d="M664.387,139.761a3.646,3.646,0,0,0-3.677-3.572,3.732,3.732,0,0,0-2.145.695,12.561,12.561,0,0,1-7.111,2.02c-3.533-.016-8.145-1.325-9.516-5.042A5.68,5.68,0,0,0,636.663,130h-9.05a5.7,5.7,0,0,0-5.29,3.862c-1.374,3.717-5.984,5.042-9.517,5.042a12.605,12.605,0,0,1-7.111-2.02,3.727,3.727,0,0,0-2.145-.695,3.646,3.646,0,0,0-3.678,3.572c-.709,32.273,10.049,50.729,31.969,54.866a1.75,1.75,0,0,0,.29.016,2.062,2.062,0,0,0,.307-.016,36.589,36.589,0,0,0,14.823-6.141,14.037,14.037,0,0,0,2.613.242,14.552,14.552,0,0,0,14.517-14.545,14.4,14.4,0,0,0-2.661-8.371q3-11.006,2.657-26.051ZM650.9,185.432a7.243,7.243,0,0,1-1.033.065,10.8,10.8,0,0,1-3.4-.533,11.171,11.171,0,0,1-6.775-5.931,10.157,10.157,0,0,1-.97-3.168,9.7,9.7,0,0,1-.145-1.681,11.334,11.334,0,0,1,7.919-10.8h.016a11.032,11.032,0,0,1,3.355-.517h.145a11.248,11.248,0,0,1,8.129,3.636,10.837,10.837,0,0,1,2.242,3.6,11.016,11.016,0,0,1,.774,4.073A11.292,11.292,0,0,1,650.9,185.432Zm8.194-22.464a14.47,14.47,0,0,0-8.323-3.3,60.64,60.64,0,0,0,1.064-6.9,1.519,1.519,0,0,0-.387-1.212,1.573,1.573,0,0,0-1.145-.566c-6.949-.291-13.114-3.184-16.92-7.951a1.652,1.652,0,0,0-2.516,0c-3.807,4.767-9.968,7.66-16.92,7.951a1.617,1.617,0,0,0,.128,3.232,26.18,26.18,0,0,0,18.049-7.725,25.781,25.781,0,0,0,16.323,7.6,56.06,56.06,0,0,1-1,5.737,14.564,14.564,0,0,0-12.1,14.351,14.777,14.777,0,0,0,.419,3.507,13.712,13.712,0,0,0,1.113,2.974,14.518,14.518,0,0,0,6.452,6.5,33.759,33.759,0,0,1-11.211,4.234c-19.92-3.911-29.695-21.252-29.033-51.553a.449.449,0,0,1,.727-.323,15.637,15.637,0,0,0,8.984,2.618c6.017,0,10.936-2.812,12.549-7.159a2.491,2.491,0,0,1,2.258-1.745h9.05a2.487,2.487,0,0,1,2.242,1.745,10.049,10.049,0,0,0,4.629,5.2,15.971,15.971,0,0,0,7.919,1.955,15.64,15.64,0,0,0,8.985-2.618.435.435,0,0,1,.274-.1.441.441,0,0,1,.452.42,92.273,92.273,0,0,1-2.065,23.126Zm-22.211,17.7a21.56,21.56,0,0,1-4.372,1.551,1.569,1.569,0,0,1-.774,0c-9.419-2.295-15.339-9.422-18.114-21.785a1.611,1.611,0,1,1,3.146-.695c3.532,15.741,12.049,18.423,15.353,19.248a17.951,17.951,0,0,0,3.646-1.293A13.715,13.715,0,0,0,636.886,180.664Zm11.163-.185a1.616,1.616,0,0,1-1.141-.474l-4.628-4.637a1.616,1.616,0,0,1,2.281-2.285l3.488,3.495,7.134-7.15a1.616,1.616,0,1,1,2.281,2.285l-8.275,8.292a1.611,1.611,0,0,1-1.142.474Z" transform="translate(-114.839 130)" fill="#f24b57" fill-rule="evenodd"/>
  </g>
</svg>
