<svg xmlns="http://www.w3.org/2000/svg" width="290" height="290" viewBox="0 0 290 290">
  <g id="Group_28360" data-name="Group 28360" transform="translate(-9275 6544)">
    <rect id="Rectangle_8988" data-name="Rectangle 8988" width="290" height="290" transform="translate(9275 -6544)" fill="rgba(255,255,255,0)"/>
    <g id="layer1" transform="translate(9314.08 -7533.299)">
      <g id="g13633" transform="translate(3.999 1023.356)">
        <path id="path13576" d="M6.78,3.043A4.037,4.037,0,0,0,4,7.08v185.7a4.037,4.037,0,0,0,4.036,4.037H168l23.969,24.221a9.812,9.812,0,1,0,13.876-13.876l-10.6-10.6a4.037,4.037,0,0,0,2.523-3.785V7.08a4.037,4.037,0,0,0-4.036-4.037H8.041A4.037,4.037,0,0,0,6.78,3.043Zm5.3,8.074H189.7V35.338H12.078Zm12.111,8.074a4.037,4.037,0,1,0,4.037,4.037A4.037,4.037,0,0,0,24.189,19.191Zm16.147,0a4.037,4.037,0,1,0,4.037,4.037A4.037,4.037,0,0,0,40.336,19.191Zm16.147,0a4.037,4.037,0,1,0,4.037,4.037A4.037,4.037,0,0,0,56.484,19.191ZM12.078,43.412H189.7V188.739h-2.27L167.5,169.06a9.728,9.728,0,0,0-9.839-2.523L145.8,154.931c16.093-19.114,15.5-47.581-2.27-65.346-18.779-18.778-49.618-18.5-68.627.5s-19.031,49.849-.253,68.627c.652.652,1.339,1.159,2.018,1.766H60.521a4.037,4.037,0,0,0-1.261,0,4.037,4.037,0,0,0-2.776,4.037v16.147A4.037,4.037,0,0,0,60.52,184.7H76.668a4.037,4.037,0,0,0,4.037-4.036V164.518a4.039,4.039,0,0,0,0-.757,47.785,47.785,0,0,0,8.074,4.793v12.111a4.037,4.037,0,0,0,4.036,4.037h16.148A4.037,4.037,0,0,0,113,180.666V172.34a48.063,48.063,0,0,0,8.074-1.514v9.839a4.037,4.037,0,0,0,4.036,4.037h16.148a4.037,4.037,0,0,0,4.037-4.036V166.285l6.308,6.055a9.728,9.728,0,0,0,2.27,10.344l6.055,6.055H12.078Zm97.389,40.369a39.649,39.649,0,0,1,28.511,11.606c12.228,12.228,14.467,30.406,7.316,45.415V124.149a4.037,4.037,0,0,0-4.036-4.037H125.11a3.464,3.464,0,0,0-4.037,4.037v38.1A40.165,40.165,0,0,1,113,164.013V108a4.037,4.037,0,0,0-4.036-4.037H92.815A3.464,3.464,0,0,0,88.779,108v51.47a40.494,40.494,0,0,1-8.578-6.56c-15.643-15.642-15.468-41.048.5-57.021A41.119,41.119,0,0,1,109.468,83.781ZM96.852,112.039h8.074v52.227a39.51,39.51,0,0,1-8.074-1.514Zm32.295,16.147h8.074v24.221a42.425,42.425,0,0,1-8.074,6.055ZM26.964,136.26a4.037,4.037,0,0,0-2.775,4.037v40.369a4.037,4.037,0,0,0,4.036,4.037H44.373a4.037,4.037,0,0,0,4.037-4.036V140.3a4.037,4.037,0,0,0-4.036-4.037H28.226a4.037,4.037,0,0,0-1.262,0Zm5.3,8.074h8.074v32.295H32.262ZM137.221,163v13.624h-8.074V167.8A47.919,47.919,0,0,0,137.221,163Zm-72.664,5.551h8.074v8.074H64.557Zm32.295,2.776a47.776,47.776,0,0,0,8.074,1.009v4.289H96.852Z" transform="translate(-3.999 -2.994)" fill="#f24b57"/>
      </g>
    </g>
  </g>
</svg>
