<svg xmlns="http://www.w3.org/2000/svg" width="135.947" height="133.663" viewBox="0 0 135.947 133.663">
  <g id="Group_28390" data-name="Group 28390" transform="translate(-1397.098 -2535.668)">
    <path id="Path_31552" data-name="Path 31552" d="M32.09,11.889C41.541,6.329,99.048-18.9,96.508,27.178s22.528,45.9-1.144,67.268S19.922,83.653,4.1,63.013,22.639,17.45,32.09,11.889Z" transform="translate(1435.115 2535.668) rotate(22)" fill="#ffb623" opacity="0.2"/>
    <path id="Path_31546" data-name="Path 31546" d="M91.893,41.876c-2.9-7.941-11.007-12.682-21.684-12.682-.419,0-.819.009-1.219.028l-.074-9.6,16.4-2.824c.535-.088.619-.554.507-1.075s-.777-4.108-.875-4.54c-.126-.609-.475-.591-.963-.507s-15.119,2.145-15.119,2.145L68.8,3.156c0-.582-.321-.735-.9-.726L63.134,2.5c-.488.009-.763.228-.754.689l.154,10.732s-14.24,2.452-14.626,2.526-.791.247-.7.665.884,5.089.968,5.452.335.6.875.5l13.6-2.345.163,9.388a21.9,21.9,0,0,0-10.5,6.062A20.238,20.238,0,0,0,46.7,49.957c0,7.378,4.517,11.765,10.83,12.538,14.71,1.8,23.814-14.236,26.838-21.935,5.1,7.006,1.191,20.255-9.742,27.82a.69.69,0,0,0-.154.963l2.88,3.517a.9.9,0,0,0,1.191.107c11.677-8.048,17.031-21,13.347-31.09ZM57.533,56.707c-4.494-.563-4.392-4.252-4.392-6.76A14.765,14.765,0,0,1,62.934,36.2l.381,19.9A12.9,12.9,0,0,1,57.533,56.707Zm11.291-2.573.214-19.116c.391-.019.772-.047,1.172-.047,3.6,0,6.95.675,8.769,1.679S74.22,49.273,68.823,54.134ZM27.187,18.462a.912.912,0,0,0-.912-.675H17.2a.9.9,0,0,0-.9.67L.037,69.821c-.079.237-.051.354.288.354H8.387c.349,0,.461-.107.53-.335L13.607,54.4H29.871L34.56,69.84c.074.228.181.335.526.335h8.067c.335,0,.363-.116.288-.354S29.1,24.5,27.187,18.462ZM15.007,47.854,21.739,23.43l6.732,24.424H15.007Z" transform="translate(1440 2567.57)"/>
  </g>
</svg>
