<svg xmlns="http://www.w3.org/2000/svg" width="290" height="290" viewBox="0 0 290 290">
  <g id="Group_28361" data-name="Group 28361" transform="translate(-9677 6544)">
    <rect id="Rectangle_8988" data-name="Rectangle 8988" width="290" height="290" transform="translate(9677 -6544)" fill="rgba(255,255,255,0)"/>
    <g id="Social_Media" data-name="Social Media" transform="translate(9717 -6504)">
      <path id="Path_31505" data-name="Path 31505" d="M87.455,69.964V17.491A17.491,17.491,0,0,0,69.964,0H17.491A17.491,17.491,0,0,0,0,17.491V69.964A17.491,17.491,0,0,0,17.491,87.455H69.964A17.491,17.491,0,0,0,87.455,69.964Zm-78.71,0V17.491a8.746,8.746,0,0,1,8.746-8.746H69.964a8.746,8.746,0,0,1,8.746,8.746V69.964a8.746,8.746,0,0,1-8.746,8.746H17.491A8.746,8.746,0,0,1,8.746,69.964ZM192.4,0H139.928a17.491,17.491,0,0,0-17.491,17.491V69.964a17.491,17.491,0,0,0,17.491,17.491H192.4a17.491,17.491,0,0,0,17.491-17.491V17.491A17.491,17.491,0,0,0,192.4,0Zm8.746,69.964A8.746,8.746,0,0,1,192.4,78.71H139.928a8.746,8.746,0,0,1-8.746-8.746V17.491a8.746,8.746,0,0,1,8.746-8.746H192.4a8.746,8.746,0,0,1,8.746,8.746Zm-36.731,80.765a13.118,13.118,0,0,0-11.369-19.546H119.508c4.023-14.08,10.057-26.237-5.335-37.912A10.976,10.976,0,0,0,97.6,97.644c-14.518,32.184-11.675,29.166-25.406,39.53-4.9-7.521-10.407-5.991-32.839-5.991a4.373,4.373,0,0,0-4.373,4.373V205.52a4.373,4.373,0,0,0,4.373,4.373H61.219a13.118,13.118,0,0,0,11.151-6.253c12.506,8.352,12.506,6.253,76.3,6.253a13.118,13.118,0,0,0,11.369-19.546,13.118,13.118,0,0,0,4.373-17.491,13.118,13.118,0,0,0,0-22.126ZM65.591,196.774a4.373,4.373,0,0,1-4.373,4.373H43.728V139.928H61.219a4.373,4.373,0,0,1,4.373,4.373Zm83.082,4.373c-69.439,0-61.612,1.793-74.337-6.734v-48.1c9.008-6.734,15.961-10.932,20.814-21.864,11.369-25.537,10.363-26.892,15.042-23.394a13.118,13.118,0,0,1,4.723,14.08l-5.6,19.24a4.373,4.373,0,0,0,4.373,5.553h39.355a4.373,4.373,0,0,1,0,8.746H126.81a4.373,4.373,0,1,0,0,8.746h30.609a4.373,4.373,0,1,1,0,8.746H126.81a4.373,4.373,0,0,0,0,8.746h26.237a4.373,4.373,0,1,1,0,8.746H126.81a4.373,4.373,0,0,0,0,8.746h21.864a4.373,4.373,0,0,1,0,8.746Z" fill="#f24b57"/>
      <path id="Path_31506" data-name="Path 31506" d="M23.491,12.759A17.491,17.491,0,1,0,40.982,30.25,17.491,17.491,0,0,0,23.491,12.759Zm0,26.237a8.746,8.746,0,1,1,8.746-8.746A8.746,8.746,0,0,1,23.491,39ZM48.46,5.282a4.391,4.391,0,1,0,0,6.209A4.391,4.391,0,0,0,48.46,5.282ZM159.047,4.014h-4.373A17.491,17.491,0,0,0,137.183,21.5v4.373H132.81a4.373,4.373,0,0,0,0,8.746h4.373V52.114a4.373,4.373,0,1,0,8.746,0V34.623h8.746a4.373,4.373,0,1,0,0-8.746h-8.746V21.5a8.746,8.746,0,0,1,8.746-8.746h4.373a4.373,4.373,0,0,0,0-8.746Z" transform="translate(20.237 13.477)" fill="#f24b57"/>
    </g>
  </g>
</svg>
