<svg xmlns="http://www.w3.org/2000/svg" width="290" height="290" viewBox="0 0 290 290">
  <g id="Group_28362" data-name="Group 28362" transform="translate(-9862 6105)">
    <rect id="Rectangle_8988" data-name="Rectangle 8988" width="290" height="290" transform="translate(9862 -6105)" fill="rgba(255,255,255,0)"/>
    <g id="Group_28356" data-name="Group 28356" transform="translate(329.496 36.152)">
      <g id="Social_Media" data-name="Social Media" transform="translate(9583.504 -6095.152)">
        <path id="Path_31507" data-name="Path 31507" d="M84.308,86.394a3.314,3.314,0,0,1-2.962-1.829C74.8,71.483,67.044,66.386,53.663,66.386H13.435a9.941,9.941,0,0,1-9.941-9.941v-37.5A9.941,9.941,0,0,1,13.435,9H77.681a9.941,9.941,0,0,1,9.941,9.941v64.14a3.314,3.314,0,0,1-3.314,3.314ZM13.435,15.627a3.314,3.314,0,0,0-3.314,3.314v37.5a3.314,3.314,0,0,0,3.314,3.314H53.663c11.909,0,20.545,3.665,27.331,11.929V18.941a3.314,3.314,0,0,0-3.314-3.314ZM111.6,131.964a3.314,3.314,0,0,1-3.314-3.314V64.511a9.941,9.941,0,0,1,9.941-9.941h64.246a9.941,9.941,0,0,1,9.941,9.941v37.5a9.941,9.941,0,0,1-9.941,9.941H142.244c-13.381,0-21.141,5.1-27.682,18.179A3.314,3.314,0,0,1,111.6,131.964ZM118.227,61.2a3.314,3.314,0,0,0-3.314,3.314v52.747c6.8-8.264,15.422-11.929,27.331-11.929h40.228a3.314,3.314,0,0,0,3.314-3.314v-37.5a3.314,3.314,0,0,0-3.314-3.314Z" transform="translate(-3.494 14.262)" fill="#f24b57"/>
        <path id="Path_31508" data-name="Path 31508" d="M84.308,186.082a3.314,3.314,0,0,1-2.962-1.832c-6.541-13.079-14.3-18.176-27.682-18.176H13.435a9.941,9.941,0,0,1-9.941-9.941V118.626a9.941,9.941,0,0,1,9.941-9.941H77.681a9.941,9.941,0,0,1,9.941,9.941v64.143A3.314,3.314,0,0,1,85.07,186,3.536,3.536,0,0,1,84.308,186.082Zm-70.873-70.77a3.314,3.314,0,0,0-3.314,3.314v37.507a3.314,3.314,0,0,0,3.314,3.314H53.663c11.909,0,20.545,3.662,27.331,11.929v-52.75a3.314,3.314,0,0,0-3.314-3.314Z" transform="translate(-3.494 -1.404)" fill="#f24b57"/>
        <path id="Path_31510" data-name="Path 31510" d="M33.812,115.9a3.314,3.314,0,0,1-3.314-3.314V79.321a3.314,3.314,0,0,1,6.627,0v33.269A3.314,3.314,0,0,1,33.812,115.9Zm101.067,85.029H43.753A13.255,13.255,0,0,1,30.5,187.678V163.323c0-1.83,6.627-1.83,6.627,0v24.356a6.627,6.627,0,0,0,6.627,6.627h91.126a6.627,6.627,0,0,0,6.627-6.627V128.1a3.314,3.314,0,1,1,6.627,0v59.577A13.255,13.255,0,0,1,134.879,200.933Zm9.941-123.5a3.314,3.314,0,0,1-3.314-3.314V15.235a6.627,6.627,0,0,0-6.627-6.627H43.753a6.627,6.627,0,0,0-6.627,6.627V28.556a3.314,3.314,0,1,1-6.627,0V15.235A13.255,13.255,0,0,1,43.753,1.98h91.126a13.255,13.255,0,0,1,13.255,13.255V74.119A3.314,3.314,0,0,1,144.82,77.432Z" transform="translate(4.315 -1.98)" fill="#f24b57"/>
        <path id="Path_31511" data-name="Path 31511" d="M50.587,11.264H31.126a3.314,3.314,0,0,1,0-6.627H50.587a3.314,3.314,0,0,1,0,6.627Zm9.891-.023a3.38,3.38,0,0,1-1.292-.232,2.939,2.939,0,0,1-1.06-.729,3.314,3.314,0,0,1,0-4.672,3.426,3.426,0,0,1,4.672,0,3.367,3.367,0,0,1,.729,1.06,3.552,3.552,0,0,1,.232,1.292,3.211,3.211,0,0,1-.961,2.32,2.939,2.939,0,0,1-1.06.729,3.314,3.314,0,0,1-1.259.232Z" transform="translate(52.77 4.167)" fill="#f24b57"/>
      </g>
      <path id="Path_31512" data-name="Path 31512" d="M27.651,40.139a2.106,2.106,0,0,0,2.99,0l11.9-11.917A10.528,10.528,0,0,0,29.145,12.093,10.528,10.528,0,0,0,15.754,28.222ZM23.187,14.473a6.317,6.317,0,0,1,4.464,1.853,2.106,2.106,0,0,0,2.99,0,6.317,6.317,0,0,1,8.927,8.927L29.145,35.675,18.723,25.253a6.317,6.317,0,0,1,4.464-10.78Z" transform="translate(9593.104 -6068.469)" fill="#f24b57"/>
      <path id="Path_31513" data-name="Path 31513" d="M137.494,84.609a3.275,3.275,0,1,1-6.55,0V74.784h8.733V70.417h-8.733v-6.55h-4.367V84.609a7.642,7.642,0,1,0,15.283,0V81.334h-4.367Z" transform="translate(9600.111 -6076.828)" fill="#f24b57"/>
      <path id="Path_31514" data-name="Path 31514" d="M64.756,105.9v28.476h4.068V120.141H76.96v-4.068H68.824v-8.136h12.2v-4.068H66.79A2.034,2.034,0,0,0,64.756,105.9Z" transform="translate(9549.356 -6078.319)" fill="#f24b57"/>
    </g>
  </g>
</svg>
