<svg xmlns="http://www.w3.org/2000/svg" width="104" height="104" viewBox="0 0 104 104">
  <g id="Support" transform="translate(-473 -1660)">
    <rect id="Rectangle_9017" data-name="Rectangle 9017" width="104" height="104" transform="translate(473 1660)" fill="rgba(255,255,255,0)"/>
    <g id="Group_28335" data-name="Group 28335" transform="translate(493.51 1678.75)">
      <path id="Path_31493" data-name="Path 31493" d="M50.843,31.163A2.368,2.368,0,0,1,48.476,28.8V22.109c0-9.471-8.751-17.048-19.51-17.048S9.455,12.733,9.455,22.109V28.8a2.368,2.368,0,1,1-4.735,0V22.109C4.72,10.062,15.612.25,28.966.25s24.246,9.812,24.246,21.859V28.8a2.349,2.349,0,0,1-2.368,2.368Z" transform="translate(2.888)" fill="#f24b57"/>
      <path id="Path_31494" data-name="Path 31494" d="M47.329,41.144a2.368,2.368,0,0,1-2.368-2.368V16.292A2.368,2.368,0,0,1,47.329,14c8.164,0,14.812,6.118,14.812,13.619S55.493,41.144,47.329,41.144ZM49.7,18.906V36.162a9.206,9.206,0,0,0,7.69-8.619,9.206,9.206,0,0,0-7.69-8.637ZM16.3,41.144c-8.164,0-14.812-6.1-14.812-13.6S8.139,14,16.3,14a2.368,2.368,0,0,1,2.368,2.368V38.776A2.368,2.368,0,0,1,16.3,41.144ZM13.935,18.906a9.206,9.206,0,0,0-7.69,8.637,9.206,9.206,0,0,0,7.69,8.619Z" transform="translate(0 12.295)" fill="#f24b57"/>
      <path id="Path_31495" data-name="Path 31495" d="M30.1,38.427H22.258a2.368,2.368,0,0,1,0-4.735H30.1a4.622,4.622,0,0,0,4.622-4.622V28.028a2.368,2.368,0,0,1,4.735,0V29.07A9.357,9.357,0,0,1,30.1,38.427Z" transform="translate(16.453 22.721)" fill="#f24b57"/>
      <path id="Path_31496" data-name="Path 31496" d="M24.267,40.982H19.588A6.478,6.478,0,0,1,13.11,34.5v-.265a6.478,6.478,0,0,1,6.478-6.459h4.679a6.459,6.459,0,0,1,6.459,6.459V34.5a6.478,6.478,0,0,1-6.459,6.478Zm-4.641-8.467a1.743,1.743,0,0,0-1.743,1.724V34.5a1.743,1.743,0,0,0,1.743,1.743h4.641A1.743,1.743,0,0,0,25.99,34.5v-.265a1.724,1.724,0,0,0-1.724-1.724Z" transform="translate(10.39 24.617)" fill="#f24b57"/>
    </g>
  </g>
</svg>
