<svg xmlns="http://www.w3.org/2000/svg" width="92" height="92" viewBox="0 0 92 92">
  <g id="Group_28371" data-name="Group 28371" transform="translate(-471 -51)">
    <rect id="Rectangle_9002" data-name="Rectangle 9002" width="92" height="92" transform="translate(471 51)" fill="rgba(255,255,255,0)"/>
    <g id="Group_28366" data-name="Group 28366" transform="translate(483.229 62.75)">
      <path id="Path_31518" data-name="Path 31518" d="M53.832,33.166a2.521,2.521,0,0,1-2.521-2.521v-7.12c0-10.085-9.318-18.152-20.774-18.152S9.762,13.542,9.762,23.525v7.12a2.521,2.521,0,0,1-5.042,0v-7.12C4.72,10.7,16.317.25,30.537.25S56.354,10.7,56.354,23.525v7.12a2.5,2.5,0,0,1-2.521,2.521Z" transform="translate(3.285 0)" fill="#f24b57"/>
      <path id="Path_31519" data-name="Path 31519" d="M50.3,42.9a2.521,2.521,0,0,1-2.521-2.521V16.44A2.521,2.521,0,0,1,50.3,14c8.693,0,15.772,6.515,15.772,14.5S58.993,42.9,50.3,42.9Zm2.521-23.679V37.6a9.8,9.8,0,0,0,8.189-9.177,9.8,9.8,0,0,0-8.189-9.2ZM17.262,42.9C8.569,42.9,1.49,36.408,1.49,28.421S8.569,14,17.262,14a2.521,2.521,0,0,1,2.521,2.521v23.86A2.521,2.521,0,0,1,17.262,42.9ZM14.741,19.224a9.8,9.8,0,0,0-8.189,9.2A9.8,9.8,0,0,0,14.741,37.6Z" transform="translate(0 13.983)" fill="#f24b57"/>
      <path id="Path_31520" data-name="Path 31520" d="M30.761,39.254h-8.35a2.521,2.521,0,0,1,0-5.042h8.35a4.921,4.921,0,0,0,4.921-4.921V28.181a2.521,2.521,0,0,1,5.042,0V29.29a9.964,9.964,0,0,1-9.964,9.964Z" transform="translate(18.712 25.84)" fill="#f24b57"/>
      <path id="Path_31521" data-name="Path 31521" d="M24.99,41.838H20.008a6.9,6.9,0,0,1-6.9-6.9v-.282a6.9,6.9,0,0,1,6.9-6.878H24.99a6.878,6.878,0,0,1,6.878,6.878v.282a6.9,6.9,0,0,1-6.878,6.9Zm-4.941-9.016a1.856,1.856,0,0,0-1.856,1.836v.282A1.856,1.856,0,0,0,20.048,36.8H24.99a1.856,1.856,0,0,0,1.835-1.856v-.282a1.835,1.835,0,0,0-1.835-1.835Z" transform="translate(11.817 27.996)" fill="#f24b57"/>
    </g>
  </g>
</svg>
