<svg xmlns="http://www.w3.org/2000/svg" width="84" height="84" viewBox="0 0 84 84">
  <g id="Ticket" transform="translate(-507 -1554)">
    <g id="Ellipse_904" data-name="Ellipse 904" transform="translate(507 1554)" fill="#f9f9f9" stroke="#f24b57" stroke-width="3">
      <circle cx="42" cy="42" r="42" stroke="none"/>
      <circle cx="42" cy="42" r="40.5" fill="none"/>
    </g>
    <circle id="Ellipse_906" data-name="Ellipse 906" cx="30" cy="30" r="30" transform="translate(519 1566)" fill="#f24b57"/>
    <g id="Group_28376" data-name="Group 28376" transform="translate(531.001 1577.999)">
      <path id="Path_31528" data-name="Path 31528" d="M.332,23.487l3.031,3.03a1.134,1.134,0,0,0,1.6,0A3.4,3.4,0,1,1,9.778,31.33a1.134,1.134,0,0,0,0,1.6l3.031,3.03a1.134,1.134,0,0,0,1.6,0L35.964,14.413a1.132,1.132,0,0,0,0-1.6l-3.031-3.03a1.134,1.134,0,0,0-1.6,0,3.4,3.4,0,1,1-4.812-4.813,1.134,1.134,0,0,0,0-1.6L23.487.333a1.134,1.134,0,0,0-1.6,0L.332,21.884a1.132,1.132,0,0,0,0,1.6ZM14.745,10.678l.9.9a1.134,1.134,0,1,0,1.6-1.6l-.9-.9,6.336-6.336,1.506,1.506a5.674,5.674,0,0,0,7.86,7.862l1.506,1.506-6.335,6.336-.9-.9a1.134,1.134,0,1,0-1.6,1.6l.9.9L13.611,33.559,12.1,32.053a5.674,5.674,0,0,0-7.86-7.862L2.738,22.686Z" fill="#f9f9f9"/>
      <path id="Path_31529" data-name="Path 31529" d="M32.467,24.07a1.134,1.134,0,1,0,1.6-1.6l-1.134-1.134a1.134,1.134,0,1,0-1.6,1.6l1.134,1.134Z" transform="translate(-13.419 -9.09)" fill="#f9f9f9"/>
      <path id="Path_31530" data-name="Path 31530" d="M37.332,28.936l1.134,1.134a1.134,1.134,0,1,0,1.6-1.6l-1.134-1.134a1.134,1.134,0,1,0-1.6,1.6Z" transform="translate(-16.017 -11.687)" fill="#f9f9f9"/>
    </g>
  </g>
</svg>
