<svg xmlns="http://www.w3.org/2000/svg" width="84" height="84" viewBox="0 0 84 84">
  <g id="Update" transform="translate(-1059 -1554)">
    <g id="Ellipse_904" data-name="Ellipse 904" transform="translate(1059 1554)" fill="#f9f9f9" stroke="#f24b57" stroke-width="3">
      <circle cx="42" cy="42" r="42" stroke="none"/>
      <circle cx="42" cy="42" r="40.5" fill="none"/>
    </g>
    <circle id="Ellipse_908" data-name="Ellipse 908" cx="30" cy="30" r="30" transform="translate(1071 1566)" fill="#f24b57"/>
    <g id="Group_28379" data-name="Group 28379" transform="translate(1082.501 1577.508)">
      <path id="Path_31534" data-name="Path 31534" d="M28.072,29.006a.581.581,0,0,1-.419-.177l-1.627-1.685a.583.583,0,0,1,.839-.811l.911.945,1.253-4.661-4.7,1.089.911.945a.583.583,0,0,1-.839.811L22.77,23.776a.584.584,0,0,1,.288-.974l6.653-1.54a.583.583,0,0,1,.694.721l-1.773,6.595a.579.579,0,0,1-.416.413A.662.662,0,0,1,28.072,29.006Z" transform="translate(3.512 3.288)" fill="#f9f9f9"/>
      <path id="Path_31535" data-name="Path 31535" d="M19.468,31.894l-.283,0A15.843,15.843,0,0,1,8.651,27.643a.583.583,0,0,1,.8-.854,14.7,14.7,0,0,0,19.963.059.584.584,0,0,1,.791.858A15.792,15.792,0,0,1,19.468,31.894ZM6.909,26.133a.589.589,0,0,1-.413-.17L1.67,21.131a.584.584,0,0,1,.271-.979l2.273-.566A.583.583,0,0,1,4.5,20.718l-1.275.316,3.411,3.415,1.41-4.617-1.276.316a.583.583,0,1,1-.28-1.131l2.273-.565a.584.584,0,0,1,.7.736L7.464,25.72a.589.589,0,0,1-.416.4A.611.611,0,0,1,6.909,26.133Z" transform="translate(0 2.82)" fill="#f9f9f9"/>
      <path id="Path_31536" data-name="Path 31536" d="M4.1,22.99a.584.584,0,0,1-.569-.456A15.865,15.865,0,0,1,14.368,3.9a.584.584,0,1,1,.342,1.116A14.7,14.7,0,0,0,4.667,22.279a.584.584,0,0,1-.442.7A.625.625,0,0,1,4.1,22.99Z" transform="translate(0.273 0.397)" fill="#f9f9f9"/>
      <g id="Group_28377" data-name="Group 28377" transform="translate(16.731 1.492)">
        <path id="Path_31537" data-name="Path 31537" d="M19.8,9.413a.583.583,0,0,1-.426-.185l-4.66-4.991a.584.584,0,0,1,.276-.962l6.6-1.764a.588.588,0,0,1,.566.155.58.58,0,0,1,.145.569l-.647,2.252a.583.583,0,0,1-1.121-.321l.363-1.261L16.232,4.151,19.525,7.68l.364-1.262a.583.583,0,1,1,1.121.321l-.647,2.252a.582.582,0,0,1-.423.407A.7.7,0,0,1,19.8,9.413Z" transform="translate(-14.558 -1.492)" fill="#f9f9f9"/>
        <path id="Path_31538" data-name="Path 31538" d="M30.82,22.039a.57.57,0,0,1-.108-.01.582.582,0,0,1-.465-.68,14.7,14.7,0,0,0-10.058-16.7.584.584,0,0,1,.349-1.114A15.868,15.868,0,0,1,31.393,21.564.585.585,0,0,1,30.82,22.039Z" transform="translate(-13.689 -1.157)" fill="#f9f9f9"/>
      </g>
      <g id="Group_28378" data-name="Group 28378" transform="translate(10.099 10.205)">
        <path id="Path_31539" data-name="Path 31539" d="M18.668,26.456h-2.1A.582.582,0,0,1,16,26l-.345-1.578a6.83,6.83,0,0,1-1.393-.579l-1.36.871a.584.584,0,0,1-.727-.078l-1.483-1.483a.582.582,0,0,1-.078-.727l.87-1.36a6.869,6.869,0,0,1-.577-1.393L9.33,19.327a.583.583,0,0,1-.458-.569v-2.1a.583.583,0,0,1,.458-.569l1.577-.346a6.859,6.859,0,0,1,.577-1.392l-.87-1.36a.583.583,0,0,1,.078-.727l1.483-1.484A.584.584,0,0,1,12.9,10.7l1.361.871A6.966,6.966,0,0,1,15.655,11L16,9.422a.583.583,0,0,1,.569-.46h2.1a.582.582,0,0,1,.569.46L19.582,11a6.966,6.966,0,0,1,1.392.577l1.362-.87a.58.58,0,0,1,.727.078l1.483,1.483a.583.583,0,0,1,.078.727l-.871,1.36a6.94,6.94,0,0,1,.579,1.393l1.578.345a.583.583,0,0,1,.458.569v2.1a.583.583,0,0,1-.46.569l-1.578.345a6.869,6.869,0,0,1-.577,1.393l.871,1.36a.583.583,0,0,1-.078.727l-1.483,1.485a.583.583,0,0,1-.727.078l-1.362-.872a6.91,6.91,0,0,1-1.392.577L19.237,26A.582.582,0,0,1,18.668,26.456Zm-1.629-1.166H18.2l.321-1.466a.584.584,0,0,1,.436-.443,5.811,5.811,0,0,0,1.725-.716.581.581,0,0,1,.622,0l1.267.811.819-.82-.811-1.266a.582.582,0,0,1,0-.621,5.776,5.776,0,0,0,.715-1.727.582.582,0,0,1,.444-.436l1.467-.321V17.13l-1.466-.321a.584.584,0,0,1-.443-.436,5.83,5.83,0,0,0-.717-1.727.579.579,0,0,1,0-.621l.811-1.266-.819-.819-1.267.809a.587.587,0,0,1-.621.006,5.823,5.823,0,0,0-1.726-.717.581.581,0,0,1-.436-.442L18.2,10.13H17.038L16.717,11.6a.582.582,0,0,1-.436.442,5.81,5.81,0,0,0-1.726.717.584.584,0,0,1-.621-.006l-1.266-.809-.819.82.809,1.264a.582.582,0,0,1,0,.621,5.764,5.764,0,0,0-.715,1.726.582.582,0,0,1-.443.436l-1.466.322v1.158l1.466.321a.584.584,0,0,1,.443.436,5.725,5.725,0,0,0,.715,1.725.581.581,0,0,1,0,.622l-.809,1.266.819.82,1.266-.811a.586.586,0,0,1,.622,0,5.8,5.8,0,0,0,1.725.717.58.58,0,0,1,.436.443Zm.58-3.5A4.082,4.082,0,1,1,21.7,17.709a.583.583,0,1,1-1.166,0,2.916,2.916,0,1,0-2.916,2.916.583.583,0,1,1,0,1.166Z" transform="translate(-8.872 -8.962)" fill="#f9f9f9"/>
        <circle id="Ellipse_912" data-name="Ellipse 912" cx="0.583" cy="0.583" r="0.583" transform="translate(10.495 10.497)" fill="#f9f9f9"/>
      </g>
    </g>
  </g>
</svg>
