<svg id="Group_1084" data-name="Group 1084" xmlns="http://www.w3.org/2000/svg" width="572.865" height="415.663" viewBox="0 0 572.865 415.663">
  <path id="Path_2231" data-name="Path 2231" d="M265.451,272.188a55.636,55.636,0,0,1-81.8-1.786L59.514,387.906l174.563,184.42,166.391-157.5Z" transform="translate(-59.514 -157.749)" fill="#f2f2f2"/>
  <path id="Path_2232" data-name="Path 2232" d="M339.9,238.346a48.562,48.562,0,0,0,35.08-14.92l-34.616-36.57-36.984,35.007A48.586,48.586,0,0,0,339.9,238.346Z" transform="translate(-174.143 -118.479)" fill="#f2f2f2"/>
  <path id="Path_2233" data-name="Path 2233" d="M731.362,307.377a87.354,87.354,0,0,1-87.442,87.442q-.747,0-1.495-.016c-2.1-.032-4.171-.138-6.232-.318a87.446,87.446,0,1,1,95.169-87.109Z" transform="translate(-293.105 -134.027)" fill="#18d09e"/>
  <path id="Path_2234" data-name="Path 2234" d="M695.774,275.732a86.954,86.954,0,0,0,10.54-31.309,87.442,87.442,0,0,0-147.336,51.188,87.112,87.112,0,0,0,52.958,24.149c2.061.18,4.134.286,6.232.318q.747.016,1.495.016a87.314,87.314,0,0,0,76.112-44.362Z" transform="translate(-294.285 -134.026)" opacity="0.1"/>
  <rect id="Rectangle_372" data-name="Rectangle 372" width="140.438" height="156.866" transform="translate(249.064 258.673)" fill="#2d3f62"/>
  <path id="Path_2235" data-name="Path 2235" d="M727.395,407.155a87.545,87.545,0,0,1-61.268,51.088H685.6V615.109H556.066L628.76,489.2l16.656-28.851,1.214-2.1,55.131-95.487Z" transform="translate(-292.916 -201.16)" fill="#182641" opacity="0.1"/>
  <path id="Path_2236" data-name="Path 2236" d="M675.974,306.924l73,126.442,73,126.442h-292l73-126.442Z" transform="translate(-249.111 -144.268)" fill="#2d3f62"/>
  <rect id="Rectangle_373" data-name="Rectangle 373" width="553.272" height="1.06" transform="translate(19.594 414.479)" fill="#2f2e41"/>
  <path id="Path_2237" data-name="Path 2237" d="M155.491,732.259l-.967,8.061-5.481,2.579-6.126-1.935-4.191,1.935-1.289-7.416,7.416-8.383Z" transform="translate(-64.601 -341.77)" fill="#9f616a"/>
  <path id="Path_2238" data-name="Path 2238" d="M203.064,801.579s5-5.828,5.079-2.914,11.042,12.909,11.042,12.909,17.088,5.159,3.869,8.383-42.237-6.126-43.2-8.06,8.061-16.766,9.028-15.476S194.681,802.224,203.064,801.579Z" transform="translate(-116.043 -404.965)" fill="#2f2e41"/>
  <path id="Path_2239" data-name="Path 2239" d="M225.469,625.531s1.935,15.154,0,17.411-.967,6.771,0,7.416-1.29,3.224-2.9,4.514-3.869,7.093-3.869,7.093-8.705,22.892-8.705,25.149-3.869,7.093-3.547,8.705-2.257,6.771-1.935,7.738-4.191,9.673-2.9,10.962,19.023,5.8,18.056,2.9-1.612-6.448-.967-6.448,3.547-3.547,2.9-4.836,19.345-35.144,19.345-35.144Z" transform="translate(-126.196 -324.676)" fill="#2f2e41"/>
  <path id="Path_2240" data-name="Path 2240" d="M203.064,801.579s5-5.828,5.079-2.914,11.042,12.909,11.042,12.909,17.088,5.159,3.869,8.383-42.237-6.126-43.2-8.06,8.061-16.766,9.028-15.476S194.681,802.224,203.064,801.579Z" transform="translate(-116.043 -404.965)" opacity="0.1"/>
  <path id="Path_2241" data-name="Path 2241" d="M225.469,625.531s1.935,15.154,0,17.411-.967,6.771,0,7.416-1.29,3.224-2.9,4.514-3.869,7.093-3.869,7.093-8.705,22.892-8.705,25.149-3.869,7.093-3.547,8.705-2.257,6.771-1.935,7.738-4.191,9.673-2.9,10.962,19.023,5.8,18.056,2.9-1.612-6.448-.967-6.448,3.547-3.547,2.9-4.836,19.345-35.144,19.345-35.144Z" transform="translate(-126.196 -324.676)" opacity="0.1"/>
  <path id="Path_2242" data-name="Path 2242" d="M236.8,729.282l3.546,9.028-1.612,12.574-10.318-.644-5.8-5.159V734.118Z" transform="translate(-104.637 -342.796)" fill="#9f616a"/>
  <path id="Path_2243" data-name="Path 2243" d="M290.224,799.861s3.547-11.607,5.481-8.383a51,51,0,0,1,3.224,6.448s15.8,10.318,19.99,10.318,8.061,5.159,2.579,7.093-47.4,4.514-48.041,0,.645-19.023,2.579-17.411S287.967,803.085,290.224,799.861Z" transform="translate(-159.999 -402.413)" fill="#2f2e41"/>
  <path id="Path_2244" data-name="Path 2244" d="M313.59,538.278s14.211,9.657,14.856,10.947,8.891,5.255,2.12,8.479-24.714-17.169-24.714-17.169Z" transform="translate(-175.304 -283.663)" fill="#9f616a"/>
  <path id="Path_2245" data-name="Path 2245" d="M302.779,502.991s10.318,19.99,8.383,20.635-9.673,4.514-9.673,4.514l-3.547-20.313Z" transform="translate(-171.586 -267.077)" fill="#575a88"/>
  <path id="Path_2246" data-name="Path 2246" d="M302.779,502.991s10.318,19.99,8.383,20.635-9.673,4.514-9.673,4.514l-3.547-20.313Z" transform="translate(-171.586 -267.077)" opacity="0.1"/>
  <path id="Path_2247" data-name="Path 2247" d="M265.8,534.49s2.257,16.766,1.29,20.313.645,56.746-.645,59.648-2.257,21.6-2.257,23.859,2.579,20.635,3.224,22.247,2.579,7.093,1.612,9.673S254.836,679.257,252.9,677s-.322-9.35-1.935-9.673-3.547-15.476-3.547-15.476l-10.64-59.326s-19.99-49.653-15.476-54.489S265.8,534.49,265.8,534.49Z" transform="translate(-135.251 -281.809)" fill="#2f2e41"/>
  <circle id="Ellipse_220" data-name="Ellipse 220" cx="15.799" cy="15.799" r="15.799" transform="translate(102.819 106.623)" fill="#9f616a"/>
  <path id="Path_2248" data-name="Path 2248" d="M276.818,304.707s-5.159,13.542-4.514,16.444-15.154-5.159-15.154-5.159.967-15.8,0-19.99S276.818,304.707,276.818,304.707Z" transform="translate(-152.397 -169.388)" fill="#9f616a"/>
  <path id="Path_2249" data-name="Path 2249" d="M211.921,405.679c.071,2.705.116,4.317.116,4.317s-.967,14.832.645,19.668,1.612,8.383,2.579,11.607c.284.938,4.143,1.441,9.563,1.664,4.972.2,11.256.174,17.288.035,9.989-.232,19.3-.767,20.867-1.054,3.547-.645-.645-6.126.645-9.028s-2.257-39.98-2.257-39.98.322-20.957-1.29-29.018-7.738-20.957-9.028-22.57-.322-2.579,2.579-4.514,0-9.35,0-9.35c-5.481-4.514-19.345-5.159-19.345-5.159s-21.28,21.925-22.57,26.439c-.78,2.728-.5,24.517-.158,41.341C211.688,396.406,211.827,402.036,211.921,405.679Z" transform="translate(-130.82 -182.143)" fill="#575a88"/>
  <path id="Path_2250" data-name="Path 2250" d="M253.291,555.314s12.252,25.149,2.579,26.761-14.509-22.892-14.509-22.892Z" transform="translate(-144.991 -291.671)" fill="#9f616a"/>
  <path id="Path_2251" data-name="Path 2251" d="M278.188,262.543c.559-2.71-1.512-5.243-3.693-6.945a26.989,26.989,0,0,0-16.6-5.662c-4.228.023-8.592,1.141-11.788,3.91-3.728,3.229-5.428,8.408-5.115,13.33a26.5,26.5,0,0,0,5.341,13.589c1.386,1.919,3.611,3.906,5.826,3.069a5.415,5.415,0,0,0,2.155-1.82A33.426,33.426,0,0,0,258,276.337a22.606,22.606,0,0,1,2.6-4.482,5.287,5.287,0,0,1,4.527-2.073c1.417.2,2.807,1.193,4.159.724,1.5-.522,1.867-2.445,1.987-4.032a27.356,27.356,0,0,1,.521-5.4C272.328,261.357,277.928,263.841,278.188,262.543Z" transform="translate(-144.798 -148.129)" fill="#2f2e41"/>
  <path id="Path_2252" data-name="Path 2252" d="M211.069,427.611c3.611,13.023,11.894,34.97,12.368,35.915.119.242.306.716.535,1.341,4.972.2,11.256.174,17.288.036-.935-2.444-2.025-4.8-2.025-5.568,0-1.612-7.738-43.2-7.738-43.2s6.126-18.378,11.607-33.854-16.282-12.413-16.282-12.413c-11.607-2.9-13.7,2.1-13.7,2.1s-1.022,27.18-2.415,40.051c-.358,3.3-.738,5.655-1.132,6.378C209.057,419.331,209.754,422.884,211.069,427.611Z" transform="translate(-129.968 -204.074)" opacity="0.1"/>
  <path id="Path_2253" data-name="Path 2253" d="M229.5,350.545s14.831,6.126,9.35,21.6S227.24,406,227.24,406s7.738,41.592,7.738,43.2,4.836,10.318,2.9,11.93-14.831,4.836-15.154,3.224a109.043,109.043,0,0,0-3.547-10.962c-.645-1.29-15.8-41.592-13.864-45.139,1.424-2.61,2.673-26.521,3.233-38.97a20.467,20.467,0,0,1,10.67-17.232A14.208,14.208,0,0,1,229.5,350.545Z" transform="translate(-127.967 -195.236)" fill="#575a88"/>
  <rect id="Rectangle_374" data-name="Rectangle 374" width="19.078" height="19.078" transform="translate(142.013 249.663)" fill="#5ac2f8"/>
  <circle id="Ellipse_221" data-name="Ellipse 221" cx="5.829" cy="5.829" r="5.829" transform="translate(145.723 238.005)" fill="#3f3d56"/>
  <circle id="Ellipse_222" data-name="Ellipse 222" cx="28.785" cy="28.785" r="28.785" transform="translate(348.076 0.901)" fill="#5ac2f8"/>
  <path id="Path_2254" data-name="Path 2254" d="M719.331,107.178c0,21.718-12.911,29.3-28.837,29.3s-28.837-7.583-28.837-29.3,28.837-49.346,28.837-49.346S719.331,85.46,719.331,107.178Z" transform="translate(-342.549 -57.831)" fill="#f2f2f2"/>
  <path id="Path_2255" data-name="Path 2255" d="M644.3,75.325l.3-18.176,12.291-22.486L644.637,54.3l.133-8.172,8.471-16.269L644.8,43.963h0l.238-14.7,9.071-12.952-9.034,10.64L645.23,0l-.938,35.68.077-1.472-9.223-14.116,9.075,16.942-.86,16.416-.025-.436L632.705,38.158l10.6,16.4-.108,2.053-.019.031.009.169-2.18,41.649h2.913l.35-21.512,10.574-16.355Z" transform="translate(-297.4)" fill="#3f3d56"/>
  <path id="Path_2256" data-name="Path 2256" d="M851.1,162.577c-6.891,20.6-21.541,23.691-36.644,18.637s-24.941-16.341-18.051-36.937,43-37.647,43-37.647S857.994,141.981,851.1,162.577Z" transform="translate(-404.835 -80.769)" fill="#f2f2f2"/>
  <path id="Path_2257" data-name="Path 2257" d="M763.778,119.867l6.047-17.143L788.615,85.3l-17.842,14.735,2.719-7.708,13.195-12.74-12.476,10.7h0l4.89-13.864,12.712-9.4-11.943,7.224,8.693-25.513-12.21,33.539.54-1.372-4.267-16.313,3.23,18.946-6.023,15.3.114-.421-5.369-17.461,4.85,18.911-.753,1.913-.028.023-.045.163L753.32,140.758l2.763.924,7.157-20.29,15.216-12.155Z" transform="translate(-354.095 -22.905)" fill="#3f3d56"/>
  <path id="Path_2258" data-name="Path 2258" d="M581.95,149.287c7.81,20.265-1.509,31.984-16.37,37.711s-29.635,3.3-37.446-16.969,9.161-56.416,9.161-56.416S574.139,129.022,581.95,149.287Z" transform="translate(-278.821 -84.051)" fill="#f2f2f2"/>
  <path id="Path_2259" data-name="Path 2259" d="M511.807,126.482l-6.261-17.066,3.382-25.4-4.364,22.725-2.816-7.674L503.8,80.838l-2.8,16.2h0l-5.064-13.8,3.806-15.347-4.6,13.177-9.554-25.2,11.957,33.63-.457-1.4-13.682-9.856,14.561,12.545,5.1,15.627-.18-.4L487.626,95.97l15.787,11.486.638,1.954-.007.035.069.154,12.944,39.646,2.718-1.047L512.364,128l3.985-19.063Z" transform="translate(-227.224 -26.257)" fill="#3f3d56"/>
  <path id="Path_2260" data-name="Path 2260" d="M508.422,497.986c-1.787,2.85-4.105,2.783-6.2,1.473s-3.161-3.368-1.374-6.218,7.845-4.1,7.845-4.1S510.209,495.136,508.422,497.986Z" transform="translate(-266.538 -260.565)" fill="#5ac2f8"/>
  <path id="Path_2261" data-name="Path 2261" d="M910.166,338.285c.331,3.348-1.544,4.713-4,4.956s-4.561-.73-4.891-4.078,3.694-8.046,3.694-8.046S909.836,334.937,910.166,338.285Z" transform="translate(-455.172 -186.288)" fill="#5ac2f8"/>
  <path id="Path_2262" data-name="Path 2262" d="M490.486,383.44c-1.787,2.85-4.105,2.783-6.2,1.473s-3.161-3.368-1.374-6.218,7.845-4.1,7.845-4.1S492.273,380.589,490.486,383.44Z" transform="translate(-258.107 -206.723)" fill="#5ac2f8"/>
</svg>
