<svg xmlns="http://www.w3.org/2000/svg" width="290" height="290" viewBox="0 0 290 290">
  <g id="Web_Design" data-name="Web Design" transform="translate(-8257 7462)">
    <rect id="Rectangle_8988" data-name="Rectangle 8988" width="290" height="290" transform="translate(8257 -7462)" fill="rgba(255,255,255,0)"/>
    <g id="Layer_13" data-name="Layer 13" transform="translate(8284 -7409)">
      <path id="Path_31503" data-name="Path 31503" d="M218.371,39.664V13.277A5.277,5.277,0,0,0,213.094,8H23.109a5.277,5.277,0,0,0-5.277,5.277V139.934A15.832,15.832,0,0,0,2,155.766a21.109,21.109,0,0,0,21.109,21.109H218.371A15.832,15.832,0,0,0,234.2,161.043V55.5A15.832,15.832,0,0,0,218.371,39.664ZM149.766,55.5V66.051H54.773V39.664H165.6A15.832,15.832,0,0,0,149.766,55.5ZM28.387,18.555h179.43V39.664H191.984V34.387a5.277,5.277,0,0,0-5.277-5.277H49.5a5.277,5.277,0,0,0-5.277,5.277V71.328A5.277,5.277,0,0,0,49.5,76.605h100.27v26.387H49.5a5.277,5.277,0,0,0,0,10.555h100.27V124.1H28.387Zm0,116.1H149.766v5.277h-5.277a5.277,5.277,0,0,0-4.7,2.9l-3.852,7.652H100.264l-3.852-7.652a5.277,5.277,0,0,0-4.7-2.9H28.387ZM23.109,166.32a10.555,10.555,0,0,1-10.555-10.555,5.277,5.277,0,0,1,5.277-5.277H88.443L92.3,158.14a5.277,5.277,0,0,0,4.7,2.9h42.219a5.277,5.277,0,0,0,4.7-2.9l3.852-7.652h2.005v10.555a19.736,19.736,0,0,0,.9,5.277Zm200.539-5.277a5.277,5.277,0,0,1-5.277,5.277H165.6a5.277,5.277,0,0,1-5.277-5.277V55.5a5.277,5.277,0,0,1,5.277-5.277h5.277a5.277,5.277,0,0,0,5.277,5.277h31.664a5.277,5.277,0,0,0,5.277-5.277h5.277a5.277,5.277,0,0,1,5.277,5.277Z" transform="translate(0)" fill="#f24b57"/>
      <path id="Path_31504" data-name="Path 31504" d="M178.875,19H136.656a5.277,5.277,0,0,0-5.277,5.277V45.387a5.277,5.277,0,0,0,5.277,5.277h42.219a5.277,5.277,0,0,0,5.277-5.277V24.277A5.277,5.277,0,0,0,178.875,19ZM173.6,40.109H141.934V29.555H173.6ZM136.656,71.773h26.387a5.277,5.277,0,0,0,0-10.555H136.656a5.277,5.277,0,0,0,0,10.555Zm42.219,5.277H136.656a5.277,5.277,0,0,0,0,10.555h42.219a5.277,5.277,0,0,0,0-10.555Zm0,15.832H136.656a5.277,5.277,0,0,0,0,10.555h42.219a5.277,5.277,0,0,0,0-10.555ZM15.277,50.664H89.16a5.277,5.277,0,0,0,0-10.555H15.277a5.277,5.277,0,0,0,0,10.555Z" transform="translate(34.219 47.051)" fill="#f24b57"/>
    </g>
  </g>
</svg>
