<svg xmlns="http://www.w3.org/2000/svg" width="135.947" height="133.663" viewBox="0 0 135.947 133.663">
  <g id="Group_28388" data-name="Group 28388" transform="translate(-698.658 -2532.668)">
    <path id="Path_31549" data-name="Path 31549" d="M32.09,11.889C41.541,6.329,99.048-18.9,96.508,27.178s22.528,45.9-1.144,67.268S19.922,83.653,4.1,63.013,22.639,17.45,32.09,11.889Z" transform="translate(736.676 2532.668) rotate(22)" fill="#00c3ff" opacity="0.2"/>
    <path id="Path_31547" data-name="Path 31547" d="M18.86,3.869a1.7,1.7,0,0,0-2.1,0L4.127,13.971a1.7,1.7,0,0,0-.269,2.374,1.663,1.663,0,0,0,2.155.37v11.2A1.689,1.689,0,0,0,7.7,29.6H27.918A1.689,1.689,0,0,0,29.6,27.913v-11.2a1.744,1.744,0,0,0,.842.253,1.692,1.692,0,0,0,1.044-3.014Zm-.2,22.361H16.974V23.906h1.684Zm7.577,0H22.025V22.222a1.689,1.689,0,0,0-1.684-1.684H15.29a1.689,1.689,0,0,0-1.684,1.684v4.007H9.4V14.072l8.419-6.735,8.419,6.735ZM71.9,13.971,59.27,3.869a1.7,1.7,0,0,0-2.1,0l-12.628,10.1a1.7,1.7,0,0,0-.269,2.374,1.663,1.663,0,0,0,2.155.37v11.2A1.689,1.689,0,0,0,48.107,29.6H68.329a1.689,1.689,0,0,0,1.684-1.684v-11.2a1.744,1.744,0,0,0,.842.253,1.682,1.682,0,0,0,1.313-.64A1.653,1.653,0,0,0,71.9,13.971ZM59.068,26.229H57.385V23.906h1.684Zm7.577,0H62.436V22.222a1.689,1.689,0,0,0-1.684-1.684H55.7a1.689,1.689,0,0,0-1.684,1.684v4.007H49.808V14.072l8.419-6.735,8.419,6.735ZM3.874,59.282a1.663,1.663,0,0,0,2.155.37v11.2a1.689,1.689,0,0,0,1.684,1.684H27.918A1.689,1.689,0,0,0,29.6,70.85v-11.2a1.744,1.744,0,0,0,.842.253,1.692,1.692,0,0,0,1.044-3.014L18.86,46.788a1.7,1.7,0,0,0-2.1,0L4.127,56.891A1.705,1.705,0,0,0,3.874,59.282Zm14.784,9.884H16.974V66.842h1.684ZM9.4,57.009l8.419-6.735,8.419,6.735V69.166H22.025V65.158a1.689,1.689,0,0,0-1.684-1.684H15.29a1.689,1.689,0,0,0-1.684,1.684v4.007H9.4ZM48.124,72.533H68.329a1.689,1.689,0,0,0,1.684-1.684v-11.2a1.744,1.744,0,0,0,.842.253A1.692,1.692,0,0,0,71.9,56.891L59.27,46.788a1.7,1.7,0,0,0-2.1,0l-12.628,10.1a1.7,1.7,0,0,0-.269,2.374,1.663,1.663,0,0,0,2.155.37v11.2A1.718,1.718,0,0,0,48.124,72.533Zm10.945-3.368H57.385V66.842h1.684ZM49.808,57.009l8.419-6.735,8.419,6.735V69.166H62.436V65.158a1.689,1.689,0,0,0-1.684-1.684H55.7a1.689,1.689,0,0,0-1.684,1.684v4.007H49.808Zm-7.577-29.1H33.812A1.689,1.689,0,0,0,32.128,29.6v3.368H26.235a1.689,1.689,0,0,0-1.684,1.684v13.47A1.689,1.689,0,0,0,26.235,49.8H49.808a1.689,1.689,0,0,0,1.684-1.684V34.648a1.689,1.689,0,0,0-1.684-1.684H43.914V29.6A1.689,1.689,0,0,0,42.231,27.913ZM35.5,31.281h5.051v1.684H35.5ZM48.124,46.435H27.918V41.383H48.124Zm0-10.1v1.684H27.918V36.332H48.124Z" transform="translate(747.49 2567.48)"/>
  </g>
</svg>
