<svg xmlns="http://www.w3.org/2000/svg" width="208.005" height="55.509" viewBox="0 0 208.005 55.509">
  <g id="Group_26257" data-name="Group 26257" style="isolation: isolate">
    <g id="Layer_2_1_">
      <g id="Surfaces">
        <g id="UI_UX_Surface">
          <g id="Outline_no_shadow">
            <path id="Path_23834" data-name="Path 23834" d="M10.082,0H46.85A10.073,10.073,0,0,1,56.932,10.082V45.427A10.073,10.073,0,0,1,46.85,55.509H10.082A10.073,10.073,0,0,1,0,45.427V10.082A10.073,10.073,0,0,1,10.082,0Z" fill="#470137"/>
          </g>
        </g>
      </g>
      <g id="Outlined_Mnemonics_Logos" transform="translate(8.293 12.165)">
        <g id="Xd">
          <path id="Path_23835" data-name="Path 23835" d="M56.6,60.356,49.488,72.1l7.591,12.454a.408.408,0,0,1,.047.285c-.024.095-.119.024-.261.047H51.433c-.38,0-.64-.024-.807-.261-.5-1-1.02-1.969-1.518-2.965-.5-.973-1.044-1.969-1.613-2.989s-1.139-2.04-1.708-3.084H45.74c-.5,1.02-1.044,2.04-1.589,3.06s-1.091,2.04-1.613,3.036c-.546,1-1.091,2.016-1.637,2.989-.095.237-.285.261-.546.261H35.136c-.095,0-.166.047-.166-.071a.329.329,0,0,1,.047-.261l7.377-12.1L35.207,60.332c-.071-.095-.095-.19-.047-.237A.275.275,0,0,1,35.4,60h5.385a1.4,1.4,0,0,1,.332.047.673.673,0,0,1,.237.213c.451,1.02.973,2.04,1.518,3.06.569,1.02,1.115,2.016,1.708,3.013.569,1,1.091,1.993,1.589,3.013h.047c.5-1.044,1.02-2.064,1.542-3.06s1.067-1.993,1.613-2.989,1.067-2.016,1.589-2.989a.4.4,0,0,1,.142-.237.452.452,0,0,1,.308-.047h5.005a.219.219,0,0,1,.261.166c.024.024-.024.119-.071.166Z" transform="translate(-34.961 -57.933)" fill="#ff61f6"/>
          <path id="Path_23836" data-name="Path 23836" d="M140.284,78.734a11.793,11.793,0,0,1-5.1-1.067A8.27,8.27,0,0,1,131.6,74.44a10.264,10.264,0,0,1-1.3-5.409,9.742,9.742,0,0,1,1.3-5.005,9.851,9.851,0,0,1,3.772-3.677,12.134,12.134,0,0,1,6-1.376,4.239,4.239,0,0,1,.5.024c.213.024.451.024.735.047v-7.5c0-.166.071-.261.237-.261h4.815a.213.213,0,0,1,.237.166v22.63c0,.427.024.9.047,1.423.047.5.071.973.095,1.376a.385.385,0,0,1-.237.38,18.117,18.117,0,0,1-3.867,1.139A20.923,20.923,0,0,1,140.284,78.734Zm2.325-4.744V63.552a6.065,6.065,0,0,0-.64-.119c-.261-.024-.522-.047-.783-.047A5.848,5.848,0,0,0,138.5,64a5.318,5.318,0,0,0-2.016,1.755,5.258,5.258,0,0,0-.783,3.013,6.61,6.61,0,0,0,.4,2.443,4.637,4.637,0,0,0,1.067,1.684,4.1,4.1,0,0,0,1.613.949,6.21,6.21,0,0,0,1.969.308c.356,0,.688-.024,1-.047A2.075,2.075,0,0,0,142.609,73.99Z" transform="translate(-107.681 -51.284)" fill="#ff61f6"/>
        </g>
      </g>
    </g>
    <text id="Adobe_XD" data-name="Adobe XD" transform="translate(65.005 37.01)" fill="#470137" font-size="30" font-family="SegoeUI-Bold, Segoe UI" font-weight="700"><tspan x="0" y="0">Adobe XD</tspan></text>
  </g>
</svg>
