<svg xmlns="http://www.w3.org/2000/svg" width="86" height="86" viewBox="0 0 86 86">
  <g id="Group_29569" data-name="Group 29569" transform="translate(-1384 -2284)">
    <g id="Reusable_Components" data-name="Reusable Components" transform="translate(937 299)">
      <rect id="Rectangle_9404" data-name="Rectangle 9404" width="86" height="86" transform="translate(447 1985)" fill="rgba(255,255,255,0)"/>
    </g>
    <path id="Icon_material-attach-file" data-name="Icon material-attach-file" d="M39.221,16.616V51.384a12.093,12.093,0,1,1-24.186,0V13.593a7.558,7.558,0,1,1,15.116,0V45.337a3.023,3.023,0,1,1-6.047,0V16.616H19.57V45.337a7.558,7.558,0,0,0,15.116,0V13.593a12.093,12.093,0,0,0-24.186,0V51.384a16.628,16.628,0,0,0,33.256,0V16.616Z" transform="translate(1399.5 2292.605)" fill="#ffb623"/>
  </g>
</svg>
