<svg xmlns="http://www.w3.org/2000/svg" width="86" height="86" viewBox="0 0 86 86">
  <g id="Group_29566" data-name="Group 29566" transform="translate(-1388 -1944)">
    <g id="Reusable_Components" data-name="Reusable Components" transform="translate(941 -41)">
      <rect id="Rectangle_9404" data-name="Rectangle 9404" width="86" height="86" transform="translate(447 1985)" fill="rgba(255,255,255,0)"/>
    </g>
    <path id="Icon_awesome-balance-scale" data-name="Icon awesome-balance-scale" d="M29.917,39.267h0c0-1.891.157-1.02-9.939-21.212a5.614,5.614,0,0,0-10.035,0C-.241,38.419,0,37.435,0,39.267H0c0,5.163,6.7,9.349,14.959,9.349S29.917,44.43,29.917,39.267Zm-14.959-18.7L23.373,37.4H6.544Zm59.832,18.7c0-1.891.157-1.02-9.939-21.212a5.614,5.614,0,0,0-10.035,0c-10.181,20.365-9.938,19.381-9.938,21.212h0c0,5.163,6.7,9.349,14.959,9.349s14.959-4.186,14.959-9.349ZM51.421,37.4l8.414-16.829L68.249,37.4ZM61.7,52.355H41.136V17.91a9.356,9.356,0,0,0,5.421-6.691H61.7a1.869,1.869,0,0,0,1.87-1.87V5.61A1.869,1.869,0,0,0,61.7,3.74H44.834a9.265,9.265,0,0,0-14.875,0H13.089a1.869,1.869,0,0,0-1.87,1.87v3.74a1.869,1.869,0,0,0,1.87,1.87H28.236a9.356,9.356,0,0,0,5.421,6.691V52.355H13.089a1.869,1.869,0,0,0-1.87,1.87v3.74a1.869,1.869,0,0,0,1.87,1.87H61.7a1.869,1.869,0,0,0,1.87-1.87v-3.74A1.869,1.869,0,0,0,61.7,52.355Z" transform="translate(1394.103 1957.082)" fill="#ffb623"/>
  </g>
</svg>
