<svg xmlns="http://www.w3.org/2000/svg" width="86" height="86" viewBox="0 0 86 86">
  <g id="Group_29565" data-name="Group 29565" transform="translate(-920 -1944)">
    <g id="Reusable_Components" data-name="Reusable Components" transform="translate(473 -41)">
      <rect id="Rectangle_9404" data-name="Rectangle 9404" width="86" height="86" transform="translate(447 1985)" fill="rgba(255,255,255,0)"/>
    </g>
    <path id="Union_18" data-name="Union 18" d="M32.675,60.823a32.5,32.5,0,0,1-9.316-3.753,7.677,7.677,0,0,0-1.664-8.709,8.247,8.247,0,0,0-8.974-1.6A31.211,31.211,0,0,1,8.87,37.705a7.873,7.873,0,0,0,5.172-7.3,7.613,7.613,0,0,0-1.31-4.274l14.884,7.127A13.1,13.1,0,0,0,53.4,30.438a12.645,12.645,0,0,0-6.572-11l0-.006h-.014A13.429,13.429,0,0,0,33.9,19.419l-12.53-6.656c.113-.1.228-.2.343-.312a7.7,7.7,0,0,0,1.664-8.693A32.6,32.6,0,0,1,32.692.006a7.979,7.979,0,0,0,7.505,5,7.978,7.978,0,0,0,7.505-5,32.453,32.453,0,0,1,9.316,3.753,7.625,7.625,0,0,0,1.664,8.693,8.123,8.123,0,0,0,5.695,2.28,8.291,8.291,0,0,0,3.263-.665,30.572,30.572,0,0,1,3.867,9.041,7.752,7.752,0,0,0,.016,14.614,30.456,30.456,0,0,1-3.867,9.041,8.34,8.34,0,0,0-3.279-.681,8.179,8.179,0,0,0-5.695,2.28,7.631,7.631,0,0,0-1.664,8.709,32.262,32.262,0,0,1-9.3,3.753,8.146,8.146,0,0,0-15.044,0h0Zm3.885-23.311a7.811,7.811,0,0,1-4.307-7.037L1.934,15.621A3.449,3.449,0,0,1,.387,10.943a3.57,3.57,0,0,1,4.76-1.521L35.454,24.271a8.056,8.056,0,0,1,8.337-.707A7.82,7.82,0,0,1,48.123,30a.662.662,0,0,1-.965.623l-5.183-2.595L38.6,29.748l.566,3.7,5.183,2.595a.648.648,0,0,1,.047,1.137,8.08,8.08,0,0,1-7.834.333ZM3.131,11.282a1.3,1.3,0,0,0-.852,1.643,1.333,1.333,0,0,0,1.673.838A1.3,1.3,0,0,0,4.8,12.12a1.326,1.326,0,0,0-1.262-.9A1.347,1.347,0,0,0,3.131,11.282Z" transform="translate(998.523 2017.822) rotate(180)" fill="#ffb623"/>
  </g>
</svg>
