<svg xmlns="http://www.w3.org/2000/svg" width="86" height="86" viewBox="0 0 86 86">
  <g id="Group_29568" data-name="Group 29568" transform="translate(-917 -2284)">
    <g id="Reusable_Components" data-name="Reusable Components" transform="translate(470 299)">
      <rect id="Rectangle_9404" data-name="Rectangle 9404" width="86" height="86" transform="translate(447 1985)" fill="rgba(255,255,255,0)"/>
    </g>
    <path id="Icon_awesome-exclamation-circle" data-name="Icon awesome-exclamation-circle" d="M65.594,33.078A32.516,32.516,0,1,1,33.078.562,32.514,32.514,0,0,1,65.594,33.078ZM33.078,39.634a6.031,6.031,0,1,0,6.031,6.031A6.031,6.031,0,0,0,33.078,39.634ZM27.352,17.955l.973,17.831A1.573,1.573,0,0,0,29.9,37.274h6.365a1.573,1.573,0,0,0,1.571-1.488L38.8,17.955A1.573,1.573,0,0,0,37.233,16.3h-8.31A1.573,1.573,0,0,0,27.352,17.955Z" transform="translate(927.359 2294.359)" fill="#ffb623"/>
  </g>
</svg>
