<svg xmlns="http://www.w3.org/2000/svg" width="86" height="86" viewBox="0 0 86 86">
  <g id="Group_29564" data-name="Group 29564" transform="translate(-446 -1944)">
    <rect id="Rectangle_9404" data-name="Rectangle 9404" width="86" height="86" transform="translate(446 1944)" fill="rgba(255,255,255,0)"/>
    <path id="Icon_awesome-ticket-alt" data-name="Icon awesome-ticket-alt" d="M16.457,16.843H57.6V41.528H16.457ZM67.885,29.186a6.171,6.171,0,0,0,6.171,6.171V47.7a6.171,6.171,0,0,1-6.171,6.171H6.171A6.171,6.171,0,0,1,0,47.7V35.357a6.171,6.171,0,0,0,6.171-6.171A6.171,6.171,0,0,0,0,23.014V10.671A6.171,6.171,0,0,1,6.171,4.5H67.885a6.171,6.171,0,0,1,6.171,6.171V23.014A6.171,6.171,0,0,0,67.885,29.186ZM61.714,15.814a3.086,3.086,0,0,0-3.086-3.086h-43.2a3.086,3.086,0,0,0-3.086,3.086V42.557a3.086,3.086,0,0,0,3.086,3.086h43.2a3.086,3.086,0,0,0,3.086-3.086Z" transform="translate(452 1957.5)" fill="#ffb623"/>
  </g>
</svg>
