<svg xmlns="http://www.w3.org/2000/svg" width="86" height="86" viewBox="0 0 86 86">
  <g id="Group_29567" data-name="Group 29567" transform="translate(-446 -2285)">
    <rect id="Rectangle_9404" data-name="Rectangle 9404" width="86" height="86" transform="translate(446 2285)" fill="rgba(255,255,255,0)"/>
    <path id="Union_19" data-name="Union 19" d="M4965.682,24286.361a4.963,4.963,0,0,0-4.645,3.1,20.068,20.068,0,0,1-5.767-2.322,4.754,4.754,0,0,0-1.03-5.383,5.036,5.036,0,0,0-3.53-1.414,5.144,5.144,0,0,0-2.018.414,19.154,19.154,0,0,1-2.4-5.6,4.8,4.8,0,0,0-.006-9.051,18.82,18.82,0,0,1,2.39-5.59,5.311,5.311,0,0,0,2.03.414,5.064,5.064,0,0,0,3.53-1.408,4.745,4.745,0,0,0,1.03-5.389,20.005,20.005,0,0,1,5.754-2.328,5.044,5.044,0,0,0,9.314,0,20.153,20.153,0,0,1,5.767,2.328,4.726,4.726,0,0,0,1.03,5.389,5.028,5.028,0,0,0,3.523,1.408,5.08,5.08,0,0,0,2.03-.414,19.129,19.129,0,0,1,2.383,5.6,4.793,4.793,0,0,0-.006,9.039,19.113,19.113,0,0,1-2.4,5.6,5.192,5.192,0,0,0-2.018-.414,5.078,5.078,0,0,0-3.529,1.414,4.751,4.751,0,0,0-1.03,5.383,20.209,20.209,0,0,1-5.767,2.322A4.964,4.964,0,0,0,4965.682,24286.361Zm-8.168-15.74a8.084,8.084,0,1,0,8.077-7.84A7.957,7.957,0,0,0,4957.514,24270.621Zm4.56,4.475a5.494,5.494,0,0,1,6.5-8.783v5.869a2.9,2.9,0,0,1-2.914,2.914Zm-19.439,0h-17.727a2.913,2.913,0,0,1-2.908-2.914v-56.271a2.914,2.914,0,0,1,2.908-2.912h24.262v16.494a2.912,2.912,0,0,0,2.908,2.914h16.5v15.3a24.216,24.216,0,0,0-2.792-.164,23.453,23.453,0,0,0-8.863,1.725,1.455,1.455,0,0,0-1.451-1.336H4935.1a1.447,1.447,0,0,0-1.451,1.451v.971a1.452,1.452,0,0,0,1.451,1.457h17.178a23.6,23.6,0,0,0-3.109,2.621c-.4.4-.8.822-1.177,1.262H4935.1a1.452,1.452,0,0,0-1.451,1.457v.969a1.452,1.452,0,0,0,1.451,1.457h10.168a23.648,23.648,0,0,0-2.627,15.52Zm-8.985-33.479v.982a1.45,1.45,0,0,0,1.451,1.449h20.373a1.455,1.455,0,0,0,1.457-1.449v-.982a1.455,1.455,0,0,0-1.457-1.451H4935.1A1.45,1.45,0,0,0,4933.648,24241.617Zm19.4-13.094V24213h.744a2.885,2.885,0,0,1,2.061.854l11.875,11.881a2.886,2.886,0,0,1,.854,2.053v.738Z" transform="translate(-4464.999 -21923)" fill="#ffb623"/>
  </g>
</svg>
