<svg xmlns="http://www.w3.org/2000/svg" width="25.382" height="17.915" viewBox="0 0 25.382 17.915">
  <g id="Group_28549" data-name="Group 28549" transform="translate(-144.618 -22)">
    <path id="Icon_zocial-email" data-name="Icon zocial-email" d="M.072,17.662V5.389q0-.021.064-.4l7.223,6.179-7.2,6.925a1.806,1.806,0,0,1-.085-.426Zm.959-13.53a.918.918,0,0,1,.362-.064H20.847a1.207,1.207,0,0,1,.384.064l-7.245,6.2-.959.767-1.9,1.555L9.234,11.1l-.959-.767Zm.021,14.787,7.266-6.968,2.813,2.28,2.813-2.28,7.266,6.968a1.023,1.023,0,0,1-.362.064H1.393a.965.965,0,0,1-.341-.064ZM14.9,11.163l7.2-6.179a1.272,1.272,0,0,1,.064.4V17.662a1.633,1.633,0,0,1-.064.426Z" transform="translate(144.546 20.932)" fill="#fff"/>
    <circle id="Ellipse_928" data-name="Ellipse 928" cx="4" cy="4" r="4" transform="translate(162 22)" fill="red"/>
  </g>
</svg>
