<svg xmlns="http://www.w3.org/2000/svg" width="647.762" height="443.867" viewBox="0 0 647.762 443.867">
  <g id="Group_28815" data-name="Group 28815" transform="translate(-315.678 -867.798)">
    <path id="Path_41267" data-name="Path 41267" d="M500.014,1111.283c25.22-.995,13.657,37.632,10.142,47.906a156.414,156.414,0,0,1,18.665,17.749c-.636-13.2-9.206-22.234-7.175-30.661,2.277-9.448,10.573-17.822,18.789-2.387,6.51,12.23-4.673,28.947-9.6,35.366a142.091,142.091,0,0,1,18.667,27.787c1.381-15.355-7.368-27-4.071-36.329,3.609-10.213,13.643-18.366,20.747.025,5.872,15.2-9.806,33.095-15.424,38.847a84.972,84.972,0,0,1,4.866,12.124,276.931,276.931,0,0,1,6.735,27.281c1.514-13.5-3.983-25.052.044-33.134,4.834-9.7,15.677-16.344,20.246,3.219,3.615,15.479-12.357,30.393-19.19,35.952a273.9,273.9,0,0,1,3.816,52.4c5.4-11.537,5.656-31.542,13.862-40.488,5.384-5.868,10.472-5.143,13.813-3.48a10.185,10.185,0,0,1,5.35,7.671c3.225,19.456-24.567,35.037-33.107,39.332a276.307,276.307,0,0,1-6.742,52.012c2.836-5.944,7.081-14.936,9.1-19.7,3.185-7.5,10.935-16.169,17.928-17.5q.437-.083.855-.132c5.325-.634,9.729,3.334,10.667,8.939,3.67,21.924-32.106,31.971-39.864,33.883-.025.1-.049.2-.075.3-9.18,36.436-22.473,58.274-23.034,59.185l-2.886-1.941c.13-.211,12.77-21.01,21.742-54.988-26.367-19.581-24.155-42.738-16.577-47.542,7.83-4.964,20.246-1.38,18.019,14.985-1.292,9.492-.652,19.573.112,26.372a271.763,271.763,0,0,0,7.177-53.023c-42.276-10.965-31.041-39.751-20.127-41.789,11.048-2.064,15.087,5.3,15.628,18.92a57.658,57.658,0,0,0,4.583,20.2,270.1,270.1,0,0,0-3.566-51.462c-7.62,3.314-27.548,10.347-36.332-2.184-10.978-15.661-.108-22.241,9.427-21.291,8.767.873,13.788,15.312,26.449,20.815a272.82,272.82,0,0,0-7.45-31.3c-.049-.175-2.788-9.423-10.514-22.239-7.352,4.335-26.42,13.843-36.65,2.848-12.848-13.809-2.69-21.764,7-22.16,8.647-.353,15.232,12.3,27.824,16.36a148.676,148.676,0,0,0-31.6-35.3c-7.654,4.44-26.183,13.365-36.209,2.589-12.848-13.809-2.69-21.765,7-22.16,8.768-.357,15.412,12.662,28.355,16.533l.239-.342c-2.939-4.254-9.2-13.254-12.421-17.369-4.293-5.491-6.976-15.631-4.15-22.6A13.1,13.1,0,0,1,500.014,1111.283Z" transform="translate(-94.817 -153.54)" fill="#93e3f1" opacity="0.2"/>
    <g id="Group_28793" data-name="Group 28793" transform="translate(315.678 996.879)">
      <g id="Group_28789" data-name="Group 28789" transform="translate(0 60.383)">
        <g id="Group_28784" data-name="Group 28784" transform="translate(49.76)">
          <path id="Path_41268" data-name="Path 41268" d="M538.032,1587.5s58.027-53.562,38.035-71.335c0,0-2.52-7.906-24.271,12.487,0,0-10.856.976-8.644-11.7s22.977-27.5,14.851-41.06-17.911,4.592-26.166,6.4,6.367-47.231-2.744-55.226-16.294,10.991-22.572,11.815-10.379-61.732-40.345-57.968-3.324,33.609,6.9,50.478-15.4,2.357-22.082,18.867,45.119,15.092,36.979,30.729-19.977,2.51-25.363,14.367c-8.706,19.171,43.886,12.061,39.7,25.722-3.339,10.895-19.216-.9-22.992,7.219S499,1574.972,538.032,1587.5Z" transform="translate(-450.401 -1380.756)" fill="#9feef7"/>
          <path id="Path_41269" data-name="Path 41269" d="M578.005,1519.28c-.167-.2-.342-.394-.525-.587-1.42,2.449-3.088,5.093-5.014,7.794-7.075,9.926-19.172,22.675-36.689,27.274a291.067,291.067,0,0,0-8.3-32.81c9.767-24.248,21.181-36.269,29.038-42.083.681-.5,1.345-.967,2-1.4q-.208-.34-.418-.652c-.632.423-1.279.874-1.941,1.363-7.863,5.8-19.241,17.734-29.022,41.656-.016-.049-.03-.1-.045-.145-3.748-11.877-8.37-24.415-13.817-37.5a200.739,200.739,0,0,1,4.041-24.936c2.1-9.172,5.53-20.661,10.8-29.573a7.164,7.164,0,0,0-.673-.329c-5.293,9-8.734,20.514-10.841,29.715a205.832,205.832,0,0,0-3.928,23.688q-6.27-14.943-13.946-30.776c-14.254-29.391-28.764-53.983-36.411-66.437-.255.07-.5.143-.746.218,7.6,12.366,22.181,37.047,36.506,66.584,2.408,4.967,4.872,10.2,7.336,15.653a169.981,169.981,0,0,0-20.6-7.778,145.624,145.624,0,0,0-33.131-6.317c-.016.04-.034.079-.05.119-.089.221-.166.439-.235.653a144.585,144.585,0,0,1,33.2,6.3,164.14,164.14,0,0,1,21.312,8.116c5.44,12.092,10.859,25.194,15.668,38.677-16.451-6.606-44.846-7.248-58.912-7.115-.082.269-.15.533-.206.791,14.117-.143,43.15.481,59.471,7.314,6.8,19.2,12.322,39.143,14.876,58-14.74-1.156-30.079-12.223-40.4-21.364a182.154,182.154,0,0,1-15.1-15.128,4.674,4.674,0,0,0-.545.53,182.967,182.967,0,0,0,15.162,15.2c10.443,9.252,26,20.462,40.986,21.565a153.115,153.115,0,0,1,1.385,23.575c.123.04.243.083.366.122,0,0,.13-.12.374-.349a170.2,170.2,0,0,0-3.1-34.37q1.713-.448,3.4-1.007a59.812,59.812,0,0,0,18.562-10.257,81.272,81.272,0,0,0,15.18-16.327C574.955,1524.293,576.6,1521.7,578.005,1519.28Z" transform="translate(-451.018 -1382.512)" fill="#fff" opacity="0.64" style="mix-blend-mode: color-dodge;isolation: isolate"/>
        </g>
        <path id="Path_41270" data-name="Path 41270" d="M498.376,1741.28s-8.654-50.235-60.526-80.93l1.434,18.709-7.415-21.113s-30.825-16.471-55.165-21.786c0,0,29.261,52.237,38.909,61.426l17.1,4.8L418.3,1708.9s15.681,29.482,41.636,42.412S498.376,1741.28,498.376,1741.28Z" transform="translate(-354.164 -1541.825)" fill="#c4f3fb"/>
        <g id="Group_28788" data-name="Group 28788" transform="translate(0 143.492)">
          <g id="Group_28787" data-name="Group 28787">
            <g id="Group_28785" data-name="Group 28785">
              <path id="Path_41271" data-name="Path 41271" d="M315.678,1788.2c6.931,15.953,16.082,27.446,26.326,35.612,5.95-3.889,13.118-8.369,13.118-8.369l-5.817,13.533c41.759,26.1,96.2,5.443,96.2,5.443-14.691-35.349-33.131-52.913-51.462-60.425-3.216,4.094-7.936,10.243-7.936,10.243l1.938-12.358a66.786,66.786,0,0,0-26.7-2.149c-.971,6.428-2.229,13.7-2.229,13.7l-5.843-12.353A103.676,103.676,0,0,0,315.678,1788.2Z" transform="translate(-315.678 -1769.25)" fill="#c4f3fb"/>
            </g>
            <g id="Group_28786" data-name="Group 28786">
              <path id="Path_41272" data-name="Path 41272" d="M394.047,1773.992c-3.216,4.094-7.936,10.243-7.936,10.243l1.938-12.358a66.786,66.786,0,0,0-26.7-2.149c-.971,6.428-2.229,13.7-2.229,13.7l-5.843-12.353a103.676,103.676,0,0,0-37.6,17.126c46.369,35.281,129.832,46.219,129.832,46.219C430.818,1799.068,412.379,1781.5,394.047,1773.992Z" transform="translate(-315.678 -1769.25)" fill="#9feef7"/>
            </g>
          </g>
        </g>
      </g>
      <g id="Group_28792" data-name="Group 28792" transform="translate(449.318)">
        <path id="Path_41273" data-name="Path 41273" d="M1546.648,1486.977s-37.045-76.559,7.39-172.593l16.372,26.622-10.13-36.172s28.15-54.694,57.953-87.56c0,0,9.348,101.033,4.513,123.563l-19.882,24.516,27.159-6.492s6.476,56.142-18.151,100.933S1546.648,1486.977,1546.648,1486.977Z" transform="translate(-1532.173 -1217.274)" fill="#c4f3fb"/>
        <g id="Group_28790" data-name="Group 28790" transform="translate(24.913 92.188)">
          <path id="Path_41274" data-name="Path 41274" d="M1765.89,1467.571c2.134,29.225-2.814,53.9-12.166,74.689-12.436-.473-27.251-.746-27.251-.746l20.054,14.609c-43.955,74.3-145.636,91.67-145.636,91.67-5.769-64.178,8.74-105.764,31.237-132.645,8.337,3.151,20.687,7.981,20.687,7.981l-13.051-16.278a127.674,127.674,0,0,1,39.9-26.369c6.733,8.5,14.592,17.971,14.592,17.971l-.909-23.044A191.04,191.04,0,0,1,1765.89,1467.571Z" transform="translate(-1599.623 -1466.868)" fill="#c4f3fb"/>
          <path id="Path_41275" data-name="Path 41275" d="M1632.128,1515.149c8.337,3.151,20.687,7.981,20.687,7.981l-13.051-16.278a127.674,127.674,0,0,1,39.9-26.369c6.733,8.5,14.592,17.971,14.592,17.971l-.909-23.044a191.04,191.04,0,0,1,72.542-7.84c-43.7,91.656-165,180.222-165,180.222C1595.122,1583.616,1609.632,1542.029,1632.128,1515.149Z" transform="translate(-1599.623 -1466.868)" fill="#9feef7"/>
        </g>
        <g id="Group_28791" data-name="Group 28791" transform="translate(49.309 193.158)">
          <path id="Path_41276" data-name="Path 41276" d="M1812.35,1742.271a119.289,119.289,0,0,0-49.57,1.194c-2.183,6.8-4.967,14.882-4.967,14.882l-5.22-11.974c-55.665,18.521-86.919,72.587-86.919,72.587,39.358,7.8,68.5,2.927,89.956-7.361-.325-4.766-.909-11.836-.909-11.836l7.67,8.284a102.307,102.307,0,0,0,24.6-19.8c-4.022-4.281-8.431-9.246-8.431-9.246l14.363,2.169C1808.047,1761.506,1812.35,1742.271,1812.35,1742.271Z" transform="translate(-1665.674 -1740.236)" fill="#9feef7"/>
          <path id="Path_41277" data-name="Path 41277" d="M1755.63,1815.076c-.325-4.766-.909-11.836-.909-11.836l7.67,8.284a102.31,102.31,0,0,0,24.6-19.8c-4.022-4.281-8.431-9.246-8.431-9.246l14.363,2.169c15.12-19.669,19.423-38.9,19.423-38.9-66.571,17.118-146.676,76.689-146.676,76.689C1705.032,1830.238,1734.175,1825.364,1755.63,1815.076Z" transform="translate(-1665.674 -1743.711)" fill="#c4f3fb"/>
        </g>
      </g>
      <path id="Path_41278" data-name="Path 41278" d="M1003.891,1949.243s-13.711,15.746-43.919,17.477-40.429-4.347-85.353.953-60.018,21.6-115.343,24.974c-77.866,4.748-108.49-8.359-179.19-11.294-47.287-1.963-70.4,3.666-107.665-1.963-44.539-6.726-56.649-29.535-56.649-29.535H447Z" transform="translate(-378.802 -1678.887)" fill="#73cabe"/>
      <path id="Path_41279" data-name="Path 41279" d="M347.849,1940.825H978.659a3.109,3.109,0,0,1,3.109,3.109h0a3.109,3.109,0,0,1-3.109,3.109H347.849a3.109,3.109,0,0,1-3.109-3.109h0A3.109,3.109,0,0,1,347.849,1940.825Z" transform="translate(-334.006 -1673.578)" fill="#10115a"/>
    </g>
    <g id="Group_28814" data-name="Group 28814" transform="translate(452.67 867.798)">
      <g id="Group_28803" data-name="Group 28803" transform="translate(0 1.13)">
        <path id="Path_41280" data-name="Path 41280" d="M943.028,1383.7c1.554,4.354,3.038,7.512.161,8.717-2.551,1.068-9.29.233-9.29.233-2.176-2.332.965-8.64.965-8.64A30.928,30.928,0,0,1,943.028,1383.7Z" transform="translate(-842.065 -1194.192)" fill="#ffc0bb"/>
        <path id="Path_41281" data-name="Path 41281" d="M913.385,1041.984s23.5,15.668,20.63,126.683c-4.509,2.8-11.27,1.408-11.27,1.408s-3.218-56.958-8.451-79.918C908.752,1065.837,913.385,1041.984,913.385,1041.984Z" transform="translate(-828.468 -978.777)" fill="#e8a33b"/>
        <rect id="Rectangle_9302" data-name="Rectangle 9302" width="58.306" height="42.691" rx="4.398" transform="translate(124.174 195.971) rotate(180)" fill="#ff5b7e"/>
        <path id="Path_41282" data-name="Path 41282" d="M940.515,1390.583c-.27-4.431-5.718-6.906-9.058-6.252s-6.255,8-4.739,9.05S940.435,1392.8,940.515,1390.583Z" transform="translate(-837.761 -1194.612)" fill="#ffc0bb"/>
        <path id="Rectangle_9303" data-name="Rectangle 9303" d="M2.332,0h0A2.332,2.332,0,0,1,4.665,2.332V18.669A2.333,2.333,0,0,1,2.332,21h0A2.332,2.332,0,0,1,0,18.67V2.332A2.332,2.332,0,0,1,2.332,0Z" transform="translate(126.507 185.127) rotate(180)" fill="#a3a3a3"/>
        <path id="Path_41283" data-name="Path 41283" d="M889.705,1885.352v-9.84l11.253-3.117,2.5,1.1.427,11.857-3.544,10.331Z" transform="translate(-814.678 -1502.472)" fill="#ffc0bb"/>
        <path id="Path_41284" data-name="Path 41284" d="M882.607,1329.747l-7.984,194.667H856.029l-16.384-147.138,21.481-65.921Z" transform="translate(-783.108 -1148.655)" fill="#122f5b"/>
        <path id="Path_41285" data-name="Path 41285" d="M695.027,1885.352v-9.84l11.252-3.117,2.5,1.1.427,11.857-3.543,10.331Z" transform="translate(-691.905 -1502.472)" fill="#ffc0bb"/>
        <path id="Path_41286" data-name="Path 41286" d="M1060.372,1211.43a.553.553,0,0,0,.218.948c3.284.889,13.6,3.754,13.56,4.641-.043,1.055-9.32-1.28-9.864-.464s8.563,2.864,8.336,3.985-8.469-1.027-8.729-.588,7.415,3.34,7.677,4.079-8.309-1.361-8.777-.918,4.965,3.858,4.726,4.359-.315.874-14.749-3.312l-5.612-1.891-3.749-4.018,2.806-5.982s18.08-6.875,18.728-6.411C1065.56,1206.3,1065.431,1206.943,1060.372,1211.43Z" transform="translate(-911.609 -1082.109)" fill="#ffc0bb"/>
        <path id="Path_41287" data-name="Path 41287" d="M779.513,1335.194,706.67,1529.448l-17.839-1.457s22.209-178.1,35.5-195.03,42.416-13.294,42.416-13.294Z" transform="translate(-687.998 -1153.689)" fill="#224887"/>
        <path id="Path_41288" data-name="Path 41288" d="M885.127,1023.13s-9,5.335-16.008,0h0l1.653-13.022,13.947-2.875.408,15.9Z" transform="translate(-801.696 -956.862)" fill="#ffc0bb"/>
        <path id="Path_41289" data-name="Path 41289" d="M886.735,1015.727l-.218-8.494-14.149,4.4-.4,3.184C875.109,1015.959,881.076,1017.343,886.735,1015.727Z" transform="translate(-803.494 -956.862)" fill="#fc8d84"/>
        <path id="Path_41290" data-name="Path 41290" d="M875.273,1093.626c-7.13,1.7-23.908.855-36.618-.144a242.24,242.24,0,0,0-1.428-27.171c-3.277-24.4-14.581-32.3-14.581-32.3a28.089,28.089,0,0,1-19.1-4.669c-15.109.182-23.847,8.377-23.847,8.377-23.213,20.029-5.643,61-5.643,61l-6.372,54.135c14.382,4.917,73.181,1.961,73.181,1.961a210.829,210.829,0,0,1-2.454-34.787c18.634-1.046,36.859-4.01,36.859-4.01C876,1112.018,875.273,1093.626,875.273,1093.626Z" transform="translate(-737.728 -970.806)" fill="#feb546"/>
        <path id="Path_41291" data-name="Path 41291" d="M848.641,1104.612a30.525,30.525,0,0,0,9.116,21.485,39.692,39.692,0,0,0,9.562,7,54.812,54.812,0,0,0,11.064,4.438c.479.14.95.308,1.433.43l1.456.358c.971.232,1.937.493,2.914.7l2.95.554,1.475.277,1.488.207c1.984.283,3.967.585,5.971.729l3,.278c1,.075,2.006.113,3.01.172a236.415,236.415,0,0,0,24.173-.146,157.109,157.109,0,0,1-24.224,1.424,93.6,93.6,0,0,1-24.107-3.414,55.036,55.036,0,0,1-11.341-4.65,39.156,39.156,0,0,1-9.741-7.474,32.478,32.478,0,0,1-3.772-4.867,33.6,33.6,0,0,1-2.721-5.507,31.712,31.712,0,0,1-1.511-5.924A23.113,23.113,0,0,1,848.641,1104.612Z" transform="translate(-788.706 -1018.273)" fill="#fff"/>
        <path id="Path_41292" data-name="Path 41292" d="M886.153,1234.486a204.8,204.8,0,0,1-26.743,4.081,181.2,181.2,0,0,1-27.1.476c-9.019-.616-18.1-1.961-26.647-5.139a46.227,46.227,0,0,1-12-6.422,29.936,29.936,0,0,1-8.72-10.3,31.006,31.006,0,0,0,9.193,9.645,48.138,48.138,0,0,0,11.961,5.868,82.509,82.509,0,0,0,12.987,3.207,126.135,126.135,0,0,0,13.334,1.5,216.634,216.634,0,0,0,26.9-.112q6.725-.416,13.439-1.121C877.233,1235.735,881.7,1235.152,886.153,1234.486Z" transform="translate(-748.608 -1089.268)" fill="#fff"/>
        <g id="Group_28797" data-name="Group 28797" transform="translate(71.175 378.546)">
          <path id="Path_41293" data-name="Path 41293" d="M913.859,1934.987l-32.755-.095a1.834,1.834,0,0,1-1.827-1.839h0a1.832,1.832,0,0,1,1.838-1.828l32.755.1a1.833,1.833,0,0,1,1.827,1.839h0A1.832,1.832,0,0,1,913.859,1934.987Z" transform="translate(-879.277 -1918.119)" fill="#122f5b"/>
          <path id="Path_41294" data-name="Path 41294" d="M881.746,1897.708l-1.237,10.194c-.152,1.257.548,2.4,1.471,2.4l32.094.093a2.34,2.34,0,0,0,2.1-1.493c.451-1,.546-2.513-.885-4.549-2.832-4.03-12.106-5.069-16.763-8.465a.548.548,0,0,0-.325-.108l-14.769-.043C882.6,1895.739,881.884,1896.571,881.746,1897.708Z" transform="translate(-880.041 -1895.741)" fill="#feb546"/>
          <g id="Group_28794" data-name="Group 28794" transform="translate(15.81 0.95)">
            <path id="Path_41295" data-name="Path 41295" d="M922.326,1903.32h0a.688.688,0,0,1-.18-.831c.634-1.4,2.614-4.791,6.62-4.081.232.041.387.349.347.666v.01c-.039.307-.248.508-.473.469-3.59-.623-5.273,2.37-5.787,3.54C922.744,1903.343,922.519,1903.44,922.326,1903.32Z" transform="translate(-922.082 -1898.312)" fill="#fff"/>
          </g>
          <g id="Group_28795" data-name="Group 28795" transform="translate(19.14 2.272)">
            <path id="Path_41296" data-name="Path 41296" d="M931.341,1906.9h0a.688.688,0,0,1-.18-.831c.635-1.4,2.614-4.791,6.62-4.081.232.041.387.349.347.666v.01c-.039.307-.249.508-.472.469-3.59-.623-5.274,2.37-5.786,3.539C931.758,1906.923,931.533,1907.021,931.341,1906.9Z" transform="translate(-931.096 -1901.893)" fill="#fff"/>
          </g>
          <g id="Group_28796" data-name="Group 28796" transform="translate(22.236 3.506)">
            <path id="Path_41297" data-name="Path 41297" d="M939.724,1910.242h0a.688.688,0,0,1-.18-.832c.634-1.4,2.614-4.791,6.619-4.081.232.041.387.349.348.666v.01c-.039.307-.248.508-.472.469-3.59-.624-5.274,2.369-5.787,3.539C940.142,1910.263,939.917,1910.36,939.724,1910.242Z" transform="translate(-939.479 -1905.233)" fill="#fff"/>
          </g>
        </g>
        <g id="Group_28801" data-name="Group 28801" transform="translate(0 378.546)">
          <path id="Path_41298" data-name="Path 41298" d="M721.157,1934.987l-32.755-.095a1.835,1.835,0,0,1-1.828-1.839h0a1.833,1.833,0,0,1,1.838-1.828l32.756.1a1.833,1.833,0,0,1,1.827,1.839h0A1.833,1.833,0,0,1,721.157,1934.987Z" transform="translate(-686.575 -1918.119)" fill="#122f5b"/>
          <path id="Path_41299" data-name="Path 41299" d="M689.045,1897.708l-1.237,10.194c-.152,1.257.548,2.4,1.471,2.4l32.094.093a2.339,2.339,0,0,0,2.1-1.493c.452-1,.546-2.513-.885-4.549-2.832-4.03-12.105-5.069-16.763-8.465a.547.547,0,0,0-.325-.108l-14.769-.043C689.9,1895.739,689.183,1896.571,689.045,1897.708Z" transform="translate(-687.34 -1895.741)" fill="#feb546"/>
          <g id="Group_28798" data-name="Group 28798" transform="translate(15.811 0.95)">
            <path id="Path_41300" data-name="Path 41300" d="M729.626,1903.32h0a.689.689,0,0,1-.18-.831c.634-1.4,2.614-4.791,6.62-4.081.232.041.388.349.347.666v.01c-.039.307-.248.508-.472.469-3.59-.623-5.273,2.37-5.787,3.54C730.043,1903.343,729.819,1903.44,729.626,1903.32Z" transform="translate(-729.381 -1898.312)" fill="#fff"/>
          </g>
          <g id="Group_28799" data-name="Group 28799" transform="translate(19.14 2.272)">
            <path id="Path_41301" data-name="Path 41301" d="M738.639,1906.9h0a.687.687,0,0,1-.18-.831c.634-1.4,2.614-4.791,6.619-4.081.232.041.388.349.347.666v.01c-.039.307-.248.508-.472.469-3.591-.623-5.274,2.37-5.787,3.539C739.056,1906.923,738.832,1907.021,738.639,1906.9Z" transform="translate(-738.394 -1901.893)" fill="#fff"/>
          </g>
          <g id="Group_28800" data-name="Group 28800" transform="translate(22.236 3.506)">
            <path id="Path_41302" data-name="Path 41302" d="M747.024,1910.242h0a.69.69,0,0,1-.181-.832c.634-1.4,2.614-4.791,6.62-4.081.232.041.388.349.348.666v.01c-.04.307-.249.508-.472.469-3.59-.624-5.273,2.369-5.787,3.539C747.44,1910.263,747.216,1910.36,747.024,1910.242Z" transform="translate(-746.778 -1905.233)" fill="#fff"/>
          </g>
        </g>
        <g id="Group_28802" data-name="Group 28802" transform="translate(50.574)">
          <path id="Path_41303" data-name="Path 41303" d="M936.824,915.34l-.021,12.254-6.537-15.3s5.21-3.629,5.616-2.672A44.971,44.971,0,0,1,936.824,915.34Z" transform="translate(-890.832 -895.201)" fill="#333"/>
          <path id="Path_41304" data-name="Path 41304" d="M937.856,953.735c-.739,2.44.244,4.9,2.2,5.489s4.132-.908,4.871-3.349-.245-4.9-2.2-5.49S938.6,951.294,937.856,953.735Z" transform="translate(-895.464 -920.93)" fill="#f99893"/>
          <path id="Path_41305" data-name="Path 41305" d="M869.055,923.543c0-.607.039-1.212.089-1.816a19.72,19.72,0,1,0-39.29.242,4.26,4.26,0,0,0-3.85.059c-2.233,1.258-2.768,4.542-1.2,7.334s4.658,4.035,6.891,2.776a3.757,3.757,0,0,0,.827-.638c1.876,9.525,10.446,16.213,19.878,15.175C861.681,945.655,869,938.382,869.055,923.543Z" transform="translate(-823.756 -889.494)" fill="#ffc0bb"/>
          <path id="Path_41306" data-name="Path 41306" d="M903.163,952.186c.214,1.11.394,2.2.619,3.257a7.353,7.353,0,0,0,1.058,2.8l.1.1a1.481,1.481,0,0,0,.127.13,2.687,2.687,0,0,1,.36.374,2.219,2.219,0,0,1,.452.978,2.331,2.331,0,0,1-.566,1.938,3.8,3.8,0,0,1-3.249,1.182,4.7,4.7,0,0,0,2.539-1.711,1.5,1.5,0,0,0,.226-1.182,1.248,1.248,0,0,0-.273-.5,1.679,1.679,0,0,0-.219-.219l-.169-.163-.19-.192a4.4,4.4,0,0,1-.808-1.7,9.194,9.194,0,0,1-.263-1.719A11.793,11.793,0,0,1,903.163,952.186Z" transform="translate(-873.049 -922.147)" fill="#f99893"/>
          <path id="Path_41307" data-name="Path 41307" d="M882.308,956.321a1.721,1.721,0,1,1-1.9-1.523A1.721,1.721,0,0,1,882.308,956.321Z" transform="translate(-858.423 -923.787)" fill="#333"/>
          <path id="Path_41308" data-name="Path 41308" d="M922.377,954.553a1.722,1.722,0,1,1-1.9-1.523A1.722,1.722,0,0,1,922.377,954.553Z" transform="translate(-883.692 -922.672)" fill="#333"/>
          <path id="Path_41309" data-name="Path 41309" d="M885.361,990.03a12.458,12.458,0,0,0,1.573.846,12.265,12.265,0,0,0,1.653.638,10.659,10.659,0,0,0,3.459.494,9.105,9.105,0,0,0,3.385-.793,12.814,12.814,0,0,0,2.959-1.951,10.924,10.924,0,0,1-1.29,1.26,9.929,9.929,0,0,1-1.516,1,8.492,8.492,0,0,1-1.706.665,9.061,9.061,0,0,1-1.817.267,9.415,9.415,0,0,1-3.586-.618A10.286,10.286,0,0,1,885.361,990.03Z" transform="translate(-862.513 -945.53)" fill="#f99893"/>
          <path id="Path_41310" data-name="Path 41310" d="M876.525,945.229a17.735,17.735,0,0,0-2.58-.2,8.728,8.728,0,0,0-2.37.32,8.09,8.09,0,0,0-2.176.961c-.373.184-.678.47-1.049.7-.352.251-.669.549-1.068.8a7.31,7.31,0,0,1,.576-1.254,5.853,5.853,0,0,1,.883-1.088,5.552,5.552,0,0,1,2.475-1.429,5.807,5.807,0,0,1,2.853-.069A5.3,5.3,0,0,1,876.525,945.229Z" transform="translate(-851.111 -916.873)" fill="#333"/>
          <path id="Path_41311" data-name="Path 41311" d="M912.947,943.513a5.3,5.3,0,0,1,2.294-1.539,5.811,5.811,0,0,1,2.841-.266,5.555,5.555,0,0,1,2.625,1.13,5.864,5.864,0,0,1,1,.978,7.19,7.19,0,0,1,.719,1.177c-.426-.207-.775-.467-1.155-.674-.394-.183-.731-.432-1.123-.571a8.081,8.081,0,0,0-2.274-.7,8.728,8.728,0,0,0-2.391-.041A17.79,17.79,0,0,0,912.947,943.513Z" transform="translate(-879.91 -915.495)" fill="#333"/>
          <path id="Path_41312" data-name="Path 41312" d="M868.077,879.629s5.748-.718-1.017-4.609-23.773-7.023-33.242.062c0,0-2.758-4.067-5.578-2.547s2.583,3.764,2.583,3.764-3.832.478-4.7,2.533c-.642,1.519,1.7,1.211,2.969.947-2.112.712-9.605,7.281-2.784,23.407,1.433-.56,7.958-14.165,7.958-14.165s21.039,7.7,17.779-.547c0,0,22.012,9.351,17.541-.536C869.585,887.938,877.424,887.285,868.077,879.629Z" transform="translate(-823.502 -870.857)" fill="#333"/>
          <path id="Path_41313" data-name="Path 41313" d="M831.1,921.25a3.708,3.708,0,0,1,3.452.28c1.938,1.1,2.5,5.931,2.5,5.931s9.059,4.008,4.655-18.3c-4.685-23.733-6.558,3-6.558,3Z" transform="translate(-828.292 -888.817)" fill="#333"/>
        </g>
      </g>
      <g id="Group_28813" data-name="Group 28813" transform="translate(171.662)">
        <path id="Path_41314" data-name="Path 41314" d="M1481.2,1889.14v-8.386l-9.59-2.657-2.134.938-.364,10.1,3.02,8.8Z" transform="translate(-1351.74 -1504.939)" fill="#ffc0bb"/>
        <path id="Path_41315" data-name="Path 41315" d="M1415.968,1934.579l33.194.316a1.022,1.022,0,0,0,1.032-1.014l.014-1.451a1.023,1.023,0,0,0-1.014-1.033l-33.193-.317a1.024,1.024,0,0,0-1.033,1.013l-.014,1.451A1.025,1.025,0,0,0,1415.968,1934.579Z" transform="translate(-1317.586 -1538.353)" fill="#333"/>
        <path id="Path_41316" data-name="Path 41316" d="M1448.769,1899.687l1.075,9.739c.133,1.2-.558,2.283-1.451,2.275l-31.054-.3a2.263,2.263,0,0,1-2.014-1.449c-.425-.961-.5-2.4.91-4.328,2.766-3.78,11.633-4.676,16.213-7.8a.97.97,0,0,1,.555-.171l14.158.135C1447.968,1897.8,1448.649,1898.6,1448.769,1899.687Z" transform="translate(-1317.649 -1517.274)" fill="#ff5b7e"/>
        <g id="Group_28804" data-name="Group 28804" transform="translate(110.667 381.207)">
          <path id="Path_41317" data-name="Path 41317" d="M1457.481,1904.729h0a.65.65,0,0,0,.184-.791c-.6-1.339-2.472-4.6-6.356-3.972-.224.036-.379.328-.344.631v.01c.034.293.234.487.451.453,3.481-.552,5.074,2.323,5.557,3.445C1457.078,1904.745,1457.294,1904.841,1457.481,1904.729Z" transform="translate(-1450.961 -1899.887)" fill="#333"/>
        </g>
        <g id="Group_28805" data-name="Group 28805" transform="translate(107.43 382.427)">
          <path id="Path_41318" data-name="Path 41318" d="M1448.717,1908.035h0a.65.65,0,0,0,.184-.791c-.6-1.339-2.472-4.6-6.356-3.972a.546.546,0,0,0-.344.632v.01c.034.293.234.487.451.452,3.481-.552,5.074,2.323,5.557,3.445C1448.313,1908.051,1448.53,1908.147,1448.717,1908.035Z" transform="translate(-1442.196 -1903.192)" fill="#333"/>
        </g>
        <g id="Group_28806" data-name="Group 28806" transform="translate(104.42 383.567)">
          <path id="Path_41319" data-name="Path 41319" d="M1440.566,1911.121h0a.651.651,0,0,0,.184-.792c-.6-1.338-2.472-4.6-6.356-3.972a.547.547,0,0,0-.344.631v.01c.034.293.234.487.451.452,3.481-.551,5.075,2.324,5.557,3.446C1440.163,1911.137,1440.379,1911.233,1440.566,1911.121Z" transform="translate(-1434.046 -1906.278)" fill="#333"/>
        </g>
        <path id="Path_41320" data-name="Path 41320" d="M1483.991,1919.7c2.228-5.8,5.47-7.086,7.7-7.189a.955.955,0,0,1,.988.85l.6,5.432c.133,1.2-.558,2.283-1.451,2.275l-6.946-.066A.957.957,0,0,1,1483.991,1919.7Z" transform="translate(-1361.083 -1526.642)" fill="#e87b50" opacity="0.3" style="mix-blend-mode: multiply;isolation: isolate"/>
        <path id="Path_41321" data-name="Path 41321" d="M1662.372,1889.14v-8.386l-9.59-2.657-2.134.938-.364,10.1,3.02,8.8Z" transform="translate(-1465.995 -1504.939)" fill="#ffc0bb"/>
        <path id="Path_41322" data-name="Path 41322" d="M1597.141,1934.579l33.193.316a1.022,1.022,0,0,0,1.033-1.014l.014-1.451a1.023,1.023,0,0,0-1.014-1.033l-33.193-.317a1.024,1.024,0,0,0-1.033,1.013l-.014,1.451A1.023,1.023,0,0,0,1597.141,1934.579Z" transform="translate(-1431.842 -1538.353)" fill="#333"/>
        <path id="Path_41323" data-name="Path 41323" d="M1629.941,1899.687l1.075,9.739c.133,1.2-.558,2.283-1.451,2.275l-31.054-.3a2.262,2.262,0,0,1-2.014-1.449c-.426-.961-.5-2.4.91-4.328,2.766-3.78,11.634-4.676,16.213-7.8a.969.969,0,0,1,.555-.171l14.158.135C1629.14,1897.8,1629.821,1898.6,1629.941,1899.687Z" transform="translate(-1431.904 -1517.274)" fill="#ff5b7e"/>
        <g id="Group_28807" data-name="Group 28807" transform="translate(177.584 381.207)">
          <path id="Path_41324" data-name="Path 41324" d="M1638.654,1904.729h0a.65.65,0,0,0,.184-.791c-.6-1.339-2.472-4.6-6.356-3.972-.224.036-.379.328-.344.631l0,.01c.033.293.233.487.451.453,3.481-.552,5.074,2.323,5.557,3.445C1638.25,1904.745,1638.467,1904.841,1638.654,1904.729Z" transform="translate(-1632.133 -1899.887)" fill="#333"/>
        </g>
        <g id="Group_28808" data-name="Group 28808" transform="translate(174.347 382.427)">
          <path id="Path_41325" data-name="Path 41325" d="M1629.889,1908.035h0a.651.651,0,0,0,.185-.791c-.6-1.339-2.472-4.6-6.356-3.972a.547.547,0,0,0-.344.632v.01c.034.293.234.487.451.452,3.48-.552,5.074,2.323,5.557,3.445C1629.486,1908.051,1629.7,1908.147,1629.889,1908.035Z" transform="translate(-1623.369 -1903.192)" fill="#333"/>
        </g>
        <g id="Group_28809" data-name="Group 28809" transform="translate(171.337 383.567)">
          <path id="Path_41326" data-name="Path 41326" d="M1621.739,1911.121h0a.651.651,0,0,0,.184-.792c-.6-1.338-2.472-4.6-6.356-3.972a.546.546,0,0,0-.343.631v.01c.033.293.234.487.451.452,3.481-.551,5.075,2.324,5.557,3.446C1621.335,1911.137,1621.551,1911.233,1621.739,1911.121Z" transform="translate(-1615.218 -1906.278)" fill="#333"/>
        </g>
        <path id="Path_41327" data-name="Path 41327" d="M1665.165,1919.7c2.227-5.8,5.469-7.086,7.7-7.189a.955.955,0,0,1,.988.85l.6,5.432c.133,1.2-.558,2.283-1.452,2.275l-6.945-.066A.956.956,0,0,1,1665.165,1919.7Z" transform="translate(-1475.339 -1526.642)" fill="#e87b50" opacity="0.3" style="mix-blend-mode: multiply;isolation: isolate"/>
        <path id="Path_41328" data-name="Path 41328" d="M1166.487,1210.536a.59.59,0,0,1-.315.989c-3.571.656-14.795,2.791-14.835,3.737-.047,1.125,10.029-.538,10.535.377s-9.364,2.29-9.219,3.5,9.1-.343,9.338.146-8.183,2.9-8.526,3.659,8.961-.713,9.419-.2-5.624,3.664-5.413,4.217.258.957,15.983-2.219l6.138-1.514,4.343-3.941-2.458-6.607s-18.627-8.905-19.358-8.469C1161.421,1204.624,1161.5,1205.32,1166.487,1210.536Z" transform="translate(-1151.337 -1079.944)" fill="#ffc0bb"/>
        <g id="Group_28811" data-name="Group 28811" transform="translate(25.982 69.117)">
          <g id="Group_28810" data-name="Group 28810">
            <path id="Path_41329" data-name="Path 41329" d="M1312.322,1054.928l-43.28,48.125-46.974,11.806s-1.417,6.532,1.173,15.6c.042.15,46.5-1.239,52.906-3.791,8.217-3.275,41.628-37.015,41.628-37.015Z" transform="translate(-1221.682 -1054.928)" fill="#f44e7a"/>
          </g>
        </g>
        <path id="Path_41330" data-name="Path 41330" d="M1519.7,899.978s4.6-19.314-6.071-26.642-22.027-6.608-29.782-2.325-12.466,19.386-9.045,28.061l25.707-8.064Z" transform="translate(-1354.616 -867.798)" fill="#07085b"/>
        <path id="Path_41331" data-name="Path 41331" d="M1533.638,1001.545l.888,21.83-19.147-1.752,3.049-19.165Z" transform="translate(-1380.918 -952.145)" fill="#ffc0bb"/>
        <path id="Path_41332" data-name="Path 41332" d="M1519.708,1011.573l1.45-9.114,15.209-.914.308,7.56C1533.534,1011.974,1527.986,1014.85,1519.708,1011.573Z" transform="translate(-1383.648 -952.145)" fill="#f99893"/>
        <path id="Path_41333" data-name="Path 41333" d="M1477.975,953.2c1.05,2.437.321,5.093-1.628,5.934s-4.38-.454-5.43-2.891-.321-5.093,1.627-5.934S1476.925,950.764,1477.975,953.2Z" transform="translate(-1352.576 -919.672)" fill="#f99893"/>
        <path id="Path_41334" data-name="Path 41334" d="M1481.927,918c-.073-.627-.182-1.247-.3-1.867a20.522,20.522,0,1,1,40.655-4.357,4.43,4.43,0,0,1,3.988-.39c2.457,1.039,3.395,4.372,2.1,7.444s-4.344,4.719-6.8,3.679a3.932,3.932,0,0,1-.93-.563c-.824,10.069-8.9,17.989-18.775,18.022C1492.147,940,1483.725,933.349,1481.927,918Z" transform="translate(-1359.388 -882.848)" fill="#ffc0bb"/>
        <path id="Path_41335" data-name="Path 41335" d="M1521.056,946.936c-.09,1.173-.149,2.32-.258,3.44a7.652,7.652,0,0,1-.766,3.02l-.094.119a1.436,1.436,0,0,1-.115.149,2.761,2.761,0,0,0-.328.429,2.308,2.308,0,0,0-.354,1.063,2.425,2.425,0,0,0,.812,1.938,3.958,3.958,0,0,0,3.5.841,4.889,4.889,0,0,1-2.826-1.471,1.56,1.56,0,0,1-.373-1.2,1.3,1.3,0,0,1,.225-.548,1.72,1.72,0,0,1,.2-.252l.156-.188.173-.221a4.576,4.576,0,0,0,.636-1.851,9.6,9.6,0,0,0,.071-1.808A12.277,12.277,0,0,0,1521.056,946.936Z" transform="translate(-1383.287 -917.706)" fill="#f99893"/>
        <path id="Path_41336" data-name="Path 41336" d="M1542.569,948.871a1.791,1.791,0,1,0,1.785-1.8A1.791,1.791,0,0,0,1542.569,948.871Z" transform="translate(-1398.066 -917.792)" fill="#333"/>
        <path id="Path_41337" data-name="Path 41337" d="M1500.93,951.743a1.791,1.791,0,1,0,1.785-1.8A1.792,1.792,0,0,0,1500.93,951.743Z" transform="translate(-1371.806 -919.604)" fill="#333"/>
        <path id="Path_41338" data-name="Path 41338" d="M1536.961,937.432a18.417,18.417,0,0,1,2.644-.514,9.1,9.1,0,0,1,2.489.053,8.386,8.386,0,0,1,2.362.738c.408.146.757.407,1.167.6.394.219.757.489,1.2.707a7.581,7.581,0,0,0-.743-1.229,6.1,6.1,0,0,0-1.04-1.022,5.785,5.785,0,0,0-2.727-1.187,6.032,6.032,0,0,0-2.957.263A5.509,5.509,0,0,0,1536.961,937.432Z" transform="translate(-1394.529 -910.494)" fill="#07085b"/>
        <path id="Path_41339" data-name="Path 41339" d="M1499.07,939.681a5.508,5.508,0,0,0-2.552-1.323,6.04,6.04,0,0,0-2.969.059,5.791,5.791,0,0,0-2.583,1.476,6.166,6.166,0,0,0-.923,1.129,7.452,7.452,0,0,0-.6,1.3c.417-.264.747-.573,1.114-.833.387-.236.706-.533,1.1-.722a8.39,8.39,0,0,1,2.27-.99,9.055,9.055,0,0,1,2.467-.323A18.443,18.443,0,0,1,1499.07,939.681Z" transform="translate(-1364.559 -912.197)" fill="#07085b"/>
        <path id="Path_41340" data-name="Path 41340" d="M1531.308,903.957a3.124,3.124,0,0,1,2.087-.935l-.506-6.256-1.925-3.777s-7.567-10.174-7.833-10.427-6.061-3.557-6.417-3.727-8.5,1.022-8.5,1.022-14.3-2.989-11.915,4.507,12.813,11.467,13.352,11.137c-1.69-1.685-1.844-6.452-1.844-6.452C1515.17,897.109,1529.134,903.061,1531.308,903.957Z" transform="translate(-1368.716 -874.748)" fill="#07085b"/>
        <path id="Path_41341" data-name="Path 41341" d="M1512.12,983.718a5.334,5.334,0,0,0,10.285.27Z" transform="translate(-1378.863 -940.903)" fill="#fff"/>
        <path id="Path_41342" data-name="Path 41342" d="M1528.548,1046.545l-26.958-.075-3.413,15.934,14.791,38.7s14.791-15.934,14.791-18.211,6.826-19.348,5.688-21.625S1528.548,1046.545,1528.548,1046.545Z" transform="translate(-1370.07 -980.477)" fill="#ffc0bb"/>
        <path id="Path_41343" data-name="Path 41343" d="M1447.435,1344.147c11.409,16.781,34.207,40.988,34.207,40.988h0l-10.51,162.606s-15.222,1.608-20.454-2.342C1450.678,1545.4,1446.69,1391.242,1447.435,1344.147Z" transform="translate(-1338.011 -1168.205)" fill="#1e1e1e"/>
        <path id="Path_41344" data-name="Path 41344" d="M1451.9,1332.622c.037-2.379-4.406,4.635-4.323,2.736,1.744-39.5,57.12-6.38,57.12-6.38l11.631-2.389,21.367,202.735s-13.9,3-21.861,0l-34.044-159.968S1469.606,1364.249,1451.9,1332.622Z" transform="translate(-1338.156 -1150.443)" fill="#3a2645"/>
        <g id="Group_28812" data-name="Group 28812" transform="translate(150.906 207.479)">
          <path id="Path_41345" data-name="Path 41345" d="M1577.08,1538.068c81.831-3.523,66.65,10.375,67-47.141l-77.594,1.729C1567.833,1527.719,1564.085,1537.065,1577.08,1538.068Z" transform="translate(-1564.056 -1468.25)" fill="#4f2305"/>
          <path id="Path_41346" data-name="Path 41346" d="M1658,1437.725l.225,9.356a1.836,1.836,0,0,1-1.791,1.88h0a1.836,1.836,0,0,1-1.88-1.792l-.218-9.013a4.779,4.779,0,0,0-4.893-4.663l-7.588.183a4.78,4.78,0,0,0-4.663,4.893l.218,9.013a1.837,1.837,0,0,1-1.792,1.88h0a1.836,1.836,0,0,1-1.88-1.791l-.226-9.356a8.4,8.4,0,0,1,8.191-8.6l7.7-.186A8.4,8.4,0,0,1,1658,1437.725Z" transform="translate(-1606.324 -1429.531)" fill="#4f2305"/>
          <path id="Path_41347" data-name="Path 41347" d="M1563.752,1482.987c.014-.005,64.344-1.431,74.015-1.65,5.419-.305,4.571-1.469,4.341-13.1.256-12.091,1.175-6.42-72.711-6.005-7.523.359-10.182-1.47-9.344,8.486C1560.482,1477.879,1558.94,1482.617,1563.752,1482.987Z" transform="translate(-1559.904 -1449.087)" fill="#632d07"/>
          <rect id="Rectangle_9304" data-name="Rectangle 9304" width="28.309" height="5.328" transform="matrix(1, -0.022, 0.022, 1, 25.915, 31.534)" fill="#feb546"/>
        </g>
        <path id="Path_41348" data-name="Path 41348" d="M1647.5,1412.811c.408-.231.847-.211,1.012.228.9,2.373,1.747,3.183,2.472,3.223,1.125.062,1.3-.9,1.88-.963.766-.077,1.272.549,2.118.418,1.013-.157.932-.934,1.4-1.215s1.064.4,1.924.058c.486-.192.539-.841.821-1.01.4-.242.831.661,1.589.194.5-.31,1.21-5.993-.455-11.72l-2.046-5.981-4.306-3.981-6.366,3.027s-3,8.646-3,11.97C1644.544,1411.372,1645.44,1413.976,1647.5,1412.811Z" transform="translate(-1462.376 -1198.422)" fill="#ffc0bb"/>
        <path id="Path_41349" data-name="Path 41349" d="M1523.3,1053.459s-13.453,8.149-24.122,0c0,0-6.067,16.021-5.491,16.6s6.9,17.84,6.9,18.415,7.479,7.481,10.93,2.3,5.753-4.6,10.355-15.538,8.054-14.387,6.9-15.538S1523.3,1053.459,1523.3,1053.459Z" transform="translate(-1367.216 -984.884)" fill="#3c2340"/>
        <path id="Path_41350" data-name="Path 41350" d="M1492.9,1046.47s27.306,2.276,32.995,11.381,19.342,61.46,18.2,77.394-11.378,46.664-11.378,46.664-9.1,1.138-12.515-4.553c0,0,6.826-43.249,5.689-46.664s-13.653-38.7-13.653-38.7l2.276,69.427s-27.306,17.072-70.541,3.414c0,0-5.689-112.676,9.1-116.09l13.653-2.276,5.689,33.006Z" transform="translate(-1335.209 -980.477)" fill="#ff5b7e"/>
      </g>
    </g>
  </g>
</svg>
