<svg xmlns="http://www.w3.org/2000/svg" width="50.726" height="50.727" viewBox="0 0 50.726 50.727">
  <path id="Icon_awesome-pencil-ruler" data-name="Icon awesome-pencil-ruler" d="M10.845,24.178,24.178,10.847,19.807,6.476,13.7,12.587a.785.785,0,0,1-1.111,0l-1.111-1.111a.785.785,0,0,1,0-1.111l6.111-6.111L14.253.921a3.142,3.142,0,0,0-4.444,0L.921,9.809a3.143,3.143,0,0,0,0,4.444l9.924,9.925ZM49.332,12.606a4.759,4.759,0,0,0,0-6.73L44.849,1.393a4.761,4.761,0,0,0-6.732,0L33.557,5.952,44.772,17.167ZM31.315,8.195,1.89,37.616.032,48.26a2.1,2.1,0,0,0,2.436,2.433l10.645-1.867L42.53,19.409Zm18.49,28.279L46.473,33.14l-6.111,6.111a.785.785,0,0,1-1.111,0L38.14,38.141a.786.786,0,0,1,0-1.111l6.111-6.111-4.373-4.373L26.545,39.877,36.473,49.8a3.142,3.142,0,0,0,4.444,0l8.888-8.887a3.142,3.142,0,0,0,0-4.444Z" transform="translate(0 0.001)" fill="#ffb623"/>
</svg>
