<svg xmlns="http://www.w3.org/2000/svg" width="64.223" height="66.56" viewBox="0 0 64.223 66.56">
  <g id="Group_28783" data-name="Group 28783" transform="translate(17659.844 15826.342)">
    <path id="Subtraction_38" data-name="Subtraction 38" d="M30.429,62.15H16.186a3.241,3.241,0,0,1-3.237-3.238V56H33.666v2.913A3.241,3.241,0,0,1,30.429,62.15Zm2.9-12.431H13.272a3.231,3.231,0,0,1-3.334-3.108V39.587a22.415,22.415,0,0,1-7.233-7.658A20.717,20.717,0,0,1,0,21.686a20.322,20.322,0,0,1,1.791-8.368A21.529,21.529,0,0,1,6.685,6.466,23.309,23.309,0,0,1,13.963,1.8,24.672,24.672,0,0,1,22.905,0V9.125A3.927,3.927,0,0,1,21.8,9.006a8.957,8.957,0,0,1-.858-.432A4.094,4.094,0,0,0,18.954,7.9a4.025,4.025,0,0,0-2.845,1.107A4.025,4.025,0,0,0,15,11.851,4.028,4.028,0,0,0,16.109,14.7,4.025,4.025,0,0,0,18.954,15.8a4.094,4.094,0,0,0,1.986-.674A8.941,8.941,0,0,1,21.8,14.7a2.864,2.864,0,0,1,1.107-.119v9.128h9.128a3.841,3.841,0,0,1-.119,1.107,8.944,8.944,0,0,1-.432.859,4.094,4.094,0,0,0-.674,1.986,3.953,3.953,0,1,0,7.9,0,4.094,4.094,0,0,0-.674-1.987,8.961,8.961,0,0,1-.432-.858,2.874,2.874,0,0,1-.118-1.107h9.03a21.486,21.486,0,0,1-9.856,15.881v7.024A3.231,3.231,0,0,1,33.326,49.719Z" transform="translate(-17659.844 -15821.933)" fill="#ffb623"/>
    <path id="Icon_open-puzzle-piece" data-name="Icon open-puzzle-piece" d="M11.855,0A4,4,0,0,0,9.01,1.106,4,4,0,0,0,7.9,3.952c0,1.106.711,1.9,1.106,2.845A2.847,2.847,0,0,1,9.128,7.9H0v23.71H9.128a3.9,3.9,0,0,0-.119-1.106c-.4-.948-1.106-1.739-1.106-2.845A4,4,0,0,1,9.01,24.816a4,4,0,0,1,2.845-1.106A4,4,0,0,1,14.7,24.816a4,4,0,0,1,1.106,2.845c0,1.106-.711,1.9-1.106,2.845a2.847,2.847,0,0,0-.119,1.106H23.71V22.485a3.9,3.9,0,0,1,1.106.119c.948.4,1.739,1.106,2.845,1.106a3.953,3.953,0,1,0,0-7.9c-1.106,0-1.9.711-2.845,1.106a2.847,2.847,0,0,1-1.106.119V7.9H14.581A3.9,3.9,0,0,1,14.7,6.8c.4-.948,1.106-1.739,1.106-2.845A4,4,0,0,0,14.7,1.106,4,4,0,0,0,11.855,0Z" transform="translate(-17595.621 -15794.729) rotate(180)" fill="#ffb623"/>
  </g>
</svg>
