<svg xmlns="http://www.w3.org/2000/svg" width="82.425" height="53.567" viewBox="0 0 82.425 53.567">
  <g id="Icon_ionic-ios-people" data-name="Icon ionic-ios-people" transform="translate(-2.215 -7.749)">
    <path id="Path_41264" data-name="Path 41264" d="M50.891,48.961c-2.056-.734-5.415-.771-6.9-1.34-1.028-.4-2.662-.844-3.194-1.487s-.532-5.232-.532-5.232a8.452,8.452,0,0,0,1.817-2.57,28.562,28.562,0,0,0,.881-5.048s1.212.514,1.689-1.909c.4-2.093,1.175-3.194.973-4.736-.22-1.542-1.065-1.175-1.065-1.175s1.065-1.56,1.065-6.866c0-5.47-4.13-10.849-11.859-10.849-7.71,0-11.877,5.4-11.877,10.849,0,5.305,1.046,6.866,1.046,6.866s-.863-.367-1.065,1.175c-.22,1.542.551,2.643.973,4.736.477,2.442,1.689,1.909,1.689,1.909a28.839,28.839,0,0,0,.881,5.048,8.452,8.452,0,0,0,1.817,2.57s0,4.589-.532,5.232S24.529,47.217,23.5,47.6c-1.469.569-4.828.643-6.9,1.377A12.956,12.956,0,0,0,8.191,61.315H59.28A12.93,12.93,0,0,0,50.891,48.961Z" transform="translate(9.627)" fill="#ffb623"/>
    <path id="Path_41265" data-name="Path 41265" d="M22.133,34.448s4.387-.147,6.131-1.707c-2.845-4.314-1.3-9.344-1.891-14.043-.587-4.681-3.249-7.49-8.573-7.49h-.073c-5.14,0-7.912,2.79-8.5,7.49-.587,4.681,1.046,10.28-1.872,14.043C9.1,34.32,13.5,34.265,13.5,34.265h0s.184,2.643-.184,3.084a4.635,4.635,0,0,1-2.2,1.01A42.592,42.592,0,0,0,6.364,39.68c-1.432.5-4.149,3.157-4.149,6.829H16.956c.4-1.469,3.176-4.094,5.874-5.47a12.327,12.327,0,0,1,4.534-.955s.7-1.1-1.6-1.524c0,0-3.157-.789-3.525-1.23C21.894,36.926,22.133,34.448,22.133,34.448Z" transform="translate(0 5.572)" fill="#ffb623"/>
    <path id="Path_41266" data-name="Path 41266" d="M29.939,34.448s-4.387-.147-6.131-1.707c2.845-4.314,1.3-9.344,1.891-14.043.587-4.681,3.249-7.49,8.573-7.49h.073c5.14,0,7.912,2.79,8.5,7.49.587,4.681-1.046,10.28,1.872,14.043-1.744,1.579-6.15,1.524-6.15,1.524h0s-.184,2.643.184,3.084a4.635,4.635,0,0,0,2.2,1.01,42.592,42.592,0,0,1,4.755,1.322c1.432.5,4.149,3.157,4.149,6.829H35.116c-.4-1.469-3.176-4.094-5.874-5.47a12.327,12.327,0,0,0-4.534-.955s-.7-1.1,1.6-1.524c0,0,3.157-.789,3.525-1.23C30.178,36.926,29.939,34.448,29.939,34.448Z" transform="translate(34.783 5.572)" fill="#ffb623"/>
  </g>
</svg>
