<svg xmlns="http://www.w3.org/2000/svg" width="57.281" height="40.612" viewBox="0 0 57.281 40.612">
  <path id="Icon_simple-upwork" data-name="Icon simple-upwork" d="M44.3,28.308a11.707,11.707,0,0,1-7.337-2.928l.544-2.568.019-.1c.494-2.728,2.026-7.3,6.776-7.3a6.45,6.45,0,1,1,0,12.9Zm0-19.428c-6.06,0-10.764,3.936-12.673,10.42A53.3,53.3,0,0,1,25.213,5.238h-6.53V22.212a6.077,6.077,0,1,1-12.153,0V5.238H0V22.212a12.607,12.607,0,1,0,25.213,0v-2.84a40.057,40.057,0,0,0,4.711,7.688L25.932,45.85h6.676l2.9-13.628a16.092,16.092,0,0,0,8.8,2.647,12.994,12.994,0,0,0,0-25.989Z" transform="translate(0 -5.238)" fill="#fff"/>
</svg>
