<svg xmlns="http://www.w3.org/2000/svg" width="42" height="42" viewBox="0 0 42 42">
  <g id="Group_28485" data-name="Group 28485" transform="translate(-764.309 -2365.309)">
    <circle id="Ellipse_925" data-name="Ellipse 925" cx="21" cy="21" r="21" transform="translate(764.309 2365.309)" fill="#fb0"/>
    <path id="Path_41109" data-name="Path 41109" d="M21.49,37.773q.611-.119,1.214-.273,1.023-.285,2.014-.671t1.941-.865A21.256,21.256,0,0,0,28.5,34.9q.894-.574,1.726-1.235a21.255,21.255,0,0,0,1.6-1.4q.761-.74,1.446-1.553a21.257,21.257,0,0,0,1.287-1.692q.6-.876,1.111-1.81T36.6,25.3q.415-.979.73-2,.269-.889.46-1.8L25.157,8.873A11.514,11.514,0,0,0,8.875,25.158Z" transform="translate(768.292 2369.294)" fill="#d89e01"/>
    <path id="Subtraction_36" data-name="Subtraction 36" d="M12,24A12,12,0,0,1,3.515,3.515a12,12,0,1,1,16.97,16.971A11.922,11.922,0,0,1,12,24ZM7.131,12.077a.692.692,0,0,0-.489,1.18l2.9,2.9a.691.691,0,0,0,.977,0l7.328-7.328a.691.691,0,1,0-.977-.977l-6.844,6.838L7.619,12.28A.682.682,0,0,0,7.131,12.077Z" transform="translate(773.309 2374.309)" fill="#fff"/>
  </g>
</svg>
