<svg xmlns="http://www.w3.org/2000/svg" width="42" height="42" viewBox="0 0 42 42">
  <g id="Group_28490" data-name="Group 28490" transform="translate(-814 -2400)">
    <path id="Path_41112" data-name="Path 41112" d="M21,0A21,21,0,1,1,0,21,21,21,0,0,1,21,0Z" transform="translate(814 2400)" fill="#bbb"/>
    <path id="Path_41109" data-name="Path 41109" d="M21.258,37.306q.6-.117,1.2-.269,1.008-.281,1.985-.661t1.913-.852a20.948,20.948,0,0,0,1.817-1.043q.881-.566,1.7-1.217a20.946,20.946,0,0,0,1.575-1.384q.75-.729,1.425-1.531a20.95,20.95,0,0,0,1.268-1.667q.592-.864,1.095-1.783t.91-1.886q.409-.965.719-1.967.265-.876.454-1.773L24.873,8.824A11.348,11.348,0,0,0,8.826,24.874Z" transform="translate(818.15 2404.152)" fill="#9e9e9e"/>
    <path id="Subtraction_37" data-name="Subtraction 37" d="M12,24A12,12,0,0,1,3.515,3.515a12,12,0,1,1,16.97,16.971A11.922,11.922,0,0,1,12,24Zm.2-10.871h0l2.655,2.656a.666.666,0,0,0,.929,0,.644.644,0,0,0,0-.929L13.13,12.2l2.656-2.656a.662.662,0,0,0-.463-1.126.656.656,0,0,0-.465.2L12.2,11.271,9.545,8.617a.656.656,0,1,0-.929.928L11.272,12.2,8.616,14.856a.649.649,0,0,0,0,.929.666.666,0,0,0,.929,0L12.2,13.129Z" transform="translate(823 2409)" fill="#fff"/>
  </g>
</svg>
